<?xml version="1.0" encoding="utf-8"?>
<!-- Generator: Adobe Illustrator 23.0.1, SVG Export Plug-In . SVG Version: 6.00 Build 0)  -->
<svg version="1.1" id="Layer_1" xmlns="http://www.w3.org/2000/svg" xmlns:xlink="http://www.w3.org/1999/xlink" x="0px" y="0px"
	 viewBox="0 0 200 200" style="enable-background:new 0 0 200 200;" xml:space="preserve">
<style type="text/css">
	.st0{fill:url(#SVGID_1_);}
	.st1{opacity:0.15;fill:#FFFFFF;}
	.st2{fill:#FFFFFF;}
</style>
<g>
	<linearGradient id="SVGID_1_" gradientUnits="userSpaceOnUse" x1="57.4913" y1="-4.4212" x2="161.6909" y2="251.5475">
		<stop  offset="1.331947e-07" style="stop-color:#7D00FF"/>
		<stop  offset="1" style="stop-color:#FFDF7F"/>
	</linearGradient>
	<path class="st0" d="M199.82,109.21c-0.23,6.13-0.69,12.27-1.37,18.41c-0.67,6.13-1.58,12.27-2.71,18.41
		c-0.01,0.09-0.03,0.19-0.05,0.29c-1.19,6.45-3.37,12.55-6.39,18.13c-1.69,3.13-3.65,6.1-5.84,8.87c-2.76,3.51-5.89,6.71-9.34,9.53
		c-7.87,6.46-17.37,11.01-27.81,12.93c-30.72,5.66-61.6,5.64-92.63-0.09c-10.41-1.93-19.9-6.43-27.76-12.84
		c-2.96-2.41-5.69-5.08-8.15-7.99c-2.72-3.21-5.11-6.7-7.13-10.42c-3.03-5.58-5.22-11.67-6.41-18.13c-0.02-0.1-0.03-0.19-0.05-0.29
		c-1.13-6.13-2.02-12.27-2.69-18.41c-0.67-6.13-1.11-12.26-1.33-18.41c-0.13-3.79-0.18-7.59-0.14-11.39
		c0.02-2.34,0.08-4.68,0.17-7.02c0.23-6.13,0.69-12.27,1.37-18.41c0.53-4.81,1.2-9.63,2.01-14.45c0.06-0.36,0.12-0.72,0.18-1.08
		c0.17-0.96,0.34-1.91,0.51-2.87c0.01-0.1,0.03-0.19,0.05-0.29c0.73-3.97,1.84-7.8,3.29-11.47c0.9-2.29,1.94-4.51,3.1-6.66
		c2-3.72,4.37-7.19,7.06-10.39c2.45-2.92,5.16-5.6,8.11-8.02c7.87-6.46,17.37-11,27.81-12.93c30.72-5.67,61.6-5.64,92.63,0.09
		c10.42,1.92,19.91,6.44,27.78,12.84c3.45,2.82,6.59,6,9.37,9.49c2.22,2.79,4.2,5.77,5.91,8.92c1.13,2.07,2.14,4.22,3.02,6.44
		c1.49,3.72,2.64,7.63,3.38,11.69c0.02,0.1,0.04,0.19,0.05,0.29c0.16,0.87,0.32,1.74,0.46,2.6c0.06,0.37,0.13,0.74,0.19,1.11
		c0.83,4.89,1.51,9.78,2.04,14.69c0.67,6.13,1.11,12.27,1.33,18.41c0.08,2.25,0.13,4.51,0.15,6.76
		C200.02,101.44,199.96,105.32,199.82,109.21z"/>
	<g>
		<path class="st1" d="M196.47,57.7c-28.09,17.37-61.19,27.39-96.64,27.39c-35.28,0-68.25-9.93-96.26-27.15
			c0.06-0.36,0.12-0.72,0.18-1.08c0.17-0.96,0.34-1.91,0.51-2.87c0.01-0.1,0.03-0.19,0.05-0.29c0.73-3.97,1.84-7.8,3.29-11.47
			c0.9-2.29,1.94-4.51,3.1-6.66c2-3.72,4.37-7.19,7.06-10.39c2.45-2.92,5.16-5.6,8.11-8.02c7.87-6.46,17.37-11,27.81-12.93
			c30.72-5.67,61.6-5.64,92.63,0.09c10.42,1.92,19.91,6.44,27.78,12.84c3.45,2.82,6.59,6,9.37,9.49c2.22,2.79,4.2,5.77,5.91,8.92
			c1.13,2.07,2.14,4.22,3.02,6.44c1.49,3.72,2.64,7.63,3.38,11.69c0.02,0.1,0.04,0.19,0.05,0.29c0.16,0.87,0.32,1.74,0.46,2.6
			C196.35,56.95,196.41,57.33,196.47,57.7z"/>
	</g>
	<g>
		<g>
			<path class="st2" d="M149.48,56.4c2.97,0,5.38,2.41,5.38,5.38c0,2.97-2.41,5.38-5.38,5.38H50.52c-2.97,0-5.38-2.41-5.38-5.38
				c0-2.97,2.41-5.38,5.38-5.38H149.48 M149.48,54.71H50.52c-3.9,0-7.07,3.17-7.07,7.07s3.17,7.07,7.07,7.07h98.95
				c3.9,0,7.07-3.17,7.07-7.07S153.38,54.71,149.48,54.71L149.48,54.71z"/>
			<path class="st2" d="M50.52,64.61c-1.56,0-2.83-1.27-2.83-2.83s1.27-2.83,2.83-2.83h59.58c1.56,0,2.83,1.27,2.83,2.83
				s-1.27,2.83-2.83,2.83H50.52z"/>
		</g>
		<g>
			<g>
				<g>
					<path class="st2" d="M109.22,123.96H57.55c-1.27,0-2.29-1.03-2.29-2.29V87.11c0-1.27,1.03-2.29,2.29-2.29h51.67
						c1.27,0,2.29,1.03,2.29,2.29v34.56C111.51,122.93,110.48,123.96,109.22,123.96z"/>
				</g>
				<path class="st2" d="M142.53,123.96h-23.54c-1.27,0-2.29-1.03-2.29-2.29V87.11c0-1.27,1.03-2.29,2.29-2.29h23.54
					c1.27,0,2.29,1.03,2.29,2.29v34.56C144.82,122.93,143.79,123.96,142.53,123.96z"/>
				<path class="st2" d="M142.53,145.29H57.55c-1.27,0-2.29-1.03-2.29-2.29v-11.57c0-1.27,1.03-2.29,2.29-2.29h84.97
					c1.27,0,2.29,1.03,2.29,2.29V143C144.82,144.27,143.79,145.29,142.53,145.29z"/>
			</g>
			<path class="st2" d="M67.5,79.63H57.37c-1.16,0-2.11-0.94-2.11-2.11v0c0-1.16,0.94-2.11,2.11-2.11H67.5
				c1.16,0,2.11,0.94,2.11,2.11v0C69.6,78.69,68.66,79.63,67.5,79.63z"/>
			<path class="st2" d="M92.57,79.63H82.44c-1.16,0-2.11-0.94-2.11-2.11v0c0-1.16,0.94-2.11,2.11-2.11h10.13
				c1.16,0,2.11,0.94,2.11,2.11v0C94.67,78.69,93.73,79.63,92.57,79.63z"/>
			<path class="st2" d="M117.64,79.63h-10.13c-1.16,0-2.11-0.94-2.11-2.11v0c0-1.16,0.94-2.11,2.11-2.11h10.13
				c1.16,0,2.11,0.94,2.11,2.11v0C119.75,78.69,118.8,79.63,117.64,79.63z"/>
			<path class="st2" d="M142.71,79.63h-10.13c-1.16,0-2.11-0.94-2.11-2.11v0c0-1.16,0.94-2.11,2.11-2.11h10.13
				c1.16,0,2.11,0.94,2.11,2.11v0C144.82,78.69,143.87,79.63,142.71,79.63z"/>
		</g>
	</g>
</g>
</svg>
