<svg width="139" height="9" viewBox="0 0 139 9" fill="none" xmlns="http://www.w3.org/2000/svg">
<path fill-rule="evenodd" clip-rule="evenodd" d="M0 8.72815L3.98931 0.00136745H7.0137L10.9992 8.72815H8.34474L7.61248 6.98065H3.33332L2.59724 8.72815H0ZM6.7698 5.08608L5.46546 2.03242L4.1573 5.08608H6.7698ZM11.2737 8.72679V0L14.9646 0.012897L17.1113 5.63938L19.2066 0H22.8679V8.72679H20.5491V2.29652L18.091 8.72679H16.0574L13.5926 2.29652V8.72679H11.2737ZM24.4544 8.72679V0H32.0212V1.95205H26.7977V3.44479H31.8991V5.28201H26.7977V6.83216H32.0212V8.72679H24.4544ZM33.3634 8.72815V0.00136745H38.5236C40.2334 0.00136745 41.7654 0.996131 41.7654 2.83255C41.7654 4.40243 40.4737 5.41361 39.2215 5.51302L42.2726 8.72815H39.4389L36.6586 5.62785H35.6822V8.72815H33.3634ZM38.3331 1.95338H35.6825V3.7906H38.3675C38.8322 3.7906 39.4315 3.45176 39.4315 2.87199C39.4315 2.42135 38.969 1.95338 38.3331 1.95338ZM45.0797 8.72679H42.712V0H45.0797V8.72679ZM50.6937 8.72679H50.1826C47.7099 8.72679 46.2086 6.89389 46.2086 4.39928C46.2086 1.84305 47.6931 0 50.8157 0H53.3786V2.06687H50.722C49.4544 2.06687 48.5579 2.99762 48.5579 4.42081C48.5579 6.11086 49.583 6.82068 51.0598 6.82068H51.67L50.6937 8.72679ZM51.7504 8.72815L55.7397 0.00136745H58.7641L62.7495 8.72815H60.0951L59.3628 6.98065H55.0837L54.3476 8.72815H51.7504ZM58.5202 5.08608L57.2159 2.03242L55.9077 5.08608H58.5202ZM63.0201 8.72679V0H65.9682L69.7325 5.48296V0H72.0513V8.72679H69.1986L65.3389 3.10031V8.72679H63.0201ZM77 8.72679V0H84.5667V1.95205H79.3432V3.44478H84.4447V5.282H79.3432V6.83216H84.5667V8.72679H77ZM114.077 8.72679V0H121.644V1.95205H116.42V3.44478H121.497V5.282H116.42V6.83216H121.644V8.72679H114.077ZM84.8603 8.72679L88.5445 4.41721L84.7726 0H87.694L89.9404 2.7307L92.1944 0H95.0014L91.279 4.36339L94.97 8.72679H92.0491L89.8679 6.03913L87.7398 8.72679H84.8603ZM95.2457 8.72813V0.00134277H100.368C102.469 0.00134277 103.697 1.2758 103.697 2.93658C103.697 4.9414 102.132 5.9723 100.066 5.9723H97.6256V8.72813H95.2457ZM100.196 1.97496H97.6254V3.98442H100.188C100.866 3.98442 101.34 3.56211 101.34 2.97969C101.34 2.35972 100.863 1.97496 100.196 1.97496ZM104.704 8.72679V0H109.864C111.574 0 113.106 0.994763 113.106 2.83118C113.106 4.40107 111.814 5.41222 110.562 5.51166L113.613 8.72679H110.78L107.999 5.62648H107.023V8.72679H104.704ZM109.674 1.95199H107.023V3.7892H109.708C110.173 3.7892 110.772 3.45037 110.772 2.87059C110.772 2.41995 110.31 1.95199 109.674 1.95199ZM122.717 8.72679V6.83216H127.358C128.045 6.83216 128.342 6.48304 128.342 6.10014C128.342 5.73328 128.046 5.36238 127.358 5.36238H125.261C123.438 5.36238 122.423 4.31746 122.423 2.74865C122.423 1.34939 123.353 0 126.061 0H130.577L129.601 1.96352H125.695C124.949 1.96352 124.719 2.3321 124.719 2.68406C124.719 3.04583 125.003 3.44478 125.573 3.44478H127.77C129.802 3.44478 130.684 4.52926 130.684 5.94943C130.684 7.47625 129.701 8.72679 127.659 8.72679H122.717ZM130.888 8.72679V6.83216H135.529C136.216 6.83216 136.513 6.48304 136.513 6.10014C136.513 5.73328 136.217 5.36238 135.529 5.36238H133.432C131.609 5.36238 130.594 4.31746 130.594 2.74865C130.594 1.34939 131.524 0 134.232 0H138.748L137.772 1.96352H133.866C133.12 1.96352 132.89 2.3321 132.89 2.68406C132.89 3.04583 133.174 3.44478 133.744 3.44478H135.941C137.973 3.44478 138.855 4.52926 138.855 5.94943C138.855 7.47625 137.872 8.72679 135.83 8.72679H130.888Z" fill="#006FCF"/>
</svg>
