<svg width="182" height="24" viewBox="0 0 182 24" fill="none" xmlns="http://www.w3.org/2000/svg">
<path d="M17.7845 23.9999C24.3579 24.0318 30.3581 18.6504 30.3581 12.104C30.3583 4.94567 24.3579 -0.00216349 17.7845 8.32758e-07H12.1274C5.47521 -0.00234385 0 4.94675 0 12.1038C0 18.6518 5.47521 24.0316 12.1274 23.9997H17.7845" fill="#006095"/>
<path d="M14.6507 18.4784V5.47949C17.2688 6.48176 19.1276 9.0115 19.1321 11.9786C19.1276 14.9461 17.269 17.4742 14.6505 18.4784H14.6507ZM5.17781 11.9786C5.18358 9.0133 7.03949 6.485 9.65616 5.47985V18.4757C7.03949 17.4715 5.18358 14.9446 5.17799 11.9788L5.17781 11.9786ZM12.1538 0.991943C6.07546 0.993747 1.14982 5.91074 1.14819 11.9786C1.14982 18.0458 6.07546 22.9617 12.1538 22.9635C18.2345 22.9617 23.1608 18.0458 23.1617 11.9786C23.1608 5.91074 18.2343 0.993927 12.1538 0.991943" fill="white"/>
<path d="M41.1951 5.45296C41.1951 2.6829 39.746 2.8647 38.3582 2.83521V2.03452C39.5612 2.09306 40.795 2.09306 42.0007 2.09306C43.2961 2.09306 45.056 2.03452 47.3414 2.03452C55.3337 2.03452 59.6849 7.36203 59.6849 12.8176C59.6849 15.8677 57.8965 23.5374 46.9694 23.5374C45.3967 23.5374 43.9436 23.4766 42.4941 23.4766C41.1062 23.4766 39.746 23.5057 38.3582 23.5374V22.7362C40.2087 22.5505 41.1062 22.4893 41.1951 20.3945V5.45296ZM44.22 19.9019C44.22 22.2736 45.92 22.5505 47.4312 22.5505C54.0995 22.5505 56.2894 17.5293 56.2894 12.9391C56.2894 7.18024 52.5853 3.02184 46.6287 3.02184C45.361 3.02184 44.7786 3.11208 44.22 3.14509V19.9019ZM60.7678 22.7367H61.3532C62.2164 22.7367 62.8344 22.7367 62.8344 21.7177V13.3714C62.8344 12.0169 62.3722 11.8285 61.2286 11.2163V10.7224C62.6795 10.2888 64.4094 9.70644 64.5313 9.61444C64.7483 9.49119 64.9328 9.45817 65.0873 9.45817C65.24 9.45817 65.3039 9.64349 65.3039 9.89175V21.7177C65.3039 22.7367 65.983 22.7367 66.848 22.7367H67.3718V23.5378C66.3211 23.5378 65.24 23.4762 64.1321 23.4762C63.0202 23.4762 61.9083 23.5066 60.7678 23.5378V22.7367ZM64.07 4.71566C63.2658 4.71566 62.5576 3.97616 62.5576 3.17503C62.5576 2.40383 63.2997 1.69338 64.07 1.69338C64.8703 1.69338 65.582 2.34308 65.582 3.17503C65.582 4.00785 64.902 4.71566 64.07 4.71566ZM70.3043 13.5549C70.3043 12.4162 69.9627 12.1089 68.5154 11.5239V10.9385C69.8412 10.508 71.1054 10.1057 72.5888 9.45817C72.6804 9.45817 72.7711 9.52112 72.7711 9.7663V11.7691C74.5331 10.508 76.046 9.45817 78.1166 9.45817C80.7384 9.45817 81.6636 11.3686 81.6636 13.7719V21.7172C81.6636 22.7362 82.3415 22.7362 83.2069 22.7362H83.7628V23.5374C82.68 23.5374 81.5998 23.4757 80.4914 23.4757C79.3791 23.4757 78.2672 23.5061 77.1566 23.5374V22.7362H77.7112C78.5775 22.7362 79.192 22.7362 79.192 21.7172V13.7411C79.192 11.9835 78.1166 11.1229 76.3546 11.1229C75.3673 11.1229 73.7927 11.9227 72.7711 12.6011V21.7172C72.7711 22.7362 73.4542 22.7362 74.3188 22.7362H74.8734V23.5374C73.7932 23.5374 72.7112 23.4757 71.6002 23.4757C70.4905 23.4757 69.3773 23.5061 68.2676 23.5374V22.7362H68.8244C69.6885 22.7362 70.3043 22.7362 70.3043 21.7172V13.5549ZM86.1095 15.0362C86.0461 15.3135 86.0461 15.7743 86.1095 16.8224C86.2912 19.7483 88.1792 22.1499 90.6446 22.1499C92.3451 22.1499 93.674 21.2255 94.8132 20.0872L95.2445 20.5186C93.8245 22.3982 92.0647 23.9996 89.5363 23.9996C84.6265 23.9996 83.64 19.2544 83.64 17.2842C83.64 11.2457 87.7126 9.45817 89.8717 9.45817C92.3745 9.45817 95.0619 11.0287 95.0891 14.294C95.0891 14.4815 95.0892 14.6638 95.0619 14.8508L94.7815 15.0357L86.1095 15.0362ZM91.5739 14.0493C92.3451 14.0493 92.4344 13.6483 92.4344 13.2789C92.4344 11.7084 91.4792 10.4455 89.7493 10.4455C87.8675 10.4455 86.5712 11.8285 86.2015 14.0493H91.5739ZM95.8009 22.7367H96.6346C97.4956 22.7367 98.1136 22.7367 98.1136 21.7177V13.0637C98.1136 12.1089 96.9731 11.9232 96.5092 11.6771V11.2163C98.7625 10.2602 99.9976 9.45817 100.279 9.45817C100.461 9.45817 100.552 9.55061 100.552 9.8605V12.6323H100.618C101.387 11.4306 102.686 9.45861 104.568 9.45861C105.34 9.45861 106.326 9.98111 106.326 11.0908C106.326 11.9227 105.741 12.6645 104.877 12.6645C103.917 12.6645 103.917 11.9232 102.838 11.9232C102.313 11.9232 100.585 12.6319 100.585 14.4815V21.7181C100.585 22.7367 101.201 22.7367 102.066 22.7367H103.793V23.5378C102.095 23.5066 100.803 23.4762 99.4742 23.4762C98.2092 23.4762 96.9124 23.5066 95.8009 23.5378V22.7367ZM107.684 19.2548C108.086 21.2872 109.32 23.0136 111.574 23.0136C113.392 23.0136 114.071 21.9043 114.071 20.8272C114.071 17.1913 107.345 18.3608 107.345 13.4026C107.345 11.6762 108.736 9.45861 112.129 9.45861C113.115 9.45861 114.443 9.73681 115.646 10.3535L115.864 13.4929H115.153C114.845 11.5539 113.765 10.4451 111.789 10.4451C110.553 10.4451 109.381 11.1533 109.381 12.4774C109.381 16.0842 116.542 14.9732 116.542 19.809C116.542 21.8418 114.906 24 111.232 24C109.998 24 108.547 23.5682 107.468 22.9524L107.128 19.4098L107.684 19.2548ZM144.413 7.60941H143.643C143.056 4.00785 140.493 2.55833 137.038 2.55833C133.487 2.55833 128.331 4.92959 128.331 12.3224C128.331 18.5484 132.779 23.0136 137.531 23.0136C140.585 23.0136 143.119 20.9196 143.737 17.683L144.445 17.8678L143.737 22.3652C142.44 23.1689 138.952 23.9996 136.913 23.9996C129.692 23.9996 125.125 19.3477 125.125 12.4162C125.125 6.10047 130.772 1.57101 136.822 1.57101C139.321 1.57101 141.729 2.37434 144.105 3.20672L144.413 7.60941ZM145.527 22.7367H146.11C146.977 22.7367 147.595 22.7367 147.595 21.7177V4.56248C147.595 2.55833 147.132 2.49671 145.959 2.15821V1.66521C147.193 1.26552 148.489 0.710892 149.137 0.33982C149.474 0.156264 149.723 0 149.814 0C150.002 0 150.064 0.186636 150.064 0.433578V21.7172C150.064 22.7362 150.743 22.7362 151.608 22.7362H152.129V23.5374C151.083 23.5374 150.002 23.4757 148.891 23.4757C147.781 23.4757 146.669 23.5061 145.527 23.5374V22.7367ZM165.345 21.8418C165.345 22.3982 165.683 22.4272 166.207 22.4272C166.578 22.4272 167.039 22.3982 167.442 22.3982V23.0466C166.113 23.1689 163.583 23.8156 162.996 24L162.841 23.9076V21.4131C160.992 22.922 159.57 24 157.376 24C155.71 24 153.982 22.922 153.982 20.3355V12.4474C153.982 11.6463 153.859 10.876 152.133 10.7224V10.1369C153.245 10.1061 155.71 9.92212 156.113 9.92212C156.455 9.92212 156.455 10.1365 156.455 10.8148V18.761C156.455 19.6867 156.455 22.3352 159.139 22.3352C160.188 22.3352 161.577 21.5345 162.871 20.4587V12.1684C162.871 11.5539 161.391 11.2163 160.282 10.9077V10.3531C163.057 10.1673 164.788 9.92169 165.095 9.92169C165.345 9.92169 165.345 10.1365 165.345 10.4772V21.8418ZM171.486 11.6771C172.719 10.6295 174.386 9.45861 176.086 9.45861C179.666 9.45861 181.824 12.572 181.824 15.9284C181.824 19.9635 178.863 24 174.446 24C172.164 24 170.961 23.2596 170.157 22.922L169.232 23.6289L168.586 23.2913C168.859 21.4738 169.017 19.6867 169.017 17.808V4.56248C169.017 2.55833 168.552 2.49671 167.38 2.15821V1.66521C168.617 1.26552 169.91 0.710892 170.56 0.33982C170.898 0.156264 171.144 0 171.24 0C171.425 0 171.486 0.186636 171.486 0.433578V11.6771ZM171.486 20.0551C171.486 21.226 172.596 23.1998 174.664 23.1998C177.968 23.1998 179.356 19.9635 179.356 17.2203C179.356 13.8943 176.827 11.1234 174.419 11.1234C173.274 11.1234 172.319 11.8629 171.486 12.572V20.0551Z" fill="#1A1918"/>
</svg>
