<svg width="48" height="32" viewBox="0 0 48 32" fill="none" xmlns="http://www.w3.org/2000/svg">
<rect width="48" height="32" rx="4" fill="#FCE0CF"/>
<path d="M28.5803 15.9822C28.5839 15.1225 28.2616 14.2615 27.6129 13.6127C26.9627 12.9626 26.0996 12.6405 25.2381 12.6457C25.234 12.6457 25.23 12.6454 25.2257 12.6454C23.355 12.6454 21.8711 14.129 21.8711 16.0002C21.8711 17.8531 23.3733 19.3548 25.2257 19.3548C27.097 19.3548 28.5807 17.871 28.5807 16.0002C28.5807 15.9941 28.5803 15.9883 28.5803 15.9822Z" fill="#F26E21"/>
<path d="M21.2473 17.4193C20.7459 17.9213 20.2832 18.1174 19.7847 18.128C18.5703 18.1171 17.6775 17.2178 17.6775 15.9356C17.6775 15.2902 17.9219 14.7612 18.309 14.3093C18.672 13.9647 19.1397 13.742 19.6775 13.742C20.2581 13.742 20.7099 13.9355 21.2257 14.4516V12.9678C20.71 12.7099 20.258 12.5808 19.6775 12.5808C18.8574 12.6394 18.0842 12.9708 17.491 13.4911C17.3201 13.6449 17.1563 13.8147 17.0174 14.009C16.5841 14.5706 16.3223 15.2582 16.3223 16.0004C16.3223 17.871 17.8066 19.2903 19.6774 19.2903C19.6865 19.2903 19.6956 19.2895 19.7044 19.2895C19.717 19.2896 19.7294 19.2903 19.7419 19.2903C20.2579 19.2903 20.7099 19.1616 21.2904 18.9035L21.2473 17.4193C21.2256 17.4411 21.2689 17.4614 21.2473 17.482V17.4193Z" fill="#2B2B2B"/>
<path d="M32.8159 13.5047L31.3549 17.0969L29.6774 12.8385H28.3228L30.9677 19.3546H31.6774L34.4516 12.8385H33.097L32.8159 13.5047Z" fill="#2B2B2B"/>
<path d="M34.9679 15.6773V19.1614H38.4519H38.5161V18.1288H37.4195H36.2582V16.9678V16.3873H38.4519V15.2902H36.2582V13.9355H38.5161V12.8385H34.9679V15.6773Z" fill="#2B2B2B"/>
<path d="M5.80678 12.8385H4V19.1614H5.80669C6.77427 19.1614 7.48383 18.9031 8.06447 18.4515C8.77403 17.8708 9.22584 16.9678 9.22584 16.0003C9.22593 14.1288 7.87086 12.8385 5.80678 12.8385ZM7.29049 17.613C6.90337 17.9354 6.38724 18.1288 5.61299 18.1288H5.22587V13.9354H5.5484C6.32264 13.9354 6.83878 14.0644 7.22599 14.4513C7.67753 14.8382 7.93573 15.4192 7.93573 16C8.00023 16.5806 7.74221 17.2255 7.29049 17.613Z" fill="#2B2B2B"/>
<path d="M11.0327 12.838H9.80688V19.1607H11.0327V12.838Z" fill="#2B2B2B"/>
<path d="M14.1292 15.2902C13.3551 15.0322 13.1613 14.8385 13.1613 14.5161C13.1613 14.129 13.5485 13.8064 14.0646 13.8064C14.4517 13.8064 14.7742 13.9355 15.0969 14.3226L15.7422 13.484C15.2259 13.0322 14.581 12.7744 13.8713 12.7744C12.7742 12.7744 11.871 13.5487 11.871 14.5806C11.871 15.484 12.2584 15.871 13.4195 16.3227C13.9357 16.5159 14.1293 16.5807 14.2586 16.7097C14.5161 16.8385 14.6454 17.0968 14.6454 17.3546C14.6454 17.8708 14.2586 18.258 13.6776 18.258C13.0964 18.258 12.5807 17.9355 12.3226 17.4193L11.5483 18.1935C12.1292 19.0322 12.8389 19.4192 13.7422 19.4192C15.0323 19.4192 15.9352 18.5805 15.9352 17.3546C15.9353 16.2581 15.5486 15.8065 14.1292 15.2902Z" fill="#2B2B2B"/>
<path d="M42.0002 16.5159C42.9676 16.3226 43.4839 15.6772 43.4839 14.7097C43.4839 13.5486 42.6451 12.8385 41.226 12.8385H39.3549V19.1614H40.5806V16.645H40.7744L42.5159 19.1614H44L42.0002 16.5159ZM40.9676 15.7416H40.5807V13.8064H40.9676C41.7418 13.8064 42.1936 14.1288 42.1936 14.7744C42.1936 15.4193 41.7419 15.7416 40.9676 15.7416Z" fill="#2B2B2B"/>
</svg>
