<svg width="137" height="24" viewBox="0 0 137 24" fill="none" xmlns="http://www.w3.org/2000/svg">
<path fill-rule="evenodd" clip-rule="evenodd" d="M126.69 0.532064C131.707 0.532064 134.467 2.85307 134.467 7.23719C134.718 10.5897 132.46 13.4265 129.449 13.9423L136.223 23.4842H130.955L125.185 14.2002H124.683V23.4842H120.418V0.532064H126.69ZM124.682 11.1056H125.937C128.696 11.1056 129.951 9.81611 129.951 7.4951C129.951 5.43198 128.696 4.14254 125.937 4.14254H124.682V11.1056ZM105.617 23.4842H117.659V19.6159H109.882V13.4265H117.408V9.55819H109.882V4.4004H117.659V0.532064H105.617V23.4842V23.4842ZM93.0735 16.0054L87.3034 0.532064H82.7878L92.07 24H94.3278L103.61 0.532064H99.0944L93.0735 16.0054V16.0054ZM42.1458 12.1371C42.1458 18.5843 47.1632 24 53.435 24C55.442 24 57.1981 23.4842 58.9542 22.7106V17.5528C57.6998 19.1001 55.9437 20.1317 53.9367 20.1317C49.9228 20.1317 46.6615 17.037 46.6615 12.9108V12.395C46.4106 8.26875 49.6719 4.6583 53.6859 4.40042C55.6928 4.40042 57.6998 5.43197 58.9542 6.97931V1.82152C57.4489 0.789966 55.442 0.532076 53.6859 0.532076C47.1632 0.0162976 42.1458 5.43197 42.1458 12.1371V12.1371ZM34.3694 9.30031C31.8607 8.26875 31.1081 7.75297 31.1081 6.46352C31.359 4.91619 32.6134 3.62674 34.1186 3.88463C35.3729 3.88463 36.6273 4.6583 37.6308 5.68986L39.8886 2.59518C38.1325 1.04785 35.8747 0.01629 33.6168 0.01629C30.1046 -0.241599 27.0942 2.59518 26.8433 6.20563V6.46352C26.8433 9.5582 28.0977 11.3634 32.1116 12.6529C33.1151 12.9108 34.1186 13.4265 35.1221 13.9423C35.8747 14.4581 36.3764 15.2318 36.3764 16.2633C36.3764 18.0685 34.8712 19.6159 33.366 19.6159H33.1151C31.1081 19.6159 29.352 18.3264 28.5994 16.5212L25.8398 19.358C27.3451 22.1948 30.3555 23.7421 33.366 23.7421C37.3799 24 40.6412 20.9053 40.8921 16.7791V16.0054C40.6412 12.9108 39.3869 11.3634 34.3694 9.30031V9.30031ZM19.819 23.4842H24.0838V0.532064H19.819V23.4842V23.4842ZM0 0.532064H6.27177H7.52612C13.547 0.789953 18.3136 5.94774 18.0627 12.1371C18.0627 15.4896 16.5575 18.5843 14.0488 20.9053C11.7909 22.7105 9.03134 23.7421 6.27177 23.4842H0V0.532064ZM5.51868 19.6161C7.52564 19.874 9.78348 19.1003 11.2887 17.8109C12.7939 16.2635 13.5465 14.2004 13.5465 11.8794C13.5465 9.81629 12.7939 7.75317 11.2887 6.20583C9.78348 4.91639 7.52564 4.14272 5.51868 4.40061H4.26432V19.6161H5.51868Z" fill="black"/>
<path fill-rule="evenodd" clip-rule="evenodd" d="M71.7496 0C65.4779 0 60.2096 5.15779 60.2096 11.8629C60.2096 18.3101 65.227 23.7258 71.7496 23.9837C78.2723 24.2416 83.2897 18.8259 83.5406 12.1208C83.2897 5.41568 78.2723 0 71.7496 0V0Z" fill="#FD6020"/>
</svg>
