<svg width="54" height="42" viewBox="0 0 54 42" fill="none" xmlns="http://www.w3.org/2000/svg">
<path d="M40.9235 25.8936H44.747C44.857 25.8936 45.113 25.8564 45.221 25.8564C45.61 25.7705 45.9577 25.5471 46.2038 25.2249C46.4499 24.9027 46.5791 24.502 46.5688 24.092C46.568 23.6849 46.4347 23.2899 46.1904 22.97C45.946 22.6502 45.6047 22.424 45.221 22.3276C45.0653 22.2935 44.906 22.2804 44.747 22.2884H40.9235V25.8936Z" fill="url(#paint0_linear_147_391)"/>
<path d="M44.311 1C42.5527 1.00055 40.8665 1.72091 39.6233 3.00267C38.3802 4.28443 37.6818 6.02264 37.6818 7.83505V14.9298H47.0427C47.2621 14.9222 47.4816 14.9353 47.6987 14.969C49.8104 15.0803 51.3782 16.2057 51.3782 18.1598C51.3782 19.6995 50.3204 21.0125 48.3546 21.2764V21.3506C50.5023 21.501 52.1422 22.7398 52.1422 24.6485C52.1422 26.7098 50.3204 28.0661 47.9166 28.0661H37.6438V41.9567H47.3707C49.1278 41.9567 50.8131 41.2377 52.0562 39.9576C53.2992 38.6775 53.9984 36.9411 54 35.1299V1H44.311Z" fill="url(#paint1_linear_147_391)"/>
<path d="M46.0949 18.6091C46.102 18.2163 45.9686 17.8346 45.7199 17.5369C45.4713 17.2392 45.1249 17.0463 44.747 16.9952C44.675 16.9952 44.4931 16.9581 44.3831 16.9581H40.9235V20.256H44.3831C44.5056 20.2663 44.6289 20.2538 44.747 20.2189C45.1242 20.1679 45.47 19.9756 45.7186 19.6788C45.9671 19.3819 46.1011 19.0012 46.0949 18.6091V18.6091Z" fill="url(#paint2_linear_147_391)"/>
<path d="M7.66555 1.00021C5.90718 1.00076 4.22101 1.72112 2.97785 3.00288C1.73468 4.28465 1.0363 6.02285 1.0363 7.83527V24.692C2.89409 25.632 4.82587 26.2318 6.75565 26.2318C9.05139 26.2318 10.2893 24.8054 10.2893 22.8534V14.8888H15.9626V22.8101C15.9626 25.8896 14.1048 28.4064 7.80354 28.4064C5.50734 28.4078 3.21971 28.1177 0.99231 27.5427V41.9219H10.7172C11.589 41.9238 12.4527 41.7485 13.2587 41.4059C14.0647 41.0634 14.7973 40.5604 15.4146 39.9258C16.0318 39.2911 16.5215 38.5372 16.8558 37.7073C17.19 36.8773 17.3622 35.9875 17.3625 35.0889V0.996094L7.66555 1.00021Z" fill="url(#paint3_linear_147_391)"/>
<path d="M25.9892 1C24.2312 1.00109 22.5455 1.72169 21.3028 3.0034C20.06 4.2851 19.3619 6.023 19.3619 7.83505V16.7705C21.0377 15.305 23.9614 14.3671 28.6509 14.5918C30.4077 14.7065 32.1511 14.9824 33.8603 15.4163V18.302C32.3049 17.4442 30.5922 16.9323 28.8329 16.7994C25.2633 16.5376 23.1155 18.3391 23.1155 21.4928C23.1155 24.6836 25.2633 26.4872 28.8329 26.1862C30.9106 26.0357 32.5124 25.3617 33.8603 24.6836V27.5693C32.1518 28.007 30.4081 28.283 28.6509 28.3938C23.9534 28.6185 21.0377 27.6785 19.3619 26.2151V41.9835H29.0888C30.847 41.9835 32.5332 41.2636 33.7764 39.9822C35.0197 38.7007 35.7181 36.9627 35.7181 35.1505V1H25.9892Z" fill="url(#paint4_linear_147_391)"/>
<defs>
<linearGradient id="paint0_linear_147_391" x1="37.6477" y1="24.007" x2="54.0254" y2="24.007" gradientUnits="userSpaceOnUse">
<stop stop-color="#007940"/>
<stop offset="0.23" stop-color="#00873F"/>
<stop offset="0.74" stop-color="#40A737"/>
<stop offset="1" stop-color="#5CB531"/>
</linearGradient>
<linearGradient id="paint1_linear_147_391" x1="-2576.23" y1="20988.4" x2="-1923.46" y2="20988.4" gradientUnits="userSpaceOnUse">
<stop stop-color="#007940"/>
<stop offset="0.23" stop-color="#00873F"/>
<stop offset="0.74" stop-color="#40A737"/>
<stop offset="1" stop-color="#5CB531"/>
</linearGradient>
<linearGradient id="paint2_linear_147_391" x1="-785.563" y1="1731.17" x2="-578.955" y2="1731.17" gradientUnits="userSpaceOnUse">
<stop stop-color="#007940"/>
<stop offset="0.23" stop-color="#00873F"/>
<stop offset="0.74" stop-color="#40A737"/>
<stop offset="1" stop-color="#5CB531"/>
</linearGradient>
<linearGradient id="paint3_linear_147_391" x1="0.99001" y1="21.3789" x2="17.6177" y2="21.3789" gradientUnits="userSpaceOnUse">
<stop stop-color="#1F286F"/>
<stop offset="0.48" stop-color="#004E94"/>
<stop offset="0.83" stop-color="#0066B1"/>
<stop offset="1" stop-color="#006FBC"/>
</linearGradient>
<linearGradient id="paint4_linear_147_391" x1="19.2327" y1="21.4167" x2="35.3807" y2="21.4167" gradientUnits="userSpaceOnUse">
<stop stop-color="#6C2C2F"/>
<stop offset="0.17" stop-color="#882730"/>
<stop offset="0.57" stop-color="#BE1833"/>
<stop offset="0.86" stop-color="#DC0436"/>
<stop offset="1" stop-color="#E60039"/>
</linearGradient>
</defs>
</svg>
