<svg width="48" height="32" viewBox="0 0 48 32" fill="none" xmlns="http://www.w3.org/2000/svg">
<rect width="48" height="32" rx="4" fill="#CCEAFF"/>
<path d="M39.5763 23.1544C39.5763 25.8302 37.4075 28 34.7308 28H8.42383V8.84635C8.42383 6.1698 10.5927 4 13.2697 4H39.5761L39.576 23.1543L39.5763 23.1544Z" fill="white"/>
<path d="M30.9999 16.4202C31.7513 16.4366 32.507 16.3871 33.2553 16.446C34.0132 16.5874 34.1959 17.7347 33.5226 18.1105C33.0632 18.3581 32.5174 18.2027 32.0193 18.2464H30.9999V16.4202ZM33.6898 14.3533C33.8567 14.9426 33.2887 15.4716 32.7212 15.3905H30.9999C31.012 14.8348 30.9763 14.2317 31.0174 13.7052C31.7069 13.7247 32.4029 13.6656 33.0884 13.7361C33.383 13.8101 33.6295 14.0523 33.6898 14.3533ZM37.8323 5.61497C37.8643 6.74028 37.8369 7.92507 37.8461 9.07321C37.844 13.7411 37.8506 18.4089 37.8425 23.0771C37.8123 24.8265 36.2619 26.3466 34.5246 26.3815C32.7856 26.3886 31.0463 26.3826 29.3071 26.3845V19.3276C31.2021 19.3179 33.098 19.3475 34.9922 19.3128C35.8709 19.2577 36.8334 18.6779 36.8743 17.7109C36.9778 16.7397 36.0621 16.0679 35.1928 15.9619C34.8587 15.9532 34.8684 15.8644 35.1928 15.8257C36.022 15.6465 36.6731 14.7884 36.4291 13.9289C36.2212 13.025 35.2221 12.6752 34.3911 12.6769C32.6967 12.6654 31.002 12.6753 29.3075 12.6719C29.3184 11.3545 29.2846 10.0357 29.3257 8.71918C29.4599 7.00134 31.0494 5.58468 32.7622 5.61542C34.4525 5.61516 36.1425 5.61516 37.8323 5.6151V5.61497Z" fill="url(#paint0_linear_154_1035)"/>
<path d="M10.159 8.89714C10.2022 7.1505 11.7593 5.64286 13.4943 5.61733C15.2269 5.61199 16.9597 5.61656 18.6923 5.61502C18.6875 11.4589 18.7017 17.3034 18.6851 23.147C18.6184 24.8724 17.0783 26.3513 15.3622 26.3819C13.6263 26.3882 11.8903 26.3828 10.1544 26.3845V19.0897C11.8405 19.488 13.6087 19.6576 15.3289 19.3934C16.3571 19.2279 17.4821 18.723 17.8302 17.6563C18.0864 16.7438 17.9421 15.7835 17.9803 14.8469V12.672H15.0034C14.99 14.1104 15.0308 15.5514 14.9818 16.9881C14.9016 17.8712 14.027 18.4323 13.1942 18.4023C12.1613 18.4133 10.1144 17.6538 10.1144 17.6538C10.1093 14.9587 10.1444 11.5835 10.159 8.8974V8.89714Z" fill="url(#paint1_linear_154_1035)"/>
<path d="M19.8026 13.5493C19.6459 13.5825 19.7711 13.0155 19.731 12.8004C19.7417 11.4405 19.7087 10.0791 19.7492 8.7201C19.8831 6.995 21.4847 5.57481 23.2045 5.61519H28.2693C28.2645 11.4591 28.2786 17.3036 28.2621 23.1472C28.1953 24.8726 26.6552 26.3515 24.939 26.3821C23.2031 26.3886 21.467 26.3831 19.731 26.3848V18.3923C20.9166 19.3651 22.528 19.5165 24.0051 19.5191C25.1186 19.5188 26.2257 19.3471 27.307 19.0903V17.626C26.0884 18.2334 24.6558 18.6192 23.3049 18.2702C22.3625 18.0357 21.6784 17.1249 21.6936 16.1524C21.5845 15.141 22.1773 14.0733 23.1712 13.7726C24.4051 13.3863 25.75 13.6817 26.9067 14.184C27.1545 14.3137 27.4061 14.4747 27.307 14.0605V12.9096C25.3725 12.4493 23.3137 12.2799 21.3702 12.7806C20.8077 12.9393 20.2596 13.18 19.8026 13.5494V13.5493Z" fill="url(#paint2_linear_154_1035)"/>
<defs>
<linearGradient id="paint0_linear_154_1035" x1="29.2488" y1="15.5557" x2="37.7923" y2="15.5557" gradientUnits="userSpaceOnUse">
<stop stop-color="#007B40"/>
<stop offset="1" stop-color="#55B330"/>
</linearGradient>
<linearGradient id="paint1_linear_154_1035" x1="9.97274" y1="16.1987" x2="18.5523" y2="16.1987" gradientUnits="userSpaceOnUse">
<stop stop-color="#1D2970"/>
<stop offset="1" stop-color="#006DBA"/>
</linearGradient>
<linearGradient id="paint2_linear_154_1035" x1="19.7184" y1="15.7571" x2="28.2677" y2="15.7571" gradientUnits="userSpaceOnUse">
<stop stop-color="#6E2B2F"/>
<stop offset="1" stop-color="#E30138"/>
</linearGradient>
</defs>
</svg>
