<svg width="48" height="32" viewBox="0 0 48 32" fill="none" xmlns="http://www.w3.org/2000/svg">
<rect width="48" height="32" rx="4" fill="#FDEACE"/>
<path d="M29.008 6.52735L18.679 6.56287L18.9919 25.4727L29.321 25.4372L29.008 6.52735Z" fill="#FF5F00"/>
<path d="M19.3587 16.0559C19.2948 12.2098 21.0178 8.7924 23.7164 6.5757C21.6794 4.97725 19.1257 4.01605 16.3574 4.02553C9.79919 4.04799 4.58277 9.45071 4.69337 16.1062C4.80397 22.7616 10.1994 28.128 16.7576 28.1055C19.5259 28.096 22.0474 27.1175 24.031 25.5052C21.2595 23.3407 19.4227 19.902 19.3587 16.0559Z" fill="#EB001B"/>
<path d="M43.3066 15.8939C43.4172 22.5493 38.2008 27.952 31.6425 27.9745C28.8742 27.984 26.3205 27.0228 24.2835 25.4243C27.0151 23.2075 28.7051 19.7902 28.6412 15.9441C28.5773 12.098 26.741 8.69274 23.9689 6.49478C25.9526 4.88256 28.4741 3.90398 31.2424 3.8945C37.8006 3.87204 43.1965 9.27186 43.3066 15.8939Z" fill="#F79E1B"/>
</svg>
