<svg width="233" height="24" viewBox="0 0 233 24" fill="none" xmlns="http://www.w3.org/2000/svg">
<path d="M14.1666 2.56659H24.6666V21.4332H14.1666V2.56659Z" fill="#FF5F00"/>
<path d="M14.8334 12C14.8334 8.16672 16.6333 4.76666 19.3999 2.5666C17.3667 0.966633 14.8001 0 12.0002 0C5.36659 0 0 5.36659 0 12C0 18.6333 5.36659 24 12 24C14.8 24 17.3666 23.0334 19.3999 21.4332C16.6333 19.2666 14.8334 15.8333 14.8334 12V12Z" fill="#EB001B"/>
<path d="M38.8333 12C38.8333 18.6333 33.4667 24 26.8333 24C24.0333 24 21.4667 23.0334 19.4333 21.4332C22.2333 19.2333 24 15.8333 24 12C24 8.16672 22.1999 4.76666 19.4333 2.5666C21.4665 0.966633 24.0333 0 26.8333 0C33.4667 0 38.8334 5.39999 38.8334 12H38.8333Z" fill="#F79E1B"/>
<path d="M73.8343 23.6471V13.0591C73.8343 8.99949 71.3631 6.35311 67.1275 6.35311C65.01 6.35311 62.7157 7.05891 61.1273 9.3532C59.8925 7.41182 58.128 6.35311 55.4808 6.35311C53.7154 6.35311 51.9517 6.88206 50.5393 8.82345V6.70601H46.8334V23.6471H50.5393V14.2939C50.5393 11.2946 52.1278 9.88216 54.5989 9.88216C57.0684 9.88216 58.3048 11.4706 58.3048 14.2939V23.6471H62.0107V14.2939C62.0107 11.2946 63.7745 9.88216 66.0687 9.88216C68.5399 9.88216 69.7747 11.4706 69.7747 14.2939V23.6471H73.8343V23.6471ZM128.716 6.70601H122.717V1.58848H119.011V6.70601H115.658V10.0582H119.01V17.8237C119.01 21.7065 120.599 24 124.834 24C126.423 24 128.187 23.471 129.423 22.7652L128.363 19.5883C127.305 20.2941 126.07 20.4709 125.187 20.4709C123.423 20.4709 122.717 19.4122 122.717 17.6469V10.0582H128.716V6.70601V6.70601ZM160.129 6.3523C158.012 6.3523 156.6 7.41182 155.717 8.82345V6.70601H152.011V23.6471H155.717V14.1178C155.717 11.2946 156.952 9.70612 159.246 9.70612C159.952 9.70612 160.835 9.88297 161.541 10.059L162.599 6.52996C161.894 6.35311 160.835 6.35311 160.129 6.35311V6.3523ZM112.658 8.11763C110.893 6.88206 108.422 6.35311 105.775 6.35311C101.54 6.35311 98.717 8.47054 98.717 11.8235C98.717 14.6476 100.834 16.2353 104.54 16.765L106.305 16.9419C108.246 17.294 109.305 17.8238 109.305 18.7064C109.305 19.9412 107.893 20.8238 105.422 20.8238C102.952 20.8238 101.01 19.9412 99.7749 19.0593L98.0103 21.8826C99.9517 23.2942 102.599 24 105.245 24C110.187 24 113.011 21.7065 113.011 18.5296C113.011 15.5295 110.717 13.941 107.187 13.412L105.422 13.2352C103.834 13.0583 102.599 12.7062 102.599 11.6475C102.599 10.4119 103.834 9.70612 105.775 9.70612C107.893 9.70612 110.011 10.588 111.069 11.1177L112.658 8.11763V8.11763ZM211.13 6.35311C209.012 6.35311 207.6 7.41182 206.717 8.82345V6.70601H203.011V23.6471H206.717V14.1178C206.717 11.2946 207.953 9.70612 210.246 9.70612C210.953 9.70612 211.836 9.88297 212.542 10.059L213.6 6.52996C212.894 6.35311 211.836 6.35311 211.13 6.35311V6.35311ZM163.835 15.1766C163.835 20.2941 167.364 24 172.835 24C175.306 24 177.07 23.471 178.835 22.0594L177.07 19.0593C175.658 20.118 174.247 20.647 172.658 20.647C169.658 20.647 167.541 18.5296 167.541 15.1766C167.541 12.0004 169.658 9.88217 172.658 9.70612C174.247 9.70612 175.658 10.2351 177.07 11.2946L178.835 8.29449C177.07 6.88206 175.306 6.35311 172.835 6.35311C167.364 6.35311 163.835 10.059 163.835 15.1766ZM198.071 15.1766V6.70601H194.365V8.82345C193.129 7.23577 191.365 6.35311 189.07 6.35311C184.306 6.35311 180.6 10.059 180.6 15.1766C180.6 20.2941 184.306 24 189.07 24C191.541 24 193.306 23.1181 194.365 21.5297V23.6471H198.071V15.1766V15.1766ZM184.482 15.1766C184.482 12.1765 186.423 9.70612 189.599 9.70612C192.6 9.70612 194.718 12.0004 194.718 15.1766C194.718 18.1767 192.6 20.647 189.599 20.647C186.423 20.4701 184.482 18.1767 184.482 15.1766V15.1766ZM140.188 6.35311C135.246 6.35311 131.716 9.88216 131.716 15.1766C131.716 20.4709 135.246 24 140.364 24C142.834 24 145.305 23.2942 147.247 21.7065L145.481 19.0593C144.07 20.118 142.305 20.8238 140.541 20.8238C138.246 20.8238 135.952 19.7651 135.422 16.7642H147.953V15.3534C148.129 9.88216 144.952 6.35311 140.187 6.35311H140.188ZM140.188 9.52926C142.481 9.52926 144.071 10.9417 144.423 13.5889H135.599C135.952 11.2946 137.541 9.52926 140.188 9.52926ZM232.13 15.1766V0H228.424V8.82345C227.188 7.23577 225.424 6.35311 223.13 6.35311C218.365 6.35311 214.659 10.059 214.659 15.1766C214.659 20.2941 218.365 24 223.13 24C225.601 24 227.365 23.1181 228.424 21.5297V23.6471H232.13V15.1766V15.1766ZM218.542 15.1766C218.542 12.1765 220.482 9.70612 223.659 9.70612C226.659 9.70612 228.777 12.0004 228.777 15.1766C228.777 18.1767 226.659 20.647 223.659 20.647C220.482 20.4701 218.542 18.1767 218.542 15.1766V15.1766ZM94.6573 15.1766V6.70601H90.9514V8.82345C89.7158 7.23577 87.9513 6.35311 85.657 6.35311C80.8924 6.35311 77.1865 10.059 77.1865 15.1766C77.1865 20.2941 80.8924 24 85.657 24C88.1282 24 89.8927 23.1181 90.9514 21.5297V23.6471H94.6573V15.1766V15.1766ZM80.8924 15.1766C80.8924 12.1765 82.8338 9.70612 86.0099 9.70612C89.01 9.70612 91.1283 12.0004 91.1283 15.1766C91.1283 18.1767 89.01 20.647 86.0099 20.647C82.8338 20.4701 80.8924 18.1767 80.8924 15.1766V15.1766Z" fill="black"/>
</svg>
