<svg width="48" height="32" viewBox="0 0 48 32" fill="none" xmlns="http://www.w3.org/2000/svg">
<rect width="48" height="32" rx="4" fill="#CCDEFF"/>
<path fill-rule="evenodd" clip-rule="evenodd" d="M27.9584 7.55859C27.9477 7.62793 27.9353 7.69878 27.9215 7.77159C27.4442 10.2318 25.8114 11.0818 23.7262 11.0818H22.6644C22.4094 11.0818 22.1944 11.2676 22.1548 11.5202L21.4572 15.963C21.4314 16.1289 21.5587 16.2783 21.7253 16.2783H23.6085C23.8314 16.2783 24.0209 16.1156 24.056 15.8948L24.0745 15.7988L24.429 13.5396L24.4519 13.4157C24.4865 13.1941 24.6764 13.0314 24.8994 13.0314H25.181C27.0055 13.0314 28.4338 12.2877 28.8513 10.1354C29.0256 9.2363 28.9354 8.48555 28.4739 7.95757C28.3343 7.79839 28.161 7.66623 27.9584 7.55859Z" fill="#298FC2"/>
<path fill-rule="evenodd" clip-rule="evenodd" d="M27.4592 7.35875C27.3862 7.33737 27.311 7.31806 27.2338 7.30059C27.1562 7.28355 27.0768 7.26847 26.995 7.25523C26.7087 7.20879 26.395 7.18677 26.059 7.18677H23.2226C23.1527 7.18677 23.0863 7.20261 23.027 7.23125C22.8961 7.2944 22.799 7.41875 22.7754 7.57098L22.172 11.4084L22.1547 11.5202C22.1943 11.2676 22.4093 11.0818 22.6643 11.0818H23.7261C25.8113 11.0818 27.4441 10.2314 27.9214 7.77161C27.9356 7.6988 27.9476 7.62795 27.9583 7.55861C27.8376 7.49427 27.7068 7.43926 27.566 7.39238C27.5312 7.38077 27.4954 7.3696 27.4592 7.35875Z" fill="#22284F"/>
<path fill-rule="evenodd" clip-rule="evenodd" d="M22.7753 7.571C22.7989 7.41876 22.896 7.29442 23.0269 7.2317C23.0867 7.20295 23.1526 7.18711 23.2225 7.18711H26.059C26.3949 7.18711 26.7087 7.20924 26.9949 7.25568C27.0767 7.26881 27.1562 7.284 27.2338 7.30104C27.3109 7.3184 27.3861 7.33782 27.4591 7.35909C27.4953 7.36994 27.5312 7.38122 27.5663 7.3924C27.7071 7.43927 27.838 7.49472 27.9587 7.55863C28.1007 6.64946 27.9575 6.03044 27.4679 5.4699C26.9281 4.85272 25.954 4.58862 24.7075 4.58862H21.0885C20.8339 4.58862 20.6167 4.77449 20.5773 5.02753L19.07 14.6208C19.0403 14.8106 19.1861 14.9818 19.3767 14.9818H21.6109L22.7753 7.571Z" fill="#28356A"/>
<path fill-rule="evenodd" clip-rule="evenodd" d="M11.1293 18.2783H8.49075C8.31017 18.2783 8.1566 18.41 8.1284 18.589L7.06123 25.3823C7.04005 25.5165 7.14347 25.6372 7.27888 25.6372H8.53851C8.71909 25.6372 8.87266 25.5056 8.90086 25.3262L9.18865 23.4939C9.21642 23.3146 9.37031 23.1828 9.55056 23.1828H10.3858C12.1239 23.1828 13.1269 22.3383 13.389 20.665C13.507 19.9328 13.394 19.3576 13.0525 18.9547C12.6775 18.5123 12.0123 18.2783 11.1293 18.2783ZM11.4336 20.7595C11.2893 21.7101 10.5659 21.7101 9.86648 21.7101H9.46826L9.74761 19.9347C9.76425 19.8274 9.85676 19.7484 9.96483 19.7484H10.1474C10.6238 19.7484 11.0733 19.7484 11.3055 20.0211C11.4441 20.1837 11.4864 20.4255 11.4336 20.7595Z" fill="#28356A"/>
<path fill-rule="evenodd" clip-rule="evenodd" d="M19.0839 20.6776H17.8203C17.7127 20.6776 17.6197 20.7565 17.6031 20.8639L17.5471 21.2187L17.4589 21.0901C17.1853 20.6914 16.5753 20.5582 15.9665 20.5582C14.5702 20.5582 13.3777 21.62 13.1454 23.1095C13.0247 23.8524 13.1963 24.5629 13.6162 25.0583C14.0012 25.5138 14.5522 25.7037 15.2076 25.7037C16.3327 25.7037 16.9564 24.9774 16.9564 24.9774L16.9001 25.3299C16.879 25.4647 16.9824 25.5856 17.117 25.5856H18.2551C18.4361 25.5856 18.5889 25.4538 18.6174 25.2745L19.3003 20.9324C19.3219 20.7988 19.2188 20.6776 19.0839 20.6776ZM17.3226 23.1467C17.2007 23.8714 16.6278 24.3579 15.897 24.3579C15.5302 24.3579 15.237 24.2398 15.0486 24.0159C14.8619 23.7936 14.791 23.4771 14.8503 23.1246C14.9642 22.406 15.5467 21.9036 16.2663 21.9036C16.6251 21.9036 16.9168 22.0233 17.1089 22.249C17.3014 22.4772 17.3778 22.7957 17.3226 23.1467Z" fill="#28356A"/>
<path fill-rule="evenodd" clip-rule="evenodd" d="M25.716 20.7862H24.4462C24.325 20.7862 24.2112 20.8466 24.1426 20.9477L22.3914 23.5376L21.6491 21.0487C21.6024 20.893 21.4593 20.7862 21.2972 20.7862H20.0496C19.8978 20.7862 19.7926 20.9349 19.8408 21.0783L21.2394 25.1991L19.9245 27.0628C19.8211 27.2096 19.9253 27.4114 20.1039 27.4114H21.3721C21.4925 27.4114 21.6051 27.3525 21.6734 27.2534L25.8965 21.1328C25.9976 20.9865 25.8937 20.7862 25.716 20.7862Z" fill="#28356A"/>
<path fill-rule="evenodd" clip-rule="evenodd" d="M29.9489 18.2783H27.31C27.1299 18.2783 26.9763 18.41 26.9481 18.589L25.8809 25.3823C25.8598 25.5165 25.9632 25.6372 26.0978 25.6372H27.452C27.5777 25.6372 27.6853 25.5451 27.705 25.4196L28.0079 23.4939C28.0357 23.3146 28.1897 23.1828 28.3698 23.1828H29.2048C30.9431 23.1828 31.9459 22.3383 32.2083 20.665C32.3267 19.9328 32.2129 19.3576 31.8714 18.9547C31.4968 18.5123 30.832 18.2783 29.9489 18.2783ZM30.2534 20.7595C30.1094 21.7101 29.386 21.7101 28.6862 21.7101H28.2885L28.5682 19.9347C28.5847 19.8274 28.6766 19.7484 28.785 19.7484H28.9675C29.4435 19.7484 29.8934 19.7484 30.1256 20.0211C30.2642 20.1837 30.3062 20.4255 30.2534 20.7595Z" fill="#298FC2"/>
<path fill-rule="evenodd" clip-rule="evenodd" d="M37.9017 20.6776H36.639C36.5306 20.6776 36.4384 20.7565 36.4222 20.8639L36.3662 21.2187L36.2775 21.0901C36.004 20.6914 35.3944 20.5582 34.7855 20.5582C33.3893 20.5582 32.1972 21.62 31.965 23.1095C31.8446 23.8524 32.0154 24.5629 32.4352 25.0583C32.8211 25.5138 33.3711 25.7037 34.0267 25.7037C35.1516 25.7037 35.7755 24.9774 35.7755 24.9774L35.7192 25.3299C35.698 25.4647 35.8013 25.5856 35.9369 25.5856H37.0746C37.2547 25.5856 37.4083 25.4538 37.4365 25.2745L38.1197 20.9324C38.1406 20.7988 38.0371 20.6776 37.9017 20.6776ZM36.1405 23.1467C36.0194 23.8714 35.4456 24.3579 34.7149 24.3579C34.3487 24.3579 34.0548 24.2398 33.8664 24.0159C33.6798 23.7936 33.6096 23.4771 33.6681 23.1246C33.7828 22.406 34.3645 21.9036 35.0841 21.9036C35.4429 21.9036 35.7346 22.0233 35.9267 22.249C36.12 22.4772 36.1964 22.7957 36.1405 23.1467Z" fill="#298FC2"/>
<path fill-rule="evenodd" clip-rule="evenodd" d="M39.286 18.465L38.2031 25.3827C38.1819 25.5168 38.2852 25.6375 38.4199 25.6375H39.5086C39.6897 25.6375 39.8431 25.5059 39.8709 25.3266L40.9388 18.5336C40.9601 18.3995 40.8567 18.2783 40.722 18.2783H39.5029C39.3953 18.2786 39.3027 18.3577 39.286 18.465Z" fill="#298FC2"/>
</svg>
