<svg width="48" height="32" viewBox="0 0 48 32" fill="none" xmlns="http://www.w3.org/2000/svg">
<rect width="48" height="32" rx="4" fill="#FAD1D7"/>
<path d="M12.3308 4.00131H21.9067C23.2434 4.00131 24.0748 5.09085 23.7629 6.43199L19.3047 25.5731C18.99 26.9096 17.6517 28 16.314 28H6.73907C5.40422 28 4.57097 26.9096 4.8828 25.5731L9.34293 6.43199C9.65476 5.09085 10.9924 4.00131 12.3308 4.00131Z" fill="#E21836"/>
<path d="M21.1093 3.99997H32.1214C33.4579 3.99997 32.8552 5.0895 32.5408 6.43065L28.0832 25.5717C27.7705 26.9082 27.868 27.9987 26.5288 27.9987H15.5167C14.1774 27.9987 13.3486 26.9082 13.6632 25.5717L18.1206 6.43065C18.4371 5.0895 19.7719 3.99997 21.1093 3.99997Z" fill="#00447C"/>
<path d="M31.6846 3.99997H41.2605C42.599 3.99997 43.4304 5.0895 43.116 6.43065L38.6585 25.5717C38.3438 26.9082 37.0046 27.9987 35.6662 27.9987H26.0947C24.7555 27.9987 23.9248 26.9082 24.2385 25.5717L28.6967 6.43065C29.0086 5.0895 30.3453 3.99997 31.6846 3.99997Z" fill="#007B84"/>
<path d="M14.831 10.1341C13.8463 10.1441 13.5555 10.1341 13.4626 10.1122C13.4269 10.2819 12.7624 13.3472 12.7605 13.3497C12.6174 13.9699 12.5133 14.412 12.1597 14.6974C11.959 14.8634 11.7247 14.9434 11.453 14.9434C11.0163 14.9434 10.7619 14.7266 10.7191 14.3153L10.711 14.1741C10.711 14.1741 10.844 13.3434 10.844 13.3388C10.844 13.3388 11.5414 10.5454 11.6663 10.1761C11.6728 10.1551 11.6747 10.1441 11.6763 10.1341C10.3189 10.146 10.0782 10.1341 10.0616 10.1122C10.0525 10.1423 10.0189 10.3155 10.0189 10.3155L9.30681 13.4639L9.24566 13.7309L9.12732 14.6043C9.12732 14.8634 9.1782 15.0748 9.2795 15.2536C9.60393 15.8206 10.5294 15.9055 11.0529 15.9055C11.7275 15.9055 12.3602 15.7622 12.7878 15.5006C13.53 15.062 13.7242 14.3765 13.8974 13.7673L13.9777 13.4548C13.9777 13.4548 14.6961 10.5535 14.8182 10.1761C14.8229 10.1551 14.8247 10.1441 14.831 10.1341ZM17.2754 12.4746C17.1022 12.4746 16.7857 12.5166 16.5015 12.6559C16.3983 12.7089 16.3007 12.77 16.1978 12.831L16.2907 12.4956L16.2398 12.4391C15.6369 12.5611 15.502 12.5775 14.9451 12.6559L14.8984 12.687C14.8338 13.2231 14.7764 13.6262 14.5366 14.68C14.4454 15.0684 14.3506 15.4605 14.2556 15.848L14.2813 15.8972C14.852 15.8671 15.0252 15.8671 15.5211 15.8753L15.5613 15.8316C15.6243 15.5088 15.6325 15.4332 15.7721 14.7794C15.8376 14.4695 15.9744 13.7884 16.0419 13.5459C16.1658 13.4885 16.2881 13.432 16.4048 13.432C16.6828 13.432 16.649 13.6745 16.6382 13.7711C16.6263 13.9333 16.525 14.4632 16.4212 14.9181L16.3518 15.2117C16.3035 15.4285 16.2505 15.6393 16.2022 15.8543L16.2232 15.8972C16.7857 15.8671 16.9573 15.8671 17.4376 15.8753L17.4941 15.8316C17.5809 15.3275 17.6064 15.1926 17.7604 14.4585L17.8379 14.1212C17.9885 13.4612 18.0641 13.1265 17.9502 12.8538C17.8298 12.5483 17.5408 12.4746 17.2754 12.4746ZM20.0061 13.1656C19.7071 13.2231 19.5164 13.2613 19.3269 13.2861C19.139 13.3162 18.9558 13.3435 18.6668 13.3836L18.6439 13.4044L18.6229 13.421C18.5928 13.6362 18.5718 13.8222 18.5319 14.0409C18.498 14.2671 18.446 14.5241 18.3613 14.8933C18.2957 15.176 18.2618 15.2745 18.2245 15.3739C18.1881 15.4733 18.1479 15.5699 18.0742 15.8479L18.0915 15.8736L18.1059 15.8972C18.376 15.8843 18.5527 15.8752 18.7343 15.8736C18.9156 15.8671 19.1035 15.8736 19.3943 15.8752L19.4198 15.8545L19.4471 15.8316C19.4891 15.5809 19.4954 15.5135 19.5211 15.3912C19.5465 15.26 19.5904 15.0784 19.698 14.5934C19.7489 14.3656 19.8056 14.1385 19.8583 13.906C19.9132 13.6745 19.9706 13.4464 20.0252 13.2186L20.017 13.1911L20.0061 13.1656ZM20.0124 12.2338C19.7408 12.0735 19.2639 12.1244 18.943 12.3459C18.623 12.5629 18.5866 12.871 18.8573 13.0335C19.1243 13.1894 19.6031 13.143 19.9212 12.9196C20.2405 12.6979 20.2804 12.3926 20.0124 12.2338ZM21.6555 15.9474C22.2052 15.9474 22.7686 15.796 23.1927 15.3464C23.519 14.9818 23.6686 14.4394 23.7204 14.216C23.8892 13.4757 23.7578 13.13 23.5928 12.9195C23.3421 12.5985 22.8991 12.4956 22.4395 12.4956C22.1632 12.4956 21.505 12.5229 20.9908 12.997C20.6215 13.3389 20.4509 13.8029 20.348 14.2478C20.2441 14.7011 20.1246 15.517 20.875 15.8207C21.1065 15.9201 21.4403 15.9474 21.6555 15.9474ZM21.6126 14.2816C21.7393 13.721 21.8889 13.2504 22.2708 13.2504C22.57 13.2504 22.5917 13.6005 22.4586 14.1631C22.4348 14.2879 22.3256 14.7522 22.1779 14.9499C22.0747 15.0957 21.9526 15.1842 21.8177 15.1842C21.7776 15.1842 21.5388 15.1842 21.5351 14.8297C21.5332 14.6546 21.5689 14.4758 21.6126 14.2816ZM25.0945 15.8753L25.1374 15.8317C25.1984 15.5089 25.2084 15.433 25.3433 14.7795C25.4108 14.4695 25.5503 13.7885 25.6159 13.546C25.7401 13.4883 25.8603 13.4318 25.9807 13.4318C26.2568 13.4318 26.2232 13.6743 26.2123 13.771C26.2022 13.9334 26.1009 14.463 25.9952 14.9179L25.9296 15.2115C25.8794 15.4286 25.8248 15.6391 25.7765 15.8543L25.7975 15.8973C26.3619 15.8672 26.5269 15.8672 27.01 15.8753L27.0684 15.8317C27.1531 15.3273 27.176 15.1924 27.3347 14.4586L27.4103 14.1211C27.5616 13.461 27.6381 13.1265 27.5261 12.8539C27.4022 12.5484 27.1113 12.4746 26.8497 12.4746C26.6763 12.4746 26.3581 12.5164 26.0755 12.656C25.9744 12.709 25.8731 12.7699 25.7737 12.831L25.8603 12.4956L25.8138 12.4389C25.2112 12.5612 25.0735 12.5776 24.5173 12.656L24.4746 12.687C24.4071 13.2232 24.3523 13.626 24.1126 14.6801C24.0213 15.0685 23.9265 15.4606 23.8318 15.848L23.8572 15.8973C24.4288 15.8672 24.5994 15.8672 25.0945 15.8753ZM29.2411 15.8972C29.2765 15.724 29.4873 14.6975 29.4892 14.6975C29.4892 14.6975 29.6686 13.9443 29.6796 13.917C29.6796 13.917 29.7361 13.8385 29.7926 13.8075H29.8757C30.6597 13.8075 31.545 13.8075 32.2389 13.297C32.7111 12.9469 33.0339 12.4299 33.1779 11.8016C33.2152 11.6476 33.2428 11.4643 33.2428 11.2811C33.2428 11.0405 33.1945 10.8024 33.0549 10.6164C32.701 10.1213 31.9964 10.1122 31.183 10.1085C31.1804 10.1085 30.782 10.1122 30.782 10.1122C29.7408 10.1251 29.3232 10.1213 29.1517 10.1003C29.1372 10.1762 29.1099 10.3111 29.1099 10.3111C29.1099 10.3111 28.7369 12.0397 28.7369 12.0425C28.7369 12.0425 27.8444 15.7177 27.8023 15.8909C28.7115 15.8799 29.0842 15.8799 29.2411 15.8972ZM29.9322 12.8265C29.9322 12.8265 30.3287 11.1014 30.3269 11.1079L30.3397 11.0195L30.3453 10.952L30.5038 10.9683C30.5038 10.9683 31.3216 11.0386 31.3408 11.0405C31.6636 11.1653 31.7966 11.4872 31.7037 11.9073C31.619 12.2913 31.3699 12.6141 31.0499 12.77C30.7864 12.9021 30.4636 12.9131 30.131 12.9131H29.9158L29.9322 12.8265ZM32.4012 14.3136C32.2964 14.7603 32.176 15.5763 32.9226 15.8671C33.1607 15.9684 33.374 15.9985 33.5909 15.9876C33.8199 15.9752 34.032 15.8604 34.2285 15.6951C34.2108 15.763 34.1931 15.8309 34.1753 15.8991L34.2092 15.9427C34.7462 15.9201 34.9129 15.9201 35.4948 15.9245L35.5475 15.8844C35.6325 15.3849 35.7125 14.8999 35.9333 13.9443C36.0409 13.4866 36.1483 13.0333 36.2587 12.5775L36.2414 12.5273C35.6406 12.6387 35.4801 12.6625 34.9022 12.7444L34.8583 12.7801C34.8524 12.8266 34.8464 12.8711 34.8408 12.9157C34.7509 12.7705 34.6207 12.6466 34.4197 12.5693C34.1627 12.4683 33.5591 12.5985 33.0403 13.0709C32.6757 13.4082 32.5006 13.8703 32.4012 14.3136ZM33.663 14.3409C33.7916 13.7903 33.9394 13.3244 34.3221 13.3244C34.5642 13.3244 34.6916 13.5478 34.6657 13.9287C34.6452 14.0237 34.623 14.1238 34.5966 14.237C34.5583 14.4006 34.5168 14.5629 34.4764 14.7253C34.4353 14.8364 34.3875 14.9412 34.335 15.011C34.2365 15.1506 34.0021 15.2372 33.8672 15.2372C33.829 15.2372 33.5927 15.2372 33.5846 14.8889C33.5827 14.7155 33.6184 14.5369 33.663 14.3409ZM40.2521 12.5229L40.2057 12.4699C39.6112 12.5903 39.5036 12.6095 38.9574 12.6832L38.9173 12.7234C38.9154 12.7299 38.9138 12.7399 38.911 12.749L38.9091 12.7399C38.5025 13.678 38.5144 13.4756 38.1835 14.2141C38.1816 14.1805 38.1816 14.1595 38.1797 14.1238L38.0969 12.5229L38.0448 12.4699C37.4221 12.5903 37.4074 12.6095 36.8323 12.6832L36.7875 12.7234C36.7812 12.7425 36.7812 12.7635 36.7774 12.7864L36.7812 12.7946C36.8531 13.1619 36.8358 13.08 36.9079 13.6598C36.9415 13.9443 36.9863 14.2305 37.02 14.5115C37.0767 14.9818 37.1084 15.2133 37.1777 15.9311C36.7893 16.572 36.6974 16.8145 36.3235 17.377L36.326 17.3826L36.0628 17.799C36.0326 17.8429 36.0053 17.873 35.9671 17.8858C35.9251 17.9066 35.8704 17.9103 35.7946 17.9103H35.6487L35.4319 18.6315L36.1757 18.6444C36.6124 18.6425 36.8869 18.4383 37.0347 18.1638L37.5024 17.3623H37.4949L37.5442 17.3058C37.8588 16.6285 40.2521 12.5229 40.2521 12.5229ZM32.4012 21.995H32.0856L33.2536 18.1319H33.641L33.764 17.734L33.7759 18.1765C33.7615 18.4501 33.9767 18.6926 34.542 18.6524H35.1958L35.4208 17.9086H35.1747C35.0333 17.9086 34.9677 17.8729 34.9759 17.7963L34.964 17.3461H33.7533V17.3484C33.3619 17.3566 32.193 17.386 31.9563 17.449C31.6699 17.5228 31.3681 17.7398 31.3681 17.7398L31.4867 17.3414H30.3542L30.1183 18.1319L28.9347 22.0541H28.705L28.4798 22.7926H30.7354L30.6598 23.0388H31.7712L31.845 22.7926H32.1568L32.4012 21.995ZM31.4757 18.9169C31.2944 18.9671 30.9569 19.1192 30.9569 19.1192L31.257 18.1319H32.1568L31.9398 18.8513C31.9398 18.8513 31.6618 18.8676 31.4757 18.9169ZM31.493 20.3274C31.493 20.3274 31.2104 20.3628 31.0243 20.4048C30.8411 20.4604 30.4975 20.6354 30.4975 20.6354L30.8075 19.608H31.7119L31.493 20.3274ZM30.9889 22.0041H30.0863L30.3479 21.137H31.2477L30.9889 22.0041ZM33.1625 19.608H34.4635L34.2765 20.2135H32.9582L32.7603 20.8754H33.9138L33.0404 22.1052C32.9792 22.1955 32.9244 22.2275 32.8635 22.2529C32.8023 22.284 32.722 22.3204 32.6291 22.3204H32.3091L32.0893 23.0454H32.9263C33.3613 23.0454 33.6183 22.8474 33.8081 22.5876L34.407 21.7679L34.5356 22.6003C34.5629 22.7562 34.6749 22.8474 34.7508 22.8829C34.8346 22.9249 34.9212 22.997 35.0435 23.0078C35.1747 23.0134 35.2694 23.0178 35.3324 23.0178H35.7437L35.9906 22.2065H35.8284C35.7353 22.2065 35.5749 22.1909 35.5476 22.1617C35.5203 22.1262 35.5203 22.0716 35.5056 21.9885L35.3751 21.1543H34.8409L35.0752 20.8754H36.3909L36.5933 20.2135H35.3751L35.5649 19.608H36.7793L37.0045 18.8613H33.384L33.1625 19.608ZM22.1742 22.1727L22.4778 21.1625H23.7259L23.9539 20.4112H22.7047L22.8954 19.7894H24.1161L24.3423 19.0619H21.2879L21.0664 19.7894H21.7603L21.5753 20.4112H20.8795L20.6489 21.1754H21.3426L20.9378 22.5119C20.8832 22.6888 20.9635 22.7562 21.0144 22.8384C21.0664 22.9185 21.1192 22.9714 21.2378 23.0015C21.3601 23.0289 21.4438 23.0452 21.5578 23.0452H22.9647L23.2154 22.2129L22.5917 22.2985C22.4713 22.2985 22.1378 22.2841 22.1742 22.1727ZM22.3173 17.3368L22.0011 17.9085C21.9334 18.0333 21.8725 18.1108 21.8176 18.1465C21.7693 18.1766 21.6736 18.1892 21.5349 18.1892H21.3699L21.1494 18.9205H21.6974C21.9609 18.9205 22.1633 18.8239 22.2599 18.7756C22.3638 18.72 22.3911 18.7518 22.4714 18.6743L22.6565 18.5139H24.3678L24.5949 17.7525H23.3422L23.5609 17.3368H22.3173ZM24.8438 22.1874C24.8146 22.1454 24.8356 22.0714 24.8802 21.9174L25.3479 20.3692H27.0119C27.2544 20.3657 27.4295 20.3629 27.5434 20.3547C27.6657 20.3419 27.7987 20.2982 27.9436 20.2198C28.0933 20.1376 28.1698 20.051 28.2345 19.9516C28.3066 19.8524 28.4224 19.6354 28.5218 19.3006L29.1097 17.3414L27.383 17.3515C27.383 17.3515 26.8513 17.4299 26.6172 17.5165C26.381 17.6131 26.0435 17.8829 26.0435 17.8829L26.1994 17.3459H25.1327L23.6394 22.2985C23.5864 22.4908 23.551 22.6304 23.5428 22.7142C23.54 22.8045 23.6567 22.8939 23.7323 22.9614C23.8217 23.0288 23.9538 23.0179 24.0806 23.0288C24.2138 23.0389 24.4034 23.0452 24.665 23.0452H25.4847L25.7363 22.1956L25.0025 22.2649C24.9241 22.2649 24.8674 22.2229 24.8438 22.1874ZM25.6497 19.3235H27.3975L27.2864 19.6718C27.2707 19.6799 27.2334 19.6545 27.0555 19.6755H25.5421L25.6497 19.3235ZM25.9998 18.1556H27.7623L27.6356 18.575C27.6356 18.575 26.8049 18.5668 26.6718 18.5913C26.0864 18.6926 25.7445 19.0054 25.7445 19.0054L25.9998 18.1556ZM27.3255 20.8379C27.311 20.89 27.2882 20.9217 27.2562 20.9455C27.2207 20.9684 27.1633 20.9766 27.0776 20.9766H26.8286L26.8433 20.5525H25.8074L25.7654 22.6258C25.7638 22.7754 25.7783 22.862 25.8877 22.9313C25.9972 23.0179 26.3345 23.0289 26.7884 23.0289H27.4375L27.6719 22.2528L27.1068 22.2839L26.9189 22.2948C26.8932 22.2839 26.8687 22.2738 26.8414 22.2465C26.8176 22.223 26.7775 22.2374 26.784 22.0878L26.7884 21.5563L27.381 21.5318C27.701 21.5318 27.8378 21.4277 27.9545 21.3285C28.0659 21.2335 28.1023 21.1243 28.1443 20.9766L28.2437 20.506H27.4294L27.3255 20.8379Z" fill="#FEFEFE"/>
</svg>
