<svg width="87" height="24" viewBox="0 0 87 24" fill="none" xmlns="http://www.w3.org/2000/svg">
<path d="M16.0214 0.0949004C13.2555 0.123158 12.4386 0.0949004 12.1776 0.0333252C12.0772 0.509901 10.2105 9.12031 10.2055 9.12748C9.80354 10.8693 9.51126 12.1113 8.51762 12.9131C7.95417 13.3791 7.29582 13.6043 6.53246 13.6043C5.30601 13.6043 4.59115 12.9949 4.47137 11.8397L4.44818 11.4433C4.44818 11.4433 4.82185 9.10977 4.82185 9.09669C4.82185 9.09669 6.78087 1.25007 7.13176 0.212991C7.15032 0.153946 7.15538 0.123158 7.16002 0.0949004C3.34699 0.12864 2.67093 0.0949004 2.62454 0.0333252C2.59881 0.117675 2.50434 0.604372 2.50434 0.604372L0.50399 9.44843L0.332338 10.1983L0 12.6516C0 13.3791 0.142973 13.9734 0.427231 14.4757C1.33863 16.0682 3.93828 16.3069 5.40892 16.3069C7.30341 16.3069 9.08108 15.9041 10.2822 15.169C12.3669 13.9375 12.9127 12.0118 13.3989 10.3004L13.6246 9.4227C13.6246 9.4227 15.6426 1.27327 15.9855 0.212991C15.9982 0.153946 16.0037 0.123158 16.0214 0.0949004ZM22.8874 6.66911C22.4012 6.66911 21.5125 6.7872 20.7137 7.17858C20.424 7.32746 20.1499 7.49911 19.8605 7.67034L20.1216 6.72816L19.9786 6.56958C18.2853 6.91246 17.9062 6.95843 16.3419 7.17858L16.2112 7.26588C16.0294 8.77153 15.8679 9.90392 15.1947 12.8642C14.9368 13.9592 14.6737 15.0529 14.4052 16.1454L14.4769 16.2833C16.0804 16.1989 16.5667 16.1989 17.9601 16.2217L18.0728 16.0994C18.2499 15.1926 18.2727 14.9801 18.6649 13.1434C18.8492 12.2729 19.2334 10.3598 19.4228 9.67871C19.7707 9.51718 20.1144 9.3586 20.4421 9.3586C21.2232 9.3586 21.1279 10.0397 21.0979 10.3113C21.0642 10.7668 20.78 12.2552 20.4881 13.5331L20.2933 14.3576C20.1579 14.967 20.009 15.5587 19.8732 16.1627L19.9322 16.2833C21.5121 16.1989 21.9942 16.1989 23.3433 16.2217L23.5019 16.0994C23.7461 14.6832 23.8174 14.304 24.2501 12.2421L24.4677 11.2948C24.8907 9.44042 25.1033 8.50034 24.7832 7.73445C24.4449 6.87619 23.6327 6.66911 22.8874 6.66911ZM30.5582 8.61042C29.7181 8.77195 29.1824 8.87907 28.6502 8.94866C28.1226 9.03301 27.6076 9.11019 26.7962 9.2228L26.7317 9.281L26.6726 9.32739C26.5883 9.93218 26.5292 10.4547 26.417 11.0692C26.3221 11.7044 26.1758 12.4264 25.9379 13.4635C25.7536 14.2572 25.6587 14.5339 25.5537 14.8131C25.4512 15.0927 25.3386 15.3643 25.1316 16.1449L25.1801 16.2171L25.2205 16.2833C25.9793 16.2474 26.4757 16.2217 26.9856 16.2171C27.495 16.1989 28.0231 16.2171 28.8396 16.2213L28.9113 16.1635L28.988 16.099C29.1061 15.3947 29.1234 15.2053 29.1955 14.862C29.2672 14.4934 29.3904 13.9835 29.6928 12.6208C29.8357 11.981 29.9947 11.3429 30.1432 10.6901C30.2971 10.0397 30.4582 9.39951 30.6117 8.7593L30.589 8.68211L30.5582 8.61042ZM30.5759 5.99305C29.8125 5.54262 28.4735 5.68559 27.5718 6.30767C26.673 6.91752 26.5706 7.78295 27.3314 8.23928C28.0813 8.67705 29.4258 8.54673 30.3195 7.91917C31.2165 7.29625 31.3287 6.43884 30.5759 5.99305ZM35.1911 16.4246C36.7351 16.4246 38.3179 15.9986 39.5094 14.7363C40.4258 13.7123 40.8463 12.1885 40.9918 11.561C41.4654 9.48133 41.0964 8.51046 40.6333 7.91917C39.929 7.01747 38.6844 6.72816 37.3935 6.72816C36.6174 6.72816 34.7685 6.80491 33.324 8.13679C32.2865 9.09711 31.8074 10.4007 31.5185 11.65C31.2267 12.9236 30.8909 15.2154 32.9988 16.0686C33.6492 16.3478 34.5867 16.4246 35.1911 16.4246ZM35.0705 11.7453C35.4264 10.1705 35.8469 8.8487 36.9194 8.8487C37.76 8.8487 37.8211 9.83222 37.4474 11.4121C37.3804 11.763 37.0738 13.067 36.6588 13.6221C36.3686 14.032 36.0261 14.2804 35.6466 14.2804C35.534 14.2804 34.8634 14.2804 34.8528 13.2847C34.8478 12.7929 34.9482 12.2906 35.0705 11.7453ZM44.8512 16.2221L44.9718 16.0994C45.1431 15.1926 45.1713 14.9797 45.5501 13.1438C45.7399 12.2729 46.1321 10.3603 46.316 9.67871C46.6647 9.51675 47.0026 9.35818 47.3408 9.35818C48.1164 9.35818 48.0219 10.0393 47.9911 10.3109C47.9629 10.7672 47.6782 12.2547 47.3813 13.5326L47.197 14.3572C47.0561 14.967 46.9026 15.5583 46.7668 16.1631L46.8259 16.2837C48.4116 16.1994 48.8747 16.1994 50.2319 16.2221L50.396 16.0994C50.6338 14.6823 50.6983 14.3036 51.1441 12.2421L51.3563 11.2944C51.7814 9.44 51.9965 8.50076 51.6814 7.73487C51.3335 6.87661 50.5166 6.66953 49.7815 6.66953C49.2943 6.66953 48.4011 6.78678 47.6069 7.179C47.3231 7.32746 47.0384 7.49869 46.7592 7.67076L47.0026 6.72858L46.8718 6.56916C45.1789 6.91246 44.7926 6.95843 43.23 7.179L43.1098 7.26588C42.9205 8.77195 42.7665 9.9035 42.0934 12.8646C41.8353 13.9594 41.5723 15.053 41.3043 16.1454L41.376 16.2837C42.9816 16.1994 43.4607 16.1994 44.8512 16.2221Z" fill="#E21836"/>
<path d="M56.0416 16.2833C56.1411 15.7966 56.7333 12.9135 56.7383 12.9135C56.7383 12.9135 57.2423 10.7976 57.2735 10.7208C57.2735 10.7208 57.4321 10.5007 57.5907 10.4134H57.8239C60.0263 10.4134 62.5133 10.4134 64.4622 8.97944C65.7886 7.99592 66.6954 6.54384 67.0998 4.77883C67.2049 4.34612 67.282 3.83158 67.282 3.31705C67.282 2.64099 67.1467 1.97209 66.7544 1.44955C65.7604 0.059045 63.7811 0.0333185 61.4961 0.0227748L60.37 0.0333175C57.4452 0.0695878 56.2723 0.0590447 55.7903 0C55.7498 0.212983 55.673 0.592134 55.673 0.592134C55.673 0.592134 54.6254 5.44772 54.6254 5.45531L52 16.2656C54.5537 16.2348 55.6009 16.2348 56.0416 16.2833ZM57.9829 7.65768C57.9829 7.65768 59.0963 2.81179 59.0913 2.83035L59.1275 2.58152L59.1431 2.39258L59.5885 2.43813C59.5885 2.43813 61.8858 2.6355 61.9393 2.64056C62.8461 2.99146 63.2198 3.89569 62.9591 5.07574C62.7208 6.15457 62.0216 7.06133 61.1224 7.4991C60.3822 7.87024 59.4755 7.90103 58.5413 7.90103H57.937L57.9829 7.65768ZM64.9181 11.8351C64.6238 13.0898 64.2855 15.382 66.3829 16.1989C67.0518 16.4832 67.6511 16.568 68.2597 16.5372C68.9032 16.5026 69.4992 16.1799 70.0512 15.7156L69.9015 16.2888L69.9968 16.4111C71.5054 16.3478 71.9736 16.3478 73.6078 16.3605L73.7563 16.2474C73.9946 14.8443 74.2198 13.482 74.8402 10.7976C75.1422 9.51211 75.4437 8.23885 75.7537 6.95842L75.7052 6.81756C74.0178 7.13007 73.5669 7.19713 71.9432 7.42698L71.8201 7.52736C71.8036 7.6581 71.7863 7.78336 71.7707 7.90862C71.5185 7.50079 71.1524 7.15243 70.5881 6.93565C69.8661 6.65139 68.1707 7.01747 66.7135 8.34429C65.6891 9.29195 65.1973 10.5901 64.9181 11.8351ZM68.4625 11.9119C68.824 10.3649 69.2385 9.05662 70.314 9.05662C70.9938 9.05662 71.3519 9.68376 71.2789 10.7537C71.2166 11.043 71.152 11.3318 71.0849 11.62C70.9774 12.0797 70.861 12.5352 70.7475 12.9915C70.632 13.3036 70.4974 13.598 70.3503 13.7941C70.0736 14.1863 69.4152 14.4293 69.0361 14.4293C68.9285 14.4293 68.2651 14.4293 68.2424 13.4508C68.2369 12.9641 68.3373 12.4627 68.4625 11.9119ZM86.9714 6.80491L86.8406 6.65603C85.1709 6.99427 84.8685 7.04825 83.3346 7.25533L83.2216 7.36794C83.2165 7.3865 83.2119 7.41433 83.2039 7.44006L83.1988 7.41475C82.0567 10.0498 82.09 9.48132 81.1605 11.5555C81.155 11.461 81.155 11.4024 81.15 11.302L80.9172 6.80491L80.7712 6.65603C79.0218 6.99427 78.9805 7.04825 77.3652 7.25533L77.2391 7.36794C77.2214 7.42192 77.2214 7.48097 77.2108 7.54507L77.2214 7.56827C77.4234 8.59987 77.3749 8.36959 77.5773 9.99838C77.6718 10.7976 77.7979 11.6014 77.892 12.391C78.0514 13.7119 78.1408 14.3622 78.3352 16.3786C77.2446 18.1786 76.986 18.8602 75.9355 20.44L75.9431 20.4556L75.2033 21.6256C75.119 21.7487 75.0422 21.8331 74.9347 21.8693C74.8166 21.9275 74.6631 21.9381 74.4501 21.9381H74.0401L73.4311 23.9642L75.5209 24C76.7473 23.9949 77.5183 23.4214 77.9333 22.6504L79.2475 20.3987H79.2264L79.3647 20.2401C80.2487 18.3376 86.9714 6.80491 86.9714 6.80491Z" fill="#00447C"/>
</svg>
