<svg width="48" height="32" viewBox="0 0 48 32" fill="none" xmlns="http://www.w3.org/2000/svg">
<rect width="48" height="32" rx="4" fill="#D8E3F3"/>
<path d="M41.3099 10.035H38.7953C38.0351 10.035 37.4503 10.269 37.0994 11.0292L32.3041 21.9649H35.6959C35.6959 21.9649 36.2807 20.5029 36.3976 20.152C36.7485 20.152 40.0819 20.152 40.5497 20.152C40.6666 20.5614 40.959 21.9064 40.959 21.9064H44L41.3099 10.035ZM37.3333 17.6959C37.6257 16.9941 38.6199 14.3625 38.6199 14.3625C38.6199 14.421 38.9123 13.6608 39.0292 13.2514L39.2631 14.304C39.2631 14.304 39.9064 17.1695 40.0234 17.7543H37.3333V17.6959Z" fill="#3362AB"/>
<path d="M32.538 18.0468C32.538 20.5029 30.3158 22.1404 26.8655 22.1404C25.4035 22.1404 24 21.848 23.2397 21.4971L23.7076 18.807L24.1169 18.9825C25.1696 19.4503 25.8713 19.6257 27.1579 19.6257C28.0935 19.6257 29.0877 19.2749 29.0877 18.4561C29.0877 17.9298 28.6783 17.5789 27.3918 16.9942C26.1637 16.4094 24.5263 15.4737 24.5263 13.7778C24.5263 11.4386 26.807 9.85965 30.0234 9.85965C31.2514 9.85965 32.3041 10.0936 32.9473 10.386L32.4795 12.9591L32.2456 12.7251C31.6608 12.4912 30.9006 12.2573 29.7895 12.2573C28.5614 12.3158 27.9766 12.8421 27.9766 13.3099C27.9766 13.8363 28.6783 14.2456 29.7895 14.7719C31.6608 15.6491 32.538 16.6433 32.538 18.0468Z" fill="#3362AB"/>
<path d="M4 10.1521L4.05848 9.91815H9.08772C9.78947 9.91815 10.3158 10.1521 10.4912 10.9123L11.6023 16.1755C10.4912 13.3684 7.91813 11.0877 4 10.1521Z" fill="#F9B50B"/>
<path d="M18.6784 10.0351L13.5907 21.9064H10.1404L7.21643 11.9649C9.32169 13.31 11.0761 15.4152 11.7194 16.8772L12.0702 18.1053L15.2281 9.97662H18.6784V10.0351Z" fill="#3362AB"/>
<path d="M20.0233 9.97662H23.2397L21.1929 21.9064H17.9766L20.0233 9.97662Z" fill="#3362AB"/>
</svg>
