<svg version="1.1" xmlns="http://www.w3.org/2000/svg" xmlns:xlink="http://www.w3.org/1999/xlink" x="0px" y="0px" viewBox="0 0 128 128"><path fill="#ff3535" stroke="" stroke-width="1" d="M48,67.2c0,23.6-39.6,34-39.6,24.8c0-12.4,26.8-6.8,26.8-24.8c0-13.6-28.8-18-26.4-25.6C12,32.8,48,49.2,48,67.2z"/><path fill="#ff3535" stroke="" stroke-width="1" d="M64,49.2c-23.6,0-34-39.6-24.8-39.6C51.6,9.6,46,36.4,64,36.4C77.6,36,82,7.6,89.6,10C98.4,13.6,82,49.2,64,49.2z"/><path fill="#ff3535" stroke="" stroke-width="1" d="M80,60.8c0-23.6,39.6-34,39.6-24.8c0,12.4-26.8,6.8-26.8,24.8c0.4,13.6,28.8,18,26.4,25.6C116,95.2,80,78.8,80,60.8z"/><path fill="#ff3535" stroke="" stroke-width="1" d="M64,78.8c23.6,0,34,39.6,24.8,39.6c-12.4,0-6.8-26.8-24.8-26.8C50.4,92,46,120.4,38.4,118C29.6,114.4,46,78.8,64,78.8z"/></svg>