<?xml version="1.0" encoding="utf-8"?><svg version="1.1" xmlns="http://www.w3.org/2000/svg" xmlns:xlink="http://www.w3.org/1999/xlink" x="0px"  y="0px" viewBox="0 0 128 128"><path fill="#000000" stroke="#ffffff" stroke-width="1" d="M3.1,60.3c0.7-3.6,0.5-7.4,0.5-11c0-4.7,0.8-9.2,0.6-13.8c-0.2-4.3,0.5-8.5,0.3-12.7c-0.1-1.3-0.1-2.7-0.2-4.1 c-0.1-1.8,1.7-2.3,2.9-2.7c2-0.5,4.3-0.6,6.4-0.1c2,0.4,2.8,2.2,2.3,5.2c-0.7,4.5-0.1,9.1-0.4,13.6c-0.3,5.4-0.7,10.8-0.9,16.2 c-0.1,3.3-0.1,6.6-0.1,9.9c0,1.9-0.6,3.5-2.9,4.1c-2.9,0.7-5.6-0.2-7.9-1.7C2.7,62.6,2.7,61.4,3.1,60.3z"/><path fill="#000000" stroke="#ffffff" stroke-width="1" d="M30.4,70.9c0.7-5.6,0.6-11.4,0.6-17c0-7.2,0.8-14.3,0.7-21.3C31.5,26,32.2,19.5,32,12.9c-0.1-2.1-0.1-4.2-0.2-6.3 c-0.1-2.7,1.7-3.7,2.9-4.2c2-0.9,4.3-1,6.5-0.4c2,0.6,2.8,3.3,2.3,8c-0.7,7-0.1,14-0.4,21c-0.4,8.4-0.7,16.7-1,25.1 c-0.2,5.1-0.1,10.2-0.2,15.3c0,3-0.6,5.5-2.9,6.4c-2.9,1.1-5.6-0.1-7.9-2.4C30,74.4,30.1,72.6,30.4,70.9z"/><path fill="#000000" stroke="#ffffff" stroke-width="1" d="M60.6,79.3c0.6-5.2,0.4-10.6,0.3-15.7c-0.1-6.6,0.6-13.2,0.4-19.8c-0.2-6.1,0.4-12.1,0-18.2c-0.1-1.9-0.1-3.9-0.3-5.9 c-0.2-2.5,1.6-3.4,2.8-3.9c2-0.9,4.3-1,6.4-0.4c2,0.5,2.8,3,2.4,7.3c-0.6,6.5,0.1,13-0.1,19.4c-0.2,7.7-0.5,15.5-0.6,23.2 c-0.1,4.7,0,9.4,0.1,14.2c0,2.8-0.6,5.1-2.8,5.9c-2.9,1.1-5.6,0-7.9-2.1C60.2,82.6,60.2,80.9,60.6,79.3z"/><path fill="#000000" stroke="#ffffff" stroke-width="1" d="M86.6,88.3c0.9-6.8,0.9-13.9,1.1-20.7c0.2-8.7,1.3-17.4,1.4-26c0.1-8,1-15.9,1-23.9c0-2.5,0.1-5.1,0-7.7 c0-3.3,1.8-4.4,3-5.1c2.1-1.1,4.3-1.2,6.5-0.4c1.9,0.8,2.7,4,2,9.7c-1,8.5-0.6,17-1.1,25.6c-0.6,10.2-1.3,20.4-1.8,30.5 C98.3,76.6,98.2,82.8,98,89c-0.1,3.6-0.8,6.7-3.1,7.7c-3,1.4-5.6-0.2-7.8-3C86.1,92.5,86.2,90.3,86.6,88.3z"/><path fill="#000000" stroke="#ffffff" stroke-width="1" d="M112.2,117.1c0.7-6.4,0.5-12.9,0.5-19.2c0-8.1,0.8-16.1,0.6-24.1c-0.2-7.4,0.5-14.8,0.3-22.2c-0.1-2.3-0.1-4.8-0.2-7.2 c-0.1-3.1,1.7-4.1,2.9-4.8c2-1,4.3-1.2,6.4-0.5c2,0.7,2.8,3.6,2.3,9c-0.7,7.9-0.1,15.8-0.4,23.7c-0.3,9.4-0.7,18.9-0.9,28.3 c-0.1,5.8-0.1,11.5-0.1,17.3c0,3.4-0.6,6.2-2.9,7.2c-2.9,1.3-5.6-0.1-7.9-2.6C111.8,121,111.9,118.9,112.2,117.1z"/></svg>