<svg version="1.1" xmlns="http://www.w3.org/2000/svg" xmlns:xlink="http://www.w3.org/1999/xlink" x="0px" y="0px" viewBox="0 0 128 128"><path fill="#1e73be" stroke="" stroke-width="1" d="M128.1,88.8l-18.4,0.8c-0.4,0,0-62.8,0.4-70c0-3.2-13.6-4.4-15.6-0.8l0,0c0,0-6.4,70.8-6.8,70.8c-3.2,0-19.6,0.4-19.6,0.8 c4,6.8,32,37.6,32,37.6C100.6,128,128.1,88.8,128.1,88.8z"/><path fill="#1e73be" stroke="" stroke-width="1" d="M59.8,72.4l-18.4,0.8c-0.4,0,0-62.8,0.4-70c0-3.2-13.6-4.8-15.6-0.8l0,0c0,0-6.4,70.8-6.8,70.8c-3.2,0-19.6,0.4-19.6,0.8 c4,6.8,32,37.6,32,37.6S60.2,72.4,59.8,72.4z"/></svg>