<svg version="1.1" xmlns="http://www.w3.org/2000/svg" xmlns:xlink="http://www.w3.org/1999/xlink" x="0px" y="0px" viewBox="0 0 128 128"><path fill="#e22255" stroke="" stroke-width="1" d="M26.1,118c-3.2-5.2-3.6-10-0.8-14s6-6.4,10.4-6.8s8,1.6,11.6,5.6c3.2,4,4.4,8,2.8,12.4c-1.6,4.4-4.4,7.2-9.2,8.8 C36.1,125.2,31.3,123.6,26.1,118z M28.9,82.4c2-19.6,2.4-46,1.2-78.8L60.5,10c-5.6,30.4-10,56-13.6,76L28.9,82.4z"/><path fill="#e22255" stroke="" stroke-width="1" d="M70.5,118c-3.2-5.2-3.2-10-0.8-14.4s6-6.4,10.4-6.8s8.4,1.6,11.6,5.6s4.4,8,2.8,12.4s-4.4,7.2-9.2,8.8 C80.5,125.2,75.3,123.6,70.5,118z M72.9,82.4c2-19.6,2.4-46,1.2-78.8l30.4,6.4c-5.6,30.4-10,56-13.6,76L72.9,82.4z"/></svg>