<svg version="1.1" xmlns="http://www.w3.org/2000/svg" xmlns:xlink="http://www.w3.org/1999/xlink" x="0px" y="0px" viewBox="0 0 128 128"><path fill="#fabf05" stroke="" stroke-width="1" d="M22.2,8.8L22.2,8.8L22.2,8.8c1.6,1.6,28,6.8,32.4,6.4c3.6-0.4,8,2.4,7.6,6.4c-0.8,8.8,11.6,19.6,20.4,22 c2,0.4,5.2-1.2,5.2,2.8c-1.2,6.8,2.4,28.4,6.8,30.4c8.4,4.8,7.6,6.8,1.6,16.8c-6,9.6-4,21.2,2.4,31.2c1.2,2,9.6,3.2,6.4-3.2 c-6.4-12-2.4-24.8,6.8-34.8c5.6-6.4,4.4-12-3.2-14.4c-12.8-4-10.4-19.6-8-26.4c4-10.8,2-13.6-9.6-14.4C77,30.8,67.8,24.8,73.4,12 C77.8,1.6,72.2,0.4,65,2.8C51,7.6,30.6,5.6,25.4,2C21.8,0.4,19.4,6.4,22.2,8.8z"/></svg>