<svg version="1.1" xmlns="http://www.w3.org/2000/svg" xmlns:xlink="http://www.w3.org/1999/xlink" x="0px" y="0px" viewBox="0 0 128 128"><path fill="#88a6c5" stroke="" stroke-width="1" d="M45.2,37.1c-9.2-0.4-30.8,10-11.2,34c5.6,5.6,14,0.4,6.8-8.8l0,0l0,0c-8-14.4,4-18,10.4-9.6C56,59.1,54,66.3,52,73.1 c-2.4,8.4-27.2,7.6-31.2,2.4l0,0l0,0c-12-15.2,7.6-39.2,13.2-64c3.6-7.6-4.8-12-12-4.4c-1.2,6.8-28.4,47.2-11.6,77.6 c4,8.4,32.4,8.8,40.4,4.8l0,0C70.8,77.9,63.2,37.9,45.2,37.1z"/><path fill="#88a6c5" stroke="" stroke-width="1" d="M105.6,70.3c-9.6-0.4-30.8,10-11.2,34c5.6,5.6,14,0.4,6.8-8.8l0,0l0,0c-8-14.4,4-18,10.4-9.6c4.8,6.4,2.8,13.6,0.8,20.4 c-2.4,8.4-27.2,7.6-31.2,2.4l0,0l0,0c-12-15.2,7.6-39.2,13.2-64c3.6-7.6-4.8-12-12-4.8c-1.6,6.4-28.4,47.2-11.6,77.6 c4,8.4,32.4,8.8,40.4,4.8l0,0C131.2,111.1,123.6,70.7,105.6,70.3z"/></svg>