<svg version="1.1" xmlns="http://www.w3.org/2000/svg" xmlns:xlink="http://www.w3.org/1999/xlink" x="0px" y="0px" viewBox="0 0 128 128"><path fill="#ffffff" stroke="#000000" stroke-width="3" d="M58.1,123.2c-2.6-0.8-3.3-2-2.7-4.6c0.9-3.6-0.1-6.6-2.4-9.3c-1.8-2.1-4-3.7-6.5-4.9c-3.5-1.7-6.4-4.1-8.7-7.1 c-2.4-3.1-4.5-6.4-6.8-9.6c-0.5-0.8-1.1-1.5-1.7-2.2c-2.5-2.6-5.1-5.2-7.5-7.9c-2.8-3.1-5.7-6-9.4-7.9c-0.3-0.2-0.6-0.5-0.7-0.9 c-0.7-1.9-0.2-3.5,1.6-4.4c2.7-1.4,5.6-1.9,8.6-1.2c2.2,0.5,4,1.9,5.6,3.5c1.7,1.6,3.4,3.3,5.1,5c1.8,1.8,3.8,3.1,6.3,3.9 c2.1,0.6,13.5,5.8,15,10c0,0-0.2,0.1,0,0c-3.7-5.2-6.6-5.9-11.7-8.6c0.2-0.7,2.1-4.3,2.3-4.9c1.2-4.3,0.8-8.6-0.3-12.9 c-2.5-8.9-4.9-17.9-7.3-26.8c-0.5-1.8-0.7-3.6-0.9-5.5c-0.2-2.2,0-4.5,1.2-6.5c1.5-2.5,4.4-2.6,5.8,0c0.9,1.5,1.5,3.2,2,4.9 c1.5,5.3,2.8,10.7,4.3,16c0.8,2.8,1.8,5.5,3,8.1c0.5,1.3,1.6,2.4,3.2,2.2c1.7-0.2,2.3-1.6,2.5-3c0.5-2.9,1-5.9,1.2-8.8 c0.5-8.8,0.8-17.6,1.2-26.4c0.2-2.8,0.8-5.6,2.2-8.1c1.7-3.4,6.1-2.7,7.4,0c0.4,0.8,0.8,1.6,0.9,2.4c0.3,2.5,0.8,5,0.6,7.4 c-0.4,5.9-1.3,11.8-1.8,17.7c-0.4,4.4-0.6,8.9-0.8,13.3c0,1.3,0.3,2.7,0.8,4c0.8,2.1,2.6,2.7,4.6,1.7c2-1,3.1-2.7,3.7-4.7 c1.5-4.6,3-9.2,4.3-13.8c1.7-5.9,3.4-11.8,5.1-17.6c0.2-0.8,0.8-1.6,1.4-2.2c1.1-1.1,2.4-1.2,3.7-0.4c1.3,0.8,2,2,2.4,3.3 c0.6,1.8,0.2,3.6-0.1,5.4c-1.8,9.5-4.4,18.8-7.9,27.8c-0.5,1.3-0.8,2.6-1,4c-0.1,1.1,0.4,1.9,1.4,2.5c1.2,0.6,3.2,0.3,4.1-0.7 c1-1.1,2.1-2.2,2.9-3.4c3.4-4.8,6.7-9.7,10.1-14.5c1.6-2.3,3.4-4.4,5.3-6.5c0.7-0.8,1.8-1.3,2.8-1.8c1.2-0.5,2.2-0.3,2.8,0.8 c0.5,0.8,0.7,1.9,0.7,2.8c0.1,3.4-1.1,6.4-2.6,9.4c-2.6,5.3-5.4,10.5-8.9,15.3c-2.1,2.8-3.9,5.9-4.9,9.3c-0.6,2-1,4.1-0.5,6.2 c1.2,5.7,1.5,11.4,0.4,17.2c-1.3,6.6-3.7,12.5-8.9,17.1c-1,0.8-1.7,2.2-2,3.5c-0.3,1.4-0.2,2.9-0.1,4.4c0,1.6,0.3,3.1,0.3,4.7 c0,1.6-1.1,2.7-2.7,2.9c-3.1,0.5-6.2,0.9-9.2,1.5C70.8,125.5,64.4,125.2,58.1,123.2z"/></svg>