<svg version="1.1" xmlns="http://www.w3.org/2000/svg" xmlns:xlink="http://www.w3.org/1999/xlink" x="0px" y="0px" viewBox="0 0 128 128"><path fill="#ff3269" stroke="" stroke-width="1" d="M30.4,82.3C31.2,74.7,36,69.9,42,68.7c7.6-1.6,14.4,3.2,16.4,10.8c2,9.2-1.6,16.8-5.2,24.4c-3.6,6.8-11.2,19.6-13.2,22.4 l0,0c-3.2-2.4-15.2-10.4-21.2-15.2C12.4,105.9,6,100.3,4,91.5c-1.6-7.6,2.8-15.2,10.4-16.8C20.4,73.1,26.4,75.5,30.4,82.3L30.4,82.3 z"/><path fill="#ff3269" stroke="" stroke-width="1" d="M92,25.1c7.2-7.6,16-8.4,23.6-4.8c9.2,4.4,12.4,15.6,8,24.8c-5.2,11.2-15.6,16.4-25.2,21.2C88.8,70.7,70.8,77.5,66,79.1l0,0 c-1.6-4.4-7.6-23.2-10-33.2c-2.8-10.8-4.8-22,0.8-33.2c4.4-9.6,15.6-13.6,24.4-9.2C88.4,7.1,93.2,14.7,92,25.1L92,25.1z"/><path fill="#ff3269" stroke="" stroke-width="1" d="M103.2,92.3c4.8-4,10.4-4,15.2-1.2c5.6,3.6,6.8,10.4,3.2,16c-4,6.4-10.8,9.2-17.6,11.2c-6.4,2-18,4.8-21.2,5.6l0,0 c-0.8-2.8-2.8-14.8-3.6-21.6c-0.8-6.8-1.2-14,2.8-20.4c3.6-5.6,10.8-7.2,16-4C102.4,81.1,104.8,86.3,103.2,92.3L103.2,92.3z"/><path fill="#ff3269" stroke="" stroke-width="1" d="M23.6,23.1c-1.2-6.4,2-11.2,6.8-13.6c5.6-2.8,12.4,0,15.2,5.6c3.6,6.8,2,14,0.4,20.8c-1.6,6.4-5.2,18-6,20.8l0,0 c-2.8-1.2-14.4-5.2-20.4-8c-6.4-2.8-12.4-6-16-13.2c-2.8-5.6-0.4-12.8,5.2-15.2C13.6,17.9,18.8,18.3,23.6,23.1L23.6,23.1z"/></svg>