<svg version="1.1" xmlns="http://www.w3.org/2000/svg" xmlns:xlink="http://www.w3.org/1999/xlink" x="0px" y="0px" viewBox="0 0 128 128"><path fill="#ff3269" stroke="" stroke-width="1" d="M30,36.9c2.4-7.6,8.8-11.6,15.6-11.6c8,0,14.4,6.8,14.4,15.2c0,10-5.6,17.2-11.2,24.4c-5.2,6.4-16,18-18.8,20.8l0,0 c-2.8-2.8-13.6-14-18.8-20.8C5.6,57.7,0,50.5,0,40.5c0-8.4,6.4-15.2,14.4-15.2C21.2,25.3,27.6,29.3,30,36.9L30,36.9z"/><path fill="#ff3269" stroke="" stroke-width="1" d="M98,36.9c2.4-7.6,8.8-11.6,15.6-11.6c8,0,14.4,6.8,14.4,15.2c0,10-5.6,17.2-11.2,24.4c-5.2,6.4-16,18-18.8,20.8l0,0 c-2.8-2.8-13.6-14-18.8-20.8C73.6,57.7,68,50.5,68,40.5c0-8.4,6.4-15.2,14.4-15.2C89.2,25.3,95.6,29.3,98,36.9L98,36.9z"/></svg>