<?xml version="1.0" encoding="utf-8"?><svg version="1.1" xmlns="http://www.w3.org/2000/svg" xmlns:xlink="http://www.w3.org/1999/xlink" x="0px"  y="0px" viewBox="0 0 128 128"><path fill="#000000" stroke="#ffffff" stroke-width="2" d="M42.9,25.6c0.5,5,3.8,8.7,7.9,8.6c1.5,0,3.2-0.2,3.7-1.8c0.5-1.7,1.4-3.6-0.3-5.5c-3.2-3.6-2.7-6.1,1.2-9 c5.6-4.1,9.6-4.1,15.2,0c0.5,0.4,1.1,0.8,1.6,1.2c4.2,2.7,7,1.5,8.3-3.6c0.4-1.5,1-2.3,2.8-2.3c2,0,4-0.2,5.8-0.7 c3-0.8,9.1-0.1,12,1.7c0.9,0.5,1.7,1.3,1.6,2.5c-0.4,4.6,1,9.3-1.4,13.8c-1.2,2.2,1.6,5.2,4.2,4.9c6.3-0.8,11.3,3.2,10.8,8.9 c-0.2,2.9-1.7,5.5-4.2,7.2c-3,2.1-4,6.7-1.9,9.5c3.6,4.7,4,9.7,1.6,14.9c-2.2,4.6-8.7,6.6-13.1,5.2c-3.4-1.1-6.6-2.4-10.3-1 c-1.5,0.6-2.5,1.6-2.4,2.9c0.1,1.5-0.4,3.2,1.7,4.3c11.4,5.7,24.7,5.2,33.3-6.8c1.1-1.5,1.6-3.8,1.5-5.4c-0.2-4,1-8.1-0.8-11.9 c-2.2-4.5,0-8.2,1.8-12.1c4.3-9.5,2.8-18-7.5-22.9c-2.3-1.1-4-2-3.7-5.5c0.4-4.9,0.5-10.1-3.3-14.2c-2.8-3-6.5-4.8-10.3-5.3 c-2.6-0.4-5.4-0.8-8.2-0.7c-5.7,0.2-10.7,2-15.2,5.3c-1.2,0.9-1.9,1.1-3.3-0.1c-2.1-1.8-5.1-1.7-7.8-1.7c-5.8-0.1-11.4,0.8-16,4.8 C45,13.3,42.5,21.2,42.9,25.6z"/><ellipse fill="#000000" stroke="#ffffff" stroke-width="2" transform="matrix(0.6274 -0.7787 0.7787 0.6274 -23.6193 57.0985)" cx="47.9" cy="53.2" rx="17.2" ry="3.6"/><ellipse fill="#000000" stroke="#ffffff" stroke-width="2" transform="matrix(0.8672 -0.498 0.498 0.8672 -31.064 46.0586)" cx="70.8" cy="81.3" rx="17.2" ry="3.6"/><ellipse fill="#000000" stroke="#ffffff" stroke-width="2" transform="matrix(0.7677 -0.6408 0.6408 0.7677 -28.6553 53.5043)" cx="59.5" cy="66.3" rx="17.2" ry="3.6"/></svg>