<svg version="1.1" xmlns="http://www.w3.org/2000/svg" xmlns:xlink="http://www.w3.org/1999/xlink" x="0px" y="0px" viewBox="0 0 128 128"><path fill="#000000" stroke="#ffffff" stroke-width="1" d="M104.4,60.4c1.2,14.8-5.2,25.2-18.4,30.8c-3.6,1.2-6,0.4-7.6-2.8v-2c0.4-2.4,1.6-4,3.6-5.2c7.6-3.6,11.6-9.2,12-17.6v-2.4 c-2.8-7.2-7.6-12.8-14.4-16.8l-6.8-5.2c-3.6-3.2-6.4-6.8-8.8-10.4v70.8c-0.4,9.2-4.4,16-12.4,20.4c-4.4,2.8-9.2,4.4-14.4,4.8 s-9.6-1.6-12.8-6C21.6,107.6,25.2,99.2,36,94c5.6-2.4,11.2-3.6,17.2-3.2v-82c0-3.2,1.6-4.8,4.4-5.6C60,2.8,62,4,63.2,6 c4,9.2,9.6,17.2,16.4,24l6.4,5.2C95.6,41.2,101.6,49.6,104.4,60.4z"/></svg>