<svg version="1.1" xmlns="http://www.w3.org/2000/svg" xmlns:xlink="http://www.w3.org/1999/xlink" x="0px" y="0px" viewBox="0 0 128 128"><path fill="#ff0800" stroke="" stroke-width="1" d="M52.6,90.5c-1.2-0.8-0.4-9.6,0.8-13.2c2-6,5.2-8.8,14.4-15.2c7.2-4.8,8.4-6,10-8c3.2-3.6,4-6,4.8-10c0.8-4.8-0.8-8.8-4.4-12 s-7.2-4.4-12.8-4.8c-4,0-6.4,0-9.6,1.2c-5.2,2-9.2,5.2-10.8,9.2c-0.8,2-2,9.2-2,9.6c-0.4,0-28,0.4-28,0.4 c-0.4-5.6,0.8-19.2,4.4-23.6c5.2-8.4,14.4-15.2,25.2-18c1.2-0.4,4.4-0.8,6.8-1.2c4-0.8,5.2-0.8,11.6-0.8c6,0,7.6,0,10.8,0.4 C85.4,6.1,93,8.9,99.4,13.7s10.4,10.4,12.8,18.4c0.8,2.4,0.8,3.2,0.8,7.2c0,4.8-0.4,6.4-2,11.2s-5.2,9.6-10,13.2 c-1.6,1.2-5.6,4-9.6,6.4c-8,5.2-12,8.4-13.2,10.8c-0.8,1.6-2,8.8-2.4,9.2C75.8,90.5,53,90.9,52.6,90.5L52.6,90.5z"/><ellipse fill="#ff0800" stroke="" stroke-width="1" cx="65" cy="112.1" rx="12.8" ry="11.6"/></svg>