<?xml version="1.0" encoding="utf-8"?><svg version="1.1" xmlns="http://www.w3.org/2000/svg" xmlns:xlink="http://www.w3.org/1999/xlink" x="0px" y="0px" viewBox="0 0 128 128"><path fill="#13d13b" stroke="#ffffff" stroke-width="5" d="M70.4,128c-7.7,0.3-9.6-9.1-12.6-15.9c-3.2-7.2,3.8-9.9,8.8-11.4c14.4-4.4,29-8.2,43.6-11.8c10.7-2.6,13.9,5.6,16.8,13.3 c3.7,9.7-4.3,10.5-10.2,13C102.9,120.9,88.6,125.6,70.4,128z"/><path fill="#13d13b" stroke="#ffffff" stroke-width="5" d="M91.3,25.3c-4.4-3.2-8.6-1.8-12.1,2.1c-13.6,15-27.2,30-40.8,44.9C32.7,78.6,33.8,83.7,40,89c5.4,4.7,9.4,10.5,17.8,4.2 c16.8-12.4,30.5-28.1,44.8-43c1.7-1.7,2.7-4.2,3.9-6.1C104.2,35.1,97.7,30.1,91.3,25.3z"/><path fill="#13d13b" stroke="#ffffff" stroke-width="5" d="M18.4,76.5C5.1,76.9-3,66.9,1,54C5.7,39,11.4,24.3,16.6,9.5c3.2-8.9,9-11.9,17.7-7.7c7.9,3.8,19,5.7,13.8,18.9 c-6.6,16.5-13.6,32.7-20.7,49C25.8,73.6,23,76.5,18.4,76.5z"/></svg>