<svg version="1.1" xmlns="http://www.w3.org/2000/svg" xmlns:xlink="http://www.w3.org/1999/xlink" x="0px" y="0px" viewBox="0 0 128 128"><path fill="#ffce00" stroke="" stroke-width="1" d="M30.6,4c1.2,50.4,2.4,53.2,23.6,56.8c-21.2,3.2-22.4,6.4-23.6,56.8C29.1,67.2,27.9,64,7.1,60.8C27.9,57.2,29.1,54.4,30.6,4z "/><path fill="#ffce00" stroke="" stroke-width="1" d="M101.4,2.8c1.2,52,2,55.2,19.6,58.4c-17.6,3.6-18.4,6.4-19.6,58.4c-1.2-52-2-55.2-19.6-58.4C99,58,99.8,54.8,101.4,2.8z"/><path fill="#ffce00" stroke="" stroke-width="1" d="M61.1,59.6c1.2,29.2,2.4,30.8,20.8,32.8c-18.4,2-19.6,3.6-20.8,32.8C59.9,96,58.7,94.4,40.3,92.4 C58.7,90.4,59.5,88.8,61.1,59.6z"/><path fill="#ffce00" stroke="" stroke-width="1" d="M75,6.4c1.2,29.2,2.4,30.8,20.8,32.8C77.4,41.2,76.3,42.8,75,72c-1.2-29.2-2.4-30.8-20.8-32.8C72.7,37.2,73.4,35.6,75,6.4z" /></svg>