<svg version="1.1" xmlns="http://www.w3.org/2000/svg" xmlns:xlink="http://www.w3.org/1999/xlink" x="0px" y="0px" viewBox="0 0 128 128"><path fill="#19e0ff" stroke="" stroke-width="1" d="M67.9,3.7c5.6,0,10.8,0.8,16,3.2c6.4,3.2,10.4,8,12.4,14.8c2.4,8.4,0.8,16.4-4.4,23.2c-2.8,3.6-6,6.4-10,8.4 c-5.2,2.8-10.4,4.4-16,6c-6.8,1.6-13.2,3.2-19.6,5.6c-7.6,2.8-14.8,6.4-21.2,11.2c-3.6,2.4-7.2,4.8-11.2,6.8 c-1.6,0.8-3.2,1.2-4.8,1.2c-2.4,0-3.2-0.8-4-3.6c-0.4-2.4,0.4-5.2,0.8-7.6c2.4-8.4,5.6-16.8,9.6-24.8s8.4-15.6,13.6-22.8 c5.2-6.8,11.2-12.8,18.8-16.8c4.8-2.4,10-4.4,15.2-4.8C64.7,4.1,66.3,3.7,67.9,3.7z"/><path fill="#19e0ff" stroke="" stroke-width="1" d="M98.7,124.1c-4.4,0-9.2-0.8-13.6-2c-5.2-1.6-10.4-3.2-15.6-4.4c-3.6-0.8-7.2-1.6-10.8-2.4c-4.8-0.4-10-0.4-14.8-0.4 c-3.2,0-6.4,0.4-9.6,0.4c-3.2,0-4.4-1.6-3.2-4.8c0.8-2,1.6-3.6,2.8-4.8c5.2-5.6,10.8-10.4,17.2-14.8c6.8-4.4,14-8,21.6-11.2 c5.2-2,10.8-3.2,16.4-3.6c8.8-0.4,16.8,2,24,7.2c4,3.2,7.2,6.4,8.8,11.2c2.4,7.6,0.8,14.4-4,20.4c-4,5.2-10,8-16.8,8.8 C100.7,124.1,99.5,124.1,98.7,124.1z"/></svg>