<svg version="1.1" xmlns="http://www.w3.org/2000/svg" xmlns:xlink="http://www.w3.org/1999/xlink" x="0px" y="0px" viewBox="0 0 128 128"><path fill="#dd3333" stroke="" stroke-width="1" d="M100.4,0.1c0,0-28,30.8-32,37.6c0,0.4,16.4,0.4,19.6,0.8c0.4,0,6.8,70.8,6.8,70.8l0,0c2,3.6,15.6,2.4,15.6-0.8 c0-7.2-0.4-70-0.4-70l18,0.8L100.4,0.1z"/><path fill="#dd3333" stroke="" stroke-width="1" d="M32,16.5c0,0-28,30.8-32,37.6c0,0.4,16.4,0.4,19.6,0.8c0.4,0,6.8,70.8,6.8,70.8l0,0c2,3.6,15.6,2.4,15.6-0.8 c0-7.2-0.4-70-0.4-70L60,55.7C60,55.7,32,16.5,32,16.5z"/></svg>