<?xml version="1.0" encoding="utf-8"?><svg version="1.1" xmlns="http://www.w3.org/2000/svg" xmlns:xlink="http://www.w3.org/1999/xlink" x="0px" y="0px" viewBox="0 0 128 128"><path fill="#000000" stroke="#ffffff" stroke-width="2" d="M115.1,51.7c3.3-1.2,5.7,0,7.2,3.6c0.9,4-0.3,6.6-3.8,7.9c-9.5,3.7-19.2,6.5-29.1,8.4c-4,0.8-8.1,1.5-12.1,2 c-2.8-0.4-4.7-2-5.9-4.8c-0.6-1.9-0.8-3.9-0.6-6l23.2-43.7c-9.2,2.7-18.5,4.6-28,5.6c-3.3,0.1-5.3-1.8-6.1-5.6 c-0.2-3.6,1.4-5.7,4.9-6.3c3.7-0.4,7.4-0.9,11-1.5c9.6-1.8,19-4.3,28.2-7.6c3.3-1,5.7,0.2,7.2,3.5c0.5,1.5,0.6,2.9,0.2,4.4 c-0.4,0.7-0.7,1.3-1.1,2L86.6,59.2C96.2,57,105.7,54.6,115.1,51.7z"/><path fill="#000000" stroke="#ffffff" stroke-width="2" d="M44.1,78c2.8,0.3,4,1.9,3.8,5c-0.7,3.1-2.4,4.5-5.3,4.3c-7.9-0.6-15.6-1.9-23.2-3.8c-3.1-0.8-6.2-1.7-9.2-2.7 c-1.8-1.2-2.7-3-2.6-5.3c0.3-1.5,0.8-3,1.6-4.4l30.9-22.9c-7.4-1.2-14.6-3-21.6-5.4c-2.3-1-3.1-3-2.4-6c1.1-2.6,2.9-3.5,5.5-2.8 c2.8,1,5.5,1.8,8.2,2.6c7.3,2,14.8,3.4,22.3,4.1c2.6,0.4,3.9,2,3.9,4.8c-0.1,1.2-0.5,2.3-1.3,3.2c-0.5,0.3-1,0.7-1.4,1l-31.9,24 C29.1,75.4,36.6,76.9,44.1,78z"/><path fill="#000000" stroke="#ffffff" stroke-width="2" d="M79.8,112.7c1.7-0.8,3-0.3,3.9,1.6c0.7,2,0.1,3.5-1.6,4.3c-4.8,2.4-9.7,4.3-14.8,5.8c-2.1,0.6-4.2,1.1-6.2,1.6 c-1.5-0.1-2.6-0.8-3.3-2.2c-0.4-1-0.6-2-0.6-3.1l10.1-23.9c-4.7,1.8-9.5,3.3-14.4,4.3c-1.7,0.2-2.9-0.7-3.4-2.6 c-0.3-1.9,0.5-3,2.3-3.5c1.9-0.4,3.8-0.8,5.7-1.3c4.9-1.4,9.7-3.1,14.4-5.3c1.7-0.7,3-0.2,3.9,1.5c0.4,0.7,0.5,1.5,0.3,2.3 c-0.2,0.4-0.3,0.7-0.5,1.1l-10.3,24.9C70.2,116.3,75.1,114.6,79.8,112.7z"/></svg>