<?xml version="1.0" encoding="utf-8"?><svg version="1.1" xmlns="http://www.w3.org/2000/svg" xmlns:xlink="http://www.w3.org/1999/xlink" x="0px" y="0px" viewBox="0 0 60 60" width="60" height="60" fill="#ffffff" stroke="#000000"><path d="M48,41c-2.4,0.7-3,0.8-3-1c0.1-4.6-1.1-4.9,0-10c1.4-6.5-0.4-6.3,0-10c0.4-3.3-1-6.2-5-7c-6.9-1.3-4.1,1.8-10,0 c-5.5-1.7-8.9,0-10,0c-4.9-0.2-6.3,4-5,7c1,2.3-1.3,4.5,0,10c1.3,4.9,0.3,6.4,0,10c-0.3,4,2.9,5.2,5,5c3.3-0.3,4.2,1.9,11,0 c3.8-1.1,3.6-0.2,9,0c6.2,0.3,7.1,0.6,10-2C51.6,41.6,51,40.2,48,41z"/></svg>