<?xml version="1.0" encoding="utf-8"?><svg version="1.1" xmlns="http://www.w3.org/2000/svg" xmlns:xlink="http://www.w3.org/1999/xlink" x="0px" y="0px" viewBox="0 0 60 60" width="60" height="60" fill="#ffffff" stroke="#000000"><path d="M13.2,45.6C13,45.1,8.2,49.1,8,40c-0.1-5.4,1.1-5.2,0-9c-1.9-6.8,0-7.7,0-11c0-6.6,8-5.3,12-5 c3.6,0.3,5.1,1.3,10,0c5.5-1.3,7.7,1,10,0c3-1.3,10.8-3.6,12,5c0.2,1.1,1.7,4.5,0,10c-1.8,5.9,0.2,3,0,10c-0.2,7.2-8.7,5.4-12,5 c-3.8-0.4-3.5,1.4-10,0c-5.1-1.1-5.4,0.1-10,0c-1.8,0-2.8-1.1-2,3C18.9,52.4,19.1,57.3,13.2,45.6z"/></svg>