<?xml version="1.0" encoding="utf-8"?><svg version="1.1" xmlns="http://www.w3.org/2000/svg" xmlns:xlink="http://www.w3.org/1999/xlink" x="0px" y="0px" viewBox="0 0 60 60" width="60" height="60" fill="#ffffff" stroke="#000000"><path d="M10,44c2.9,2.6,3.8,2.3,10,2c5.4-0.2,5.2-1.1,9,0c6.8,1.9,7.7-0.3,11,0c2.1,0.2,5.3-1,5-5 c-0.3-3.6-1.3-5.1,0-10c1.3-5.5-1-7.7,0-10c1.3-3-0.1-7.2-5-7c-1.1,0-4.5-1.7-10,0c-5.9,1.8-3.1-1.3-10,0c-4,0.8-5.4,3.7-5,7 c0.4,3.8-1.4,3.5,0,10c1.1,5.1-0.1,5.4,0,10c0,1.8-0.6,1.7-3,1C9,41.2,8.4,42.6,10,44z"/></svg>