<?xml version="1.0" encoding="utf-8"?><svg version="1.1" xmlns="http://www.w3.org/2000/svg" xmlns:xlink="http://www.w3.org/1999/xlink" x="0px" y="0px" viewBox="0 0 60 60" width="60" height="60" fill="#D169B8"><path d="M10,17.4c-0.2,0-0.3-0.1-0.4-0.2l-6.3-6C3.2,11.1,2,9.6,1.8,9.3C1.6,9,1.4,8.6,1.2,8.1C1.1,7.6,1,7.1,1,6.7	c0-1.5,0.4-2.6,1.3-3.5S4.3,2,5.8,2c0.4,0,0.8,0.1,1.3,0.2c0.4,0.1,0.8,0.3,1.2,0.6S9.8,3.9,10,4.2c0.2-0.2,1.4-1.1,1.7-1.4	s0.8-0.4,1.2-0.6C13.4,2.1,13.8,2,14.2,2c1.5,0,2.7,0.4,3.5,1.2c0.9,0.8,1.3,2,1.3,3.5c0,1.5-0.8,3-2.3,4.5l-6.3,6	C10.3,17.4,10.2,17.4,10,17.4z"/><path d="M30,17.4c-0.2,0-0.3-0.1-0.4-0.2l-6.3-6c-0.1-0.1-1.3-1.6-1.5-1.9c-0.2-0.3-0.4-0.7-0.5-1.2	C21.1,7.6,21,7.1,21,6.7c0-1.5,0.4-2.6,1.3-3.5c0.9-0.8,2-1.2,3.5-1.2c0.4,0,0.8,0.1,1.3,0.2c0.4,0.1,0.8,0.3,1.2,0.6	C28.6,3,29.8,3.9,30,4.2c0.2-0.2,1.4-1.1,1.7-1.4s0.8-0.4,1.2-0.6C33.4,2.1,33.8,2,34.2,2c1.5,0,2.7,0.4,3.5,1.2s1.3,2,1.3,3.5	c0,1.5-0.8,3-2.3,4.5l-6.3,6C30.3,17.4,30.2,17.4,30,17.4"/><path d="M50,17.6c-0.2,0-0.3-0.1-0.4-0.2l-6.3-6c-0.1-0.1-1.3-1.6-1.5-1.9c-0.2-0.3-0.4-0.7-0.5-1.2	C41.1,7.8,41,7.3,41,6.8c0-1.5,0.4-2.6,1.3-3.5c0.9-0.8,2-1.2,3.5-1.2c0.4,0,0.8,0.1,1.3,0.2s0.8,0.3,1.2,0.6s1.5,1.1,1.7,1.4	c0.2-0.2,1.4-1.1,1.7-1.4s0.8-0.4,1.2-0.6s0.9-0.2,1.3-0.2c1.5,0,2.7,0.4,3.5,1.2s1.3,2,1.3,3.5c0,1.5-0.8,3-2.3,4.5l-6.3,6	C50.3,17.5,50.2,17.6,50,17.6"/><path d="M10,57.9c-0.2,0-0.3-0.1-0.4-0.2l-6.3-6c-0.1-0.1-1.3-1.6-1.5-1.9c-0.2-0.3-0.4-0.7-0.5-1.2	C1.1,48,1,47.6,1,47.1c0-1.5,0.4-2.6,1.3-3.5s2-1.2,3.5-1.2c0.4,0,0.8,0.1,1.3,0.2s0.8,0.3,1.2,0.6c0.4,0.2,1.5,1.1,1.7,1.4	c0.2-0.2,1.4-1.1,1.7-1.4c0.4-0.2,0.8-0.4,1.2-0.6c0.4-0.1,0.9-0.2,1.3-0.2c1.5,0,2.7,0.4,3.5,1.2c0.9,0.8,1.3,2,1.3,3.5	c0,1.5-0.8,3-2.3,4.5l-6.3,6C10.3,57.8,10.2,57.9,10,57.9"/><path d="M30,57.9c-0.2,0-0.3-0.1-0.4-0.2l-6.3-6c-0.1-0.1-1.3-1.6-1.5-1.9c-0.2-0.3-0.4-0.7-0.5-1.2	C21.1,48,21,47.6,21,47.1c0-1.5,0.4-2.6,1.3-3.5c0.9-0.8,2-1.2,3.5-1.2c0.4,0,0.8,0.1,1.3,0.2s0.8,0.3,1.2,0.6	c0.4,0.2,1.5,1.1,1.7,1.4c0.2-0.2,1.4-1.1,1.7-1.4c0.4-0.2,0.8-0.4,1.2-0.6s0.9-0.2,1.3-0.2c1.5,0,2.7,0.4,3.5,1.2s1.3,2,1.3,3.5	c0,1.5-0.8,3-2.3,4.5l-6.3,6C30.3,57.8,30.2,57.9,30,57.9"/><path d="M50,58c-0.2,0-0.3-0.1-0.4-0.2l-6.3-6c-0.1-0.1-1.3-1.6-1.5-1.9c-0.2-0.3-0.4-0.7-0.5-1.2	c-0.2-0.5-0.2-0.9-0.2-1.4c0-1.5,0.4-2.6,1.3-3.5c0.9-0.8,2-1.2,3.5-1.2c0.4,0,0.8,0.1,1.3,0.2s0.8,0.3,1.2,0.6	c0.4,0.2,1.5,1.1,1.7,1.4c0.2-0.2,1.4-1.1,1.7-1.4c0.4-0.2,0.8-0.4,1.2-0.6s0.9-0.2,1.3-0.2c1.5,0,2.7,0.4,3.5,1.2s1.3,2,1.3,3.5	c0,1.5-0.8,3-2.3,4.5l-6.3,6C50.3,57.9,50.2,58,50,58"/><path d="M10,37.5c-0.2,0-0.3-0.1-0.4-0.2l-6.3-6c-0.1-0.1-1.3-1.6-1.5-1.9s-0.4-0.7-0.5-1.2C1.1,27.6,1,27.2,1,26.7	c0-1.5,0.4-2.6,1.3-3.5s2-1.2,3.5-1.2c0.4,0,0.8,0.1,1.3,0.2c0.4,0.1,0.8,0.3,1.2,0.6c0.4,0.2,1.5,1.1,1.7,1.4	c0.2-0.2,1.4-1.1,1.7-1.4c0.4-0.2,0.8-0.4,1.2-0.6c0.4-0.1,0.9-0.2,1.3-0.2c1.5,0,2.7,0.4,3.5,1.2c0.9,0.8,1.3,2,1.3,3.5	c0,1.5-0.8,3-2.3,4.5l-6.3,6C10.3,37.4,10.2,37.5,10,37.5"/><path d="M50,37.5c-0.2,0-0.3-0.1-0.4-0.2l-6.3-6c-0.1-0.1-1.3-1.6-1.5-1.9c-0.2-0.3-0.4-0.7-0.5-1.2	c-0.2-0.5-0.2-0.9-0.2-1.4c0-1.5,0.4-2.6,1.3-3.5c0.9-0.8,2-1.2,3.5-1.2c0.4,0,0.8,0.1,1.3,0.2s0.8,0.3,1.2,0.6	c0.4,0.2,1.5,1.1,1.7,1.4c0.2-0.2,1.4-1.1,1.7-1.4c0.4-0.2,0.8-0.4,1.2-0.6s0.9-0.2,1.3-0.2c1.5,0,2.7,0.4,3.5,1.2s1.3,2,1.3,3.5	c0,1.5-0.8,3-2.3,4.5l-6.3,6C50.3,37.4,50.2,37.5,50,37.5"/></svg>