<?xml version="1.0" encoding="utf-8"?><svg version="1.1" xmlns="http://www.w3.org/2000/svg" xmlns:xlink="http://www.w3.org/1999/xlink" x="0px" y="0px" viewBox="0 0 60 60" width="60" height="60" fill="#ffffff" stroke="#222222" stroke-miterlimit="10" stroke-width="1.5">	<path d="M16,49c-5,1-14,6-14,6s8.3-12.4,8-15c-0.4-3.6-8.5-7.5-8.5-7.5S9.7,22.7,10,20c0.4-3.5-8-18-8-18 s13.9,10.1,18,9c3.1-0.8,4-9,4-9s12.7,8.7,16,9c3.4,0.3,17-9,17-9S45.7,16.4,46,20c0.3,3.5,12,6.5,12,6.5S45.6,37.4,46,40 c0.5,3.5,11,16,11,16s-10.6-8.1-14-7c-1.5,0.5-2,7-2,7s-2.8-9.6-12-9c-7.5,0.5-10,9-10,9S18.5,48.5,16,49z"/></svg>