<?xml version="1.0" encoding="utf-8"?><svg version="1.1" xmlns="http://www.w3.org/2000/svg" xmlns:xlink="http://www.w3.org/1999/xlink" x="0px" y="0px" viewBox="0 0 60 60" width="60" height="60" fill="#ffffff" stroke="#222222" stroke-miterlimit="10" stroke-width="1.5">	<path d="M44,49c5,1,14,6,14,6s-8.3-12.4-8-15c0.4-3.6,8.5-7.5,8.5-7.5S50.3,22.7,50,20 c-0.4-3.5,8-18,8-18s-13.9,10.1-18,9c-3.1-0.8-4-9-4-9s-12.7,8.7-16,9C16.6,11.3,3,2,3,2s11.3,14.4,11,18c-0.3,3.5-12,6.5-12,6.5 S14.4,37.4,14,40C13.5,43.5,3,56,3,56s10.6-8.1,14-7c1.5,0.5,2,7,2,7s2.8-9.6,12-9c7.5,0.5,10,9,10,9S41.5,48.5,44,49z"/></svg>