<?xml version="1.0" encoding="utf-8"?><svg version="1.1" xmlns="http://www.w3.org/2000/svg" xmlns:xlink="http://www.w3.org/1999/xlink" x="0px" y="0px" viewBox="0 0 60 60" width="60" height="60" fill="#222222" stroke="#ffffff" stroke-width=".5" paint-order="stroke fill">	<path d="M59.5,23.4c-5.5,5-10.9,10-16.4,15.1c-0.1,0-0.1,0-0.2,0c-0.1-0.2-0.3-0.5-0.4-0.8c5-5.4,10-10.8,15-16.2 c0.7,0.6,1.3,1.2,2,1.7C59.5,23.3,59.5,23.4,59.5,23.4z"/>	<path d="M16.9,38.5c-5.5-5-10.9-10-16.4-15.1c0-0.1,0-0.1,0-0.2c0.6-0.5,1.2-1.1,1.9-1.7c5,5.4,10,10.8,15.1,16.2 c-0.2,0.3-0.3,0.5-0.4,0.8C17,38.5,16.9,38.5,16.9,38.5z"/></svg>