<?xml version="1.0" encoding="utf-8"?><svg version="1.1" xmlns="http://www.w3.org/2000/svg" xmlns:xlink="http://www.w3.org/1999/xlink" x="0px" y="0px" viewBox="0 0 60 60" width="60" height="60" fill="#222222" stroke="#ffffff" stroke-width=".5" paint-order="stroke fill">	<path d="M0.5,36.6c5.5-5,10.9-10,16.4-15.1c0.1,0,0.1,0,0.2,0c0.1,0.2,0.3,0.5,0.4,0.8c-5,5.4-10,10.8-15,16.2 c-0.7-0.6-1.3-1.2-2-1.7C0.5,36.7,0.5,36.6,0.5,36.6z"/>	<path d="M43.1,21.5c5.5,5,10.9,10,16.4,15.1c0,0.1,0,0.1,0,0.2c-0.6,0.5-1.2,1.1-1.9,1.7c-5-5.4-10-10.8-15.1-16.2 c0.2-0.3,0.3-0.5,0.4-0.8C43,21.5,43.1,21.5,43.1,21.5z"/></svg>