<?xml version="1.0" encoding="utf-8"?><svg version="1.1" xmlns="http://www.w3.org/2000/svg" xmlns:xlink="http://www.w3.org/1999/xlink" x="0px" y="0px" viewBox="0 0 60 60" width="60" height="60" fill="#ffffff" stroke="#000000">	<path d="M1.5999999999999996,51.5a4.4,2.4 0 1,0 8.8,0a4.4,2.4 0 1,0 -8.8,0"/>	<path d="M10.6,57a3.9,2.4 0 1,0 7.8,0a3.9,2.4 0 1,0 -7.8,0"/><path d="M44.5,44.5c2,6,12,4,10.5-1.5l-3,0c7.5,0.5,5.5-5.5,2-5.5L51,38c10.5-1.5,11.5-11.5,0-15l3,1 c5.5-0.5,3.5-8.5-2-8l-1,2c1.5-5.5-3.5-6.5-5.5-3v1.4c0-4.3-8-4.9-9-1.9l0.5,3c-1.5-9-10.5-8-14,0l1.5-3c-3-3-9.1-3.1-10,1.9L15,15 c-4-3-9.5-1.5-7,4l-1-2c-4.5-0.5-5.5,6.5-1,7l3-1C-1.5,25.5-1.5,34.5,9,38l-3-1c-4.5,0.5-3.5,7.5,2,7l0.5-2c-2.5,5.5,7,7.5,7.5,2 l-0.5-2.5c0,5,9,6.8,9,2.5L24,42c0.6,9.5,13.5,9.5,14,0v2c2.5,4.5,7,2.3,7-2L44.5,44.5z"/></svg>