<?xml version="1.0" encoding="utf-8"?>
<!-- Generator: Adobe Illustrator 22.1.0, SVG Export Plug-In . SVG Version: 6.00 Build 0)  -->
<svg version="1.1" id="レイヤー_2" xmlns="http://www.w3.org/2000/svg" xmlns:xlink="http://www.w3.org/1999/xlink" x="0px"
	 y="0px" viewBox="0 0 60 60" style="enable-background:new 0 0 60 60;" xml:space="preserve">
<style type="text/css">
	.st0{fill:#FFFFFF;}
	.st1{fill:#FFFFFF;stroke:#000000;stroke-width:1.2;stroke-miterlimit:10;}
</style>
<g>
	<ellipse class="st0" cx="46.3" cy="51.5" rx="4.4" ry="2.4"/>
	<path d="M46.3,49.7c2.3,0,3.8,1.1,3.8,1.8s-1.5,1.8-3.8,1.8s-3.8-1.1-3.8-1.8S43.9,49.7,46.3,49.7 M46.3,48.5c-2.8,0-5,1.3-5,3
		s2.2,3,5,3s5-1.3,5-3S49,48.5,46.3,48.5L46.3,48.5z"/>
</g>
<g>
	<ellipse class="st0" cx="54.8" cy="57" rx="3.9" ry="2.4"/>
	<path d="M54.8,55.2c1.9,0,3.3,1,3.3,1.8s-1.4,1.8-3.3,1.8s-3.3-1-3.3-1.8S52.9,55.2,54.8,55.2 M54.8,54c-2.5,0-4.5,1.3-4.5,3
		s2,3,4.5,3s4.5-1.3,4.5-3S57.2,54,54.8,54L54.8,54z"/>
</g>
<path class="st1" d="M15.7,44.4c-2,6-12,4-10.5-1.5l3,0c-7.5,0.5-5.5-5.5-2-5.5l3,0.5c-10.5-1.5-11.5-11.5,0-15l-3,1
	c-5.5-0.5-3.5-8.5,2-8l1,2c-1.5-5.5,3.5-6.5,5.5-3l0,1.4c0-4.3,8-4.9,9-1.9l-0.5,3c1.5-9,10.5-8,14,0l-1.5-3c3-3,9.1-3.1,10,1.9
	l-0.5-1.4c4-3,9.5-1.5,7,4l1-2c4.5-0.5,5.5,6.5,1,7l-3-1c10.5,2.5,10.5,11.5,0,15l3-1c4.5,0.5,3.5,7.5-2,7l-0.5-2
	c2.5,5.5-7,7.5-7.5,2l0.5-2.5c0,5-9,6.8-9,2.5l0.5-2c-0.6,9.5-13.5,9.5-14,0v2c-2.5,4.5-7,2.3-7-2L15.7,44.4z"/>
</svg>
