<?xml version="1.0" encoding="utf-8"?><svg version="1.1" xmlns="http://www.w3.org/2000/svg" xmlns:xlink="http://www.w3.org/1999/xlink" x="0px" y="0px" viewBox="0 0 60 60" width="60" height="60" fill="#ffffff" stroke="#000000">	<path d="M49.9,51.5a4.4,2.4 0 1,0 8.8,0a4.4,2.4 0 1,0 -8.8,0"/>	<path d="M41.9,57a3.9,2.4 0 1,0 7.8,0a3.9,2.4 0 1,0 -7.8,0"/><path d="M15.7,44.4c-2,6-12,4-10.5-1.5l3,0c-7.5,0.5-5.5-5.5-2-5.5l3,0.5c-10.5-1.5-11.5-11.5,0-15l-3,1 c-5.5-0.5-3.5-8.5,2-8l1,2c-1.5-5.5,3.5-6.5,5.5-3l0,1.4c0-4.3,8-4.9,9-1.9l-0.5,3c1.5-9,10.5-8,14,0l-1.5-3c3-3,9.1-3.1,10,1.9 l-0.5-1.4c4-3,9.5-1.5,7,4l1-2c4.5-0.5,5.5,6.5,1,7l-3-1c10.5,2.5,10.5,11.5,0,15l3-1c4.5,0.5,3.5,7.5-2,7l-0.5-2 c2.5,5.5-7,7.5-7.5,2l0.5-2.5c0,5-9,6.8-9,2.5l0.5-2c-0.6,9.5-13.5,9.5-14,0v2c-2.5,4.5-7,2.3-7-2L15.7,44.4z"/></svg>