<?xml version="1.0" encoding="utf-8"?>
<!-- Generator: Adobe Illustrator 22.1.0, SVG Export Plug-In . SVG Version: 6.00 Build 0)  -->
<svg version="1.1" id="レイヤー_2" xmlns="http://www.w3.org/2000/svg" xmlns:xlink="http://www.w3.org/1999/xlink" x="0px"
	 y="0px" viewBox="0 0 60 60" style="enable-background:new 0 0 60 60;" xml:space="preserve">
<style type="text/css">
	.st0{fill:#FFFFFF;}
	.st1{fill:#FFFFFF;stroke:#000000;stroke-width:1.2;stroke-miterlimit:10;}
</style>
<g>
	<ellipse class="st0" cx="14" cy="51.5" rx="4.4" ry="2.4"/>
	<path d="M14,49.7c2.3,0,3.8,1.1,3.8,1.8s-1.5,1.8-3.8,1.8s-3.8-1.1-3.8-1.8S11.7,49.7,14,49.7 M14,48.5c-2.8,0-5,1.3-5,3s2.2,3,5,3
		s5-1.3,5-3S16.8,48.5,14,48.5L14,48.5z"/>
</g>
<g>
	<ellipse class="st0" cx="5.5" cy="57" rx="3.9" ry="2.4"/>
	<path d="M5.5,55.2c1.9,0,3.3,1,3.3,1.8s-1.4,1.8-3.3,1.8s-3.3-1-3.3-1.8S3.6,55.2,5.5,55.2 M5.5,54C3,54,1,55.3,1,57s2,3,4.5,3
		s4.5-1.3,4.5-3S8,54,5.5,54L5.5,54z"/>
</g>
<path class="st1" d="M44.5,44.5c2,6,12,4,10.5-1.5l-3,0c7.5,0.5,5.5-5.5,2-5.5L51,38c10.5-1.5,11.5-11.5,0-15l3,1
	c5.5-0.5,3.5-8.5-2-8l-1,2c1.5-5.5-3.5-6.5-5.5-3v1.4c0-4.3-8-4.9-9-1.9l0.5,3c-1.5-9-10.5-8-14,0l1.5-3c-3-3-9.1-3.1-10,1.9L15,15
	c-4-3-9.5-1.5-7,4l-1-2c-4.5-0.5-5.5,6.5-1,7l3-1C-1.5,25.5-1.5,34.5,9,38l-3-1c-4.5,0.5-3.5,7.5,2,7l0.5-2c-2.5,5.5,7,7.5,7.5,2
	l-0.5-2.5c0,5,9,6.8,9,2.5L24,42c0.6,9.5,13.5,9.5,14,0v2c2.5,4.5,7,2.3,7-2L44.5,44.5z"/>
</svg>
