<svg xmlns="http://www.w3.org/2000/svg" viewBox="0 0 90 90" width="90" height="90"><defs>   <linearGradient  gradientTransform="rotate(90)" id="gradient">                                 <stop offset="5%" style="stop-color:#ea619a" /><stop offset="25%" style="stop-color:#e985af" /><stop offset="50%" style="stop-color:#e8a9c4" /><stop offset="75%" style="stop-color:#e6cad6" /><stop offset="95%" style="stop-color:#e6e6e6" /></linearGradient></defs><path fill="url(#gradient)" stroke="#bc358f" stroke-width="1.5px" class="st0" d="M29.4,22.8h38.3c4.4,0,8,3.6,8,8v28.3c0,4.4-5.3,7.5-5.3,7.5s12.5,3.5,12.6,6.4 c0.2,3.7-4.3,3.3-7.9,6.1c-8.3,6.5,13.7,8.8,13,9s-27.1-1.9-20.6-8.3c3.1-3.1,6.9-3.6,6.1-6.9c-0.4-1.9-12.8-5.8-12.8-5.8H29.4 c-4.4,0-8-3.6-8-8V30.8C21.4,26.4,25,22.8,29.4,22.8z"/></svg>