<?xml version="1.0" encoding="utf-8"?><svg version="1.1" xmlns="http://www.w3.org/2000/svg" xmlns:xlink="http://www.w3.org/1999/xlink" x="0px" y="0px" width="90" height="90"><defs>   <linearGradient id="gradient" gradientTransform="rotate(90)">                                 <stop offset="5%" style="stop-color:#0c90f2" /><stop offset="25%" style="stop-color:#4eabf1" /><stop offset="50%" style="stop-color:#86c3f0" /><stop offset="75%" style="stop-color:#b3d7ef" /><stop offset="95%" style="stop-color:#dfe8ed" /></linearGradient></defs><path fill="url(#gradient)" stroke="#0784AA" stroke-width="1.5px" d="M60.7,22.8H22.3c-4.4,0-8,3.6-8,8v28.3c0,4.4,5.3,7.5,5.3,7.5S7.2,70.2,7.1,73.1 c-0.2,3.7,4.3,3.3,7.9,6.1c8.3,6.5-13.7,8.8-13,9s27.1-1.9,20.6-8.3c-3.1-3.1-6.9-3.6-6.1-6.9c0.4-1.9,12.8-5.8,12.8-5.8h31.4 c4.4,0,8-3.6,8-8V30.8C68.7,26.4,65.1,22.8,60.7,22.8z"/></svg>