<svg xmlns="http://www.w3.org/2000/svg" width="8.51" height="7.517" viewBox="0 0 8.51 7.517">
  <path id="Check_40" data-name="Check 40" d="M1264.137,700.057c-.385-.207-.813.192-1.064.428-.575.561-1.063,1.211-1.61,1.8-.606.65-1.167,1.3-1.787,1.935a5.318,5.318,0,0,0-.975,1.182,19.43,19.43,0,0,0-1.58-1.536c-.428-.325-1.137-.562-1.123.221a5.008,5.008,0,0,0,1.6,2.806,1.683,1.683,0,0,0,1.078.62c.517.03,1.049-.591,1.359-.93.547-.591.99-1.255,1.492-1.861.65-.8,1.315-1.581,1.949-2.393.4-.5,1.654-1.743.665-2.275Zm-7.489,3.973a.112.112,0,0,0-.059.014.727.727,0,0,1-.163-.058c.045-.029.118-.015.221.044Zm0,0" transform="translate(-1255.999 -700)" fill="#fff"/>
</svg>
