<?xml version="1.0" encoding="utf-8"?>
<!-- Generator: Adobe Illustrator 16.0.3, SVG Export Plug-In . SVG Version: 6.00 Build 0)  -->
<!DOCTYPE svg PUBLIC "-//W3C//DTD SVG 1.1//EN" "http://www.w3.org/Graphics/SVG/1.1/DTD/svg11.dtd">
<svg version="1.1" id="Layer_1" xmlns="http://www.w3.org/2000/svg" xmlns:xlink="http://www.w3.org/1999/xlink" x="0px" y="0px"
	 width="20px" height="10px" viewBox="0 0 20 10" enable-background="new 0 0 20 10" xml:space="preserve">
<polygon fill="#FF0000" points="0,0 3.928,5 0,10 20,10 20,0 "/>
<g>
	<path fill="#FFFFFF" d="M4.71,10.535v-9.75h1.5v0.75c0.121-0.129,0.205-0.217,0.252-0.264S6.59,1.152,6.706,1.054
		S6.92,0.888,7.004,0.849s0.191-0.077,0.322-0.114s0.267-0.056,0.407-0.056c0.254,0,0.48,0.046,0.68,0.138s0.363,0.202,0.492,0.331
		s0.238,0.313,0.328,0.554S9.392,2.16,9.437,2.355s0.078,0.459,0.102,0.791s0.037,0.601,0.041,0.806s0.006,0.487,0.006,0.847V4.91
		c0,0.328-0.016,0.645-0.049,0.949C9.503,6.164,9.442,6.473,9.354,6.787C9.266,7.102,9.155,7.375,9.02,7.605S8.706,8.023,8.481,8.17
		S8,8.391,7.71,8.391c-0.508,0-1.008-0.26-1.5-0.779v2.924H4.71z M7.335,7.16c0.16,0,0.294-0.059,0.401-0.176
		s0.186-0.285,0.234-0.502s0.082-0.432,0.1-0.644c0.018-0.213,0.026-0.462,0.026-0.747l-0.012-0.99c0-0.176-0.001-0.317-0.003-0.425
		s-0.009-0.25-0.021-0.428s-0.028-0.323-0.05-0.437S7.958,2.574,7.916,2.437S7.821,2.193,7.76,2.115S7.622,1.97,7.526,1.916
		S7.322,1.833,7.201,1.833c-0.059,0-0.114,0.004-0.167,0.012S6.926,1.866,6.87,1.883S6.766,1.917,6.729,1.93
		S6.644,1.966,6.585,1.998S6.485,2.051,6.459,2.065S6.39,2.105,6.328,2.144S6.226,2.207,6.21,2.214v4.641
		C6.554,7.059,6.929,7.16,7.335,7.16z"/>
	<path fill="#FFFFFF" d="M10.815,8.285v-7.5h1.5v1.002c0.152-0.297,0.374-0.556,0.665-0.776s0.614-0.331,0.97-0.331
		c0.012,0,0.092,0.008,0.24,0.023v1.658c-0.277-0.109-0.555-0.164-0.832-0.164c-0.313,0-0.564,0.094-0.756,0.281
		s-0.287,0.436-0.287,0.744v5.063H10.815z"/>
	<path fill="#FFFFFF" d="M18.655,7.688c-0.348,0.469-0.924,0.703-1.729,0.703s-1.381-0.234-1.729-0.703s-0.521-1.145-0.521-2.028
		V3.41c0-0.883,0.174-1.559,0.521-2.027s0.924-0.703,1.729-0.703s1.381,0.234,1.729,0.703s0.521,1.145,0.521,2.027v2.25
		C19.177,6.543,19.003,7.219,18.655,7.688z M16.648,7.113c0.08,0.031,0.173,0.047,0.278,0.047s0.198-0.016,0.278-0.047
		s0.146-0.07,0.199-0.115s0.097-0.111,0.132-0.199s0.063-0.164,0.082-0.23s0.033-0.162,0.041-0.287s0.013-0.225,0.015-0.296
		c0.002-0.072,0.003-0.181,0.003-0.325V3.41c0-0.145-0.001-0.253-0.003-0.325s-0.007-0.171-0.015-0.296s-0.021-0.221-0.041-0.287
		s-0.047-0.144-0.082-0.231s-0.079-0.154-0.132-0.199s-0.119-0.083-0.199-0.114S17.032,1.91,16.927,1.91s-0.198,0.016-0.278,0.047
		s-0.146,0.069-0.199,0.114s-0.097,0.111-0.132,0.199s-0.063,0.165-0.082,0.231s-0.033,0.162-0.041,0.287s-0.013,0.224-0.015,0.296
		s-0.003,0.181-0.003,0.325v2.25c0,0.145,0.001,0.253,0.003,0.325c0.002,0.072,0.007,0.171,0.015,0.296s0.021,0.221,0.041,0.287
		s0.047,0.143,0.082,0.23s0.079,0.154,0.132,0.199S16.568,7.082,16.648,7.113z"/>
</g>
<g>
</g>
<g>
</g>
<g>
</g>
<g>
</g>
<g>
</g>
<g>
</g>
</svg>
