<?xml version="1.0" encoding="utf-8"?>
<!-- Generator: Adobe Illustrator 25.4.1, SVG Export Plug-In . SVG Version: 6.00 Build 0)  -->
<svg version="1.1" id="Warstwa_1" xmlns="http://www.w3.org/2000/svg" xmlns:xlink="http://www.w3.org/1999/xlink" x="0px" y="0px"
	 viewBox="0 0 20.1200008 15.96" style="enable-background:new 0 0 20.1200008 15.96;" xml:space="preserve">
<style type="text/css">
	.st0{fill:#FFFFFF;}
</style>
<g>
	<path class="st0" d="M11.4033203,15.8828125c-0.0048828,0-0.0097656,0-0.0146484,0h-2.668457c-0.0014648,0-0.003418,0-0.0048828,0
		c-0.7553711,0-1.4018555-0.5654297-1.5019531-1.3173828l-0.1645508-1.1337891
		c-0.0634766-0.0351562-0.1264648-0.0722656-0.1884766-0.109375L5.784668,13.7548828
		c-0.7265625,0.2773438-1.515625-0.0078125-1.890625-0.6679688l-1.3325195-2.3046875
		C2.1835938,10.1201172,2.340332,9.2998047,2.9316406,8.8266602l0.918457-0.7182617
		c-0.0014648-0.0742188-0.0014648-0.1484375,0-0.2226562l-0.909668-0.7109375
		c-0.5976562-0.472168-0.7568359-1.3183594-0.3740234-1.9707031l1.3339844-2.3085938
		c0.3642578-0.6484375,1.1733398-0.9360352,1.8759766-0.6601562L6.862793,2.671875
		c0.0610352-0.0371094,0.1230469-0.0727539,0.1855469-0.1079102l0.1665039-1.1508789
		c0.1044922-0.7456055,0.7583008-1.2709961,1.5112305-1.3022461h2.6723633c0.0039062,0,0.0078125,0,0.0117188,0
		c0.75,0,1.3955078,0.5629883,1.4980469,1.3139648L13.0722656,2.5625c0.0634766,0.0351562,0.1259766,0.0717773,0.1875,0.1088867
		l1.0761719-0.4331055c0.7246094-0.2758789,1.5136719,0.0087891,1.8896484,0.6669922l1.3339844,2.3051758
		c0.3769531,0.6611328,0.2216797,1.4814453-0.3681641,1.9550781l-0.9199219,0.7192383
		c0.0019531,0.0742188,0.0019531,0.1484375,0,0.2226562l0.9179688,0.7172852
		c0.5849609,0.4682617,0.7441406,1.2836914,0.3798828,1.9379883l-1.3486328,2.3359375
		c-0.3652344,0.6484375-1.1728516,0.9335938-1.875,0.6601562l-1.0888672-0.4375
		c-0.0615234,0.0371094-0.1230469,0.0732422-0.1855469,0.1074219l-0.1660156,1.1503906
		C12.7988281,15.3242188,12.1542969,15.8828125,11.4033203,15.8828125z M8.9951172,14.3115234l0.0009766,0.0058594
		C8.9960938,14.3154297,8.9956055,14.3134766,8.9951172,14.3115234z M8.7182617,14.0820312c-0.0004883,0-0.0004883,0-0.0009766,0
		H8.71875H8.7182617z M7.0888672,11.2890625l0.402832,0.2939453c0.2324219,0.1689453,0.4858398,0.3164062,0.7529297,0.4375
		l0.4482422,0.203125l0.269043,1.8583984h2.1962891l0.2675781-1.8564453l0.4462891-0.2050781
		c0.2675781-0.1220703,0.5224609-0.2705078,0.7568359-0.4394531l0.4013672-0.2900391l1.75,0.7021484l1.1015625-1.90625
		L14.3916016,8.921875l0.0566406-0.5004883c0.0322266-0.2822266,0.0322266-0.5683594,0-0.8505859l-0.0566406-0.5004883
		l1.4902344-1.1655273L14.7792969,4l-1.7460938,0.703125l-0.4033203-0.2915039
		c-0.234375-0.1704102-0.4882812-0.3173828-0.7529297-0.4375l-0.4492188-0.2036133l-0.2675781-1.8598633H8.9614258
		L8.6933594,3.7685547L8.246582,3.9726562C7.9824219,4.09375,7.7280273,4.2416992,7.4912109,4.4125977L7.0888672,4.703125
		L5.3408203,4L4.2397461,5.9057617l1.4902344,1.1655273L5.6728516,7.5717773c-0.0322266,0.2822266-0.0322266,0.5688477,0,0.8510742
		l0.0571289,0.5009766l-1.4902344,1.1650391l1.1010742,1.9042969L7.0888672,11.2890625z M11.3945312,14.0820312
		c0,0-0.0009766,0-0.0019531,0h0.0048828C11.3964844,14.0820312,11.3955078,14.0820312,11.3945312,14.0820312z
		 M14.6601562,12.2021484c-0.0009766,0.0019531-0.0019531,0.0039062-0.0039062,0.0058594L14.6601562,12.2021484z M5.4536133,12.1875
		l0.0019531,0.0039062C5.4545898,12.1904297,5.4541016,12.1894531,5.4536133,12.1875z M4.1235352,6.1069336L4.1220703,6.109375
		C4.1225586,6.1083984,4.1230469,6.1074219,4.1235352,6.1069336z M14.6650391,3.8022461
		c0.0009766,0.0004883,0.0009766,0.0014648,0.0019531,0.0024414L14.6650391,3.8022461z M5.4643555,3.7866211l-0.003418,0.0058594
		C5.4619141,3.7905273,5.4633789,3.7885742,5.4643555,3.7866211z M8.7236328,1.9106445h-0.003418
		C8.7216797,1.909668,8.7231445,1.9101562,8.7236328,1.9106445z M11.4013672,1.9106445c0.0019531,0,0.0019531,0,0.0039062,0
		H11.4013672z M11.1259766,1.6748047c0,0.0009766,0,0.0024414,0,0.003418V1.6748047z M8.996582,1.6669922v0.0019531
		C8.996582,1.668457,8.996582,1.6679688,8.996582,1.6669922z"/>
</g>
<g>
	<path class="st0" d="M10.0595703,10.4492188H10.059082c-1.3520508,0-2.4526367-1.1005859-2.4526367-2.4526367
		s1.1005859-2.4521484,2.4526367-2.4521484s2.4526367,1.1000977,2.4526367,2.4521484
		C12.5087891,9.3476562,11.4091797,10.4472656,10.0595703,10.4492188z M10.059082,6.9448242
		c-0.5800781,0-1.0522461,0.4716797-1.0522461,1.0517578s0.4716797,1.0522461,1.0517578,1.0522461
		c0.5795898-0.0009766,1.0517578-0.4731445,1.0527344-1.0537109C11.1113281,7.4165039,10.6391602,6.9448242,10.059082,6.9448242z"/>
</g>
</svg>
