<svg viewBox="0 0 64.76 43.6" xmlns="http://www.w3.org/2000/svg"><path d="m49.66 4.72h-45.09c-2.53 0-4.57 2.04-4.57 4.56v29.75c0 2.53 2.04 4.57 4.57 4.57h45.09c2.52 0 4.57-2.04 4.57-4.57v-29.75c0-2.52-2.04-4.57-4.57-4.57zm-26.31 30.57c-.14.17-.3.32-.47.46 0 0-.19.16-.25.21-4.82 3.79-7.15 2.3-7.15 2.3 1.48-1.42.53-4.95.53-4.95-.19-1.15.08-2.36.88-3.33 1.47-1.78 4.1-2.04 5.88-.57s2.04 4.1.57 5.88zm2.31-6.49c-.31-.53-.71-1.01-1.21-1.42s-1.05-.71-1.63-.91l2.47-3 2.84 2.34-2.47 3zm12.66-15.4-8.89 10.82-2.84-2.34 8.89-10.82c.65-.79 1.81-.9 2.59-.25.79.65.9 1.81.25 2.59z" fill="#f4e8d9"/><path d="m46.02 0-4.6 8.02 8.26 1.21z" fill="#c43c26"/><path d="m49.66 4.72h-45.09c-2.53 0-4.57 2.04-4.57 4.56v29.75c0 2.52 2.04 4.57 4.57 4.57h45.09c2.52 0 4.57-2.04 4.57-4.57v-29.75c0-2.52-2.04-4.57-4.57-4.57z" fill="#f4e8d9"/><path d="m62.16 0h-16.13v10.7 2.42 2.83c0 1.01.82 1.83 1.83 1.83h15.08c1.01 0 1.83-.82 1.83-1.83v-2.82-2.42-10.71z" fill="#f9826e"/><path d="m53.04 7.38c.25.17.45.4.59.7s.21.65.21 1.04-.07.73-.21 1.02-.34.52-.59.68-.54.24-.87.24c-.27 0-.51-.06-.72-.17s-.37-.27-.49-.47v1.57c0 .13-.04.24-.13.32s-.2.12-.35.12-.26-.04-.35-.12-.13-.19-.13-.32v-4.38c0-.14.04-.25.13-.33s.2-.12.34-.12.26.04.35.12.13.19.13.33v.19c.11-.21.28-.37.49-.49s.46-.17.73-.17c.32 0 .61.08.87.25zm-.41 2.62c.17-.21.25-.5.25-.88s-.08-.69-.25-.91-.41-.32-.71-.32-.55.11-.71.32c-.17.21-.25.51-.25.9s.08.68.25.89.41.32.71.32.54-.1.71-.31z" fill="#fff"/><path d="m57.06 7.24c.08.07.12.17.12.3s-.03.24-.1.31-.19.11-.36.13l-.23.02c-.3.03-.53.13-.67.31-.14.17-.21.39-.21.65v1.62c0 .15-.05.26-.14.34s-.21.12-.35.12-.25-.04-.34-.12-.13-.19-.13-.34v-2.98c0-.14.04-.25.13-.33s.2-.12.33-.12.24.04.32.11.12.18.12.32v.31c.1-.23.24-.4.44-.52.19-.12.41-.19.64-.21h.11c.13-.02.24 0 .32.08z" fill="#fff"/><path d="m58.22 10.82c-.29-.16-.52-.39-.67-.69-.16-.3-.24-.64-.24-1.04s.08-.74.24-1.04.38-.52.67-.68.63-.24 1.01-.24.72.08 1.01.24.51.39.67.68.23.64.23 1.04-.08.74-.23 1.04c-.16.3-.38.53-.67.69s-.63.24-1.01.24-.72-.08-1.01-.24zm1.72-.82c.16-.21.25-.51.25-.91s-.08-.7-.25-.91-.4-.31-.71-.31-.55.1-.71.31-.25.51-.25.91.08.7.25.91c.16.21.4.31.71.31s.55-.1.72-.31z" fill="#fff"/><g fill="#264de4"><path d="m22.81 26.47c.58.2 1.13.5 1.63.91s.9.9 1.21 1.42l2.47-3-2.84-2.34-2.47 3z"/><path d="m35.47 11.07-8.89 10.82 2.84 2.34 8.89-10.82c.65-.79.53-1.95-.25-2.59-.79-.65-1.95-.53-2.59.25z"/><path d="m16.89 29.99c-.8.97-1.07 2.18-.88 3.33 0 0 .95 3.53-.53 4.95 0 0 2.33 1.49 7.15-2.3.06-.04.25-.21.25-.21.16-.14.32-.29.47-.46 1.47-1.78 1.21-4.42-.57-5.88-1.78-1.47-4.42-1.21-5.88.57z"/><circle cx="6.62" cy="11.33" r="1.37"/><circle cx="12.05" cy="11.33" r="1.37"/><circle cx="17.31" cy="11.33" r="1.37"/></g></svg>