<?xml version="1.0" encoding="utf-8"?>
<!-- Generator: Adobe Illustrator 23.0.1, SVG Export Plug-In . SVG Version: 6.00 Build 0)  -->
<svg version="1.1" id="Layer_1" xmlns="http://www.w3.org/2000/svg" xmlns:xlink="http://www.w3.org/1999/xlink" x="0px" y="0px"
	 viewBox="0 0 200 200" style="enable-background:new 0 0 200 200;" xml:space="preserve">
<style type="text/css">
	.st0{fill:#037FFF;}
</style>
<g>
	<path class="st0" d="M159.43,37.77l-13.74-13.73C130.18,8.54,109.56,0,87.62,0H71.76C57.5,0,45.89,11.61,45.89,25.87v8.09H37.9
		c-11.79,0-21.39,9.6-21.39,21.39v123.26c0,11.79,9.59,21.38,21.38,21.38h90.25c11.79,0,21.39-9.6,21.39-21.39v-10.87h8.09
		c14.27,0,25.87-11.61,25.87-25.87V95.86C183.49,73.92,174.94,53.29,159.43,37.77z M135.09,178.61c0,3.83-3.12,6.95-6.95,6.95H37.89
		c-3.83,0-6.95-3.12-6.95-6.95V55.36c0-3.83,3.12-6.95,6.95-6.95h49.73c9.01,0,17.48,3.51,23.86,9.88L125.2,72
		c6.37,6.37,9.89,14.85,9.89,23.86V178.61z M169.06,141.87c0,6.31-5.14,11.44-11.44,11.44h-8.09V95.86
		c0-12.87-5.01-24.97-14.11-34.07l-13.72-13.72c-9.1-9.1-21.2-14.11-34.06-14.11h-27.3v-8.09c0-6.31,5.13-11.44,11.44-11.44h15.86
		c18.08,0,35.08,7.04,47.86,19.82l13.74,13.72c12.79,12.8,19.84,29.8,19.84,47.88V141.87z"/>
	<path class="st0" d="M113.79,81.14H52.24c-3.99,0-7.22,3.23-7.22,7.22s3.23,7.22,7.22,7.22h61.55c3.99,0,7.22-3.23,7.22-7.22
		S117.78,81.14,113.79,81.14z"/>
	<path class="st0" d="M113.79,115.28H52.24c-3.99,0-7.22,3.23-7.22,7.22s3.23,7.22,7.22,7.22h61.55c3.99,0,7.22-3.23,7.22-7.22
		S117.78,115.28,113.79,115.28z"/>
	<path class="st0" d="M113.79,149.41H52.24c-3.99,0-7.22,3.23-7.22,7.22s3.23,7.22,7.22,7.22h61.55c3.99,0,7.22-3.23,7.22-7.22
		S117.78,149.41,113.79,149.41z"/>
</g>
</svg>
