<?xml version="1.0" encoding="utf-8"?>
<!-- Generator: Adobe Illustrator 23.0.1, SVG Export Plug-In . SVG Version: 6.00 Build 0)  -->
<svg version="1.1" id="Layer_1" xmlns="http://www.w3.org/2000/svg" xmlns:xlink="http://www.w3.org/1999/xlink" x="0px" y="0px"
	 viewBox="0 0 200 200" style="enable-background:new 0 0 200 200;" xml:space="preserve">
<style type="text/css">
	.st0{fill:#037FFF;}
</style>
<g>
	<g>
		<g>
			<path class="st0" d="M100,195.13l-7.54-5.7C54.14,160.52-3.76,116.82,0.19,61.51C2,36.27,16.74,16.39,39.63,8.34
				C60.45,1.01,83.43,5.52,100,19.72c16.57-14.21,39.55-18.72,60.38-11.39c22.89,8.05,37.63,27.93,39.43,53.18
				c3.95,55.31-53.97,99.01-92.29,127.93L100,195.13z M59.92,18.83c-5.25,0-10.53,0.87-15.66,2.67c-17.48,6.15-28.74,21.47-30.14,41
				c-1.49,20.81,7.47,41.86,27.39,64.36c17.35,19.6,40.05,36.84,58.49,50.76c18.44-13.92,41.13-31.15,58.48-50.75
				c19.92-22.51,28.88-43.57,27.4-64.38c-1.4-19.52-12.66-34.85-30.14-41c-17.82-6.27-37.69-1.31-50.63,12.64L100,39.67l-5.12-5.52
				C85.66,24.21,72.92,18.83,59.92,18.83z"/>
		</g>
	</g>
	<g>
		<g>
			<path class="st0" d="M35.95,93.74c-2.73,0-5.32-1.61-6.44-4.29c-3.74-8.94-5.33-17.75-4.73-26.18
				c1.19-16.7,11.03-28.91,26.32-32.68c2.91-0.72,5.92-1.08,8.94-1.08c6.64,0,13.14,1.8,18.8,5.21c3.3,1.99,4.37,6.28,2.38,9.58
				c-1.99,3.3-6.28,4.37-9.58,2.38c-3.49-2.1-7.5-3.21-11.6-3.21c-1.9,0-3.78,0.23-5.59,0.68c-4.38,1.08-14.67,5.2-15.74,20.12
				c-0.45,6.23,0.79,12.89,3.69,19.8c1.49,3.56-0.19,7.65-3.75,9.14C37.76,93.57,36.85,93.74,35.95,93.74z"/>
		</g>
	</g>
</g>
</svg>
