<?xml version="1.0" encoding="utf-8"?>
<!-- Generator: Adobe Illustrator 23.0.1, SVG Export Plug-In . SVG Version: 6.00 Build 0)  -->
<svg version="1.1" id="Layer_1" xmlns="http://www.w3.org/2000/svg" xmlns:xlink="http://www.w3.org/1999/xlink" x="0px" y="0px"
	 viewBox="0 0 200 200" style="enable-background:new 0 0 200 200;" xml:space="preserve">
<style type="text/css">
	.st0{fill:#037FFF;}
</style>
<g>
	<path class="st0" d="M100,107.04c-41.61,0-75.33,33.73-75.33,75.33c0,9.73,7.89,17.62,17.62,17.62H157.6c0.04,0,0.07,0,0.11,0
		c9.73,0,17.62-7.89,17.62-17.62C175.33,140.77,141.61,107.04,100,107.04z M157.69,185.78l-0.04,0h-0.04H42.29
		c-1.87,0-3.4-1.53-3.4-3.4c0-33.7,27.41-61.11,61.11-61.11s61.11,27.41,61.11,61.11C161.11,184.25,159.59,185.78,157.69,185.78z"/>
	<path class="st0" d="M41.99,81.67h2.37c4.1,0,7.42-3.32,7.42-7.42V61.74c0-26.6,21.57-48.16,48.16-48.15
		c26.59,0,48.15,21.56,48.15,48.15v8.37c-0.13,0.01-0.25,0.02-0.38,0.02h-10.72c0.6-2.68,0.93-5.47,0.93-8.33
		c0-20.98-17.01-37.99-37.99-37.99c-20.98,0-37.99,17.01-37.99,37.99s17.01,37.99,37.99,37.99c16.51,0,30.55-10.53,35.79-25.24
		h11.99c0.13,0,0.26-0.02,0.39-0.02c0.12,3.99,3.39,7.2,7.41,7.2h2.37c7.33,0,13.26-5.94,13.26-13.26V55.74
		c0.01-7.07-5.53-12.89-12.59-13.24C147.96,10.12,113.11-7.53,80.74,3.08C62.07,9.2,47.44,23.84,41.32,42.5
		c-7.06,0.34-12.6,6.17-12.59,13.24v12.67C28.73,75.73,34.67,81.67,41.99,81.67z M99.95,85.56c-13.11,0-23.77-10.66-23.77-23.77
		c0-13.1,10.66-23.77,23.77-23.77c13.1,0,23.77,10.66,23.77,23.77c0,2.93-0.54,5.74-1.51,8.33h-7.21c-0.72-1.12-1.97-1.86-3.4-1.86
		h-4.33c-2.23,0-4.05,1.81-4.05,4.05c0,2.23,1.81,4.05,4.05,4.05h4.33c1.41,0,2.65-0.72,3.37-1.81h5.02
		C115.76,81.16,108.36,85.56,99.95,85.56z"/>
</g>
</svg>
