<?xml version="1.0" encoding="utf-8"?>
<!-- Generator: Adobe Illustrator 23.0.1, SVG Export Plug-In . SVG Version: 6.00 Build 0)  -->
<svg version="1.1" id="Layer_1" xmlns="http://www.w3.org/2000/svg" xmlns:xlink="http://www.w3.org/1999/xlink" x="0px" y="0px"
	 viewBox="0 0 200 200" style="enable-background:new 0 0 200 200;" xml:space="preserve">
<style type="text/css">
	.st0{fill:#037FFF;}
</style>
<g>
	<g>
		<path class="st0" d="M100,200C44.86,200,0,155.14,0,100S44.86,0,100,0c55.14,0,100,44.86,100,100S155.14,200,100,200z M100,14.24
			c-47.29,0-85.76,38.47-85.76,85.76c0,47.29,38.47,85.76,85.76,85.76c47.29,0,85.76-38.47,85.76-85.76
			C185.76,52.71,147.29,14.24,100,14.24z"/>
	</g>
	<g>
		<path class="st0" d="M132.11,93.25L91.09,60.56c-5.66-4.51-14.02-0.48-14.02,6.75v65.38c0,7.23,8.36,11.26,14.02,6.75l41.03-32.69
			C136.45,103.3,136.45,96.7,132.11,93.25z"/>
	</g>
</g>
</svg>
