<?xml version="1.0" encoding="utf-8"?>
<svg viewBox="0 0 17 22" width="17px" height="22px" xmlns="http://www.w3.org/2000/svg">
  <path d="M 7.678 21.076 C 1.624 12.437 0.5 11.55 0.5 8.375 C 0.5 4.026 4.082 0.5 8.5 0.5 C 12.918 0.5 16.5 4.026 16.5 8.375 C 16.5 11.55 15.376 12.437 9.322 21.076 C 8.925 21.641 8.075 21.641 7.678 21.076 Z M 8.5 11.656 C 10.341 11.656 11.833 10.187 11.833 8.375 C 11.833 6.563 10.341 5.094 8.5 5.094 C 6.659 5.094 5.167 6.563 5.167 8.375 C 5.167 10.187 6.659 11.656 8.5 11.656 Z" fill="currentColor"/>
</svg>