<svg width="1027" height="270" viewBox="0 0 1027 270" fill="none" xmlns="http://www.w3.org/2000/svg">
<mask id="path-1-outside-1" maskUnits="userSpaceOnUse" x="-0.456514" y="16.6994" width="224.716" height="227.948" fill="black">
<rect fill="white" x="-0.456514" y="16.6994" width="224.716" height="227.948"/>
<path d="M136.884 202.646C136.884 202.646 68.6541 197.241 50.5511 148.462C40.9168 122.503 73.1902 100.273 73.1902 100.273C73.1902 100.273 61.7052 100.273 46.7257 92.1903C39.3744 88.2236 31.6555 76.8688 31.6555 76.8688C31.6555 76.8688 43.0782 61.8098 73.1902 65.5963C90.3971 67.76 102.566 87.2327 102.566 87.2327C102.566 87.2327 107.415 54.5098 127.648 50.1905C150.462 45.3199 166.044 50.1903 166.044 50.1903C166.044 50.1903 161.871 65.5963 151.491 76.8689C143.913 85.0994 139.614 86.8361 137.845 87.174C144.276 86.8798 180.786 86.7879 181.032 122.611C181.432 180.754 136.884 202.646 136.884 202.646Z"/>
</mask>
<path d="M137.845 87.174L139.91 97.9785L137.342 76.1855L137.845 87.174ZM136.884 87.2327L135.908 76.2761L134.572 97.9871L136.884 87.2327ZM137.342 76.1855C136.945 76.2037 136.622 76.2232 136.381 76.2397C136.26 76.2479 136.16 76.2554 136.081 76.2617C136.042 76.2648 136.007 76.2676 135.978 76.27C135.964 76.2712 135.951 76.2723 135.939 76.2733C135.933 76.2738 135.928 76.2743 135.923 76.2748C135.92 76.275 135.918 76.2752 135.915 76.2754C135.914 76.2755 135.913 76.2757 135.912 76.2758C135.911 76.2758 135.911 76.2759 135.91 76.2759C135.91 76.2759 135.909 76.276 135.909 76.276C135.909 76.276 135.908 76.2761 136.884 87.2327C137.859 98.1894 137.858 98.1895 137.858 98.1895C137.858 98.1895 137.857 98.1896 137.857 98.1896C137.856 98.1896 137.856 98.1897 137.855 98.1897C137.854 98.1898 137.853 98.1899 137.852 98.19C137.85 98.1902 137.848 98.1904 137.846 98.1905C137.842 98.1909 137.839 98.1912 137.836 98.1915C137.829 98.192 137.824 98.1924 137.82 98.1928C137.813 98.1934 137.81 98.1936 137.812 98.1935C137.816 98.1931 137.84 98.1913 137.882 98.1884C137.966 98.1827 138.124 98.1728 138.348 98.1625L137.342 76.1855ZM136.884 87.2327C134.572 97.9871 134.576 97.9881 134.581 97.989C134.582 97.9893 134.586 97.9902 134.589 97.9909C134.595 97.9921 134.601 97.9933 134.607 97.9945C134.618 97.997 134.63 97.9994 134.642 98.0018C134.665 98.0067 134.688 98.0115 134.712 98.0162C134.759 98.0257 134.806 98.0349 134.854 98.0439C134.949 98.0618 135.046 98.0788 135.145 98.0947C135.341 98.1265 135.544 98.154 135.752 98.1766C136.168 98.2219 136.603 98.2474 137.055 98.25C137.961 98.2554 138.915 98.1686 139.91 97.9785L135.781 76.3695C136.122 76.3043 136.595 76.247 137.184 76.2504C137.477 76.2521 137.794 76.2689 138.132 76.3057C138.301 76.3241 138.474 76.3473 138.652 76.376C138.74 76.3903 138.83 76.406 138.921 76.4231C138.966 76.4316 139.011 76.4404 139.057 76.4497C139.08 76.4543 139.103 76.459 139.126 76.4637C139.137 76.4661 139.149 76.4685 139.16 76.471C139.166 76.4722 139.172 76.4734 139.178 76.4747C139.181 76.4753 139.185 76.4762 139.186 76.4765C139.191 76.4774 139.195 76.4784 136.884 87.2327ZM50.5511 148.462L29.9257 156.117L50.5511 148.462ZM136.884 202.646L135.146 224.577L141.166 225.054L146.586 222.39L136.884 202.646ZM181.032 122.611L203.032 122.46L203.032 122.46L181.032 122.611ZM73.1902 100.273L85.67 118.391L143.912 78.2731L73.1902 78.2731L73.1902 100.273ZM137.845 87.174L133.716 65.565L138.851 109.151L137.845 87.174ZM31.6555 76.8688L14.1275 63.5733L4.57565 76.1658L13.4613 89.237L31.6555 76.8688ZM46.7257 92.1903L57.1728 72.8291L46.7257 92.1903ZM102.566 87.2327L83.9087 98.8913L115.57 149.557L124.328 90.4578L102.566 87.2327ZM73.1902 65.5963L70.4454 87.4244L70.4454 87.4244L73.1902 65.5963ZM166.044 50.1903L187.279 55.9429L192.815 35.5083L172.608 29.1922L166.044 50.1903ZM127.648 50.1905L123.054 28.6753L127.648 50.1905ZM151.491 76.8689L167.676 91.7708L151.491 76.8689ZM29.9257 156.117C42.1891 189.16 70.8116 205.976 92.5921 214.373C103.8 218.694 114.233 221.208 121.834 222.652C125.661 223.379 128.839 223.848 131.126 224.14C132.272 224.287 133.199 224.39 133.877 224.459C134.217 224.494 134.495 224.52 134.707 224.539C134.814 224.549 134.904 224.557 134.977 224.563C135.014 224.566 135.046 224.569 135.074 224.571C135.088 224.572 135.101 224.573 135.113 224.574C135.119 224.575 135.128 224.575 135.131 224.576C135.139 224.576 135.146 224.577 136.884 202.646C138.621 180.714 138.628 180.715 138.635 180.715C138.637 180.716 138.644 180.716 138.647 180.716C138.655 180.717 138.662 180.718 138.668 180.718C138.68 180.719 138.687 180.72 138.691 180.72C138.699 180.721 138.691 180.72 138.667 180.718C138.62 180.714 138.513 180.704 138.348 180.687C138.019 180.653 137.462 180.592 136.707 180.496C135.192 180.302 132.898 179.967 130.046 179.425C124.288 178.332 116.532 176.446 108.42 173.318C91.5598 166.818 77.0161 156.543 71.1764 140.808L29.9257 156.117ZM136.884 202.646C146.586 222.39 146.597 222.385 146.607 222.38C146.611 222.378 146.622 222.373 146.629 222.369C146.644 222.362 146.66 222.354 146.676 222.346C146.709 222.33 146.744 222.312 146.783 222.293C146.859 222.254 146.947 222.21 147.046 222.159C147.243 222.058 147.483 221.933 147.763 221.783C148.323 221.484 149.045 221.084 149.906 220.581C151.625 219.575 153.912 218.145 156.574 216.255C161.877 212.49 168.806 206.8 175.704 198.874C189.705 182.784 203.274 157.746 203.032 122.46L159.033 122.763C159.19 145.619 150.685 160.598 142.512 169.99C138.322 174.804 134.139 178.222 131.102 180.378C129.594 181.449 128.404 182.183 127.688 182.602C127.332 182.811 127.097 182.938 127.005 182.988C126.959 183.012 126.948 183.017 126.977 183.003C126.991 182.995 127.015 182.983 127.049 182.966C127.066 182.958 127.085 182.948 127.107 182.937C127.118 182.932 127.13 182.926 127.142 182.92C127.148 182.917 127.158 182.912 127.161 182.911C127.171 182.906 127.181 182.901 136.884 202.646ZM73.1902 100.273C60.7104 82.1553 60.7043 82.1596 60.6979 82.1639C60.6957 82.1655 60.6892 82.1699 60.6847 82.1731C60.6755 82.1794 60.6659 82.186 60.6558 82.193C60.6355 82.2071 60.6132 82.2226 60.5889 82.2395C60.5403 82.2734 60.4837 82.313 60.4193 82.3584C60.2906 82.4492 60.1308 82.5629 59.9424 82.6992C59.5657 82.9714 59.0726 83.3348 58.4825 83.7847C57.3058 84.682 55.7231 85.9392 53.8963 87.5212C50.3004 90.6351 45.4713 95.254 40.909 101.105C32.3453 112.087 21.1157 132.379 29.9257 156.117L71.1764 140.808C70.3521 138.587 70.4421 134.784 75.6066 128.162C77.9083 125.21 80.5455 122.649 82.6997 120.783C83.748 119.875 84.6114 119.193 85.1621 118.773C85.4356 118.565 85.6264 118.425 85.7178 118.359C85.7634 118.326 85.7836 118.312 85.7765 118.317C85.7729 118.319 85.7624 118.327 85.7448 118.339C85.7359 118.345 85.7253 118.353 85.7129 118.361C85.7066 118.366 85.6999 118.37 85.6928 118.375C85.6892 118.378 85.6835 118.382 85.6817 118.383C85.6759 118.387 85.67 118.391 73.1902 100.273ZM203.032 122.46C202.943 109.578 199.514 98.3493 193.039 89.206C186.673 80.216 178.364 74.6467 170.677 71.2376C155.98 64.7199 141.095 65.0023 136.84 65.197L138.851 109.151C141.025 109.052 147.611 109.141 152.839 111.46C155.114 112.469 156.381 113.575 157.13 114.634C157.772 115.539 158.998 117.733 159.033 122.763L203.032 122.46ZM31.6555 76.8688C13.4613 89.237 13.463 89.2396 13.4648 89.2421C13.4654 89.2431 13.4672 89.2457 13.4685 89.2475C13.471 89.2512 13.4736 89.2551 13.4764 89.2591C13.4819 89.2672 13.4879 89.276 13.4944 89.2856C13.5074 89.3046 13.5224 89.3265 13.5393 89.3512C13.5732 89.4005 13.6149 89.461 13.6641 89.532C13.7626 89.674 13.8916 89.8587 14.0492 90.0812C14.3637 90.5252 14.7957 91.1251 15.3287 91.8411C16.3842 93.2591 17.8887 95.2039 19.7066 97.3319C22.8101 100.965 28.7869 107.509 36.2786 111.552L57.1728 72.8291C57.3132 72.9048 55.7548 71.7884 53.1611 68.7522C52.1303 67.5457 51.2457 66.4038 50.6241 65.5688C50.3186 65.1584 50.0901 64.8402 49.9538 64.6478C49.886 64.552 49.842 64.4888 49.8238 64.4626C49.8147 64.4495 49.8122 64.4457 49.8164 64.4518C49.8185 64.4549 49.8223 64.4605 49.8278 64.4685C49.8306 64.4726 49.8338 64.4773 49.8374 64.4826C49.8392 64.4853 49.8411 64.4881 49.8432 64.4911C49.8442 64.4926 49.8458 64.495 49.8463 64.4957C49.848 64.4981 49.8496 64.5006 31.6555 76.8688ZM36.2786 111.552C45.8469 116.715 54.4817 119.393 60.9923 120.78C64.2467 121.473 66.9801 121.846 69.0517 122.045C70.0883 122.145 70.9624 122.202 71.6568 122.234C72.0042 122.25 72.307 122.26 72.5631 122.266C72.6912 122.268 72.8076 122.27 72.9122 122.272C72.9645 122.272 73.0139 122.272 73.0602 122.273C73.0834 122.273 73.1058 122.273 73.1275 122.273C73.1383 122.273 73.1489 122.273 73.1594 122.273C73.1646 122.273 73.1723 122.273 73.1749 122.273C73.1826 122.273 73.1902 122.273 73.1902 100.273C73.1902 78.2731 73.1977 78.2731 73.2052 78.2731C73.2076 78.2731 73.2151 78.2731 73.22 78.2731C73.2297 78.2732 73.2393 78.2732 73.2487 78.2732C73.2676 78.2732 73.2859 78.2733 73.3034 78.2734C73.3386 78.2736 73.3713 78.2739 73.4014 78.2742C73.4616 78.2749 73.5117 78.2758 73.552 78.2767C73.6326 78.2785 73.674 78.2804 73.6781 78.2806C73.6858 78.2809 73.5457 78.2746 73.2715 78.2482C72.7215 78.1952 71.6475 78.0626 70.1582 77.7454C67.1814 77.1114 62.584 75.7489 57.1728 72.8291L36.2786 111.552ZM102.566 87.2327C121.222 75.5742 121.219 75.5688 121.216 75.5633C121.214 75.5613 121.211 75.5558 121.208 75.5519C121.204 75.5442 121.199 75.5361 121.193 75.5277C121.183 75.511 121.171 75.493 121.159 75.4738C121.135 75.4354 121.108 75.392 121.077 75.3439C121.015 75.2477 120.941 75.1322 120.854 74.9987C120.68 74.7319 120.455 74.392 120.18 73.9888C119.63 73.1842 118.875 72.1161 117.927 70.8653C116.051 68.3913 113.312 65.0582 109.805 61.588C103.31 55.1614 91.6643 45.7461 75.935 43.7682L70.4454 87.4244C71.9231 87.6102 74.9647 89.0131 78.8561 92.8638C80.5422 94.5322 81.9203 96.2026 82.864 97.4473C83.3254 98.0559 83.6552 98.526 83.8387 98.7948C83.9297 98.9283 83.9825 99.0088 83.9952 99.0283C84.0015 99.038 83.9977 99.0321 83.9834 99.0097C83.9762 98.9985 83.9664 98.9831 83.954 98.9634C83.9478 98.9536 83.9409 98.9427 83.9334 98.9307C83.9296 98.9247 83.9257 98.9184 83.9215 98.9118C83.9195 98.9085 83.9163 98.9034 83.9153 98.9018C83.912 98.8966 83.9087 98.8913 102.566 87.2327ZM75.935 43.7682C56.7006 41.3495 41.9416 44.84 31.336 50.1134C26.1497 52.6921 22.2159 55.568 19.3999 58.0391C17.9941 59.2728 16.8666 60.4057 15.9972 61.3528C15.5623 61.8267 15.1909 62.2553 14.8805 62.6283C14.7252 62.8148 14.5851 62.9876 14.4598 63.1455C14.3971 63.2244 14.3381 63.2997 14.2827 63.371C14.2551 63.4067 14.2283 63.4414 14.2024 63.4751C14.1895 63.492 14.1768 63.5086 14.1643 63.5249C14.1581 63.5331 14.1489 63.5452 14.1457 63.5493C14.1366 63.5613 14.1275 63.5733 31.6555 76.8688C49.1834 90.1643 49.1744 90.1762 49.1655 90.188C49.1625 90.1918 49.1536 90.2036 49.1477 90.2113C49.1359 90.2268 49.1242 90.242 49.1127 90.257C49.0896 90.2871 49.0671 90.3164 49.045 90.3448C49.0008 90.4017 48.9587 90.4554 48.9185 90.5059C48.8383 90.607 48.7659 90.6958 48.7017 90.773C48.5734 90.9272 48.4768 91.036 48.413 91.1055C48.2859 91.2439 48.286 91.2299 48.4216 91.1109C48.6885 90.8767 49.4923 90.2246 50.9257 89.5119C53.5594 88.2023 59.5678 86.0566 70.4454 87.4244L75.935 43.7682ZM166.044 50.1903C172.608 29.1922 172.6 29.1899 172.593 29.1876C172.591 29.1868 172.583 29.1845 172.578 29.183C172.568 29.1798 172.558 29.1766 172.547 29.1733C172.526 29.1668 172.504 29.1599 172.48 29.1528C172.434 29.1385 172.383 29.1232 172.329 29.1068C172.22 29.0741 172.095 29.0372 171.954 28.9966C171.672 28.9155 171.327 28.8196 170.921 28.7128C170.109 28.4994 169.05 28.2421 167.762 27.9723C165.187 27.4333 161.679 26.841 157.378 26.4529C148.78 25.6771 136.935 25.7119 123.054 28.6753L132.241 71.7057C141.174 69.7984 148.528 69.8331 153.424 70.2749C155.871 70.4957 157.684 70.8165 158.745 71.0385C159.273 71.1492 159.61 71.2343 159.739 71.2683C159.804 71.2852 159.816 71.2892 159.773 71.277C159.752 71.2709 159.717 71.2608 159.669 71.2461C159.644 71.2388 159.617 71.2304 159.585 71.2208C159.57 71.216 159.553 71.2109 159.536 71.2055C159.527 71.2028 159.518 71.2001 159.509 71.1972C159.504 71.1958 159.497 71.1936 159.495 71.1929C159.488 71.1907 159.481 71.1884 166.044 50.1903ZM123.054 28.6753C101.8 33.2127 91.6092 51.6167 87.3015 61.6573C84.8209 67.4393 83.2388 72.8819 82.2755 76.8003C81.7861 78.7909 81.4371 80.4678 81.2023 81.7C81.0846 82.3179 80.9946 82.8292 80.9292 83.2179C80.8965 83.4124 80.8699 83.5767 80.8491 83.7089C80.8387 83.775 80.8297 83.8331 80.822 83.883C80.8182 83.9079 80.8147 83.9308 80.8116 83.9516C80.81 83.962 80.8086 83.9718 80.8072 83.9812C80.8065 83.9859 80.8055 83.9925 80.8051 83.9948C80.8042 84.0013 80.8032 84.0077 102.566 87.2327C124.328 90.4578 124.327 90.4639 124.326 90.4699C124.326 90.4718 124.325 90.4776 124.324 90.4813C124.323 90.4887 124.322 90.4956 124.321 90.502C124.319 90.5149 124.318 90.5259 124.316 90.5351C124.313 90.5534 124.312 90.5645 124.311 90.5686C124.31 90.5766 124.313 90.5567 124.321 90.5105C124.336 90.4178 124.37 90.2218 124.425 89.9365C124.534 89.3623 124.722 88.449 125.003 87.3043C125.582 84.9521 126.476 81.9441 127.737 79.0054C130.912 71.6047 133.262 71.4876 132.241 71.7057L123.054 28.6753ZM141.974 108.783C150.582 107.138 158.863 101.342 167.676 91.7708L135.307 61.9671C132.346 65.1832 130.67 66.4184 130.231 66.7129C129.795 67.0054 131.012 66.0817 133.716 65.565L141.974 108.783ZM167.676 91.7708C175.083 83.7258 179.885 74.7068 182.76 68.2463C184.242 64.9164 185.322 62.0138 186.049 59.8843C186.415 58.8143 186.696 57.925 186.898 57.2574C187 56.9233 187.082 56.6434 187.145 56.423C187.176 56.3127 187.203 56.2172 187.225 56.137C187.237 56.0969 187.247 56.0606 187.256 56.0283C187.26 56.0121 187.264 55.9969 187.268 55.9826C187.27 55.9755 187.272 55.9687 187.274 55.962C187.275 55.9587 187.276 55.9539 187.276 55.9523C187.278 55.9476 187.279 55.9429 166.044 50.1903C144.81 44.4377 144.811 44.4332 144.812 44.4287C144.813 44.4273 144.814 44.4228 144.814 44.42C144.816 44.4143 144.818 44.4088 144.819 44.4036C144.822 44.3931 144.824 44.3835 144.827 44.3748C144.832 44.3573 144.835 44.3433 144.838 44.3327C144.844 44.3115 144.847 44.3039 144.845 44.3092C144.842 44.3199 144.824 44.3821 144.791 44.4912C144.725 44.7102 144.599 45.1125 144.411 45.663C144.031 46.7743 143.419 48.4278 142.56 50.3584C140.753 54.4191 138.279 58.7394 135.307 61.9671L167.676 91.7708Z" fill="#FF9933" mask="url(#path-1-outside-1)"/>
<path d="M116.244 103.271C116.244 103.271 129.457 111.259 134.963 130.228C140.468 149.198 139.367 165.172 139.367 165.172" stroke="#FF9933" stroke-width="15" stroke-linecap="round"/>
<path d="M226.64 64.172C232.128 63.1267 238.139 62.3427 244.672 61.82C251.336 61.1667 257.935 60.84 264.468 60.84C271.263 60.84 278.057 61.428 284.852 62.604C291.777 63.6493 297.984 65.8707 303.472 69.268C308.96 72.5347 313.403 77.1733 316.8 83.184C320.328 89.064 322.092 96.7733 322.092 106.312C322.092 114.936 320.589 122.253 317.584 128.264C314.579 134.144 310.593 138.979 305.628 142.768C300.663 146.557 294.979 149.301 288.576 151C282.304 152.699 275.771 153.548 268.976 153.548C268.323 153.548 267.277 153.548 265.84 153.548C264.403 153.548 262.9 153.548 261.332 153.548C259.764 153.417 258.196 153.287 256.628 153.156C255.191 153.025 254.145 152.895 253.492 152.764V200H226.64V64.172ZM266.624 83.968C264.011 83.968 261.528 84.0987 259.176 84.36C256.824 84.4907 254.929 84.6867 253.492 84.948V129.44C254.015 129.571 254.799 129.701 255.844 129.832C256.889 129.963 258 130.093 259.176 130.224C260.352 130.224 261.463 130.224 262.508 130.224C263.684 130.224 264.533 130.224 265.056 130.224C268.584 130.224 272.047 129.897 275.444 129.244C278.972 128.591 282.108 127.415 284.852 125.716C287.596 123.887 289.752 121.404 291.32 118.268C293.019 115.132 293.868 111.016 293.868 105.92C293.868 101.608 293.084 98.08 291.516 95.336C289.948 92.4613 287.857 90.1747 285.244 88.476C282.761 86.7773 279.887 85.6013 276.62 84.948C273.353 84.2947 270.021 83.968 266.624 83.968ZM409.534 191.572C405.614 194.708 400.257 197.387 393.462 199.608C386.798 201.699 379.677 202.744 372.098 202.744C356.287 202.744 344.723 198.171 337.406 189.024C330.089 179.747 326.43 167.072 326.43 151C326.43 133.752 330.546 120.816 338.778 112.192C347.01 103.568 358.574 99.256 373.47 99.256C378.435 99.256 383.27 99.9093 387.974 101.216C392.678 102.523 396.859 104.679 400.518 107.684C404.177 110.689 407.117 114.74 409.338 119.836C411.559 124.932 412.67 131.269 412.67 138.848C412.67 141.592 412.474 144.532 412.082 147.668C411.821 150.804 411.363 154.071 410.71 157.468H351.91C352.302 165.7 354.393 171.907 358.182 176.088C362.102 180.269 368.374 182.36 376.998 182.36C382.355 182.36 387.125 181.576 391.306 180.008C395.618 178.309 398.885 176.611 401.106 174.912L409.534 191.572ZM373.078 119.64C366.414 119.64 361.449 121.665 358.182 125.716C355.046 129.636 353.151 134.928 352.498 141.592H388.954C389.477 134.536 388.366 129.113 385.622 125.324C383.009 121.535 378.827 119.64 373.078 119.64ZM430.077 107.684C435.304 105.332 441.511 103.503 448.697 102.196C455.884 100.759 463.397 100.04 471.237 100.04C478.032 100.04 483.716 100.889 488.289 102.588C492.863 104.156 496.456 106.443 499.069 109.448C501.813 112.453 503.708 116.047 504.753 120.228C505.929 124.409 506.517 129.113 506.517 134.34C506.517 140.089 506.321 145.904 505.929 151.784C505.537 157.533 505.276 163.217 505.145 168.836C505.145 174.455 505.341 179.943 505.733 185.3C506.125 190.527 507.105 195.492 508.673 200.196H487.897L483.781 186.672H482.801C480.188 190.723 476.529 194.251 471.825 197.256C467.252 200.131 461.307 201.568 453.989 201.568C449.416 201.568 445.3 200.915 441.641 199.608C437.983 198.171 434.847 196.211 432.233 193.728C429.62 191.115 427.595 188.109 426.157 184.712C424.72 181.184 424.001 177.264 424.001 172.952C424.001 166.941 425.308 161.911 427.921 157.86C430.665 153.679 434.52 150.347 439.485 147.864C444.581 145.251 450.592 143.487 457.517 142.572C464.573 141.527 472.413 141.2 481.037 141.592C481.952 134.275 481.429 129.048 479.469 125.912C477.509 122.645 473.132 121.012 466.337 121.012C461.241 121.012 455.819 121.535 450.069 122.58C444.451 123.625 439.812 124.997 436.153 126.696L430.077 107.684ZM462.417 180.596C467.513 180.596 471.564 179.485 474.569 177.264C477.575 174.912 479.796 172.429 481.233 169.816V157.076C477.183 156.684 473.263 156.619 469.473 156.88C465.815 157.141 462.548 157.729 459.673 158.644C456.799 159.559 454.512 160.865 452.813 162.564C451.115 164.263 450.265 166.419 450.265 169.032C450.265 172.691 451.311 175.565 453.401 177.656C455.623 179.616 458.628 180.596 462.417 180.596ZM597.284 193.924C593.364 196.799 588.594 198.955 582.976 200.392C577.488 201.96 571.804 202.744 565.924 202.744C558.084 202.744 551.42 201.503 545.932 199.02C540.574 196.537 536.197 193.075 532.8 188.632C529.402 184.059 526.92 178.571 525.352 172.168C523.914 165.765 523.196 158.709 523.196 151C523.196 134.405 526.92 121.665 534.368 112.78C541.816 103.764 552.661 99.256 566.904 99.256C574.09 99.256 579.84 99.844 584.152 101.02C588.594 102.196 592.58 103.699 596.108 105.528L590.032 126.304C587.026 124.867 584.021 123.756 581.016 122.972C578.141 122.188 574.809 121.796 571.02 121.796C563.964 121.796 558.606 124.148 554.948 128.852C551.289 133.425 549.46 140.808 549.46 151C549.46 155.181 549.917 159.036 550.832 162.564C551.746 166.092 553.118 169.163 554.948 171.776C556.777 174.389 559.129 176.48 562.004 178.048C565.009 179.485 568.472 180.204 572.392 180.204C576.704 180.204 580.362 179.681 583.368 178.636C586.373 177.46 589.052 176.088 591.404 174.52L597.284 193.924ZM672.669 200V144.336C672.669 136.365 671.558 130.616 669.337 127.088C667.115 123.56 663.065 121.796 657.185 121.796C652.873 121.796 648.887 123.299 645.229 126.304C641.701 129.179 639.349 132.903 638.173 137.476V200H612.693V62.8H638.173V112.976H638.957C642.093 108.795 645.947 105.463 650.521 102.98C655.094 100.497 660.909 99.256 667.965 99.256C672.93 99.256 677.307 99.9093 681.097 101.216C684.886 102.523 688.022 104.679 690.505 107.684C693.118 110.689 695.013 114.805 696.189 120.032C697.495 125.128 698.149 131.465 698.149 139.044V200H672.669ZM720.085 64.172C725.573 63.1267 731.584 62.3427 738.117 61.82C744.781 61.1667 751.38 60.84 757.913 60.84C764.708 60.84 771.503 61.428 778.297 62.604C785.223 63.6493 791.429 65.8707 796.917 69.268C802.405 72.5347 806.848 77.1733 810.245 83.184C813.773 89.064 815.537 96.7733 815.537 106.312C815.537 114.936 814.035 122.253 811.029 128.264C808.024 134.144 804.039 138.979 799.073 142.768C794.108 146.557 788.424 149.301 782.021 151C775.749 152.699 769.216 153.548 762.421 153.548C761.768 153.548 760.723 153.548 759.285 153.548C757.848 153.548 756.345 153.548 754.777 153.548C753.209 153.417 751.641 153.287 750.073 153.156C748.636 153.025 747.591 152.895 746.937 152.764V200H720.085V64.172ZM760.069 83.968C757.456 83.968 754.973 84.0987 752.621 84.36C750.269 84.4907 748.375 84.6867 746.937 84.948V129.44C747.46 129.571 748.244 129.701 749.289 129.832C750.335 129.963 751.445 130.093 752.621 130.224C753.797 130.224 754.908 130.224 755.953 130.224C757.129 130.224 757.979 130.224 758.501 130.224C762.029 130.224 765.492 129.897 768.889 129.244C772.417 128.591 775.553 127.415 778.297 125.716C781.041 123.887 783.197 121.404 784.765 118.268C786.464 115.132 787.313 111.016 787.313 105.92C787.313 101.608 786.529 98.08 784.961 95.336C783.393 92.4613 781.303 90.1747 778.689 88.476C776.207 86.7773 773.332 85.6013 770.065 84.948C766.799 84.2947 763.467 83.968 760.069 83.968ZM825.331 107.684C830.558 105.332 836.765 103.503 843.951 102.196C851.138 100.759 858.651 100.04 866.491 100.04C873.286 100.04 878.97 100.889 883.543 102.588C888.117 104.156 891.71 106.443 894.323 109.448C897.067 112.453 898.962 116.047 900.007 120.228C901.183 124.409 901.771 129.113 901.771 134.34C901.771 140.089 901.575 145.904 901.183 151.784C900.791 157.533 900.53 163.217 900.399 168.836C900.399 174.455 900.595 179.943 900.987 185.3C901.379 190.527 902.359 195.492 903.927 200.196H883.151L879.035 186.672H878.055C875.442 190.723 871.783 194.251 867.079 197.256C862.506 200.131 856.561 201.568 849.243 201.568C844.67 201.568 840.554 200.915 836.895 199.608C833.237 198.171 830.101 196.211 827.487 193.728C824.874 191.115 822.849 188.109 821.411 184.712C819.974 181.184 819.255 177.264 819.255 172.952C819.255 166.941 820.562 161.911 823.175 157.86C825.919 153.679 829.774 150.347 834.739 147.864C839.835 145.251 845.846 143.487 852.771 142.572C859.827 141.527 867.667 141.2 876.291 141.592C877.206 134.275 876.683 129.048 874.723 125.912C872.763 122.645 868.386 121.012 861.591 121.012C856.495 121.012 851.073 121.535 845.323 122.58C839.705 123.625 835.066 124.997 831.407 126.696L825.331 107.684ZM857.671 180.596C862.767 180.596 866.818 179.485 869.823 177.264C872.829 174.912 875.05 172.429 876.487 169.816V157.076C872.437 156.684 868.517 156.619 864.727 156.88C861.069 157.141 857.802 157.729 854.927 158.644C852.053 159.559 849.766 160.865 848.067 162.564C846.369 164.263 845.519 166.419 845.519 169.032C845.519 172.691 846.565 175.565 848.655 177.656C850.877 179.616 853.882 180.596 857.671 180.596ZM958.826 157.076L962.354 172.364H963.53L966.078 156.88L980.974 102H1007.24L977.446 190.396C974.963 197.713 972.546 204.377 970.194 210.388C967.972 216.529 965.49 221.821 962.746 226.264C960.002 230.707 956.931 234.104 953.534 236.456C950.267 238.939 946.347 240.18 941.774 240.18C934.979 240.18 929.556 239.069 925.506 236.848L930.21 216.464C932.17 217.248 934.13 217.64 936.09 217.64C939.095 217.64 941.97 216.333 944.714 213.72C947.588 211.237 949.744 206.664 951.182 200L910.218 102H940.794L958.826 157.076Z" fill="#FF9933"/>
</svg>
