<?xml version="1.0" encoding="utf-8"?>
<svg viewBox="0 0 57 13" width="57px" height="13px" xmlns="http://www.w3.org/2000/svg">
  <circle cx="6.5" cy="6.5" r="5.5" fill="#9796F0" stroke="#9796F0" mask="url(#mask-check-two)"/>
  <circle cx="50.5" cy="6.5" r="5.5" fill="#9796F0" stroke="#9796F0" mask="url(#mask-check-two)"/>
  <path d="M 12.5 6.5 L 44.5 6.5" stroke="#9796F0" stroke-linecap="round" stroke-linejoin="round"/>
  <mask id="mask-check-two">
    <rect x="0.5" y="0.5" width="12" height="12" fill="white"/>
    <rect x="44" y="0.5" width="13" height="12" fill="white"/>
    <path d="M 4.439 6.5 L 6.439 8.5 L 8.439 4.5" stroke="black" stroke-linecap="round" stroke-linejoin="round" fill="none"/>
    <path d="M 48.794 7.546 L 50.444 6.064 C 50.528 5.988 50.612 5.902 50.696 5.806 C 50.78 5.71 50.822 5.598 50.822 5.47 C 50.822 5.326 50.77 5.214 50.666 5.134 C 50.562 5.05 50.44 5.008 50.3 5.008 C 50.132 5.008 50 5.06 49.904 5.164 C 49.812 5.268 49.76 5.396 49.748 5.548 L 48.848 5.482 C 48.86 5.262 48.906 5.072 48.986 4.912 C 49.066 4.748 49.172 4.612 49.304 4.504 C 49.436 4.396 49.59 4.316 49.766 4.264 C 49.946 4.208 50.14 4.18 50.348 4.18 C 50.54 4.18 50.72 4.208 50.888 4.264 C 51.056 4.316 51.202 4.396 51.326 4.504 C 51.45 4.608 51.546 4.74 51.614 4.9 C 51.686 5.06 51.722 5.246 51.722 5.458 C 51.722 5.594 51.708 5.718 51.68 5.83 C 51.652 5.938 51.612 6.038 51.56 6.13 C 51.512 6.218 51.454 6.3 51.386 6.376 C 51.318 6.452 51.244 6.526 51.164 6.598 L 49.874 7.708 L 51.758 7.708 L 51.758 8.5 L 48.794 8.5 L 48.794 7.546 Z" fill="black"/>
  </mask>
</svg>