<svg enable-background="new 0 0 100 25" viewBox="0 0 100 25" xmlns="http://www.w3.org/2000/svg">
    <path d="m6.2234354 16.38624h-1.6655312c-1.3776419 0-2.4982972-1.1206551-2.4982972-2.4982967v-3.3310633c0-1.3776417 1.1206553-2.4982967 2.4982972-2.4982967h2.7758856c.4592137 0 .8327656-.3735523.8327656-.8327661v-2.7758861c0-1.3776414 1.120656-2.498297 2.4982977-2.498297h3.3310623c1.3776417 0 2.4982977 1.1206555 2.4982977 2.498297v1.6655316c0 .4600272-.3727398.8327656-.8327656.8327656-.4600277 0-.8327665-.3727384-.8327665-.8327656v-1.6655316c0-.4592137-.3735514-.8327656-.8327656-.8327656h-3.3310623c-.4592142 0-.8327665.3735518-.8327665.8327656v2.7758861c0 1.3776412-1.1206551 2.4982972-2.4982967 2.4982972h-2.7758857c-.4592142 0-.8327658.3735514-.8327658.8327656v3.3310633c0 .4592133.3735516.8327656.8327658.8327656h1.6655312c.4600272 0 .8327661.3727379.8327661.8327656s-.3727389.8327655-.8327661.8327655z"
          fill="#7cacfc"/>
    <path d="m13.9959154 23.0483665h-3.3310623c-1.3776417 0-2.4982977-1.120657-2.4982977-2.4982986v-1.6655312c0-.4600258.3727388-.8327656.8327656-.8327656.4600277 0 .8327656.3727398.8327656.8327656v1.6655312c0 .4592152.3735523.8327656.8327665.8327656h3.3310623c.4592142 0 .8327656-.3735504.8327656-.8327656v-3.3310623c0-1.3776417 1.120656-2.4982967 2.4982977-2.4982967h3.3310623c.4592152 0 .8327656-.3735523.8327656-.8327656v-3.3310633c0-.4592142-.3735504-.8327656-.8327656-.8327656h-1.6655312c-.4600277 0-.8327656-.3727388-.8327656-.8327656 0-.4600277.3727379-.8327656.8327656-.8327656h1.6655312c1.3776417 0 2.4982967 1.1206551 2.4982967 2.4982967v3.3310633c0 1.3776417-1.1206551 2.4982967-2.4982967 2.4982967h-3.3310623c-.4592133 0-.8327656.3735523-.8327656.8327656v3.3310623c0 1.3776418-1.120656 2.4982987-2.4982977 2.4982987z"
          fill="#04e474"/>
    <path d="m45.9934692 23.0483665c-1.6419449 0-2.9938354-1.2927933-3.0778694-2.9434147-.2344894-4.6143684-1.1924934-7.1641712-1.8921585-9.0259666-.1469269-.3906298-.2794838-.7443933-.3887329-1.0721321l-.1534309-.4098768c-.196537-.6099358-.2895164-1.2084856-.2895164-1.8159819 0-3.2142262 2.6151352-5.82936 5.829361-5.82936.8872528 0 1.7395363.1943662 2.5327225.577677.4139442.2000589.5874367.6980376.3873787 1.1122518s-.69804.5874362-1.1122513.3873773c-.5652084-.2732513-1.1735191-.4117746-1.8078499-.4117746-2.2960701 0-4.1638298 1.8677592-4.1638298 4.1638288 0 .4348164.0664139.8623133.1973495 1.2708349l.150177.4003887c.1130447.3374987.2388268.6717434.3776207 1.0409575.6964111 1.8533916 1.7490234 4.6542168 1.996521 9.5271969.0390358.7639122.6603584 1.3624611 1.4145088 1.3624611.7804489 0 1.415596-.6351452 1.415596-1.4155922v-2.3632984c0-.4600277.3727379-.8327656.8327637-.8327656.4600296 0 .8327675.3727379.8327675.8327656v2.3632984c-.0000001 1.6988732-1.3822518 3.0811249-3.0811273 3.0811249z"
          fill="#7cacfc"/>
    <path d="m55.4867821 23.0483665c-1.6988754 0-3.0811234-1.3822517-3.0811234-3.0811253v-2.4706478c0-.4681587-.1989746-.917614-.5456886-1.2328835-.351326-.3196058-.8086395-.4703274-1.2860184-.4247856-.4630089.0431023-.8647537-.2922268-.9081268-.749815-.043644-.4578581.2919579-.8644819.7498169-.9081259.9406548-.0878315 1.8723679.2206612 2.5647125.8503857.6931572.6302671 1.0908356 1.5289049 1.0908356 2.4652243v2.4706478c0 .780447.6351471 1.4155922 1.4155922 1.4155922.7541542 0 1.375473-.5985489 1.4145088-1.3624611.2474976-4.8729801 1.3001137-7.6738052 1.9965248-9.5271969.1387939-.3692141.264576-.7034588.3678589-1.0133066l.2233734-.6378574c.0832214-.3074074.1339111-.682044.1339111-1.061017 0-2.2960696-1.8677559-4.1638288-4.163826-4.1638288s-4.1638298 1.8677592-4.1638298 4.1638288c0 .4600267-.3727379.8327656-.8327637.8327656-.4600296 0-.8327675-.3727388-.8327675-.8327656 0-3.2142262 2.6151352-5.82936 5.829361-5.82936s5.829361 2.615134 5.829361 5.82936c0 .5291529-.0710258 1.0536976-.211174 1.5589962l-.2358437.6787901c-.1051788.3158112-.2377396.6695747-.3846664 1.0602045-.6996613 1.8617954-1.6576691 4.4115982-1.8921547 9.0259666-.0840378 1.6506215-1.4359245 2.9434147-3.0778732 2.9434147z"
          fill="#04e474"/>
    <path d="m85.4275055 19.2126083c-4.7454453 0-8.6061707-3.8645248-8.6061707-8.61485s3.8607254-8.614851 8.6061707-8.614851c4.7454376 0 8.606163 3.8645244 8.606163 8.614851 0 .5845633-.0586166 1.168313-.1747742 1.7352362-.0928116.4515848-.5373383.7403383-.9840393.6496964-.4510422-.0925426-.7419662-.5330009-.6496964-.9840431.093895-.4570122.1411209-.9284086.1411209-1.4008894 0-3.830873-3.112793-6.9474602-6.9387741-6.9474602-3.8259888 0-6.9387817 3.1165872-6.9387817 6.9474602s3.112793 6.9474592 6.9387817 6.9474592c1.6299362 0 3.2137375-.5769653 4.4593964-1.6247826.3522568-.2960815.8792877-.2507601 1.1745529.1014977.2968979.3522587.2513046.8782024-.1009521 1.1745548-1.5458069 1.3002071-3.5106354 2.0161208-5.5329971 2.0161208z"
          fill="#7cacfc"/>
    <path d="m85.0464783 4.924994c-.3072052 0-.5558014.2488604-.5558014.5557966 0 .3069367.2485962.5557971.5558014.5557971 2.6584854 0 4.8214264 2.1708097 4.8214264 4.8390684 0 .3069372.2485886.5557966.5558014.5557966.3072052 0 .5557938-.2488594.5557938-.5557966-.0000001-3.2813177-2.6617432-5.9506621-5.9330216-5.9506621zm12.103775 13.4943557-4.348671-4.363059c-.325119-.3259344-.8537827-.3267479-1.1789017-.0018997-.3262024.325119-.3272858.8529634-.0021667 1.1791677l4.348671 4.36306c.4065399.4078922.4065399 1.0714283 0 1.4793205-.3918762.393507-1.0746841.393507-1.4665604 0l-1.4399719-1.4448547c-.3245773-.3259335-.8532333-.3267479-1.178894-.0018997-.32621.325119-.3272934.8529625-.0021744 1.1791687l1.4399719 1.4448547c.5112839.5126457 1.190834.7951584 1.9143448.7951584.7235184 0 1.4030609-.2825127 1.9143524-.7951584 1.0535202-1.0570469 1.0535202-2.7768135 0-3.8338585z"
          fill="#04e474"/>
</svg>