<svg enable-background="new 0 0 100 25" viewBox="0 0 100 25" xmlns="http://www.w3.org/2000/svg"
     xmlns:xlink="http://www.w3.org/1999/xlink">
    <clipPath id="a">
        <path d="m21.4582253 8.4121418-1.8096981-3.0292296-3.0976048-2.1830454-3.6596813-.582222-2.8991843.1244233-2.8953127 1.6499679-.6931215.4525971-1.5178823 1.8948889-1.1744349 2.1390447-.6901164 1.9456377-.3953502 1.6578036-.186872 2.4732018.3980577 1.524868 1.0068402 2.0793648 2.0329854 1.8446178 1.9961901 1.0387688 2.9111109.7871723 2.0239153.4881706h1.9684658l2.4397879-.9149208 2.6736889-1.9684658 1.3741417-2.6061363.942646-2.6168661v-2.5954094zm-1.4416943 6.1996412-.9149208 2.4505167-1.0258198 1.524868-1.8948479 1.3690338-1.6816597.710331-2.0670052.1663494-1.8976498-.4288216-2.2734394-.8187981-2.05164-1.3585186-1.5721002-2.0125771-.4240899-2.4870205v-1.7384968l1.3009567-3.0198069 1.5269794-2.2201929.7762961-.8594708 1.8852911-1.0445457 2.9665604-.3416977 2.8556614.5822225 2.7054358 1.7926908 1.4255695 2.3660393.5544968 2.7447615z"/>
    </clipPath>
    <clipPath id="b">
        <path d="m49.4477921 2.5942457-.9957963.2159812-1.6409645 1.8568812-.6797905 1.9122276.2911416 1.1263971 1.093975.3588796 1.1087914.0574903 1.0303879-.5185308.5812301-1.3933272-.4460907-2.3492244z"/>
    </clipPath>
    <clipPath id="c">
        <path d="m77.5959244 7.2253442 2.8769302 7.30833 1.7777405 1.8861943 1.934433.4107094h1.3224563l2.1809006-1.1368514.2320099-1.9720888-.8816376-2.7719984-2.0200805-1.5897989-2.6077652-1.3126078-4.2117539-.8218884z"/>
    </clipPath>
    <g clip-path="url(#a)">
        <path d="m5.6895137 3.5476489c-2.7402113 3.226594-5.336116 6.5745511-7.778702 10.0319247-.1437407.2034588.1852278.4600344.3473589.2680149 2.8409667-3.3646822 6.0090508-6.4502811 9.4527473-9.1953297.9873929-.7870734 1.9980559-1.5443461 3.0285077-2.2740908-.0893383-.1157863-.1786766-.2315726-.2680149-.3473589-3.3194837 2.8710373-6.419764 5.9934591-9.261644 9.3381589-.8087657.9518623-1.5960772 1.9217072-2.3629177 2.9076424-.1701822.2188044.1228529.5323381.3127766.3127766 2.8230829-3.2636347 5.730525-6.4842806 9.0618687-9.2421207.9484625-.7851815 1.9310942-1.5276506 2.9487648-2.2208638-.0893383-.1157863-.1786766-.2315726-.2680149-.3473589-3.2384501 3.2854655-6.2823448 6.761447-9.1071825 10.4087839-.7915026 1.0219612-1.5662752 2.0566683-2.3240368 3.1038923-.1457509.2014275.1914887.4652672.3473591.2680149 2.9368725-3.7165556 6.165473-7.2007389 9.6530638-10.4064178.989295-.9093275 1.9994211-1.7956953 3.0283146-2.6599431-.1042595-.1042588-.208518-.2085176-.3127766-.3127766-1.6282194 1.7339121-3.2033289 3.517387-4.7200378 5.3496791-1.4911108 1.8013697-2.9765391 3.6338377-4.296134 5.5661192-.7160459 1.0485048-1.3507847 2.1471367-1.8273474 3.3259087-.1008832.2495327.2689235.3563576.4042369.1704216 3.0980165-4.2570372 6.6701355-8.1663389 10.6296349-11.6366119 1.1140079-.9763637 2.2584877-1.9180064 3.4315729-2.8225408-.0893383-.1157868-.1786766-.2315731-.2680149-.3473595-3.6223478 3.7581962-7.2680969 7.5489848-10.1844034 11.8988202-.8127632 1.2122822-1.5628932 2.465683-2.2354259 3.7611809-.1105597.2129707.1719615.4637413.3473589.2680149 3.7746413-4.2121315 7.5608044-8.4365349 11.7854471-12.2084351 1.186326-1.0591903 2.4064283-2.0801086 3.664464-3.0531518-.1042595-.1042588-.2085171-.2085178-.3127766-.3127766-4.1988945 4.0212307-8.0818291 8.3670197-11.6082048 12.9893064-1.0011864 1.3123302-1.9725437 2.6471844-2.9150314 4.0022717-.1419964.2041588.1861835.4613972.3473592.2680149 3.848618-4.6176691 7.7679791-9.2395334 12.418541-13.0801344 1.3281403-1.0968261 2.7146111-2.1213059 4.1612358-3.0566359-.0893383-.1157866-.1786766-.2315726-.2680149-.3473592-4.0709572 4.2695298-8.1501713 8.5483875-11.8023596 13.1884289-1.0292292 1.3076172-2.0236588 2.6423645-2.9732509 4.0089874-.1429305.2057018.180079.4542999.3473592.2680149 3.8625708-4.301405 7.7375231-8.6152782 12.0666256-12.458683 1.2323456-1.0940843 2.5003281-2.1482859 3.8101196-3.1485376-.0893383-.1157866-.1786766-.2315726-.2680149-.3473592-4.1001091 4.0615277-8.0522642 8.2931366-11.5048037 12.9260998-.9785233 1.3130798-1.9140902 2.657795-2.8001847 4.0349789-.1333494.2072544.188282.46595.3473587.2680168 3.8864474-4.8357697 8.6106853-8.9162598 13.4397049-12.7779541 1.3567829-1.0849991 2.7258892-2.1544518 4.0959682-3.2225718-.1042576-.104259-.2085171-.2085176-.3127766-.3127766-4.7300453 4.5816236-9.594965 9.0560684-13.8857851 14.063633-1.0473843 1.2223415-2.4820595 2.5837593-2.3358088 4.3376026.014986.1797104.2370138.3060341.3775549.1563873 4.2882624-4.566103 8.5908232-9.1459627 13.3826437-13.1942291 1.3733711-1.160264 2.7859726-2.273325 4.2434082-3.3262243-.0893383-.1157866-.1786766-.2315731-.2680149-.3473587-4.1400871 4.1962032-8.0850315 8.5840006-11.8156509 13.1481619-1.0595474 1.2962837-2.101367 2.6069736-3.126339 3.9307575-.1709661.2208099.1325293.5361824.3127766.3127766 2.2833271-2.8300323 4.7234974-5.5324345 7.3090897-8.0893555 2.5853825-2.5567112 5.3141651-4.9682989 8.1694412-7.2196054 1.6241341-1.2805872 3.2909145-2.5066347 4.9939308-3.6802044-.0893364-.1157866-.1786766-.2315726-.268013-.3473592-.5020943.4591293-1.0013618.9213729-1.5001736 1.384058-1.2470398 1.1567187-2.4878845 2.3201327-3.7224483 3.4901567-1.6051445 1.5212326-3.1998901 3.0535555-4.7776146 4.6032324-1.5787735 1.5507107-3.143116 3.1171551-4.6656723 4.7232838-1.1789017 1.2436104-2.3549519 2.5049019-3.3988514 3.8659077-.0926752.1208267-.1839161.2427177-.2733479.3659668-.1674061.2307072.216176.4517002.3819418.2232533.9451466-1.3025436 2.0546808-2.491848 3.1529226-3.6646786 1.4845543-1.5853767 3.0151234-3.1275997 4.5602379-4.6537743 1.5846195-1.5651989 3.1878948-3.1114807 4.8020115-4.6462135 1.2954998-1.2317867 2.5982094-2.4560032 3.9075642-3.6730509.4113178-.3823199.8232975-.7639256 1.2361584-1.144577.1919479-.1769729.4089012-.3446031.5849152-.537786.0075417-.0082765.0168495-.015429.0251312-.0230017.1825981-.1669707-.0592003-.4912548-.268013-.3473587-3.0095539 2.0739179-5.903677 4.3150687-8.6624184 6.7126431-2.7567406 2.3958349-5.3785248 4.9469519-7.8483601 7.6376028-1.4003735 1.5255737-2.7508831 3.0964165-4.0512085 4.7080841.1042585.1042595.2085171.208519.3127766.3127766 3.608861-4.6609612 7.433548-9.1539688 11.4615135-13.4579887 1.1439972-1.2223997 2.3046284-2.4291449 3.4804764-3.6209307.1700516-.1723576-.0582676-.498888-.2680149-.3473597-5.1278324 3.7045135-9.6676483 8.1332493-14.0323582 12.6929855-1.2359076 1.2911301-2.4596672 2.5938091-3.683217 3.8966331.1258516.0521297.2517033.1042595.3775549.1563892-.1330175-1.5951538 1.1887207-2.8343353 2.1408148-3.9483585 1.0361948-1.2124271 2.1091423-2.3931351 3.204978-3.5518131 2.2079334-2.3345509 4.5078907-4.5798521 6.8212738-6.8091888 1.3077793-1.2602663 2.6204205-2.5154824 3.9249706-3.779098.2104301-.203826-.0949364-.4826055-.3127766-.3127766-4.8847713 3.808187-9.7851887 7.6473937-14.0965061 12.1119976-1.202549 1.245306-2.3545914 2.5390301-3.4391665 3.8885288.1157866.0893383.2315726.1786766.3473592.2680149 3.1145296-4.840662 6.8482943-9.2447557 10.8191633-13.4001884 1.1217346-1.1738729 2.2631683-2.3287306 3.4166603-3.4713683.1723633-.1707416-.0634117-.5036101-.2680168-.3473592-4.6300488 3.5358419-8.7148685 7.7062902-12.6395712 11.9952793-1.1165056 1.2201366-2.2216921 2.4505615-3.3266954 3.6811066.1157866.0893383.2315726.1786766.3473592.2680149 3.3586097-4.8336029 7.2802062-9.2379799 11.3041897-13.5216894 1.1281757-1.2009935 2.2651711-2.3936548 3.402256-3.5862041.1680737-.1762729-.0503883-.4880676-.2680149-.3473589-5.108614 3.3030279-9.3781109 7.6942263-13.3401146 12.2695208-1.124999 1.2991409-2.2289367 2.6163063-3.329186 3.9364147.1157866.0893383.2315726.1786766.3473592.2680149 3.3075304-4.7554903 6.9832544-9.2518883 10.9885073-13.4368324 1.1296453-1.1803255 2.2856169-2.3352008 3.4655638-3.4652226.2118244-.2028613-.0947227-.4814332-.3127766-.3127766-4.4797621 3.4649255-8.4388294 7.5351534-12.2482376 11.7104788-1.0742054 1.1773891-2.1380301 2.3641853-3.2016733 3.5511074.1157863.0893402.2315726.1786785.3473589.2680168 2.3963223-4.6160269 5.7750583-8.6083612 9.3115673-12.3857431 1.0028944-1.0712028 2.0207787-2.1282282 3.0390968-3.1847365.1665354-.1727805-.0621929-.5060627-.2680149-.3473589-4.2263367 3.258812-8.0884635 6.9794455-11.4881146 11.0941897-.946784 1.1459332-1.8571358 2.3217831-2.731782 3.5236492.1347456.0568085.2694912.113615.4042369.1704216.8498147-2.1020041 2.2452552-3.9278345 3.6202033-5.7090712 1.4204122-1.8401346 2.8988081-3.6357822 4.4303328-5.3844981.8757305-.9999218 1.7693501-1.9840088 2.6792278-2.95295.1976986-.2105322-.0971041-.4939373-.3127766-.3127766-3.6270904 3.0466757-7.0131878 6.3780022-10.1131639 9.9598761-.8793435 1.0160389-1.7351147 2.0522137-2.5682147 3.1064854.1157864.0893383.2315727.1786785.3473591.2680168 2.683265-3.7082663 5.5851779-7.2568045 8.68888-10.6211481.8753529-.948864 1.7669334-1.8826084 2.6731749-2.8020065.1709414-.1734231-.0546007-.4927316-.2680149-.3473592-3.6037819 2.4548094-6.7272064 5.5236066-9.6441719 8.7467721-.8306363.9178305-1.6461598 1.8491755-2.4559855 2.7853775.1042588.1042585.2085177.2085171.3127766.3127766 2.6944854-3.4643297 5.6514163-6.7228284 8.8437653-9.7348394.9085045-.8571825 1.8360834-1.6938756 2.7807961-2.5109622.1877365-.1623743-.0621119-.4931757-.2680149-.3473591-3.622626 2.5654674-6.9936232 5.4822474-10.0433561 8.7082548-.8690996.9193335-1.7112632 1.863718-2.527422 2.8303308.1157863.0893393.2315726.1786776.3473591.2680159 2.4209826-3.426795 4.9935632-6.7443476 7.709537-9.9424019.1832563-.2157843-.1281656-.5301561-.3127764-.312777z"
              fill="#fb3640"/>
    </g>
    <path d="m22.2177258 9.0143604c-.2298412-.641921-.5353775-1.2576466-.8218307-1.8781929-.6242371-1.3523231-1.5772457-2.433816-2.8115902-3.2505617-1.9014626-1.2581789-4.0313387-1.7496095-7.2498207-1.7922602-2.0076743-.0504295-4.3252398 1.2770944-6.1319276 3.5109539-1.6472542 2.0366955-2.5961077 4.4297552-3.01826 7.0045881-.4594175 2.8022804.404866 5.2034521 2.441761 7.1682768.8932047.861557 1.976027 1.4480629 3.0922923 1.978487 1.8228106.8662109 3.7160954 1.3950405 5.7537551 1.2910557 2.4928226-.1272202 4.6220341-1.0434303 6.3338451-2.8912716 1.3751278-1.4843979 2.2023125-3.2459755 2.6734314-5.1904211.4862443-2.0067768.4372445-3.9987935-.2616557-5.950654zm-.352541 3.6492119c-.1725311 3.0471811-1.226265 5.7145615-3.5993805 7.7415504-1.3791504 1.17803-3.0195894 1.7206554-4.8160048 1.8124714-2.2340927.1142235-4.2640066-.5723095-6.1982141-1.6120167-1.080595-.5808544-2.1055751-1.2408581-2.8618851-2.2356205-1.2649608-1.6638756-1.790565-3.533659-1.452451-5.6045952.3451948-2.1145172 1.1188247-4.0790758 2.2606533-5.8891873.5746708-.9109564 1.2559185-1.7361794 2.2090602-2.2963896.4205237-.2471608.8086019-.549971 1.2312523-.7930102 1.1330862-.6515951 2.3825884-.808934 3.7259693-.822331 1.669261.0310822 3.3348656.3491175 4.8832235 1.1614089 1.3699417.7186794 2.4371719 1.7359467 3.1712093 3.1157618.9046078 1.7005101 1.5570679 3.4695664 1.4465676 5.421958zm-5.125597-7.392334c-1.183814-.6627645-2.4607096-.9872489-3.8014307-1.1057267-3.0183926-.2667084-5.2982941.9785724-6.9911909 3.4165106-.6420212.9245191-1.1182594 1.937798-1.4624238 3.0052285-.3127165.9698629-.6466086 1.9339085-.6405916 2.9834547.0088758 1.5485563.4849148 2.9196625 1.4203715 4.1407413.6904893.9012833 1.6093907 1.5125217 2.602324 2.0251598 1.6542029.8540459 3.3701034 1.45438 5.2752566 1.3367653 1.4851294-.0916824 2.8600235-.4975796 4.0480595-1.4068069 2.3602161-1.8063221 3.3032532-4.3103476 3.4823666-7.1748257.0296192-1.7715826-.5923901-3.3385563-1.4456367-4.8345218-.5926229-1.039008-1.4489614-1.804726-2.4871045-2.3859791zm2.71698 6.7611828c-.3219585.0182505-.645977-.0006647-.969099-.0019274-.3486195-.0013628-.5649967.1533823-.5871372.4182291-.0230694.2762823.1767864.487009.5361767.5085506.3860836.0232038.7751579.0216408 1.1616745.0034904.216013-.0101395.3185997.0392265.2858562.2701321-.3751469 2.6429806-1.4088364 4.8957558-3.798008 6.3221111-.9215269.5501366-1.9419861.7982616-3.0124416.8499546-.2064724.0099735-.3280754-.0468712-.3786039-.2635498-.1170492-.5017357-.2563372-.9982529-.3750801-1.4995899-.0561476-.2371216-.1289167-.4506073-.3997803-.5080185-.2962608-.0627956-.5626698.1671791-.5248394.5120754.0500307.4563255.1598988.9062691.2480917 1.3581734.0185499.0950089.0545855.1865921.0898561.3039742-.1012583.0061493-.1655836.0233364-.2242241.011734-2.0131264-.3981838-3.8677831-1.1521339-5.362752-2.593647-1.1074886-1.0678635-1.6091247-2.4319553-1.6608176-3.9658508-.007812-.2323017.0778885-.3105555.3046384-.3057022.3229551.0068808.6507306.0150251.9680681-.0328779.172132-.0259953.3800664-.1285172.4781995-.2642145.1911802-.264514-.0259957-.6162577-.3885765-.6435499-.3027768-.0227718-.6094432-.0061836-.9137158.0077457-.2281461.010438-.322556-.0497322-.2649465-.3018131.4280033-1.8726416 1.1167307-3.6415987 2.3948884-5.0911903 1.1836814-1.3424502 2.6782846-2.1928378 4.5260934-2.2773085.3664703-.0167542.3717899-.008111.3687639.3570294-.0024261.2955632-.0093079.5920901.0103054.8865561.0225058.3382139.2254543.5381036.4929934.5213823.2575665-.0161228.4230499-.2221627.4306288-.5497055.007081-.3047709.0064497-.6097417.0069809-.9146461.0003328-.1932745.0701427-.2864213.2859564-.259727 1.7521687.2165442 3.338954.7988276 4.6061087 2.0817065.2064724.2090645.4022064.4385076.5570202.6870985.7432117 1.1935215 1.3358669 2.4492073 1.5131187 3.8659878.0560131.4478493.0409546.48209-.4053974.5073872zm-5.4683657-2.9484491c-.1982937-.0985327-.3811302-.0488014-.5289288.1074076-.068779.072669-.1229982.1614275-.1731625.2489567-.4959841.8655796-.9893427 1.7326555-1.4849958 2.5984344-.0304499.0532551-.0737991.0991306-.1374264.1830692-.3382463-.455162-.6601048-.8695354-.9618511-1.2980375-.7120304-1.011117-1.4144211-2.0289831-2.1208-3.0440564-.0474043-.0681148-.0882597-.1424795-.1443739-.2025161-.1569071-.1677771-.3499489-.2116246-.5532961-.1045823-.2059397.1084051-.277944.2985549-.2137189.5174927.0436149.14853.1076074.2987881.1954355.4254436.6890931.993598 1.3851666 1.9823427 2.0811744 2.9711208.2922726.415205.6026611.8184414.876318 1.245348.0776215.1210709.098731.3152428.0697098.460681-.0791178.3963223-.1331711.7804441.211359 1.0782347.3674011.3174696.8011551.4228172 1.2683516.2750521.7249289-.2292767.9949608-1.2130356.4522371-1.7027369-.2296095-.2071705-.213686-.3579607-.0794182-.5860729.4405355-.7482662.8718967-1.5019503 1.301528-2.2565651.072403-.1271877.1384907-.2643805.1726313-.4054308.0531215-.2192039-.020279-.4066276-.230773-.5112428z"
          fill="#6e4599"/>
    <g clip-path="url(#b)">
        <path d="m49.0409164 1.3844582c-.9861794 1.0514241-1.9307442 2.1412387-2.8279762 3.2695847-.8227234 1.0346451-1.6809654 2.0867286-2.1865921 3.3200955-.0633163.1544409.1667404.2206678.2505951.105649 1.8319206-2.5127454 4.0172882-4.7610254 6.4783478-6.6620464-.0553818-.071779-.1107635-.1435581-.1661491-.2153372-2.138031 2.218318-4.3021088 4.4805527-5.7386932 7.2360268-.0688095.1319838.1068115.2875004.2153397.1661501 2.2587395-2.5256319 4.2883339-5.3070126 6.9838142-7.4005466-.0646324-.0646328-.1292648-.1292657-.1939011-.1938984-2.6307411 2.5285983-4.6751556 5.6086273-6.746769 8.5907822-.087944.1266022.1154327.2860651.2153397.1661501 2.3527031-2.8239145 4.7147484-5.8045092 7.8316879-7.8281059-.0553818-.071779-.1107674-.143558-.1661491-.215337-2.4105415 2.5281534-4.8254852 5.0717592-6.8261642 7.9457259-.0887337.1274672.111618.2815666.2153358.1661491 2.3311234-2.5940132 4.7645988-5.1316266 7.5412979-7.2555537-.0553856-.071779-.1107674-.143558-.1661491-.215337-2.4710617 2.4475439-4.9341698 4.9580469-6.8283081 7.8930807-.0959702.1487112.141304.2863388.2367783.138401 1.8813629-2.9152379 4.331089-5.4066038 6.7854271-7.8375831.1068573-.1058395-.0393944-.3122933-.1661491-.215337-2.7965584 2.1391184-5.2487755 4.6856155-7.5967941 7.2984314.0717773.0553837.1435585.1107664.2153358.1661501 1.987133-2.8545027 4.389122-5.379251 6.783287-7.8902283.104126-.1092045-.0313492-.3028526-.1661491-.215337-3.1387367 2.0377483-5.51791 5.0271769-7.887188 7.8709836.0717812.0553827.1435585.1107664.2153397.1661491 2.0589066-2.9638672 4.089325-6.022234 6.7038918-8.535284.1309967-.1259099-.0587959-.2988322-.1939011-.1938984-2.6954765 2.093533-4.725071 4.8749156-6.9838142 7.4005456.0717812.0553837.1435585.1107674.2153397.1661501 1.4262924-2.7357354 3.5731163-4.9781222 5.695816-7.1805296.1032295-.1071075-.0386505-.3138249-.166153-.215337-2.5009918 1.931864-4.7149162 4.2066851-6.5767212 6.7604208.0835342.0352163.1670647.0704327.2505989.105649.5125999-1.2503786 1.4151497-2.3258905 2.252697-3.3701777.8562737-1.0676324 1.7551117-2.1003189 2.691349-3.0985007.120655-.1286374-.0728608-.3229422-.1938974-.1938998z"
              fill="#fb3640"/>
    </g>
    <path d="m59.399807 3.2408257c-.7088699-.2466626-1.1225815-.1570065-1.5089951.300483-.0776215.0919168-.2187729.1921442-.3261147.187324-.9050407-.0405896-1.788105-.1887536-2.617981-.5833805-.502037-.2387509-1.0062294-.4799285-1.5283127-.6674852-.5376358-.1931746-1.0897026-.3724539-1.6507759-.4678943-.8024521-.1365621-1.5998192-.0015957-2.3968506.1598985-.4945564.1001942-.9352913.2454991-1.3049507.5958467-.7922134.7508252-1.4730301 1.5775108-1.97789 2.5584102-.3387146.6580777-.391468 1.3343053-.3478203 2.0389895.0180511.2913742.1652832.5223131.4051971.6983008.4458542.3270111.9491539.4886055 1.4904823.565629.0991287.0140953.2686996.1205387.2650795.1749249-.0247345.3685312-.0771599.7363644-.1434784 1.100275-.0207787.1140566-.1178131.2124882-.1694069.3229885-.1571388.3367176-.2491226.7246628-.4761047 1.003438-.4270706.5245075-.8859558 1.0424652-1.4111633 1.4640522-1.5897446 1.2761641-2.7398834 2.8553038-3.4701309 4.7504835-.0152245.0394936-.0445137.073534-.0672493.1101341-.0188828-.0027256-.0377998-.0054512-.0567131-.0081768-.0085793-.1260586-.0303841-.2527809-.0236015-.3779736.0450745-.8296432.2785072-1.6084595.7030869-2.3186951.3440628-.5755682.7340355-1.1235447 1.0963516-1.6884422.1391563-.2169771.2901764-.4347181.3806992-.6730366.341404-.8988228-.2246246-1.6208601-1.1817856-1.5236244-.5316887.0540199-1.0031395.2669411-1.4058456.6092768-1.806057 1.5353584-2.6446419 3.5091925-2.3887062 5.8495951.1954346 1.7871418 1.0988121 3.3001595 2.3313293 4.5917816.5100136.534481 1.2095108.7945404 1.9327431.8709984.6533585.069046 1.3191147.0180187 1.979351.0262947.9396477.0117683 1.8792267.0372334 2.8189049.0410233.4496765.0018272.9048042.0047531 1.3481674-.0583096.9670029-.1375256 1.9276237-.319397 2.8921356-.4752064.0862656-.0139294.1917801.0099392.2715607.0497971 1.186573.5927544 2.382225.3881111 3.5490494-.0184498.6715088-.2339306.8702011-.968401.4456253-1.5409107-.2316704-.3123512-.5688553-.566227-.9017487-.778616-.3940315-.2513828-.8338661-.4313602-1.2554893-.6390285-.3647079-.1796131-.5489731-.4579887-.5212479-.8753548.0571785-.8612232.0996628-1.7234802.1579056-2.5846386.1054802-1.5589609.2864876-3.1170912-.0365677-4.6737251-.0777893-.374814-.1298828-.7565098-.1676445-1.13764-.0498657-.5028658.1625557-.8794422.6206436-1.0975828.2590294-.1233311.5294952-.2232265.7972679-.3273764 1.2504655-.4865102 2.3544312-1.1678247 3.0898972-2.3333888.0658531-.1043162.0901222-.2379198.1196747-.3612843.0408211-.1705694.1012573-.2987542.3090286-.3160405.3885078-.0323458.6805153-.2503195.8208656-.5949492.1124954-.2761493.1651192-.5898628.1792793-.8899803.0255967-.5421922-.2254523-.9048729-.6677512-1.0587544zm-12.1420517 4.33744c-.5360413-.111763-.5944519-.2655115-.6024971-.8087678-.006115-.4123788.1561089-.7611303.3274765-1.1179934.414875-.8638182 1.0391769-1.5601249 1.7309608-2.2039742.0884933-.0823429.2003212-.1395538.3758469-.2591953.097168.4193599.1989594.7671809.2553062 1.1222153.0972023.6124349.2001877 1.2274294.2355576 1.8450837.0258293.4508405-.0969353.8935037-.3635445 1.2806177-.1245956.1809082-.280735.2848921-.5053253.2676058-.4855156-.0373317-.980999-.0270596-1.4537811-.1255918zm10.4902115-1.4534812c-.6069489.8344975-1.4384232 1.3373637-2.3589554 1.7284336-.2734871.1161509-.5611076.1992912-.8333664.317935-1.0133438.4416666-1.4454346 1.1302938-1.344677 2.2286739.0611992.6674852.262886 1.3266926.2794075 1.9926157.0279579 1.1284647-.0267944 2.2598886-.0730362 3.3889856-.0384293.9390459-.1176453 1.8763647-.1731606 2.8147802-.0464401.7851982.305336 1.3478012.9909401 1.7071915.424778.2226944.8712959.407093 1.2817459.6526585.2164803.1295147.5374069.3641434.5261383.5321865-.0192146.2859554-.4023094.2484913-.6446152.284359-.3974533.0588417-.8009224.1022224-1.2021637.1048489-.7501602.0048866-1.3027573-.3648739-1.5295753-1.0791664-.1310768-.4127426-.1926765-.8628521-.1985931-1.2973385-.0252304-1.8526955-1.2226753-3.6013412-2.9464226-4.2614794-.7270889-.2784433-1.421833-.2581978-2.0971985.155344-.2778091.1700706-.5752029.3078632-.8576012.4708862-.2871208.1657495-.3817291.4071589-.269268.6444139.1157188.2441692.387249.3238201.6964073.1743603.3365517-.1626911.6643257-.3446293.9895096-.5294266.3304329-.1877575.6699791-.2067385 1.0279388-.1022224 1.3647232.3984833 2.4796219 1.8975391 2.526165 3.3232307.0188484.5781612.154644 1.1520996.2275467 1.7291985.0193825.1536484.0029259.3118191.0029259.4853802-1.2337799.1820717-2.4256058.5391674-3.6855469.4180965-.6564484-.0630951-1.3232002-.0118008-1.9847374-.0314484-.8806725-.0261955-1.7624054-.0497646-2.6406174-.1152534-.6206131-.0463066-1.1239128-.352375-1.5121574-.8482265-.7415504-.9471588-1.3681145-1.9713078-1.6336555-3.1445179-.4093895-1.8085155.0449409-3.4500189 1.2459755-4.856328.3290062-.3852196.760334-.6935806 1.1813545-.984025.1522865-.1050806.4119148-.0545511.6225739-.074996-.0611992.1980286-.0853348.4186621-.1900826.5900955-.4295311.7032213-.9038734 1.3794498-1.3229027 2.0885553-.410881.6953087-.5992699 1.4721298-.6895256 2.2705917-.103981.919899.189518 1.7428951.6453476 2.5196171.1143227.1948032.3003159.298954.5351448.2654114.2425079-.0346069.3566284-.2067719.4133415-.4253769.0650558-.2507191.1308784-.5014706.1856956-.754549.4127769-1.9057503 1.4833336-3.4020157 2.8957596-4.6929064.6288567-.5747366 1.3016624-1.1202202 1.834877-1.7762365.7213058-.8874207 1.2078819-1.9132652 1.1813202-3.108448-.0034561-.1563091.0159569-.2823324.212822-.3097916.3988152-.0556154.6828461-.2961283.8989906-.6160583.5768967-.8538451.6590729-1.8068538.5018005-2.7889171-.1073723-.6706429-.2632484-1.3336735-.4046974-1.9985657-.0392609-.1846313.0498962-.2433717.2061043-.2652123.9313698-.1303124 1.8355103-.05761 2.7037811.335521.6290245.284759 1.2649612.5542264 1.8986397.82868.7029228.3044057 1.4341011.4749756 2.2028122.5091162.2096939.0093079.5304565.072968.5994682.2116241.1968309.3954249.4243471.8115602.0780222 1.2876993zm-4.5129624-1.967916c-.4696922.0011964-.7171516.3067327-.7121315.8792424.0038567.4401369.370594.7872596.8223305.7783504.34021-.0067148.8364906-.5580826.8389206-.9319658.0025253-.3925992-.4347878-.7269236-.9491196-.725627z"
          fill="#6e4599"/>
    <g clip-path="url(#c)">
        <path d="m81.0835342 4.1427541c-2.8006134 3.2982879-5.4538651 6.7202525-7.9508438 10.2539768-.1885376.266819.2428818.6032686.4555435.3514891 2.889183-3.4205723 6.1079712-6.5587797 9.6070251-9.3528709 1.0172424-.8122988 2.0591125-1.5929952 3.1213074-2.3454969-.1171646-.1518483-.2343292-.3036966-.3514938-.4555452-3.3925934 2.9350786-6.5611191 6.1262827-9.4654617 9.5454912-.8218765.9675732-1.6217957 1.9535084-2.401329 2.9554863-.2232361.2869406.1611176.6981134.4101944.4101915 2.8694153-3.3169355 5.8236389-6.5907564 9.2060776-9.3976707.9780273-.8116159 1.9916229-1.578279 3.0418243-2.2941263-.1171646-.1518483-.2343292-.3036969-.3514938-.4555452-3.307991 3.3567114-6.4172058 6.907403-9.3029938 10.6334753-.8093338 1.045002-1.6015244 2.103035-2.3764725 3.1737843-.1911774.2641449.251091.6101456.4555435.35149 2.9983215-3.7932959 6.2931595-7.3496084 9.8529358-10.6220665 1.0102921-.9287434 2.0420227-1.833797 3.0926971-2.7165709-.136734-.1367302-.273468-.2734611-.4101944-.4101915-1.6660995 1.7746286-3.2779388 3.599751-4.8298874 5.475071-1.5248337 1.8425541-3.0444946 3.7170725-4.3930206 5.6941385-.730957 1.0716524-1.375206 2.1939459-1.8630981 3.3976259-.1326065.3271542.3526917.467247.5301361.2234993 3.1449432-4.3200674 6.7681885-8.2893372 10.7833328-11.8154154 1.1513596-1.0111151 2.3345032-1.9861054 3.547821-2.9219751-.117157-.1518486-.2343216-.3036969-.3514862-.4555452-3.6922379 3.8307388-7.4064789 7.6947365-10.3835068 12.125248-.8387375 1.2482414-1.6118011 2.5394764-2.3051758 3.8740826-.1751328.337101.2837906.5907612.5009003.2927876 3.4072037-4.6762648 7.5222092-8.7786312 11.9484406-12.4882164 1.2378235-1.0374112 2.5001602-2.0451584 3.7780609-3.0326867-.136734-.1367307-.2734604-.2734613-.4101944-.4101918-4.287323 4.1067724-8.2519226 8.5439596-11.8531876 13.2638702-1.0244522 1.3426704-2.0182724 2.7084103-2.9827271 4.0947819-.1862564.2677307.2441635.6050949.4555435.35149 3.9314346-4.716917 7.9350891-9.4382753 12.6866302-13.360384 1.3488388-1.1133895 2.757019-2.1524849 4.2256241-3.1025906-.1171646-.1518483-.2343292-.3036966-.3514938-.4555449-4.1573944 4.3601918-8.3232574 8.7299137-12.0526428 13.4687748-1.0525284 1.3374329-2.0694962 2.702467-3.0409088 4.100008-.213562.3072453.2890701.5975475.5009003.2927856 3.4277115-4.9313602 7.4286652-9.424736 11.534523-13.7955828 1.1500778-1.2243032 2.309166-2.4400945 3.4683228-3.6557937.2203979-.2311511-.0661163-.6401658-.3514862-.4555449-5.2118378 3.3717785-9.5700607 7.8471136-13.6138229 12.5153065-1.1544113 1.3326759-2.2870178 2.6840191-3.4158401 4.0383739.1518478.1171646.3036957.2343273.4555435.35149 3.3739853-4.849966 7.1224899-9.4356165 11.2076416-13.7040215 1.1531296-1.2048578 2.3332214-2.3835936 3.5375748-3.5372272.2778244-.266124-.1241913-.6312058-.4101944-.4101918-4.5838547 3.5422823-8.968277 7.3739157-12.7539902 11.7726164-1.0728455 1.2465696-2.0947037 2.5364485-3.0632172 3.8656912.1669693.0975952.333931.1951904.5009003.2927876 2.4486084-4.7130699 5.8967285-8.7880354 9.5088577-12.6450233 1.0195236-1.0886354 2.0540848-2.163044 3.089119-3.2369027.218399-.2265918-.081604-.6637182-.3514938-.4555449-4.3043213 3.3200417-8.2404709 7.1049414-11.7062378 11.293972-.9822311 1.1872072-1.926178 2.4058323-2.8330231 3.6515312.176712.0744991.3534241.1489983.5301361.2234993.8588715-2.1189404 2.2623215-3.9618444 3.6479187-5.7592058 1.4575577-1.890707 2.9758224-3.7349691 4.5484695-5.5310364.895668-1.022902 1.8098373-2.0294018 2.7404327-3.0206146.2592239-.2761157-.1273651-.6478269-.4101944-.4101915-3.7019577 3.1103902-7.1581726 6.5100842-10.3227386 10.1661091-.8981247 1.0376024-1.7719269 2.0959358-2.6228943 3.1725273.1518478.1171627.3036957.2343254.4555435.35149 2.7359695-3.7802773 5.6941986-7.3977804 8.8583527-10.8277845.8940964-.9692163 1.8048477-1.9228749 2.7304153-2.8620708.2241287-.2274311-.07164-.646297-.3514862-.4555449-3.6700363 2.5015967-6.8539047 5.6221695-9.8266602 8.904294-.8588333.9482031-1.7016754 1.9107037-2.5386505 2.8782101.136734.1367302.2734604.2734613.4101944.4101915 2.7546387-3.5406761 5.7767029-6.8709049 9.0402145-9.9491673.9235077-.8710918 1.8665009-1.7212105 2.8265762-2.5518095.24617-.2129695-.0814819-.6468315-.3514862-.4555449-3.70755 2.6265771-7.1582489 5.6108589-10.2789917 8.9138575-.882515.9340525-1.7375717 1.8935423-2.5667419 2.8752174.1518478.1171637.3036957.2343264.4555435.3514891 2.4686432-3.4936209 5.0913086-6.8757167 7.8601379-10.1365719.2403032-.283009-.1681136-.6952951-.4101943-.4101929z"
              fill="#fb3640"/>
    </g>
    <path d="m90.1901398 18.3586044c-.3164139-.2485218-.6506195-.4770412-.9488983-.7455635-.5381088-.4844322-1.0655975-.9799881-1.5555878-1.5103683.4984131-.6095867.7698669-1.3201752.7779465-2.1384325.0133362-1.3509979-.4904861-2.5182438-1.4371414-3.4348345-.7354279-.7120743-1.5894241-1.3083267-2.4247818-1.9086561-.8077087-.5804033-1.7123337-1.0033045-2.7036362-1.1328797-1.7734833-.2318339-3.4202042-.812809-4.9888992-1.6483245-.0901871-.0480433-.1942749-.0787129-.2955017-.0955529-.4234314-.0703692-.6899414.2311101-.5287399.6263132.117157.2871919.2771683.5612774.4481201.8214569.7786331 1.1850762 1.4958954 2.3948026 1.9078598 3.7702603.2823868.9427643.6434937 1.8617935.9626541 2.7937765.3470078 1.0134773.9724808 1.8412971 1.7302322 2.5735636.8078613.7806911 1.8368073.9297352 2.9025497.9839134.4594421-.0335274.9255447-.0294895 1.3768311-.1091938.5351028-.0944862 1.0800781-.1884384 1.5523911-.4525414.4305954.4674397.9219666.8762436 1.3874969 1.3079071.5165863.4789829 1.1491852.771471 1.88797.9192963.0763092-.035471.2319107-.06073.2571716-.1321278.0284195-.0802746-.0459518-.2114124-.1033249-.3030796-.0469818-.075056-.1320954-.127861-.2047119-.1849327zm-2.9593888-3.4485511c-.1048889.2428064-.2095108.3150425-.3313522.2403297-.0553589-.075779-.1168137-.1459579-.1699219-.2237949-.4892731-.716836-1.0669708-1.3439112-1.6839447-1.9310198-.3345108-.3225861-.6819763-.6319904-1.0384369-.9322119-.40522-.3465881-.8160858-.6873856-1.2233658-1.031765-.0859146-.0726929-.2468033-.0566912-.3727951-.0819511.000412.0014095.0005264.0030479.0009079.0044575.0230942.1002388.014328.2290144.0744476.2959166.0058289.0065155.0118103.0128775.0176392.019393.0067825.0114679.007431.0282307.0160065.0381365.4923172.5691643.9981613 1.1267462 1.50457 1.6836042.4311752.4741068.885582.9290495 1.2961349 1.4191961.0741043.0914383.1487427.1824188.2199097.2764101.258049.3427401.4829483.7124548.701561 1.0849504-.0080414.1002779-.076767.1884394-.2233353.2671137-.4727783.253664-.9658585.3832397-1.5908356.3667049-.9669189.0998974-1.8285675-.3313103-2.5873947-1.0158386-.1239319-.111783-.221199-.2703142-.2879868-.4256449-.704689-1.638114-1.3915405-3.2839231-2.1033096-4.918951-.304985-.7006063-.660141-1.3792295-.9836426-2.0719876-.0496445-.1063728-.0512085-.2351866-.0750198-.3536367.1289673-.0118871.2665787-.0592065.3855286-.0301747 1.2031708.2935162 2.4200974.5466089 3.5978241.9220009.6958389.2218132 1.3297729.6397238 1.9881287.97614.1541138.0787506.2865829.2011261.4424438.2750378 1.0077286.4778786 1.6605148 1.3108034 2.2218323 2.2278137.5705719.9322499.6384277 1.9152096.2044067 2.9197711zm10.6203461-8.4593206c-.2171707-2.2636647-1.5857315-3.6715829-3.8122482-4.170187-.5296936-.118603-1.0746613-.2127461-1.6154861-.2302337-2.3740768-.076808-4.4378662.6329422-5.9877853 2.515691-.3198395.3885736-.5502243.8508315-.8329239 1.2965541-.0322723-.0122294-.060463-.0141726-.0727692-.0291839-.0363846-.0443091-.0729599-.0905619-.0981064-.1416526-.6873474-1.3950791-1.8684616-2.1822469-3.2977142-2.642333-1.3872299-.4465227-2.8084488-.4646199-4.2328949-.2236805-1.4193497.2401013-2.4913483 1.0200684-3.2781372 2.2080779-.4944153.7465162-.796463 1.5687351-.9290085 2.4531322-.3393478 2.2638173.220787 4.34693 1.2678223 6.3347564.9858551 1.8717375 2.3429184 3.4437494 3.8887177 4.868165 1.9779587 1.822628 4.2810135 3.1265354 6.7226028 4.202877.2142334.0944481.5314484.0682354.7623672-.0123062.4463272-.155674.8688889-.3827076 1.2948761-.5931664 2.9059753-1.4357319 5.4751205-3.3095646 7.509201-5.8579063.4957123-.6210184.9858932-1.2679424 1.3478394-1.9703779 1.2968597-2.5167963 1.629692-5.2348701 1.3636474-8.0082261zm-2.5171432 7.6821351c-.4198914.960824-1.1053314 1.7329426-1.7862778 2.5120716-2.0212784 2.3127365-4.4984512 3.9938641-7.2670441 5.2707596-.1760559.0811882-.4518585.108963-.6158371.0284214-1.9172287-.9415455-3.8176956-1.9168472-5.4121857-3.3758945-2.0875702-1.9102192-3.9632339-3.9713478-4.945961-6.7053852-.4847031-1.3484459-.6958084-2.7128544-.5087433-4.1341839.1142654-.8683195.4247742-1.6611257.9588089-2.3579984.5797577-.7565742 1.3304596-1.2567787 2.2759323-1.4243774 1.3218155-.2343102 2.6356277-.214689 3.9156113.233891 1.334343.4676299 2.3064499 1.3085938 2.7203979 2.7104163.1016083.3440738.2327805.6802993.3660507 1.0138578.1040497.2603326.2744675.4682393.5847473.4723163.3223572.0042286.5126266-.2032976.6272278-.471478.0904465-.2116027.1586838-.4373026.2026138-.6633835.3934479-2.0254302 1.7158737-3.1747313 3.5940475-3.7662594 1.3663177-.4302926 2.7551117-.3904788 4.1136169.0392802 1.4108887.4463704 2.3157425 1.3766007 2.512146 2.8931017.0593948.4589052.0835495.9223824.1238556 1.3837638-.0647276 2.214859-.5759809 4.3204889-1.459007 6.3410806z"
          fill="#6e4599"/>
</svg>