<svg enable-background="new 0 0 100 25" viewBox="0 0 100 25" xmlns="http://www.w3.org/2000/svg">
    <path d="m11.6435928 23.0546436c-5.2800159 0-9.5753851-4.2953701-9.5753851-9.575386 0-2.6957884 1.1455214-5.2813635 3.1431105-7.0935564.3384557-.3071966.862577-.2813277 1.1692348.0568585.3071971.3384557.281867.8620381-.0568581 1.1692352-1.6521273 1.4990678-2.5998571 3.6375899-2.5998571 5.8674626 0 4.3670483 3.5527065 7.9197559 7.919755 7.9197559s7.9197559-3.5527077 7.9197559-7.9197559c0-2.2336454-.950695-4.3751316-2.6082115-5.8750081-.338995-.3069277-.3651333-.8302402-.0584755-1.1692348.3069286-.3387251.8299713-.3654027 1.1692352-.0584755 2.0037861 1.8132706 3.1530819 4.4020796 3.1530819 7.1027184.0000001 5.280016-4.29537 9.5753861-9.575386 9.5753861z"
          fill="#d4bdba"/>
    <path d="m11.6435928 8.990139c-.2004862 0-.4007034-.0724878-.5591526-.2171936l-4.0714383-3.7278628c-.3190536-.292376-.3592048-.7809272-.0921588-1.1215384l1.3028927-1.6612892c.1568317-.1999476.3969307-.316898.6513109-.316898h5.5370922c.2543802 0 .4944792.1169504.6513119.316898l1.3028917 1.6612892c.267046.3406112.2268944.8291624-.0921593 1.1215384l-4.0714378 3.7278628c-.1584491.1447058-.3586664.2171936-.5591526.2171936zm-2.9466657-4.6483755 2.9466658 2.6982136 2.9466667-2.6982136-.5809803-.7407763h-4.7313729z"
          fill="#f78f7d"/>
    <path d="m52.622345 14.5625315c-.000843-.0020885-.0026932-.003335-.0035706-.0053892-.0186615-.0448332-.0502892-.0824585-.0801697-.1210938-.0140457-.0179195-.0222626-.0410604-.0381966-.0568924-.0029297-.0029297-.0074768-.0041428-.0104408-.0070057-.0494156-.0469217-.1056671-.0853548-.167881-.1111231-.0017166-.0007076-.0027618-.0022907-.0045128-.0029984-.8413887-.3424301-1.8842087-.098424-2.6259956.5984278v-1.1837187c0-.3047714-.2471046-.551877-.5518761-.551877s-.5518799.2471056-.5518799.551877v3.1406183c-.0897331-.1107521-.180275-.2212029-.2829437-.3238373-1.0609055-1.0606384-2.5941963-1.439784-3.8157082-.9444962-.0022926.0009098-.0036392.002964-.0058975.0039072-.0523415.02176-.0977135.0566902-.1413689.0936413-.0108452.0093307-.0259056.0141134-.0359421.0241852-.0177498.0176506-.0272179.0431156-.0425758.0633259-.0276527.0368834-.0580025.0720835-.0756531.1143904-.0009422.0022564-.002964.0036039-.0038757.0058613-.4958267 1.2212429-.1161423 2.7548027.9444962 3.8157101.7504768.7504768 1.7367439 1.1598034 2.6823158 1.1598034.265934 0 .5244598-.046854.777153-.1147614v1.7916794c0 .3047714.2471085.551878.5518799.551878s.5518761-.2471066.5518761-.551878v-4.4739265c.1277962.0241508.257885.0376244.3896561.0376244.6664009 0 1.3589401-.2861786 1.8836021-.8111076.7448158-.7442799 1.0088997-1.8264752.6575089-2.6928244zm-4.3252793 5.0955305c-.7765503.1996441-1.7061577-.0899696-2.3883247-.7724056-.6820984-.6823349-.9718781-1.6117744-.7722359-2.3882885.7766151-.2002182 1.705719.0902729 2.3879852.7725391.682335.6826038.9724198 1.6118755.7725754 2.388155zm2.8873825-3.183094c-.3624077.3626404-.8395729.5352039-1.2555008.4757843-.0593491-.4156246.1133804-.8928242.4759216-1.2553644.3628082-.3623714.8399391-.5348663 1.2555313-.4757175.0592843.4156932-.1134795.892825-.4759521 1.2552976z"
          fill="#d4bdba"/>
    <path d="m56.0381584 3.0491107h-4.018013c-.5741768-.6782589-1.6595726-1.1037537-2.8804436-1.1037537-1.2208748 0-2.3062706.4254948-2.8804436 1.1037537h-4.0180168c-.4572945 0-.827816.3705225-.827816.8278151s.3705215.8278153.827816.8278153c.4564819 0 .827816.3713307.827816.8278151v3.5871987c0 1.8259363 1.4853249 3.3112602 3.3112602 3.3112602h2.4834442c.0972786 0 .1892357-.0198393.2759399-.0506601.0867004.0308208.1786575.0506601.2759361.0506601h2.483448c1.8259354 0 3.3112602-1.4853239 3.3112602-3.3112602v-3.5871988c0-.4564843.3713303-.8278151.8278122-.8278151.4572945 0 .827816-.370523.827816-.8278153s-.3705213-.827815-.8278158-.827815zm-5.4759216.4222948c-.5808449.2575469-1.074379.6761703-1.4225349 1.20046-.3481598-.5242896-.8416939-.9429131-1.4225388-1.20046.3738251-.1684532.8602524-.2843258 1.4225388-.2843258.5622825 0 1.0487136.1158726 1.4225349.2843258zm-2.5262909 7.3039794h-1.6556282c-.9143791 0-1.655632-.741251-1.655632-1.6556301v-3.5871987c0-.2902203-.0501213-.5688534-.1417427-.8278151h1.7973747c.9143791 0 1.6556282.7412505 1.6556282 1.6556301zm5.5187683-5.2428288v3.5871987c0 .9143791-.7412491 1.6556301-1.6556282 1.6556301h-1.655632v-4.4150138c0-.9143796.7412529-1.6556301 1.655632-1.6556301h1.7973709c-.0916214.2589617-.1417427.5375948-.1417427.8278151z"
          fill="#f78f7d"/>
    <path d="m97.1058578 7.4641247h-19.4724502c-.460907 0-.8345337.373632-.8345337.8345337v4.4508467c0 .4609022.3736267.8345337.8345337.8345337h.2781754v6.9544477c0 1.3827076 1.1208954 2.503603 2.5036011 2.503603h13.9088974c1.3827057 0 2.5036011-1.1208954 2.5036011-2.503603v-6.9544477h.2781754c.460907 0 .8345337-.3736315.8345337-.8345337v-4.4508467c-.0000002-.4609018-.3736269-.8345337-.8345339-.8345337zm-.8345336 4.4508467h-8.3453369v-2.7817793h8.3453369zm-17.8033829-2.7817793h8.3453369v2.7817793h-8.3453369zm1.112709 11.4052944v-6.9544477h7.2326279v7.7889814h-6.3980942c-.4608993 0-.8345337-.3736306-.8345337-.8345337zm15.5779648 0c0 .4609032-.3736343.8345337-.8345337.8345337h-6.3980942v-7.7889814h7.2326279z"
          fill="#d4bdba"/>
    <path d="m90.9355392 1.9535946c-.7758026 0-1.527626.302616-2.1172333.852337-.0247879.0231745-.0485001.0479658-.0703278.0741045l-1.4101791 1.6848342-1.4103775-1.6848342c-.0218277-.0261388-.0452728-.0506606-.0700607-.0738351-.5893326-.549721-1.3414307-.8526064-2.1175079-.8526064-1.8022156 0-3.2686844 1.6092812-3.2686844 3.5871987 0 .4572926.3705292.8278151.8278198.8278151s.8278122-.3705225.8278122-.8278151c0-1.0649495.7235336-1.9315686 1.6130524-1.9315686.4306183 0 .7518311.1977918.9539337.376451l1.9773788 2.362453c.1638336.1956358.3988113.2964182.6354065.2964182.0105438 0 .0207214-.0049853.0312653-.0053892.0105362.0004039.0207138.0053892.0312576.0053892.2365952 0 .4715729-.1007824.6354141-.2964182l1.9771042-2.3621833c.2023773-.1786594.5235825-.3767207.9539261-.3767207.8895264 0 1.613327.8666191 1.613327 1.9315686 0 .4572926.3705215.8278151.8278122.8278151.4572983 0 .8278198-.3705225.8278198-.8278151.0000001-1.9779176-1.4664611-3.5871987-3.268959-3.5871987z"
          fill="#f78f7d"/>
</svg>