<svg enable-background="new 0 0 100 25" viewBox="0 0 100 25" xmlns="http://www.w3.org/2000/svg">
    <path d="m76.618721 7.1461167c-1.5107651 3.2221379-2.1560211 6.7038255-2.3659363 8.0853329-.0330887.1757898-.0579071.3526154-.0744553.5294399-.0072403.053771-.0103378.0858278-.0103378.0858278l.0030975-.0062046c-.2678223 3.358634 2.4176407 6.6852121 5.5508499 7.0068064 0 0 10.4099045 1.8675156 16.861412-5.4732914.1075439-.1106453.2088852-.2264595.3029861-.3464108.0124054-.0144768.0248184-.0279198.0372238-.0423965l-.0041351.0010338c1.4187317-1.8602781 1.346344-4.8156281-.1778564-7.0409288l.0310211.0175791c-3.6843643-5.1878896-8.8122787-7.0812569-11.8038254-7.7658062-5.4060744-.6886892-8.3014448 4.8642244-8.3500441 4.9490184z"
          fill="#d0e6f5"/>
    <path d="m4.5256901 7.1461167c-1.5107651 3.2221379-2.1560204 6.7038255-2.3659348 8.0853329-.0330908.1757898-.0579073.3526154-.0744526.5294399-.0072393.053771-.0103414.0858278-.0103414.0858278l.0031021-.0062046c-.2678217 3.358634 2.4176381 6.6852121 5.5508451 7.0068064 0 0 10.4099045 1.8675156 16.8614178-5.4732914.107542-.1106453.2088814-.2264595.3029804-.3464108.0124092-.0144768.0248165-.0279198.0372257-.0423965l-.0041351.0010338c1.4187317-1.8602781 1.3463478-4.8156281-.1778603-7.0409288l.031023.0175791c-3.6843643-5.1878896-8.8122778-7.0812569-11.8038206-7.7658062-5.4060743-.6886892-8.3014486 4.8642244-8.3500493 4.9490184z"
          fill="#d0e6f5"/>
    <path d="m23.8473301 11.0947104-1.0987873-.2662506c-.0614395-.1935453-.138237-.3809423-.2314243-.559123l.5642395-.9400588c.0645103-.1085529.0481281-.2467909-.0409641-.335885l-.7782612-.7782679c-.0890942-.0890865-.228363-.1064987-.3358841-.0409575l-.9400597.5642405c-.1781807-.092164-.3655777-.1699858-.559124-.2314329l-.2662487-1.0987806c-.0296936-.1239109-.1402931-.2099271-.2672749-.2099271h-1.1019878c-.1262989 0-.2361946.0864444-.2659378.2091942l-.2664242 1.0995135c-.1935463.0614471-.379921.1382456-.559124.2314329l-.9400578-.5642405c-.1085472-.064518-.2467918-.0481291-.335886.0409575l-.7782602.7782679c-.0890942.0890942-.1064987.2283554-.0409651.335885l.5642395.9400587c-.0921631.179204-.1699848.3666019-.2314253.5601473l-1.0654211.2666054c-.1219301.0305128-.2074528.1400824-.2074528.2657642v1.1031275c0 .1256886.0855227.2352505.2074528.2657633l1.0654211.266614c.0614405.1935377.1392622.3809423.2314253.5601463l-.5642395.9400587c-.0645103.1085453-.0481291.2467918.0409651.335885l.7782602.7782612c.0890942.0890932.228363.1064978.335886.0409641l.9400578-.5642471c.179203.092164.3666019.1699924.5601463.2314329l.2665272 1.0650797c.0305634.1221256.1402988.2077942.2661915.2077942h1.102438c.1258926 0 .2356281-.0856686.2661915-.2077942l.2665272-1.0650797c.1935444-.0614405.3809433-.1392689.5601463-.2314329l.9400597.5642471c.1085453.0645103.2467899.0481291.3358841-.0409641l.7782612-.7782612c.0890942-.0890932.1064987-.228363.0409641-.335885l-.5642395-.9400587c.0921555-.1781797.1699848-.3655853.2314262-.559123l1.0987873-.2662506c.1239109-.0296926.2099266-.1402922.2099266-.2672739v-1.1008339c-.0010243-.1290208-.0880642-.2396203-.2119751-.2693129zm-4.4963341 2.7931985c-1.0572853 0-1.9169598-.8596745-1.9169598-1.9169531s.8596821-1.9169607 1.9169598-1.9169607 1.916954.859683 1.916954 1.9169607-.8596763 1.9169531-1.916954 1.9169531zm-13.6265535-6.9441623-.1299787.5422625c-.0942974.0302592-.1850896.0680814-.2723975.1139674l-.4579739-.2778635c-.0528827-.031776-.1202312-.023705-.1636419.0201707l-.3791505.3832655c-.0434036.0438757-.0518813.1124578-.0199527.1654129l.2748799.4629455c-.0448985.0882521-.082808.1805391-.1127405.2758532l-.5193849.1313791c-.0592408.0149812-.1007357.068285-.1007357.1293907v.5460587c0 .0611067.0414948.1144104.1007357.1293983l.5193849.1313791c.0299325.0953064.067842.1876011.1127405.2758532l-.2748799.462945c-.0314351.0534563-.0234509.1215381.0199527.1654129l.3791504.3832664c.0434108.0438747.1112599.0524473.1636419.0201702l.457974-.2778702c.0873079.0453844.1786008.0837154.272891.1139746l.1300368.5252857c.0147705.0596542.0683136.1015558.1297684.1015558h.2480321v-1.3332396c-.5041285-.012804-.9103298-.4301901-.9103298-.9428253 0-.5126276.406209-.9300203.9103298-.9428244v-1.4075555h-.2487144c-.0616508 0-.1152592.0422788-.1296377.1022311z"
          fill="#36d5d8"/>
    <path d="m17.1621017 7.5833478.5122509.3074622.1578197-.6513743c.0463505-.1914988.1462383-.3578911.2812691-.4854965v-.7580543c0-.8464947-.6862221-1.5327148-1.5327168-1.5327148h-4.1753139-4.1753148c-.8464942 0-1.5327148.6862202-1.5327148 1.5327148v12.8694868c0 .8464947.6862206 1.5327148 1.5327148 1.5327148h4.1753149 4.1753139c.8464947 0 1.5327168-.6862202 1.5327168-1.5327148v-1.83008c-.1328831-.1259727-.2318249-.2893105-.2788296-.4771652l-.156311-.624548-.5161991.3099365v1.3005562h-4.756691-4.7566915v-11.297142-.2378345h4.7566915 4.756691v.2378345 1.3364186zm-4.7566909 10.7931437c.3283796 0 .5945864.2662067.5945864.5945873s-.2662067.5945873-.5945864.5945873-.5945864-.2662067-.5945864-.5945873.2662067-.5945873.5945864-.5945873z"
          fill="#2384e5"/>
    <path d="m59.2286873 18.1352348c1.514473-3.2300482 2.1613121-6.7202835 2.3717422-8.1051826.0331726-.1762218.0580521-.3534813.0746346-.5307398.0072594-.0539026.0103683-.0860376.0103683-.0860376l-.003109.0062189c.2684784-3.3668804-2.4235725-6.7016253-5.5644722-7.0240088 0 0-10.435463-1.8721011-16.9028168 5.4867287-.1078072.1109166-.2093925.227016-.3037262.347261-.0124359.014513-.0248756.0279884-.0373154.0425014l.0041466-.0010366c-1.4222183 1.8648443-1.3496552 4.8274508.1782951 7.0582142l-.0310974-.017622c3.693409 5.2006273 8.8339119 7.0986433 11.8328018 7.784873 5.419346.6903805 8.3218271-4.8761669 8.3705484-4.9611698z"
          fill="#d0e6f5"/>
    <path d="m58.6514435 9.5708055-.9358635 1.2878075c-.1478462.2034292-.4295158.2786694-.6449699.1490116-.2430458-.1462393-.3041496-.46521-.141037-.6896439l.9504013-1.3078241c-.7997589-.311389-1.7432175-.0436554-2.2433968.7150373-.3256149.493885-.3825684 1.102438-.2019653 1.6360283l-3.9853401 5.4840479c-.563282-.0070076-1.1244965.2350922-1.4936943.697298-.5671616.7100239-.5304604 1.6900444.0126762 2.354557l.9504128-1.3078175c.1630974-.2244415.4853477-.2648087.6994972-.0788193.1898575.1649017.2052765.4560337.0574341.659462l-.9358673 1.2878151c.7739067.3013268 1.682373.0603619 2.193531-.6430111.4032059-.5548439.4557648-1.2560196.2027893-1.8433495l3.8905525-5.3536043c.636734.0592413 1.2874107-.2072773 1.6906281-.7621126.5111503-.7033737.4597969-1.641855-.0657883-2.2848824z"
          fill="#36d5d8"/>
    <path d="m52.7601318 4.627398h-11.9209251c-.1975555 0-.3576279.1601295-.3576279.3576279v14.4243202c0 .1974983.1600723.3576279.3576279.3576279h7.2717628c.1975555 0 .3576279-.1601295.3576279-.3576279s-.1600723-.3576279-.3576279-.3576279h-6.914135v-13.7090644h11.2056695v7.5101829c0 .1974983.1600685.3576269.3576279.3576269.1975555 0 .3576279-.1601286.3576279-.3576269v-7.8678108c-.0000001-.1974983-.1600724-.3576279-.357628-.3576279zm-8.174797 2.8133502c-.1576271-.1183944-.3819618-.086555-.5007019.071537l-.8761444 1.1682272-.2949944-.3933668c-.1186295-.1580925-.3428421-.1898737-.5007019-.071537-.1579781.1185102-.1901054.3426676-.0715981.5006437l.5811462.7748594c.0676384.090106.1735764.143075.2861481.143075.1125755 0 .2185135-.052969.2861519-.143075l1.1622887-1.5497198c.1185112-.1579756.08638-.382133-.0715942-.5006437zm0 3.5762777c-.1576271-.1183949-.3819618-.0864973-.5007019.071537l-.8761444 1.1682272-.2949944-.3933678c-.1186295-.1580915-.3428421-.1899309-.5007019-.071537-.1579781.1185112-.1901054.3426685-.0715981.5006437l.5811462.7748604c.0676384.090106.1735764.143074.2861481.143074.1125755 0 .2185135-.052968.2861519-.143074l1.1622887-1.5497198c.1185112-.1579761.08638-.3821334-.0715942-.5006437zm0 3.4570675c-.1576271-.1183939-.3819618-.0864964-.5007019.071537l-.8761444 1.1682281-.2949944-.3933678c-.1186295-.1580915-.3428421-.1899319-.5007019-.071537-.1579781.1185102-.1901054.3426685-.0715981.5006437l.5811462.7748604c.0676384.0901051.1735764.143074.2861481.143074.1125755 0 .2185135-.052969.2861519-.143074l1.1622887-1.5497208c.1185112-.157975.08638-.3821324-.0715942-.5006436zm6.2674484-6.2704181h-5.0067902c-.1975555 0-.3576279.1601295-.3576279.3576279s.1600724.3576278.3576279.3576278h5.0067902c.1975555 0 .3576279-.1601295.3576279-.3576279s-.1600724-.3576278-.3576279-.3576278zm0 3.5762777h-5.0067902c-.1975555 0-.3576279.1601295-.3576279.3576279s.1600723.3576279.3576279.3576279h5.0067902c.1975555 0 .3576279-.1601295.3576279-.3576279s-.1600724-.3576279-.3576279-.3576279zm0 3.5762777h-5.0067902c-.1975555 0-.3576279.1601286-.3576279.3576279 0 .1974983.1600723.3576269.3576279.3576269h5.0067902c.1975555 0 .3576279-.1601286.3576279-.3576269 0-.1974993-.1600724-.3576279-.3576279-.3576279z"
          fill="#2384e5"/>
    <g fill="#36d5d8">
        <path d="m95.096756 17.8476543h-10.5817337c-.2765274 0-.5006866.2241631-.5006866.5006847v1.6257191c0 .2765236.2241592.5006924.5006866.5006924h10.5817337c.2765198 0 .5006866-.2241688.5006866-.5006924v-1.6257191c0-.2765216-.2241668-.5006847-.5006866-.5006847zm-9.8882828 1.6717892c-.1978378 0-.3582458-.1603889-.3582458-.3582401 0-.1978531.160408-.358242.3582458-.358242.1978302 0 .3582382.1603889.3582382.358242 0 .1978512-.160408.3582401-.3582382.3582401zm1.1941299 0c-.1978378 0-.3582382-.1603889-.3582382-.3582401 0-.1978531.1604004-.358242.3582382-.358242s.3582382.1603889.3582382.358242c.0000001.1978512-.1604003.3582401-.3582382.3582401zm1.1941376 0c-.1978378 0-.3582458-.1603889-.3582458-.3582401 0-.1978531.160408-.358242.3582458-.358242s.3582382.1603889.3582382.358242c0 .1978512-.1604003.3582401-.3582382.3582401zm4.2988816 0h-.4776535c-.1978912 0-.3582382-.1603451-.3582382-.3582401s.160347-.358242.3582382-.358242h.4776535c.1978989 0 .3582458.160347.3582458.358242s-.160347.3582401-.3582458.3582401zm2.5076828 0h-1.3135452c-.1978989 0-.3582382-.1603451-.3582382-.3582401s.1603394-.358242.3582382-.358242h1.3135452c.1978989 0 .3582458.160347.3582458.358242s-.160347.3582401-.3582458.3582401z"/>
        <path d="m95.096756 14.504077h-10.5817337c-.2765274 0-.5006866.2241631-.5006866.5006857v1.6257191c0 .2765217.2241592.5006924.5006866.5006924h10.5817337c.2765198 0 .5006866-.2241707.5006866-.5006924v-1.6257191c0-.2765227-.2241668-.5006857-.5006866-.5006857zm-9.8882828 1.6717882c-.1978378 0-.3582458-.1603889-.3582458-.3582392 0-.1978521.160408-.3582411.3582458-.3582411.1978302 0 .3582382.1603889.3582382.3582411 0 .1978502-.160408.3582392-.3582382.3582392zm1.1941299 0c-.1978378 0-.3582382-.1603889-.3582382-.3582392 0-.1978521.1604004-.3582411.3582382-.3582411s.3582382.1603889.3582382.3582411c.0000001.1978502-.1604003.3582392-.3582382.3582392zm1.1941376 0c-.1978378 0-.3582458-.1603889-.3582458-.3582392 0-.1978521.160408-.3582411.3582458-.3582411s.3582382.1603889.3582382.3582411c0 .1978502-.1604003.3582392-.3582382.3582392zm4.2988816 0h-.4776535c-.1978912 0-.3582382-.1603451-.3582382-.3582392 0-.197896.160347-.3582411.3582382-.3582411h.4776535c.1978989 0 .3582458.1603451.3582458.3582411 0 .1978941-.160347.3582392-.3582458.3582392zm2.5076828 0h-1.3135452c-.1978989 0-.3582382-.1603451-.3582382-.3582392 0-.197896.1603394-.3582411.3582382-.3582411h1.3135452c.1978989 0 .3582458.1603451.3582458.3582411 0 .1978941-.160347.3582392-.3582458.3582392z"/>
        <path d="m95.096756 11.1605005h-10.5817337c-.2765274 0-.5006866.2241621-.5006866.5006847v1.6257191c0 .2765226.2241592.5006924.5006866.5006924h10.5817337c.2765198 0 .5006866-.2241697.5006866-.5006924v-1.6257191c0-.2765226-.2241668-.5006847-.5006866-.5006847zm-9.8882828 1.6717882c-.1978378 0-.3582458-.1603889-.3582458-.3582401s.160408-.3582401.3582458-.3582401c.1978302 0 .3582382.1603889.3582382.3582401s-.160408.3582401-.3582382.3582401zm1.1941299 0c-.1978378 0-.3582382-.1603889-.3582382-.3582401s.1604004-.3582401.3582382-.3582401.3582382.1603889.3582382.3582401-.1604003.3582401-.3582382.3582401zm1.1941376 0c-.1978378 0-.3582458-.1603889-.3582458-.3582401s.160408-.3582401.3582458-.3582401.3582382.1603889.3582382.3582401-.1604003.3582401-.3582382.3582401zm4.2988816 0h-.4776535c-.1978912 0-.3582382-.1603451-.3582382-.3582401s.160347-.3582401.3582382-.3582401h.4776535c.1978989 0 .3582458.1603451.3582458.3582401s-.160347.3582401-.3582458.3582401zm2.5076828 0h-1.3135452c-.1978989 0-.3582382-.1603451-.3582382-.3582401s.1603394-.3582401.3582382-.3582401h1.3135452c.1978989 0 .3582458.1603451.3582458.3582401s-.160347.3582401-.3582458.3582401z"/>
    </g>
    <path d="m91.1669006 9.9109735c-.8586349-3.2006073-3.7755203-5.4359951-7.0932083-5.4359951-4.0492096 0-7.3435822 3.2943659-7.3435822 7.3435783 0 3.5827541 2.5584106 6.6258154 6.0832062 7.2357111.0207596.0036144.0412827.0052471.0615768.0052471.1709595 0 .322319-.1229115.3525238-.2971344.0337067-.1949806-.0969086-.3803978-.2918854-.4140987-2.7579956-.4771957-4.8590164-2.6059237-5.3689117-5.2712336.8855591.6091738 2.4299774 1.0069971 4.1118774 1.19662.1391983 1.2322607.3854828 2.3326588.7204895 3.1769123.0557404.140522.1905518.2262325.3330536.2262325.0439606 0 .088623-.0081615.1320038-.0254211.1839066-.0728836.2738113-.2811584.2008133-.4650593-.2996979-.7553787-.5233917-1.7379093-.6572723-2.8441744.2271652.0172873.4552994.0313616.6833954.0413399.005249.0002327.0106125.000349.0158615.000349.1906586 0 .3492584-.1501989.3576584-.3426132.0086288-.1976624-.1446075-.3648882-.3422699-.373517-.2724991-.0119238-.5343246-.0288992-.7877884-.0494375-.0458145-.5597506-.0703812-1.1428823-.0703812-1.7395487 0-.6178837.0246277-1.198945.0684967-1.7411385.5421906-.0438757 1.1232529-.0684891 1.7411346-.0684891 1.5432816 0 3.0515747.1655931 4.246994.4662256.191597.0480452.3866882-.0682201.4347382-.2600508.0482788-.1918316-.0681076-.3864613-.2600555-.4347401-.6197433-.1558771-1.3022308-.2752466-2.0267639-.357234-.1843338-1.622643-.5933304-3.2864437-1.2595215-4.1933489 2.5057297.4360662 4.5907974 2.2905245 5.2658234 4.8066692.0513077.1910143.2475739.3050642.4388199.25317.1911316-.0513103.3044815-.247689.2531738-.4388206zm-8.2173462-4.6222062c-.6356659.8635244-1.0636444 2.4413724-1.266304 4.1995072-1.720314.1982889-3.2679367.6122923-4.142807 1.2255116.4659577-2.7639441 2.6478806-4.9510164 5.409111-5.4250188zm-1.3393173 8.2572256c-2.6857376-.3221264-4.1034698-1.116003-4.1034698-1.6672621 0-.5883875 1.5150146-1.357461 4.1062927-1.6691942-.0434189.5515652-.0654755 1.113102-.0654755 1.6691942 0 .5690279.0216904 1.1275472.0626526 1.6672621zm2.4634552-4.1933709c-.556076 0-1.1176376.0220623-1.6691971.0654726.3117447-2.5911722 1.0808182-4.1061721 1.6691971-4.1061721.5876236 0 1.3515091 1.5276966 1.6653137 4.1033807-.5390472-.0407285-1.0957946-.0626812-1.6653137-.0626812z"
          fill="#2384e5"/>
</svg>