<svg enable-background="new 0 0 100 25" viewBox="0 0 100 25" xmlns="http://www.w3.org/2000/svg">
    <path d="m20.9160271 9.073741-9.2038126 7.5291853-.0205288.0047474-9.2140119-7.5366412-.4137664.3107481v5.6451578.2384186 7.2274466c0 .3056412.2477601.5533543.5533547.5533543h18.1486719c.3056564 0 .5533543-.2477131.5533543-.5533543v-7.2274466-.2384186-5.6484737z"
          fill="#fff"/>
    <path d="m20.9210796 9.0696068-9.1766586 7.5069485v6.4696026h9.021513c.3056564 0 .5533543-.2477131.5533543-.5533543v-7.2274466-.2384186-5.6729469z"
          fill="#d6d7d8"/>
    <path d="m11.7130747 17.1167202 9.4643164-7.7423191v-.089057l-9.4682017-7.3182169h-.035016l-9.3497475 7.2265698z"
          fill="#6c75e2"/>
    <path d="m11.6916857 16.6076736.0205288-.0047473 7.7389745-6.3308735v-3.6221638h-15.5004716v3.6260271z"
          fill="#ee907a"/>
    <g fill="#fff">
        <path d="m20.9210796 9.0696068-9.2088651 7.5333195-.0205288.0047473-9.2114721-7.5345611-.3232653.2495365 9.5347374 7.7990475.0213928-.0049782 9.5437784-7.8073139z"/>
        <path d="m14.3140631 10.9688702c0-1.4169979-1.1527472-2.5697575-2.5696449-2.5697575-1.4169445 0-2.5696926 1.1527596-2.5696926 2.5697575 0 1.4168873 1.1527481 2.5696354 2.5696926 2.5696354.4105873 0 .8030167-.0940256 1.1663723-.279377l-.140831-.2762461c-.3193617.1629848-.6644573.2455568-1.0255413.2455568-1.2459688 0-2.2596703-1.0136576-2.2596703-2.2595692 0-1.2460222 1.0137014-2.2596798 2.2596703-2.2596798 1.2459211 0 2.2595682 1.0136576 2.2595682 2.2596798 0 .1931324-.0245256.3841057-.0725126.569026h-.0001097c-.0029211.011775-.006053.0230198-.0089769.0344744-.0063744.0229082-.0128593.0457172-.019886.0684166l.0004416.0000992c-.0913239.2974281-.2391825.4609556-.448637.4609556-.1857843 0-.3388186-.1092653-.3388186-.4154472v-2.071517h-.3553534v.5520601c-.2240438-.3662767-.6121559-.5738955-1.0821753-.5738955-.7761021 0-1.3555641.5848074-1.3555641 1.4046803 0 .8253832.5794621 1.4157028 1.3555641 1.4157028.4809437 0 .8745546-.2187529 1.0930862-.5958309.021946.3770781.2624111.5958309.6176662.5958309.3785934 0 .6647778-.2378769.8084183-.6809921l.0014057.000432c.0766173-.2464199.1155282-.5035305.1155282-.7639951zm-2.5869332 1.1274604c-.6067429 0-1.0439701-.4426842-1.0439701-1.098608 0-.6559248.4372272-1.0876856 1.0439701-1.0876856.5903196 0 1.0385141.4263601 1.0385141 1.0876856.0000001.6668368-.4481944 1.098608-1.0385141 1.098608z"/>
        <path d="m20.9210796 9.0696068-9.2088651 7.5333195-.0205288.0047473-9.2114721-7.5345611-.3232653.2495365 9.5347374 7.7990475.0213928-.0049782 9.5437784-7.8073139z"/>
        <path d="m50.5136871 12.6005764c-.8120689 0-1.4704742-.6583519-1.4704742-1.4705238s.6584053-1.4705229 1.4704742-1.4705229v-2.9051142h-.1062355c-.1196938.0060658-.2377777.0529675-.3291779.1444154l-6.758934 6.758985v8.8487873c0 .2768898.2244644.5013046.5013046.5013046h6.6930428z"/>
        <path d="m57.7080727 20.9590302h-1.5749931c-.4256668 0-.7708969.3450375-.7708969.7709446v1.2764683z"/>
    </g>
    <path d="m50.9491425 6.8988285c-.0832214-.0832181-.1887703-.1278715-.2973061-.1400123v-.0043997h-.1381493v2.9051123h.0000458c.8121223 0 1.4705238.6583529 1.4705238 1.4705229s-.6584015 1.4705229-1.4705238 1.4705229h-.0000458v10.4073334h4.8484955l2.3458939-2.0488815-2.3458939 2.0474129v-1.2764683c0-.4259071.3452339-.7709446.7709007-.7709446h1.5749931v-7.3012104z"
          fill="#d6d7d8"/>
    <path d="m55.282917 21.5658188-.3761749 1.3628235h.3761749z" fill="#d1d3d4"/>
    <path d="m52.2645302 8.2142611h-.4004631c-.7681046 0-1.3930206.6249657-1.3930206 1.3930826v.0547323c.1525459-.0059757.3231506.0117502.5013046.070694v-.0473938-.0780325c0-.4917088.4000092-.8917789.891716-.8917789h.9017677z"
          fill="#d1d3d4"/>
    <path d="m52.6957703 5.5157447h-3.647274c-.4917068 0-.891716-.4000602-.891716-.8917689v-.1463805c0-.4917085.4000092-.8917687.891716-.8917687h.4808922c.7681084 0 1.3930206-.6249652 1.3930206-1.3930724h-.0010719c0-.0013735.0003929-.0026469.0003929-.0040205 0-.1382494-.112114-.250361-.250412-.250361-.1383018 0-.2504005.1121116-.2504005.250361 0 .0013735.0003891.0026469.0003891.0040205h-.0001984c0 .4916985-.400013.8917687-.8917198.8917687h-.4808922c-.7681046 0-1.3930206.6249652-1.3930206 1.3930724v.1463804c0 .7681074.6249161 1.3930726 1.3930206 1.3930726h3.647274c.4917107 0 .8917274.4000602.8917274.8917685v.1463809c0 .4917083-.4000168.8917685-.8917274.8917685h-1.0990486c-.7681046 0-1.3930206.6249647-1.3930206 1.3930826v.0780325.4586124.482214h.0026855c.0074921.1315918.1155434.2362547.2489891.2362547.1334572 0 .241497-.1046629.2489891-.2362547h.0006409v-.0064669c.0000992-.0025463.000782-.0050936.000782-.0077295 0-.0026474-.0006828-.0050936-.000782-.007741v-.4602766-.4586124-.0780325c0-.4917088.4000092-.8917789.891716-.8917789h1.0990486c.768116 0 1.3930321-.6249652 1.3930321-1.3930721v-.146381c-.0000001-.7681069-.6249161-1.3930721-1.3930321-1.3930721z"
          fill="#6c75e2"/>
    <path d="m50.527832 14.6381168c-.0065346-.0005875-.0128479-.001976-.0195312-.001976-.1361465 0-.2388039.0939941-.2388039.2187262v.4373684c-.8193169.0563965-1.3893051.5688677-1.3893051 1.2524748 0 .8644543.7969437 1.0922012 1.3893051 1.2548313v1.5824356c-.4641457-.05797-.806736-.2837467-1.0139656-.4649792-.0511589-.0439625-.1105919-.0661926-.1766319-.0661926-.164341 0-.2788963.161068-.2788963.3055859 0 .0867481.0338249.1644897.0951195.2189274.3611908.3259392.83601.5167732 1.3743744.5527077v.4172955c0 .1247387.1026573.2187328.2388039.2187328.0066833 0 .0129967-.0013885.0195312-.001976v-5.9239618zm-.2583351 2.5009194c-.4731064-.1420689-.764782-.299511-.764782-.6277142 0-.3646183.3061676-.6330843.764782-.6742134z"
          fill="#ee907a"/>
    <path d="m50.7270317 17.2604389v-1.4014902c.3013725.0448437.5521698.1589098.786911.3574667.0490532.0421009.11343.0661945.1765823.0661945.1574402 0 .2855568-.1341381.2855568-.2989283 0-.0880165-.0351982-.1657629-.0956116-.2126627-.3198738-.2743464-.6763649-.4201355-1.1534386-.4712448v-.4449071c0-.118784-.0952644-.2152443-.2133446-.2181816v5.9268236c.1180801-.0029373.2133446-.0994034.2133446-.2181873v-.4177857c1.3134766-.1129951 1.4160385-1.0420704 1.4160385-1.3255177.0000001-.8625945-.6967353-1.1377296-1.4160384-1.3415794zm0 2.1216297v-1.4542637c.4764366.1465721.7914658.3282948.7914658.7209167 0 .3094979-.2085991.6618787-.7914658.733347z"
          fill="#ee907a"/>
    <path d="m76.8679657 12.5000019c0 5.8177967 4.7162399 10.5340347 10.5340347 10.5340347v-21.0680762c-5.8177948 0-10.5340347 4.7162381-10.5340347 10.5340415z"
          fill="#fff"/>
    <path d="m87.4019928 1.9659626v21.0680771c5.8178558 0 10.5341034-4.7162418 10.5341034-10.5340395s-4.7162476-10.5340376-10.5341034-10.5340376z"
          fill="#d6d7d8"/>
    <path d="m93.0432129 11.0592756c.1212158-.0784054.2016525-.2146702.2016525-.3697624 0-.2395449-.1913071-.4340124-.429306-.4400244l-.0001068-.0005846h-3.824707l-1.150177-3.469965h-.0013351c-.0396881-.202507-.2180023-.3553319-.4321976-.3553319-.0016785 0-.0033646.0004125-.0050507.0004125v.0000343c-.2118835.0024395-.387764.1539931-.4271011.3548851h-.0001373l-1.1503143 3.469965h-3.8246385c-.2433243 0-.4406128.1971817-.4406128.440609 0 .1591806.0846634.2981939.2111664.3756371l-.0001755.0004816 3.0811691 2.2266817-1.1529541 3.5521154c-.0027161.0076962-.0052872.0154953-.0075607.0233288l-.0022278.0068378.000412.0002403c-.009964.0367966-.0157394.0751762-.0157394.115099 0 .2433586.197319.4405746.4406433.4405746.1116638 0 .2133331-.0418472.2910156-.1102543l3.002594-2.1634293 3.0027924 2.1634293.006012-.003746c.0781708.0706062.1814499.1140003.295105.1140003.2432556 0 .4405746-.1971817.4405746-.4405746 0-.0804653-.0218887-.1556072-.0595093-.2204418l-1.1286621-3.4771795 3.0811691-2.2266817z"
          fill="#6c75e2"/>
    <path d="m87.4019928 2.7958207c-5.3299789 0-9.6662445 4.3362365-9.6662445 9.6662483 0 5.329977 4.3362656 9.666214 9.6662445 9.666214 5.3300095 0 9.6663513-4.336237 9.6663513-9.666214 0-5.3300118-4.3363418-9.6662483-9.6663513-9.6662483zm0 18.7167983c-4.990448 0-9.0505524-4.0601006-9.0505524-9.0505505 0-4.9904842 4.0601044-9.0505848 9.0505524-9.0505848 4.9905548 0 9.0506897 4.0601006 9.0506897 9.0505848 0 4.99045-4.0601349 9.0505505-9.0506897 9.0505505z"
          fill="#ee907a"/>
</svg>