<svg enable-background="new 0 0 100 25" viewBox="0 0 100 25" xmlns="http://www.w3.org/2000/svg">
    <g fill="#f99b35">
        <path d="m19.9594707 11.5139704c0-.4439402-.3611507-.8050909-.8050556-.8050909h-12.4621052c-.4439058 0-.8050566.3611507-.8050566.8050909v.6857147c0 .4439049.3611507.8050566.8050566.8050566h.5322995v6.5528297c0 1.3275394 1.0799875 2.4075603 2.4074917 2.4075603h1.5814419c.0028534.000103.0055027-.0000343.008357 0h.0063524v-.0010529c.1444464-.0005093.2828808-.0816326.3469505-.2220039.0876808-.1921425.0034313-.4188004-.1882019-.5062084-.0516367-.0235767-.1054478-.0325794-.1587486-.0323753v-.0010529h-1.5961513c-.9069366 0-1.6447978-.7378616-1.6447978-1.6448669v-6.5528297h9.872118v6.5528297c0 .9070053-.7378597 1.6448669-1.644865 1.6448669h-1.546689c-.0029554-.000103-.0057755.0000343-.0087309 0h-.0061483v.0010185c-.1444807.0005093-.2828808.0816345-.3469515.2220039-.0876799.1921425-.003397.4188004.1882019.5062084.0516367.0235767.1054478.0325794.1587496.0323753v.0010872h1.5615683c1.3275375 0 2.4075603-1.0800209 2.4075603-2.4075603v-6.5528297h.532299c.4439049 0 .8050556-.3611517.8050556-.8050566v-.6857146zm-.7626934.6857147c0 .0225563-.0198059.0423622-.0423622.0423622h-12.4621052c-.0225911 0-.0423627-.0198059-.0423627-.0423622v-.6857147c0-.0225573.0197716-.0423965.0423627-.0423965h12.4621048c.0225563 0 .0423622.0198393.0423622.0423965v.6857147z"/>
        <path d="m6.8081183 9.9717999c.1916337.087409.4180198.0025482.5057001-.1896286.0160003-.0350933.0203147-.0717144.0252409-.1080637l.0057068.0007811c.3721242-2.7579417 2.7549186-4.8377452 5.5426202-4.8377452 2.7876673 0 5.1704292 2.0798035 5.5425529 4.8377452l.0064545-.0008831c.0169163.1256266.0890732.2413673.2126942.2977943.1916332.087409.4180202.0025482.5057011-.1896286.0311165-.0681467.0338001-.1392832.0244923-.2083817l.0064887-.0008831c-.4228764-3.1346521-3.1306438-5.498457-6.2983837-5.498457-3.1678085 0-5.8755407 2.3638048-6.2984519 5.498457l.0057411.0007811c-.0220475.1625537.0568686.3266363.2134428.3981123z"/>
        <path d="m9.7168941 18.1147003v-3.7005157h-.0004758c0-.1405401-.1136007-.254446-.253767-.254446-.140132 0-.2537327.1139059-.2537327.254446h-.0004759v3.7005157h.0004759c0 .1405411.1136007.2544804.2537327.2544804.1401663 0 .253767-.1139393.253767-.2544804z"/>
        <path d="m9.4626513 19.196352c-.140132 0-.2537327.1139412-.2537327.2544823 0 .1405392.1136007.254446.2537327.254446.1401663 0 .253767-.1139069.253767-.254446 0-.1405411-.1136008-.2544823-.253767-.2544823z"/>
        <path d="m15.7354212 15.5942526c0-.1850767-.1500187-.3351288-.3350954-.3351288s-.3351288.1500521-.3351288.3351288c0 .1850433.1500521.3350954.3351288.3350954s.3350954-.1500521.3350954-.3350954z"/>
        <path d="m5.574851 18.8566723c-.1488967 0-.2695637.1207008-.2695637.2695637s.120667.2695637.2695637.2695637c.1488633 0 .2695303-.1207008.2695303-.2695637s-.1206669-.2695637-.2695303-.2695637z"/>
        <circle cx="12.248076" cy="7.412115" r=".269564"/>
        <path d="m20.6673355 17.481369c-.489563 0-.8878117.3982487-.8878117.8878117s.3982487.8878117.8878117.8878117.887846-.3982487.887846-.8878117-.398283-.8878117-.887846-.8878117zm0 1.2671719c-.2091618 0-.3793602-.1701965-.3793602-.3793602 0-.2091618.1701984-.3793602.3793602-.3793602s.3793602.1701984.3793602.3793602c0 .2091636-.1701984.3793602-.3793602.3793602z"/>
        <path d="m18.9285049 5.7405477c.749649 0 1.3594704-.6098905 1.3594704-1.3595057s-.6098213-1.3595052-1.3594704-1.3595052c-.7496166 0-1.3594723.6098902-1.3594723 1.3595052s.6098557 1.3595057 1.3594723 1.3595057zm0-2.2105596c.4692478 0 .8510189.3817718.8510189.851054 0 .4692826-.3817711.8510203-.8510189.8510203-.4692497 0-.8510208-.3817377-.8510208-.8510203 0-.4692822.3817711-.851054.8510208-.851054z"/>
        <path d="m23.1943741 7.1578388c-.0000687 0-.000103.0000339-.0001698.0000339h-.4733601v-.4735289h-.0008144c0-.1404381-.1138382-.2542768-.2542763-.2542768-.14044 0-.2542782.1138387-.2542782.2542768 0 .0015965.0008831.0029554.0009174.0045524v.4689765h-.4733925c-.0000687 0-.0001011-.0000339-.0001698-.0000339-.1404381 0-.2542763.1138382-.2542763.2542763 0 .1404386.1138382.2542768.2542763.2542768.0000687 0 .0001011-.0000339.0001698-.0000339h.4733925v.468977c-.0000343.0015965-.0009174.0029554-.0009174.0045519 0 .1404381.1138382.2542763.2542782.2542763.1404381 0 .2542763-.1138382.2542763-.2542763h.0008144v-.4735289h.4733601c.0000668 0 .0001011.0000339.0001698.0000339.1404381 0 .2542763-.1138382.2542763-.2542768 0-.1404381-.1138382-.2542763-.2542763-.2542763z"/>
    </g>
    <path d="m3.6278427 15.5942526c-.1850767 0-.3351288.1500187-.3351288.3350954 0 .1850758.1500521.3350945.3351288.3350945s.3350949-.1500187.3350949-.3350945c0-.1850767-.1500182-.3350954-.3350949-.3350954zm4.2342417-11.473568c-.1850767 0-.3350949.1500521-.3350949.3351288s.1500182.3350949.3350949.3350949.3350945-.1500182.3350945-.3350949-.1500178-.3351288-.3350945-.3351288zm15.586566 10.0943938c-.2505054 0-.4535885.2030811-.4535885.4536209 0 .2505064.203083.4535875.4535885.4535875.2505398 0 .4536209-.2030811.4536209-.4535875 0-.2505398-.2030812-.4536209-.4536209-.4536209zm-19.5665989-3.5591946c0-.489563-.398248-.8878107-.8878112-.8878107s-.8878112.3982477-.8878112.8878107.3982477.8878117.8878112.8878117.8878112-.3982487.8878112-.8878117zm-.8878112.3793602c-.2091627 0-.3793597-.1701975-.3793597-.3793602s.170197-.3793592.3793597-.3793592c.2091625 0 .3793597.1701965.3793597.3793592s-.1701972.3793602-.3793597.3793602zm10.0739083 10.2006225c-.1915989-.0874424-.4180193-.0025482-.5056658.1895943-.0876799.1921425-.0034313.4188004.1881685.5062084.1916332.0874443.4180193.0025482.5056992-.1895943.0876808-.1921424.003398-.4188003-.1882019-.5062084z"
          fill="#a287f4"/>
    <path d="m59.2955055 8.5809383c-.1809692 0-.3276558.1467228-.3276558.3276558 0 .1809654.1466866.3276892.3276558.3276892.1809654 0 .3276558-.1467237.3276558-.3276892 0-.180933-.1466904-.3276558-.3276558-.3276558zm-18.7714958 7.2969771c-.1809654 0-.3276558.1466894-.3276558.3276548s.1466904.3276882.3276558.3276882.3276558-.1467228.3276558-.3276882-.1466904-.3276548-.3276558-.3276548zm4.1574974-7.4691782c0 .0000677-.0000305.000102-.0000305.0001698 0 .1373129.11129.2486372.2486.2486372.1373138 0 .2486382-.1113243.2486382-.2486372 0-.0001354-.0000687-.0002041-.0000687-.0003395v-1.0498214h1.0498581c.0001335 0 .0002022.0000677.0003395.0000677.13731 0 .2486382-.1113243.2486382-.2486372s-.1113281-.2486372-.2486382-.2486372c-.0000687 0-.000103.0000339-.0001717.0000339h-1.0500259v-1.0497876c0-.0001359.0000687-.0002036.0000687-.0003395 0-.1373467-.1113243-.2486377-.2486382-.2486377-.13731 0-.2486.1112909-.2486.2486377 0 .0000677.0000305.000102.0000305.0001698v1.0499573h-1.0499878c-.0000687 0-.000103-.0000339-.0001717-.0000339-.1373138 0-.2486382.1113243-.2486382.2486372s.1113243.2486372.2486382.2486372c.0001373 0 .0002022-.0000677.0003395-.0000677h1.0498199v1.0499911zm8.4020386 2.6392793c.0008469 0 .0014915-.0004749.0023422-.0004749h.7778778v.7778788c0 .0008497-.000473.0014954-.000473.0023441 0 .1375513.1114922.2490454.2490768.2490454.1375504 0 .2490463-.1114941.2490463-.2490454 0-.0008488-.0004768-.0014944-.0004768-.0023441v-.7778788h.7792397c.0008507 0 .0014954.0004749.0023422.0004749.1375504 0 .2490807-.1114941.2490807-.2490788 0-.1375504-.1115303-.2490454-.2490807-.2490454-.0008469 0-.0014915.0004759-.0023422.0004759h-.7792397v-.7778796c0-.0008488.0004768-.0014944.0004768-.0023432 0-.1375513-.111496-.2490797-.2490463-.2490797-.1375847 0-.2490768.1115284-.2490768.2490797 0 .0008488.000473.0014944.000473.0023432v.7778797h-.7778778c-.0008507 0-.0014954-.0004759-.0023422-.0004759-.1375542 0-.2490807.111495-.2490807.2490454 0 .1375847.1115265.2490787.2490807.2490787zm1.2778702-5.4850378c.4786568 0 .8681068-.3894153.8681068-.8680739 0-.4786925-.3894501-.8681076-.8681068-.8681076-.4786911 0-.8681068.389415-.8681068.8681076-.0000001.4786587.3894157.8680739.8681068.8680739zm0-1.2390089c.2045097 0 .3709335.1663928.3709335.370935 0 .2045083-.1664238.370935-.3709335.370935-.2045441 0-.3709335-.1664267-.3709335-.370935-.0000001-.2045422.1663894-.370935.3709335-.370935zm.4411201 13.9757739c-.1050415-2.1775742-1.6277122-4.0205278-3.7353363-4.5412426v-9.4374524h-.0001717c0-.2064791-.1669006-.3738565-.3728027-.3738565s-.3728027.1673775-.3728027.3738565c0 .0000677.0000343.0001016.0000343.0001698v10.1595163c-.0801048.0333605-.2372551.0735826-.4557266.0735826s-.3756256-.0402222-.4557304-.0735826v-8.9276418h-.0062485c.0009155-.0105991.0061493-.0197377.0061493-.0305743 0-.2064791-.1669044-.3738565-.3728027-.3738565-.2058678 0-.3728027.1673775-.3728027.3738565 0 .0108366.0052299.0199752.0061455.0305743h-.0062141v8.2002783c-2.1196518.5134115-3.6509514 2.3586073-3.7561951 4.5463724-.362545.145874-.770134.4846039-.770134 1.1387234v.9172649c0 1.1760941 1.5817451 2.146286 4.0297318 2.4716644l.000782-.0057755c.0168839.0023441.0318298.0099888.0493622.0099888.205864 0 .3728027-.1673775.3728027-.3738575 0-.1896286-.1429863-.3399525-.3254128-.3642426l.0007133-.0054016c-2.1968689-.2919502-3.3822365-1.1104927-3.3822365-1.7323761v-.9172649c0-.3914871.3360786-.4694176.4350052-.483448l.3293533-.0387268v-.375555c0-1.8836174 1.2448502-3.5058594 3.0162277-4.0170622v.0712385c0 .4217901.4828682.7051458 1.2015038.7051458.7186317 0 1.2014694-.2833557 1.2014694-.7051458v-.0649538c1.7593498.5183029 2.995369 2.1375208 2.995369 4.0107775l-.0040436.3750458.3293533.0386925c.1029701.0145741.4390488.0925045.4390488.4839916v.9172649c0 .6256542-1.1357689 1.4180717-3.3064804 1.7220497l.000679.0049267c-.1828003.0240173-.3260231.1745453-.3260231.364378 0 .2064438.1669006.3738213.3728027.3738213.0195351 0 .0363159-.008255.0550346-.0111427l.0009155.0065575c2.3988304-.3358765 3.9488144-1.3017197 3.9488144-2.4605904v-.9172651c.0000001-.6541195-.4075889-.9928493-.7701339-1.1387233zm-4.9628639 1.8237247c1.356823 0 2.6545677-.2105541 3.657135-.5923271.0949173-.0316257.1658821-.1177788.1708412-.2240067.006424-.1377544-.0997047-.2546501-.2370872-.2610722-.0362816-.0016975-.0706253.0053349-.102356.0178699-.9483795.3626118-2.1871529.562397-3.488533.562397-1.2853088 0-2.5131073-.1954708-3.4571419-.5503368l-.0001373.0003738c-.0284348-.013216-.0595169-.0217762-.0927429-.0233383-.1373787-.006422-.2539711.1000786-.2604256.237833-.0054665.1172028.0724297.2148361.1798134.2466679l-.001461.0038376c.9985923.3753529 2.2885246.5821019 3.6320953.5821019z"
          fill="#f99b35"/>
    <path d="m44.2129745 13.0518942v-.0004416h-.5576782v-.5576763h-.000473c0-.1370411-.1110878-.2481279-.2481308-.2481279-.1370392 0-.248127.1110868-.248127.2481279h-.0004425v.5576763h-.5577087v.0004416c-.1370392 0-.2480927.1110868-.2480927.248127 0 .1370411.1110535.2481279.2480927.2481279v.0004759h.5577087v.557642h.0004425v.0000343c0 .1370411.1110878.2481279.248127.2481279.137043 0 .2481308-.1110868.2481308-.2481279v-.0000343h.000473v-.557642h.5576782v-.0004759c.1370392 0 .248127-.1110868.248127-.2481279 0-.1370402-.1110878-.248127-.248127-.248127zm14.0344429 3.4496698c-.2449684 0-.4435349.1985626-.4435349.443531s.1985664.4435329.4435349.4435329c.2449341 0 .443531-.1985645.443531-.4435329s-.1985969-.443531-.443531-.443531zm-9.5831222-14.5182982c-.1809692 0-.3276558.1466891-.3276558.3276552s.1466866.3276889.3276558.3276889c.1809654 0 .327652-.1467228.327652-.3276889s-.1466866-.3276552-.327652-.3276552zm1.1704178 20.2659369c-.2059021 0-.3728027.1673775-.3728027.3738556s.1669006.3738556.3728027.3738556.3728027-.1673775.3728027-.3738556-.1669006-.3738556-.3728027-.3738556z"
          fill="#a287f4"/>
    <path d="m92.6485748 15.9147711c-.6667099-2.4033079-.0075989-4.4213495-.0013885-4.4397812l.0135422-.0405083c.1720657-.5687532.1631393-1.1311541.1627274-1.1469135v-.0387383c0-2.9606757-2.4086533-5.3693638-5.3693314-5.3693638h-2.6347275-.049675c-2.9607086 0-5.3693619 2.4086881-5.3693619 5.3693638l.0000992.030859c-.0004807.0236387-.009407.5860395.1626282 1.1547928l.0129471.0388079c.0067673.0201321.665947 2.0381737-.0008316 4.4414816l-.0149994.0419312c-.1644287.5436907-.161026 1.0637102-.1598434 1.1305647v.0054836c0 .6308174.1084366 1.2486191.3223648 1.8362904l.0021896-.0007992c.0583878.1515522.2031326.2600269.375267.2600269.2234039 0 .4044952-.1810913.4044952-.4044628 0-.0460625-.0120392-.088583-.026207-.1298218l.0045471-.0016651c-.1814728-.4986706-.2735291-1.0234089-.2735291-1.5595684l-.0000992-.0194035c-.0001068-.0043049-.0079193-.4316063.1208267-.867588l.0187454-.053421c.7460632-2.662674.0246811-4.8465338-.0065918-4.938693l-.0067368-.0198898c-.1319351-.4408054-.1262436-.894455-.1261444-.9061871v-.0387383c0-2.5145245 2.0457077-4.5602312 4.5602341-4.5602312h.049675c2.5144882 0 4.5601959 2.0457067 4.5601959 4.5602312l.0000687.0459585c.0000687.0045471.0057983.4581614-.1261826.8989668l-.0069427.0203753c-.0310669.0916739-.7524414 2.2755337-.0063858 4.9382076l.0187454.053421c.128746.4359818.1209412.8632832.1208344.8667545l-.0001373.020237c0 2.5144901-2.0457077 4.5601959-4.5601959 4.5601959h-.049675c-.8990402 0-1.7686005-.2612057-2.5146255-.7553291l-.0028152.0042706c-.070015-.0571709-.1559219-.0960827-.2533646-.0960827-.2245483 0-.4065781.1820641-.4065781.4066143 0 .1557178.0905685.2866154.2191391.354929l-.0031967.0048237c.8789368.5821877 1.9030075.8899078 2.961441.8899078h.049675 2.6347275c2.9606781 0 5.3693314-2.4086533 5.3693314-5.3693295v-.0054836c.0012131-.0668545.0046158-.5869427-.1598511-1.1305647zm-.6341171 1.1577425-.0001373.020237c0 2.4460735-1.9373322 4.4427319-4.3574448 4.549921 1.517395-.9498196 2.5318451-2.6315727 2.5318451-4.549921v-.0054836c.0012207-.0668545.0046158-.586874-.1598129-1.1305647l-.0150299-.0419312c-.6667786-2.4033079-.0075989-4.4213495-.0012131-4.4403715l.0133286-.0399179c.1720352-.5687532.163147-1.1311541.1627274-1.1469135v-.0387383c0-1.9183493-1.0145187-3.6001716-2.5319138-4.5499563 2.4201431.1071901 4.3575134 2.1038489 4.3575134 4.5499563l.0000687.0459585c.0000687.0045471.0057297.4580221-.1261444.8987932l-.0039215.0114889c-.0545959-.0215206-.1132584-.0354061-.175499-.0354061-.2657928 0-.4812469.215457-.4812469.481245 0 .2511053.1945267.4509068.4399033.4728794-.1525955.8970222-.2574539 2.3696022.2073364 4.0285492l.0187454.053421c.1288146.4359818.1210021.8632832.1208953.8667546zm-5.1624756-4.3877478c0 .8675184.7057953 1.5733137 1.5733109 1.5733137.1489487 0 .2696762-.1207628.2696762-.2697105 0-.1489143-.1207275-.2696762-.2696762-.2696762v-.0000353c-.5701065 0-1.0338898-.4637842-1.0338898-1.0338917 0-.5700722.4637146-1.0338221 1.033783-1.0338907.0000381 0 .0000687.0000343.0001068.0000343.1489487 0 .2696762-.1207628.2696762-.2697105 0-.1489143-.1207275-.2696762-.2696762-.2696762v-.0000696c-.8675156 0-1.5733109.7057952-1.5733109 1.5733127zm.369194-4.0230999c-.2435379 0-.4409485.1974068-.4409485.4409447 0 .2435036.1974106.4409094.4409485.4409094.2434998 0 .4409409-.1974058.4409409-.4409094 0-.2435379-.1974411-.4409447-.4409409-.4409447zm-.0994873 8.0197153c.1963654 0 .3555222-.159153.3555222-.3555183 0-.196331-.1591568-.355484-.3555222-.355484-.1963272 0-.355484.159153-.355484.355484 0 .1963653.1591568.3555183.355484.3555183zm-4.2037048-4.6749878c0-.1963301-.1591492-.355484-.355484-.355484-.1963654 0-.3555145.1591539-.3555145.355484 0 .1963644.1591492.3555183.3555145.3555183.1963348.0000001.355484-.1591539.355484-.3555183zm6.913414 8.0090924c-.1963272 0-.3555145.1591892-.3555145.3555183 0 .1963654.1591873.3555183.3555145.3555183.1963348 0 .3555222-.159153.3555222-.3555183 0-.1963291-.1591874-.3555183-.3555222-.3555183zm.8948746-11.6197119c0-.1963654-.1591568-.3555183-.3555222-.3555183-.1963272 0-.3555145.159153-.3555145.3555183 0 .1963301.1591873.3555183.3555145.3555183.1963654 0 .3555222-.1591882.3555222-.3555183zm-8.5192871 9.3169298c-.2657928 0-.4812469.2154217-.4812469.4812107 0 .2657871.2154541.481245.4812469.481245.2657852 0 .4812088-.2154579.4812088-.481245 0-.265789-.2154236-.4812107-.4812088-.4812107zm1.6995926-1.5944176c.6246414 0 1.1328506-.5082159 1.1328506-1.1328554 0-.6246042-.5082092-1.1327848-1.1328506-1.1327848s-1.1327896.5081806-1.1327896 1.1327848c0 .6246395.5081481 1.1328554 1.1327896 1.1328554zm0-1.7262191c.3272247 0 .5934296.2662048.5934296.5933638 0 .3272285-.2662048.5934334-.5934296.5934334-.3271561 0-.5933609-.2662048-.5933609-.5934334 0-.327159.2662048-.5933638.5933609-.5933638zm11.9784622 4.4900093c-.5193634 0-.9419098.4225121-.9419098.9418697 0 .5193939.4225464.941906.9419098.941906.5193558 0 .941864-.4225121.941864-.941906 0-.5193577-.4225082-.9418697-.941864-.9418697zm0 1.3443546c-.2219162 0-.4024887-.1805725-.4024887-.4024849 0-.2218781.1805725-.4024487.4024887-.4024487.2219086 0 .4024429.1805706.4024429.4024487 0 .2219124-.1805343.4024849-.4024429.4024849zm-2.2933121-17.587821c-.7952423 0-1.442276.6469936-1.442276 1.4422765 0 .7952476.6470337 1.442276 1.442276 1.442276.7952499 0 1.4422455-.6470284 1.4422455-1.442276 0-.7952829-.6469956-1.4422765-1.4422455-1.4422765zm0 2.3451309c-.4978333 0-.9028549-.4050179-.9028549-.9028544 0-.4978719.4050217-.9028547.9028549-.9028547.4978027 0 .9028244.4049828.9028244.9028547 0 .4978366-.4050217.9028544-.9028244.9028544zm-2.5234756 10.6611805c-.1787643-.1358967-.3989105-.1944561-.6215134-.1681442-.0003815 0-.0005569-.0003824-.0009384-.0003824-.0004501 0-.0006638.000452-.0011139.000452-.0042343.0005207-.0084-.0000696-.0126343.0004854l.0006256.0045128c-.0923691.007741-.1669998.0803232-.1669998.1746702 0 .0994835.0806351.1801195.1801224.1801195.0129776 0 .0210342-.0111771.0332489-.0137806l.0014572.0108299c.132431-.018259.26371.0166616.3699951.0974703.1062164.0808449.174675.1982403.1926193.3305607.018013.132288-.0166321.2636719-.0975037.3699589-.0808487.106287-.1982422.1747055-.3304977.1926861l.0004883.0036449c-.0940704.0061779-.1701202.0805302-.1701202.1761265 0 .099659.0807724.1804333.1804276.1804333.0140991 0 .0229492-.0119076.0361023-.0149612l.0014954.0111065c.4696121-.0637646.7997589-.4977665.7359924-.9673824-.0309297-.2275363-.1485673-.4293853-.3312531-.5684062zm-7.9244995-4.9526825c.0677567 0 .1363449-.0035753.2051773-.0108652 1.0642624-.1123619 1.8386841-1.0696449 1.7263565-2.1338749-.1123962-1.0643334-1.0695724-1.8386846-2.133873-1.7263227l.000351.0032978c-.141037.0088167-.2535706.1231923-.2535706.2664132 0 .1489482.1207581.2696762.2697067.2696762.014061 0 .0261765-.0059013.0396423-.0079837l.0005188.005033c.7683487-.0809827 1.4596024.4780164 1.5407944 1.2465019.0811157.7684498-.4781265 1.4596663-1.2465363 1.540823-.3721466.039259-.7374573-.0686951-1.0285492-.3041458-.2909927-.2354498-.4729156-.5701065-.512207-.9423904l-.0053482.000555c-.0196762-.1298571-.126976-.2310762-.2623138-.2310762-.1492615 0-.2702332.1209707-.2702332.2702312 0 .0059357.0029831.0108995.0033646.0167313l-.0019074.000208c.1050415.9953966.9490891 1.737257 1.9286271 1.7371883zm2.2755661 10.482379.0019455-.0017357c.0494614.056303.1197891.0935497.2006302.0935497.149086 0 .2699585-.1208668.2699585-.2699547 0-.0693893-.0280533-.1312103-.0710907-.1790428l.0015259-.0013542c-.5104065-.5736828-.4588928-1.4556751.1147537-1.9661465.5737228-.5102654 1.4557114-.4589252 1.9661179.1147919l.0022507-.0020142c.0495377.0585251.1208344.0977478.2034836.0977478.149086 0 .2699509-.1208305.2699509-.2699184 0-.071228-.0288391-.1349945-.0739365-.1832428l.0012512-.001112c-.0015945-.0018044-.0036087-.002985-.0052032-.0047894-.0012512-.0012856-.0026398-.0022907-.003891-.0035419-.7092972-.7870541-1.9258118-.8561668-2.7185898-.1508923-.7958757.7081566-.8672792 1.9317837-.1591569 2.7276555z"
          fill="#f99b35"/>
    <path d="m97.584877 8.089303c-.1963348 0-.3555222.1591883-.3555222.3555183s.1591873.3555183.3555222.3555183c.1963272 0 .3555145-.1591883.3555145-.3555183s-.1591873-.3555183-.3555145-.3555183zm-19.7836914 8.0235682c-.1963272 0-.355484.1591873-.355484.3555183 0 .1963654.1591568.3555183.355484.3555183.1963654 0 .3555145-.159153.3555145-.3555183 0-.196331-.1591491-.3555183-.3555145-.3555183zm4.4057999-13.1262753c-.1963654 0-.3555222.1591885-.3555222.3555186s.1591568.3555186.3555222.3555186c.1963272 0 .3555145-.1591885.3555145-.3555186s-.1591873-.3555186-.3555145-.3555186zm-1.3599091 16.7718842c-.2234039 0-.4044952.1810913-.4044952.4044971 0 .2233696.1810913.4044609.4044952.4044609.2233734 0 .4044647-.1810913.4044647-.4044609 0-.2234058-.1810913-.4044971-.4044647-.4044971zm13.4359741-4.6497183c-.2657852 0-.4812469.215457-.4812469.481245 0 .2657537.2154617.4812098.4812469.4812098.2657547 0 .4812088-.215456.4812088-.4812098 0-.265788-.2154541-.481245-.4812088-.481245zm-16.2509994-1.5699463c0-.5193577-.4225082-.9418697-.9418716-.9418697-.5193558 0-.9419022.4225121-.9419022.9418697 0 .5193586.4225464.9418707.9419022.9418707.5193633 0 .9418716-.4225121.9418716-.9418707zm-.9418717.4024496c-.2219086 0-.4024429-.1805363-.4024429-.4024496 0-.2219124.1805344-.4024487.4024429-.4024487.2219162 0 .4024506.1805363.4024506.4024487 0 .2219133-.1805344.4024496-.4024506.4024496z"
          fill="#a287f4"/>
</svg>