<svg enable-background="new 0 0 100 25" viewBox="0 0 100 25" xmlns="http://www.w3.org/2000/svg">
    <path d="m22.37117 6.738451-3.1798515-1.3869538v11.5417576l3.771677-8.6473341c.252882-.5797029-.0121212-1.2546268-.5918255-1.5074697z"
          fill="#ff6363"/>
    <path d="m15.6768379 2.0025542h-11.203444c-1.3307226 0-2.4094865 1.078764-2.4094865 2.4094865v16.1759186c0 1.3307228 1.078764 2.4094868 2.4094865 2.4094868h11.2034435c1.3307228 0 2.4094868-1.078764 2.4094868-2.4094868v-16.1759186c.0000005-1.3307226-1.0787635-2.4094865-2.4094863-2.4094865zm-8.3642077 2.7357638c1.0679679 0 1.9337401.8657722 1.9337401 1.9337401s-.8657722 1.9337397-1.9337401 1.9337397-1.9337397-.8657718-1.9337397-1.9337397.8657718-1.9337401 1.9337397-1.9337401zm8.3640733 17.1541342h-11.2031746c-.7205257 0-1.3046272-.5841026-1.3046272-1.3046284v-1.1049938-.4306259-4.1651764l1.3411477-1.3411474c.6578374-.6578379 1.724402-.6578379 2.3822393 0l.1111131.1111126-1.1820822 1.1819477c-.2158194.2158194-.2158194.5654459 0 .7812653.1079097.1079102.2492714.1618643.3906326.1618643.1394396 0 .2783394-.0535498.3856421-.1585598l5.9451475-5.9451141c.6578293-.6578245 1.7243757-.6578226 2.3822021.0000038l2.0563869 2.056386v8.8530378c.0000001.7205257-.5841026 1.3046283-1.3046273 1.3046283z"
          fill="#505bda"/>
    <path d="m59.0320053 7.7167177c-.3013344-.5875297-1.1332207-.6122985-1.4627533-.0401073l-2.9589157 5.1378112c-.0014839.0020237-.0021591.004384-.0036736.0063734l-1.0089226 1.7518444c-.3181915.552495.0805855 1.2423439.7181549 1.2423439l4.7008629.0000029c.3800087 0 .7071877-.2592516.8058243-.626236.2318878-.8627815.3594627-1.7678576.3594627-2.7039928.0000001-1.7183876-.4163932-3.3376007-1.1500396-4.7680397zm-4.1452865 2.418747 2.3374252-4.0587163c.1823654-.3166132.1434517-.7226567-.1143837-.9815388-1.8994789-1.9067962-4.5210075-3.0926554-7.4251595-3.0926554-.2927399 0-.5804176.0202668-.8670883.0437708l4.6318855 8.0874205c.317894.5550591 1.1180802.5560033 1.4373208.0017192zm-7.8506852-7.8078566c-2.5723419.669404-4.7560692 2.291935-6.1614189 4.4666996-.3577232.5535712.0373383 1.2857103.6964302 1.2857113l8.0078392.0000029c.6366882.000001 1.0355759-.6881304.7191505-1.2406225l-2.357048-4.1154704c-.1814651-.3168393-.5515976-.4882749-.904953-.3963209z"
          fill="#ff6363"/>
    <path d="m45.1691246 9.1850166-4.8255844-.000001c-.3808289 0-.7088852.2602196-.8064499.6283407-.2260742.8529902-.3499336 1.7471895-.3499336 2.671401 0 1.7697544.4428673 3.4333525 1.2185516 4.8943071.3079643.5800323 1.1310692.6023026 1.4588165.0332146l4.022747-6.9849367c.3181878-.5524873-.0805854-1.2423257-.7181472-1.2423257zm12.6084251 7.7349606h-8.0942307c-.6366959 0-1.0355835.688139-.7191467 1.2406311l2.3530655 4.1084156c.1798096.3139477.5451012.4855671.8962898.398613 2.6100388-.6462555 4.8303871-2.2688046 6.2583733-4.4587269.3609467-.5535355-.0335311-1.2889328-.6943512-1.2889328zm-13.2910232-1.8309221-2.2553101 3.9160395c-.192852.3348904-.123455.7532425.1537704 1.0225105 1.8887901 1.8343277 4.4586258 2.969841 7.299614 2.969841.2518997 0 .4987106-.0202332.7461624-.0376682l-4.5069122-7.8690033c-.317894-.5550605-1.1180801-.5560046-1.4373245-.0017195z"
          fill="#505bda"/>
    <path d="m96.9756088 2.0025542h-2.6090164c-.1610565 0-.2915955.130537-.2915955.2915921v.0000336c0 .4492075-.3641586.8133686-.8133698.8133686h-5.2640991v1.1049945h5.1976013c.4859314 0 .8798676.3939037.8798676.8798342v14.8152118c0 .4859314-.3939362.8798676-.8798676.8798676h-5.1976013v1.1049957h5.2640686c.4492416 0 .8134003.3641605.8134003.8134022 0 .1610203.1305389.2915916.2915955.2915916h2.6090164c.5339813 0 .9668655-.4328861.9668655-.9668694v-19.0611525c.0000001-.5339839-.4328842-.96687-.9668655-.96687zm-.1381225 18.2324064c0 .3051147-.2473526.552496-.5524979.552496h-.5524979c-.3051529 0-.5524979-.2473812-.5524979-.552496v-2.2099896c0-.3051472.247345-.552496.5524979-.552496h.5524979c.3051453 0 .5524979.2473488.5524979.552496zm0-6.6299668c0 .3051147-.2473526.5524979-.5524979.5524979h-.5524979c-.3051529 0-.5524979-.2473831-.5524979-.5524979v-2.2099876c0-.3051481.247345-.5524979.5524979-.5524979h.5524979c.3051453 0 .5524979.2473497.5524979.5524979zm0-6.6299653c0 .3051143-.2473526.5524974-.5524979.5524974h-.5524979c-.3051529 0-.5524979-.2473831-.5524979-.5524974v-2.2099886c0-.3051481.247345-.5524969.5524979-.5524969h.5524979c.3051453 0 .5524979.2473488.5524979.5524969z"
          fill="#ff6363"/>
    <path d="m81.694931 4.212543h5.1976013v-1.1049945h-5.2640991c-.4492035 0-.8133698-.364161-.8133698-.8133686v-.0000336c0-.1610551-.1305313-.2915921-.2915878-.2915921h-2.6090164c-.533989 0-.9668732.4328861-.9668732.9668701v19.0611534c0 .5339832.4328842.9668694.9668732.9668694h2.6090164c.1610565 0 .2915878-.1305714.2915878-.2915916 0-.4492416.3641663-.8134022.8134079-.8134022h5.264061v-1.1049957h-5.1976013c-.4859314 0-.8798676-.3939362-.8798676-.8798676v-14.8152128c.0000001-.4859305.3939362-.8798342.8798676-.8798342zm-1.9848633 16.0224176c0 .3051147-.247345.552496-.5524902.552496h-.5524979c-.3051529 0-.5524979-.2473812-.5524979-.552496v-2.2099896c0-.3051472.247345-.552496.5524979-.552496h.5524979c.3051453 0 .5524902.2473488.5524902.552496zm0-6.6299668c0 .3051147-.247345.5524979-.5524902.5524979h-.5524979c-.3051529 0-.5524979-.2473831-.5524979-.5524979v-2.2099876c0-.3051481.247345-.5524979.5524979-.5524979h.5524979c.3051453 0 .5524902.2473497.5524902.5524979zm0-6.6299653c0 .3051143-.247345.5524974-.5524902.5524974h-.5524979c-.3051529 0-.5524979-.2473831-.5524979-.5524974v-2.2099886c0-.3051481.247345-.5524969.5524979-.5524969h.5524979c.3051453 0 .5524902.2473488.5524902.5524969z"
          fill="#505bda"/>
</svg>