<svg enable-background="new 0 0 100 25" viewBox="0 0 100 25" xmlns="http://www.w3.org/2000/svg">
    <g fill="#d8e7ef">
        <path d="m54.3784103 3.7708333-2.6859588 1.8958332 2.7867164.104167z"/>
        <path d="m57.833332 10.791667h2.083333v4.166667h-2.083333z"/>
        <path d="m44.875 20.458334h2.229167v1.645833h-2.229167z"/>
        <path d="m51.268623 20.458334h2.229167v1.645833h-2.229167z"/>
    </g>
    <path d="m42 6.750119h15.660135v2.075743h-15.660135z" fill="#fafeff"/>
    <path d="m42 7.999064h15.458333v12.000937h-15.458333z" fill="#d8e7ef"/>
    <path d="m2.726297 9.871165h20.779219v12.525665h-20.779219z" fill="#d8e7ef"/>
    <path d="m2.726297 4.000701h20.779219v5.870464h-20.779219z" fill="#d8e7ef"/>
    <path d="m2.71425 3.795522h20.779219v2.075743h-20.779219z" fill="#fafeff"/>
    <path d="m8.1009903 15.2803259c.5271387-.1236448.8543787-.651536.7299805-1.1786747-.1237154-.527174-.6516075-.8536959-1.17871-.7292976-.5263481.1237154-.852942.6516075-.7292261 1.1779556.1243977.5271387.6522898.8536959 1.1779556.7300167zm5.0805664 0c.5271025-.1236448.8543777-.651536.7299805-1.1786747-.1237164-.527174-.6516085-.8536959-1.1787462-.7292976-.5263481.1237154-.8529062.6516075-.7291899 1.1779556.1243973.5271387.6522894.8536959 1.1779556.7300167zm5.1160011 0c.5271015-.1236448.8543777-.651536.7299805-1.1786747-.1237164-.527174-.6516094-.8536959-1.1787472-.7292976-.5263481.1237154-.8529053.6516075-.7291908 1.1779556.1243992.5271387.6522903.8536959 1.1779575.7300167zm-10.1965675 3.5458956c.5271387-.1236439.8543787-.6515369.7299805-1.1786385-.1237154-.5272102-.6516075-.8536968-1.17871-.7292995-.5263481.1237164-.852942.6516094-.7292261 1.1779575.1243977.5271015.6522898.8536949 1.1779556.7299805zm5.0805664 0c.5271025-.1236439.8543777-.6515369.7299805-1.1786385-.1237164-.5272102-.6516085-.8536968-1.1787462-.7292995-.5263481.1237164-.8529062.6516094-.7291899 1.1779575.1243973.5271015.6522894.8536949 1.1779556.7299805zm5.1160011 0c.5271015-.1236439.8543777-.6515369.7299805-1.1786385-.1237164-.5272102-.6516094-.8536968-1.1787472-.7292995-.5263481.1237164-.8529053.6516094-.7291908 1.1779575.1243992.5271015.6522903.8536949 1.1779575.7299805zm1.1635952-15.5168465v-1.300128h-1.2518768v1.300128h-10.3323092v-1.300128h-1.2518411v1.300128h-4.5612185v19.7091427h22.0921249v-19.7091427zm3.3819695 18.3961971h-19.4663062v-11.2127504h19.4663067v11.2127504zm0-12.5256595h-19.4663062v-4.5575929h19.4663067v4.5575929z"
          fill="#5292d1"/>
    <path d="m96.5504532 8.1202812v13.4820786h-1.0465851-17.3993759-1.1774063v-13.4820786z" fill="#d8e7ef"/>
    <path d="m77.221436 8.23666h19.329012v1.778559h-19.329012z" fill="#fafeff"/>
    <path d="m82.9579468 12.4855204h-1.3345261v5.1818075h1.3345261zm4.4482345 0h-1.3345566v5.1818075h1.3345566zm4.4459076 0h-1.3345261v5.1818075h1.3345261zm-.0475692-5.0327096-4.9786072-4.9774933-4.97789 4.9774933h-6.3599777v1.3345571h.7719116v13.4822493h20.9578934v-13.4822494h.7182465v-1.334557zm-4.9782105-3.0910621 3.0910568 3.0910621h-6.1821213zm9.0570221 16.5733118h-18.2888565v-12.1476927h18.2888565z"
          fill="#5292d1"/>
    <path d="m60.7337112 9.7588482h-2.5452118v-4.3201485h-2.6951904v-3.371253l-5.2961769 3.3591938.0076294.0120592h-9.213192v6.7583332h-2.0221519v1.3114204h2.0221519v7.3266144h3.0871086v2.32061h4.0036011v-2.32061h2.2987518v2.32061h4.0043526v-2.32061h3.8031158v-4.8884296h2.5452118zm-6.5518226-5.3052206v.9850721h-1.5537796zm-7.4110298 17.3906317h-1.3807602v-1.0091915h1.3807602zm6.3031044 0h-1.3815117v-1.0091915h1.3815117zm3.8031196-2.3206101h-14.5740967v-12.77353h14.5740967zm2.545208-4.8884306h-1.2337914v-3.5649509h1.2337914z"
          fill="#5292d1"/>
    <path d="m52.834854 10.339001h1.543556v1.543556h-1.543556z" fill="#5292d1"/>
</svg>