<svg enable-background="new 0 0 100 25" viewBox="0 0 100 25" xmlns="http://www.w3.org/2000/svg">
    <path d="m52.8119431 10.6591196c-.4068451 0-.8111115.0510445-1.2016525.1516895l.0017891.0069828c-.1562653.0332956-.2758293.1654825-.2758293.3316536 0 .1909714.1548195.3457575.3457909.3457575.0352898 0 .0673828-.0102854.0994415-.0200882l.0010643.0041275c.3342705-.0861292.680645-.1298132 1.0293961-.1298132 2.2677116 0 4.1126175 1.8449068 4.1126175 4.1126194 0 2.2677469-1.8449059 4.1126547-4.1126175 4.1126547-2.2677498 0-4.1126556-1.8449078-4.1126556-4.1126547v-2.3853493c0-3.0913792-1.1757851-5.0902462-2.1622162-6.2226577-1.0756912-1.234983-2.1500435-1.7299871-2.19524-1.7504535l-.0034409.0076017c-.0565453-.0393844-.1214867-.0676584-.1956139-.0676584-.1929665 0-.349369.1564021-.349369.3493338 0 .1634536.1145439.2944026.2661285.332583l-.0030594.0067072c.0099068.0045404 1.0040779.4676933 1.982151 1.6006899 1.3074226 1.5145946 1.9703865 3.4471107 1.9703865 5.743854v2.3853493c0 2.6483812 2.1545448 4.8029299 4.8029289 4.8029299 2.6483459 0 4.8029289-2.1545486 4.8029289-4.8029299 0-2.6483478-2.154583-4.8029289-4.8029289-4.8029289zm-.4790116 11.6815329.000618-.0016499c-.7042389-.2656136-1.1912956-.7934322-1.4475555-1.5688057l-.0035744.0011711c-.045578-.1376915-.1711578-.2386456-.3241577-.2386456-.1909714 0-.3457565.1547852-.3457565.3457565 0 .0380077.0103188.0729561.021637.1071453l-.0035782.0011711c.0023727.0071545.0055733.013586.0079803.0207062.0012398.0030956.0021667.0060883.0035095.0091152.1763878.5192547.4482918.9548206.8008614 1.3001995h-3.1700096c.8540726-.8436165 1.0616226-2.0708942 1.0289459-2.7651253.0001717-.0042648.0024414-.0078087.0024414-.0121078 0-.0056057-.0029259-.0102501-.0032005-.0157871-.0000687-.0013771-.0000343-.0029926-.000103-.0043697l-.0007553.0000343c-.0110092-.1810646-.1578827-.325634-.341732-.325634-.1909714 0-.3457565.1548195-.3457565.3457565 0 .0068111.0034752.0124512.0038528.0191593l-.0047836.0002747c.0046806.0866451.0947647 2.1298504-1.6291351 2.7799854l.000618.0016499c-.1307068.0493259-.2246094.1733608-.2246094.3213348 0 .1909714.1548195.3457565.3457909.3457565.0011368 0 .0020981-.0006523.0032349-.0006523h5.5008392c.001133 0 .0020981.0006523.0032349.0006523.1909676 0 .3457909-.1547852.3457909-.3457565-.0000003-.1480082-.0939067-.2719745-.2246478-.3213347zm-3.0091705-17.5704036c1.8261948 0 3.5457611-.1116176 4.8419342-.3142495 2.005024-.313458 2.2753487-.7266667 2.2753487-1.0895875s-.2703247-.7761638-2.2753487-1.089622c-1.2961731-.2026315-3.0157394-.3142492-4.8419342-.3142492-1.8261604 0-3.5457268.1116177-4.8419342.3142492-2.0049896.3134582-2.2753143.7267015-2.2753143 1.089622s.2703247.7761295 2.2753143 1.0895875c1.2962074.2026319 3.0157738.3142495 4.8419342.3142495zm0-2.1173985c3.4299126 0 5.7745361.3966639 6.3409843.7135615-.5664482.3168635-2.9110718.7135274-6.3409843.7135274-3.4298782 0-5.7745018-.3966639-6.3409462-.7135274.5664444-.3168976 2.911068-.7135615 6.3409462-.7135615z"
          fill="#cb40f7"/>
    <path d="m23.314785 13.223012c-.0041428 0-.0075283.0022106-.0116367.0023479-1.2883873.0064583-2.3348312 1.0554228-2.3348312 2.3452263v4.3945646c0 .8584423-.6983776 1.5568542-1.5567837 1.5568542-.8409328 0-1.5240116-.671442-1.5516739-1.5057449l.6704044-.3179169.1267738-.0513859.1109924-.051939c.6197433-.2939529 1.000824-.9476776.9525452-1.630722v-9.7105264c.0006218-.0091858.0053196-.0169907.0053196-.0263491 0-.2187033-.1772976-.3959651-.3959656-.3959651s-.3959637.1772618-.3959637.3959651h-.003006v9.7517605l.0012779.0319424c.029562.3640556-.1724606.71385-.5026035.8704948l-.2066174.0892353-5.5228186 2.6184216c-.0029354.0012093-.0055256.0026951-.008461.0040073l-.010187.0048332.0007248.0015545c-.1335421.0636463-.2275085.1973953-.2275085.3551807 0 .218668.1772966.3959637.3959646.3959637.0608492 0 .1168623-.0161953.1683874-.0407486l.0007248.0015182 4.086524-1.9379673c.1945286 1.0990028 1.1511841 1.9379673 2.3051662 1.9379673 1.293808 0 2.3463993-1.0525894 2.3463993-2.3464336v-4.3945646c0-.8570948.6963406-1.5542984 1.5529861-1.5564394.0013809 0 .0024853.0007944.0038662.0007944.218668 0 .3959656-.1772966.3959656-.3959646s-.1772975-.3959646-.3959655-.3959646z"
          fill="#3653e0"/>
    <path d="m18.9028149 4.7545629-.1085739-.0698967-5.4750242-2.6344116-.0030041.006216c-.0609522-.0382979-.1288805-.0662012-.2061672-.0662012-.218668 0-.3959303.1772966-.3959303.3959646 0 .1724274.1117516.3153281.2655649.3696499l-.0028315.0058708 5.4309597 2.6132767.078598.0505919.023138.0137792c.1630001.0898914.266325.1617217.3311443.2145238l-6.9611168 3.2917285-.6980667.3616381c-.246295.1182089-.4521856.2949877-.6103849.5061617l-7.5566191-3.614757c.0329454-.0221362.0611939-.0499015.09742-.0676174l.1561964-.0637836 7.0741124-3.3526113c.0011396-.0004489.002141-.0010362.0032463-.0015194l.0250368-.0118797-.0017958-.0037987c.1271877-.0658906.2167339-.1948397.2167339-.3479283 0-.218668-.1772614-.3959645-.3959646-.3959645-.0582237 0-.1125107.0140207-.1622744.0366058l-7.0676887 3.3502283-.1571633.0641637-.0199261.0088062c-.6196747.2939515-1.0007898.9476767-.9525114 1.630652l-.0026591 11.2048392c-.0483129.6830788.3328022 1.3368721.9519933 1.6305485l5.80054 2.762289c.5458412.2789993 1.0012388.417963 1.3744802.417963.2414608-.0000687.4486284-.0581894.6236115-.1742229.4490089-.2977161.4527035-.8269463.4474201-.94664v-11.0188751l-.0012779-.0319433c-.0295954-.3640556.1724625-.7138834.5026054-.8705282l.6969957-.3610859 6.9844275-3.3027444c.2241249-.0798078.482542-.276443.5136566-.5878344.0470352-.4704885-.4409961-.8016333-.818901-1.0112533zm-8.6660862 17.2237029c.0001736.0017605.0015888.1849613-.0951748.2491264-.0464821.030838-.3232708.1615486-1.2069216-.2910862l-5.8164263-2.7700939c-.3302124-.1565075-.532166-.5063705-.502605-.8704605l.0012777-.0159187.0026248-11.2504593-.0012431-.032082c-.0030046-.0370894.0061815-.0725208.0078735-.1091266l7.6337328 3.6516395c-.0221357.1292601-.0336361.2610407-.0241737.3950319v11.0144548zm-5.1378012-8.2270594c-1.2330298.508234-1.6867695 2.2547121-1.0113916 3.8932028.3195758.7754917.8426938 1.4170952 1.4730048 1.8066711.4146819.2563457.8452497.3863983 1.2601733.3863983.2505426 0 .4954219-.0474491.7276273-.143177 1.2330642-.5081291 1.686769-2.2546425 1.0114608-3.8931684-.6752744-1.6385251-2.2278796-2.5584021-3.4608746-2.0499268zm2.1915498 5.3174124c-.4108486.1689739-.898777.1005287-1.3740659-.1932163-.5101333-.3153286-.9374199-.8440762-1.2031922-1.4888916-.5330982-1.2934628-.2443957-2.6435623.6436067-3.009552.1517415-.0625744.3112879-.0923433.4742875-.0923433.7906513 0 1.6610069.7019691 2.1030049 1.7743826.5330295 1.2935313.2443266 2.6436309-.643641 3.0096206zm-.7063546-6.1204615c.1397586 0 .2788262-.0262451.4126101-.0814648.6793838-.2799654.9299955-1.1824036.5706019-2.0544853-.1636901-.3971739-.4336753-.7270746-.7602272-.9288902-.3560434-.2200842-.754253-.266532-1.0923386-.1269465-.6793838.2799997-.9300647 1.1824026-.5706024 2.0544853.288599.7003108.8702173 1.1373015 1.4399562 1.1373015zm-.6114555-2.5660343c.0499015-.0206165.1004586-.0289392.149704-.0289392.1330934 0 .25631.0609865.3288999.1058111.2033696.1257038.3820477.3484468.4902768.6111107h.0000343c.2076173.5038137.1147904 1.0399857-.2027478 1.1708689-.317297.1308136-.761229-.1841345-.9689841-.6880169-.207583-.5037795-.1147213-1.0399857.2028169-1.1708346zm5.9408164-7.2379754 1.4923782 4.2032824.0125017-.0044551c.0236206.0644746.074213.1163445.1469412.1163445.0930681 0 .1685247-.0754566.1685247-.1685252 0-.0203748-.0149527-.0340848-.0215836-.052146l.0125017-.0044546-1.4923439-4.2032824-.012536.0044549c-.0236216-.0645092-.0742474-.116379-.1469412-.116379-.0930691 0-.1685257.0754564-.1685257.1685596 0 .020375.0149536.034085.0215845.0521462zm1.8677263.7184759-.0124664.0044203c-.0236215-.0645438-.0742473-.1163789-.1469765-.1163789-.0930681 0-.1685247.0754561-.1685247.1685593 0 .020375.0149879.034085.0216188.0521808l-.0125704.0044549 1.0131874 2.8535631.0125351-.0044551c.0236216.0645094.074213.1163793.1469412.1163793.0930691 0 .1685257-.0754566.1685257-.1685252 0-.0203748-.0149879-.0340848-.0216188-.0521803l.012536-.0044551zm1.3865672.5900447-.0125017.0044546c-.0236206-.0645437-.0742474-.1164131-.1469412-.1164131-.0931025 0-.1685591.0754561-.1685591.1685591 0 .0203753.0149879.0340853.0216179.0521808l-.012536.0044551.6413965 1.8064289.0125017-.0044551c.0236206.0645437.0742474.1163793.1469412.1163793.0931034 0 .1685591-.0754566.1685591-.1685252 0-.0203748-.014987-.0341196-.0216179-.0522151l.0125017-.0044203zm1.3017168.5382786-.0125008.0044546c-.0236206-.0645437-.0742474-.1163788-.1469765-.1163788-.0930672 0-.1685238.0754561-.1685238.1685247 0 .0203753.0149879.0340848.0216179.0521808l-.012537.0044546.2938499.827672.0125351-.0044551c.0236206.0645094.0742474.1163793.1469421.1163793.0930672 0 .1685581-.0754566.1685581-.1685252 0-.0203748-.0149879-.0340848-.0216179-.0521803l.0125008-.0044551z"
          fill="#cb40f7"/>
    <path d="m47.2961044 11.974453c-.0073624 0-.0135193.0037498-.0207748.0041971h-.7788811v-.1959248c.0004463-.0072575.0041962-.0134144.0041962-.0207758 0-.1929655-.1564369-.3493681-.349369-.3493681s-.3493347.1564026-.3493347.3493681c0 .0073614.0037498.0135183.0041962.0207758v1.0495501c-.0004463.0072575-.0041962.0134144-.0041962.0207758 0 .1929312.1564026.3493338.3493347.3493338s.349369-.1564026.349369-.3493338c0-.0073614-.0037498-.0135183-.0041962-.0207758v-.1633167h.7788811c.0072556.0004473.0134125.0041971.0207748.0041971.1929665 0 .349369-.1564369.349369-.349369.0000001-.1929312-.1564025-.3493338-.349369-.3493338zm0 1.9696989c-.0073624 0-.0135193.0037489-.0207748.0041962h-.7788811v-.1959238c.0004463-.0072575.0041962-.0134153.0041962-.0207758 0-.1929321-.1564369-.3493338-.349369-.3493338s-.3493347.1564016-.3493347.3493338c0 .0073605.0037498.0135183.0041962.0207758v1.0495491c-.0004463.0072584-.0041962.0134153-.0041962.0207758 0 .1929665.1564026.349369.3493347.349369s.349369-.1564026.349369-.349369c0-.0073605-.0037498-.0135174-.0041962-.0207758v-.1633501h.7787094c.0073242.0004473.0135155.0042305.0209465.0042305.1929665 0 .349369-.1564016.349369-.3493681.0000001-.1929312-.1564025-.3493338-.349369-.3493338zm0 1.9705238c-.0073624 0-.0135193.0037498-.0207748.0041971h-.7788811v-.1959248c.0004463-.0072575.0041962-.0134144.0041962-.0207758 0-.1929312-.1564369-.3493338-.349369-.3493338s-.3493347.1564026-.3493347.3493338c0 .0073614.0037498.0135183.0041962.0207758v1.0495491c-.0004463.0072594-.0041962.0134163-.0041962.0207767 0 .1929665.1564026.3493671.3493347.3493671s.349369-.1564007.349369-.3493671c0-.0073605-.0037498-.0135174-.0041962-.0207767v-.1633148h.7788811c.0072556.0004463.0134125.0041962.0207748.0041962.1929665 0 .349369-.1564026.349369-.349369.0000001-.1929302-.1564025-.3493338-.349369-.3493338zm8.1633606-2.1725016.0043335-.0031996c-.6890373-.933116-1.7921104-1.4902411-2.9507294-1.4902411-.3105011 0-.6190414.0389719-.9171562.1157799l.001236.0048494c-.1487999.038662-.2608986.1677876-.2608986.3286619 0 .1909361.1548195.3457565.3457909.3457565.0299606 0 .0567207-.0099068.084446-.0170612l.0016136.0062265c.2419128-.0623274.4925652-.0939035.7449684-.0939035.9404755 0 1.8359985.4523182 2.395462 1.2099762l.0043678-.003233c.0629807.0851316.159256.1439848.2732811.1439848.1909714 0 .3457565-.1548204.3457565-.3457909 0-.0769117-.0299568-.1443632-.0724716-.2018059zm-2.4975204 4.1433011c-.0036774 0-.0067406.0019951-.0104218.0020981-1.3530655-.0116253-2.4508057-1.1139736-2.4508057-2.4697247v-2.3411493c0-2.2967434.6629639-4.2292595 1.9704208-5.743854.9780388-1.1329966 1.9722099-1.5961494 1.9821167-1.6006899l-.0034409-.0075326c.149559-.0395565.262104-.1697483.262104-.3317575 0-.1929317-.1564369-.3493338-.349369-.3493338-.0726433 0-.1363144.0274143-.1922073.0653882l-.0024071-.0053315c-.0452347.0204663-1.1195831.5154705-2.1952744 1.7504535-.9864311 1.1324115-2.1622162 3.1312785-2.1622162 6.2226577v2.3411493c0 1.7294369 1.3960609 3.1371956 3.1201668 3.1599998.0108337.0009975.0202255.0063286.0313339.0063286.1929321 0 .3493347-.1564007.3493347-.3493328s-.1564024-.3493691-.3493345-.3493691z"
          fill="#3653e0"/>
    <path d="m97.722435 6.419879c-.2269974 0-.411026.1840272-.411026.4110289 0 .0020795.0011444.0037432.0011749.0058227v11.142807c0 .9676857-.7872238 1.7549133-1.7549133 1.7549133h-12.3667069v-17.0476945h12.3667068c.9676895 0 1.7549133.7872283 1.7549133 1.7549145h.00354c.0127487.2155304.1875916.3877053.406311.3877053s.3935318-.1721749.4062805-.3877053h.0035019c0-.0039511-.0011444-.0075898-.0011749-.0115409.0001373-.0041585.002388-.0075898.002388-.0117831 0-.0125804-.0060272-.0231509-.0071411-.0354195-.0320892-1.3919539-1.1691055-2.5158033-2.5686188-2.5158033h-13.1863783v17.6207447l-1.5205307 1.5750103c-.0020447-.0371513-.0031891-.0740261-.0032578-.1092033v-16.5295067c.0000381-.0020795.0011826-.0037427.0011826-.0058222 0-.2270017-.1840286-.4109945-.4110336-.4109945-.2269974 0-.4109955.1839929-.4109955.4109945 0 .0021138.0011826.0038815.0012131.0059958v16.5293331c0 .6296101.1451111 1.0187359.4313049 1.1566353.0448837.0216255.1259079.0518112.2283554.0518112.106636 0 .2364655-.0326462.3730087-.141468l1.4194412-1.4665699h13.0776901c1.4196472 0 2.5745468-1.1549034 2.5745468-2.5745468v-11.142634c.0000381-.0021143.0012131-.0038815.0012131-.0059958.0000001-.2270016-.1839904-.4110288-.4109954-.4110288zm-13.5460053 2.6635799c.0483093 0 .092041-.0195808.1237183-.0512571l.0004883.0004845 5.274826-5.274828-.0004807-.0004852c.0316772-.0316417.0512543-.0753784.0512543-.1237247 0-.0966229-.0783234-.1749473-.1749496-.1749473-.0483398 0-.0920486.0195811-.1237183.0512919l-.0004883-.0004852-5.2747955 5.2747936.0004883.0004854c-.0316772.0316763-.0512924.0754128-.0512924.123724 0 .0966238.0783234.1749481.1749496.1749481zm0-1.6991863c.0536423 0 .0972748-.0269284.1293716-.0649123l.0045013.0045056 3.5637589-3.5637548-.0013885-.0013864c.0329208-.0318842.0539246-.0756211.0539246-.1250763 0-.0968657-.0785294-.1754324-.1754303-.1754324-.0494232 0-.0931931.0210021-.1250763.0538912l-.0003815-.0003812-3.5637512 3.5637894.0044327.004436c-.0379868.0320921-.0649109.0757251-.0649109.129374 0 .0966229.0783234.1749472.1749496.1749472zm1.8764191-3.9202342c-.0466156 0-.088028.0197196-.1193924.0494552l-.00177-.0017676-1.8619308 1.861969c-.0350418.0319886-.058609.0755868-.058609.1267748 0 .0966229.0783234.1749473.1749496.1749473.0497284 0 .093399-.0215912.1252518-.0549312l.004158.004159 1.864563-1.8645337-.0017624-.0017676c.0297318-.0313644.0494537-.0727446.0494537-.1193924 0-.0965887-.0782928-.1749128-.1749115-.1749128zm-1.8764191.7670579c.0517426 0 .0953369-.0243292.1273575-.0600252l.3987274-.3987956-.0069275-.0069313c.0400238-.0314684.0692749-.0745466.0692749-.1294084 0-.0949249-.0769348-.1718974-.1718597-.1718974-.054863 0-.097908.029285-.1294098.0693135l-.0094299-.0094268-.4018784.4019146.0047836.0047827c-.0336151.0318842-.0555878.0755169-.0555878.1255267.0000001.0966228.0783235.1749472.1749497.1749472zm5.2381211 10.9767322h.3032837c.9766235 0 1.7712402-.794611 1.7712402-1.7712727v-4.295082c0-.5247374.4268646-.9516048.9515991-.9516048h.3031845v-.001525c.2254715 0 .4082565-.1827803.4082565-.4082565 0-.2254772-.182785-.408257-.4082565-.408257v-.0015941h-.3031845c-.9766617 0-1.7712326.79461-1.7712326 1.7712374v4.2950821c0 .5247383-.4268723.9516048-.9516068.9516048h-.3032837c-.6063156 0-1.0996246-.4933043-1.0996246-1.0996237v-.245058c0-.6063204.493309-1.0996246 1.0996246-1.0996246h.3032837v-.0099459c.2098846-.0169821.3766174-.1876326.3766174-.4018803s-.1667328-.3848982-.3766174-.4018803v-.0059261h-.0294266c-.0007935 0-.0014191-.0004501-.0022125-.0004501-.0008011 0-.0014267.0004501-.0022202.0004501h-.2694244c-1.0582733 0-1.9192581.8609781-1.9192581 1.9192572v.2450581c.0000001 1.058279.8609849 1.9192914 1.9192582 1.9192914z"
          fill="#cb40f7"/>
    <path d="m97.9963303 21.2965698-.0033951-.0011425c.0141754-.0415878.0264053-.0843887.0264053-.1307602 0-.2270012-.1840286-.4110298-.411026-.4110298-.1806335 0-.329483.1183529-.3846207.280304l-.0034332-.0011787c-.2429428.7146225-.9110947 1.1947575-1.66259 1.1947575h-12.7705307c-.0021133-.0000343-.0038834-.0012131-.0059967-.0012131-.2269974 0-.4109955.1840286-.4109955.4110298s.1839981.4110298.4109955.4110298c.0021133 0 .0038834-.0011787.0059967-.0012131h12.7705307c1.0881195 0 2.0541763-.6867237 2.4216461-1.7110748.0036697-.0079365.0069962-.0154915.0101852-.0236702.0019074-.0055104.0049592-.0103283.0068284-.0158387z"
          fill="#3653e0"/>
</svg>