<?xml version="1.0" encoding="utf-8"?>
<!-- Generator: Adobe Illustrator 26.0.1, SVG Export Plug-In . SVG Version: 6.00 Build 0)  -->
<svg version="1.1" xmlns="http://www.w3.org/2000/svg" xmlns:xlink="http://www.w3.org/1999/xlink" x="0px" y="0px"
     viewBox="0 0 100 25" style="enable-background:new 0 0 100 25;" xml:space="preserve">
<style type="text/css">
	.st0{fill:#333333;}
	.st1{fill:#E6E6E6;}
	.st2{clip-path:url(#SVGID_00000119820100705192303860000000461656847371849661_);}
	.st3{clip-path:url(#SVGID_00000029744866192735125300000005134352607794199482_);}
	.st4{clip-path:url(#SVGID_00000177483316172881734250000000874610341223876257_);}
	.st5{fill:#FFFFFF;}
</style>
    <g>
	<path class="st0" d="M21.8064594,5.3312988H16.857729l-4.3726873-2.2256191
		c0.0523672-0.1047349,0.0785522-0.20947,0.0785522-0.3142049c0-0.4713075-0.3927565-0.8378803-0.8378801-0.8378803
		c-0.4451246,0-0.8378811,0.3665725-0.8378811,0.8378803c0,0.1571026,0.0523682,0.3142049,0.1309195,0.4189403l-4.006115,2.1208842
		H2.4828477c-0.2356541,0-0.4189403,0.1832862-0.4189403,0.3927565v16.8099709c0,0.2356548,0.1832862,0.4189396,0.4189403,0.4189396
		h19.3236122c0.2356529,0,0.4189396-0.1832867,0.4189396-0.4189396V5.7240558
		C22.225399,5.4884019,22.0421104,5.3312998,21.8064594,5.3312988z M11.8566313,3.7079058l3.194418,1.6233926H8.7669477
		L11.8566313,3.7079058z M21.3875179,22.1412697H2.9017873V6.1429954h18.5119171v15.9982738H21.3875179z M4.839385,20.4916935
		c0.1309185,0,0.2618375-0.0523682,0.3403888-0.1571026l3.8490119-4.8963633l3.9013786,4.8439951
		c0.1309185,0.1571026,0.3927565,0.2094707,0.5760431,0.0523663c0.1571026-0.1309185,0.1832876-0.3927555,0.0523672-0.5760422
		l-3.0896835-3.8228292l3.482439-4.4250555l6.4673882,8.9286613c0.0785503,0.1047344,0.2094688,0.1571007,0.3403873,0.1571007
		c0.0785522,0,0.1571026-0.0261822,0.2356548-0.0785503c0.1832867-0.1309185,0.2094707-0.3927574,0.0785522-0.5760441
		l-6.7815933-9.3476c-0.0785513-0.1047354-0.1832867-0.1571026-0.3142052-0.1571026
		c-0.1309195,0-0.261838,0.0523672-0.3403893,0.1571026l-3.6919098,4.6868925L9.342989,14.5217934
		c-0.0785513-0.1047344-0.2094698-0.1832867-0.3403893-0.1571016c-0.1309185,0-0.2356539,0.0523672-0.3142052,0.1571016
		l-4.1632171,5.3153038c-0.1309185,0.1571007-0.1047349,0.4189396,0.0785518,0.5498581
		C4.6822805,20.4655075,4.7608314,20.4916916,4.839385,20.4916935z M7.5101285,12.87222
		c1.3877387,0,2.5136409-1.1259022,2.5136409-2.5136414S8.8978672,7.8449378,7.5101285,7.8449378
		c-1.3615551,0-2.4874568,1.1259017-2.4874568,2.5136409S6.1485734,12.87222,7.5101285,12.87222z M7.5101285,8.6566353
		c0.942615,0,1.7019439,0.7593298,1.7019439,1.7019444s-0.7593288,1.6757603-1.7019439,1.6757603
		s-1.6757607-0.7593288-1.6757607-1.6757603S6.5936961,8.6566353,7.5101285,8.6566353z"/>
        <path class="st0" d="M97.5166626,4.6923919h-4.2467422V2.4641623c0-0.2359302-0.2097168-0.4194317-0.4194336-0.4194317
		s-0.4194336,0.1835012-0.4194336,0.4194317v2.2282295h-8.8867035V2.4641623c0-0.2359302-0.1835022-0.4194317-0.419426-0.4194317
		c-0.2359314,0-0.4194336,0.1835012-0.4194336,0.4194317v2.2282295h-3.9059525
		c-0.2359314,0-0.4194336,0.1835012-0.4194336,0.3932171v17.5636921c0,0.2359295,0.1835022,0.4194298,0.4194336,0.4194298
		h18.7171249c0.2359314,0,0.4194336-0.1835022,0.4194336-0.4194298V5.1118231
		C97.9360962,4.8758931,97.752594,4.6923919,97.5166626,4.6923919z M97.1234436,22.2560825H79.192749V9.0177784h17.9306946
		V22.2560825z M97.1234436,8.2051306H79.192749V5.5050402h3.5127411v0.4718604c0,0.23593,0.2097168,0.4194312,0.419426,0.4194312
		c0.2097168,0,0.4194336-0.1835012,0.4194336-0.4194312V5.5050397h8.8867035v0.4718609
		c0,0.23593,0.1835022,0.4194312,0.4194336,0.4194312c0.2359238,0,0.419426-0.1835012,0.419426-0.4194312V5.5050397h3.8535309
		V8.2051306z M86.585228,19.293848c0.0786438,0.0786457,0.1835022,0.131073,0.2883606,0.131073c0,0,0,0,0.0262146,0
		c0.1048584,0,0.2097168-0.0524273,0.2883606-0.1572857l7.1565475-8.4410582
		c0.1572876-0.1835012,0.131073-0.4456453-0.0524292-0.5767174c-0.1835022-0.1572876-0.4194336-0.131073-0.5767212,0.0524282
		l-6.868187,8.1002693l-3.1719513-3.1719494c-0.1572876-0.1572866-0.4194336-0.1572866-0.5767136,0
		c-0.1572876,0.1572857-0.1572876,0.4194307,0,0.5767183L86.585228,19.293848z"/>
        <path class="st0" d="M57.2599525,9.978672l4.0056572-3.1994863c0.100769-0.0755782,0.1511536-0.2015424,0.1511536-0.327507
		c-0.0251923-0.1259637-0.0755768-0.2267351-0.1763496-0.3023133l-6.348587-4.1316199
		c-0.1259651-0.1007713-0.327507-0.0755785-0.4534683,0.0251927l-4.1820068,3.4766068l-4.1820068-3.4766068
		c-0.1259651-0.1007712-0.327507-0.125964-0.4534683-0.0251927l-6.3233948,4.1316199
		c-0.1259651,0.0503855-0.1763496,0.1763496-0.1763496,0.3023133c-0.0251923,0.1259642,0.0251923,0.2519279,0.1259651,0.327507
		l4.0056534,3.1994863l-4.0056534,3.1994867c-0.1007729,0.0755787-0.1511574,0.2015429-0.1259651,0.327507
		c0,0.1259632,0.0503845,0.2267351,0.1763496,0.3023138l4.1820068,2.7208233v2.2421589
		c0,0.1511555,0.0503845,0.2771206,0.1763496,0.3526993l6.3989716,3.753727
		c0.0755768,0.0503845,0.1259613,0.0755787,0.2015419,0.0755787c0.0755768,0,0.1511574-0.0251923,0.2015419-0.0755787
		l6.3989716-3.753727c0.1259651-0.0755787,0.2015457-0.2015438,0.2015457-0.3526993v-2.2421589l4.182003-2.7208233
		c0.1007729-0.0503845,0.1511574-0.1763506,0.1763496-0.3023138c0-0.1259642-0.0503845-0.2519283-0.1511536-0.327507
		C61.2656097,13.1781588,57.2599525,9.978673,57.2599525,9.978672z M50.2563553,13.4552794L44.6131668,9.978672l5.6431885-3.4766073
		l5.6431847,3.4766073C55.8995399,9.978672,50.2563515,13.4552794,50.2563553,13.4552794z M54.7154808,2.8239152
		l5.6179924,3.6781495l-3.7285347,2.9979439L50.9365578,5.998209C50.9365578,5.998209,54.715477,2.8239157,54.7154808,2.8239152z
		 M45.7972298,2.8239152l3.7789192,3.1742933l-5.6683807,3.5018001l-3.7285347-2.9979439L45.7972298,2.8239152z
		 M43.9077682,10.4573345l5.6683807,3.5018005l-3.778923,3.1742916l-5.6179924-3.6781492
		C40.1792336,13.4552774,43.9077682,10.4573336,43.9077682,10.4573345z M56.2522392,18.5442238l-5.9958878,3.552187
		l-5.9958839-3.552187V17.057848l1.3604088,0.8817501c0.0503845,0.0503845,0.1259651,0.0755787,0.2015419,0.0755787
		c0.1007729,0,0.1763496-0.0503845,0.2519302-0.100771l4.182003-3.4766083l4.1820068,3.4766083
		c0.0755768,0.0503845,0.1511574,0.100771,0.2519264,0.100771c0.0755806,0,0.1511574-0.0251923,0.2015457-0.0755787
		l1.3604088-0.8817501V18.5442238z M54.7154808,17.1334267l-3.778923-3.1742916l5.6683807-3.5018005l3.7285347,2.9979448
		L54.7154808,17.1334267z"/>
</g>
</svg>
