<?xml version="1.0" encoding="utf-8"?>
<!-- Generator: Adobe Illustrator 26.0.1, SVG Export Plug-In . SVG Version: 6.00 Build 0)  -->
<svg version="1.1" xmlns="http://www.w3.org/2000/svg" xmlns:xlink="http://www.w3.org/1999/xlink" x="0px" y="0px"
     viewBox="0 0 100 25" style="enable-background:new 0 0 100 25;" xml:space="preserve">
<style type="text/css">
	.st0{fill:#333333;}
	.st1{fill:#E6E6E6;}
	.st2{clip-path:url(#SVGID_00000134950487370183812230000006629475783093581751_);}
	.st3{clip-path:url(#SVGID_00000041267681695524738870000017787384983171308709_);}
	.st4{clip-path:url(#SVGID_00000134231751461757075310000006861422095973513869_);}
	.st5{fill:#FFFFFF;}
</style>
    <g id="Warstwa_1">
	<g>
		<path class="st0" d="M52.8119431,10.6591196c-0.4068451,0-0.8111115,0.0510445-1.2016525,0.1516895l0.0017891,0.0069828
			c-0.1562653,0.0332956-0.2758293,0.1654825-0.2758293,0.3316536c0,0.1909714,0.1548195,0.3457575,0.3457909,0.3457575
			c0.0352898,0,0.0673828-0.0102854,0.0994415-0.0200882l0.0010643,0.0041275
			c0.3342705-0.0861292,0.680645-0.1298132,1.0293961-0.1298132c2.2677116,0,4.1126175,1.8449068,4.1126175,4.1126194
			c0,2.2677469-1.8449059,4.1126547-4.1126175,4.1126547c-2.2677498,0-4.1126556-1.8449078-4.1126556-4.1126547v-2.3853493
			c0-3.0913792-1.1757851-5.0902462-2.1622162-6.2226577c-1.0756912-1.234983-2.1500435-1.7299871-2.19524-1.7504535
			l-0.0034409,0.0076017c-0.0565453-0.0393844-0.1214867-0.0676584-0.1956139-0.0676584
			c-0.1929665,0-0.349369,0.1564021-0.349369,0.3493338c0,0.1634536,0.1145439,0.2944026,0.2661285,0.332583l-0.0030594,0.0067072
			c0.0099068,0.0045404,1.0040779,0.4676933,1.982151,1.6006899c1.3074226,1.5145946,1.9703865,3.4471107,1.9703865,5.743854
			v2.3853493c0,2.6483812,2.1545448,4.8029299,4.8029289,4.8029299c2.6483459,0,4.8029289-2.1545486,4.8029289-4.8029299
			C57.614872,12.8137007,55.460289,10.6591196,52.8119431,10.6591196z M52.3329315,22.3406525l0.000618-0.0016499
			c-0.7042389-0.2656136-1.1912956-0.7934322-1.4475555-1.5688057l-0.0035744,0.0011711
			c-0.045578-0.1376915-0.1711578-0.2386456-0.3241577-0.2386456c-0.1909714,0-0.3457565,0.1547852-0.3457565,0.3457565
			c0,0.0380077,0.0103188,0.0729561,0.021637,0.1071453l-0.0035782,0.0011711
			c0.0023727,0.0071545,0.0055733,0.013586,0.0079803,0.0207062c0.0012398,0.0030956,0.0021667,0.0060883,0.0035095,0.0091152
			c0.1763878,0.5192547,0.4482918,0.9548206,0.8008614,1.3001995h-3.1700096
			c0.8540726-0.8436165,1.0616226-2.0708942,1.0289459-2.7651253c0.0001717-0.0042648,0.0024414-0.0078087,0.0024414-0.0121078
			c0-0.0056057-0.0029259-0.0102501-0.0032005-0.0157871c-0.0000687-0.0013771-0.0000343-0.0029926-0.000103-0.0043697
			l-0.0007553,0.0000343c-0.0110092-0.1810646-0.1578827-0.325634-0.341732-0.325634
			c-0.1909714,0-0.3457565,0.1548195-0.3457565,0.3457565c0,0.0068111,0.0034752,0.0124512,0.0038528,0.0191593
			l-0.0047836,0.0002747c0.0046806,0.0866451,0.0947647,2.1298504-1.6291351,2.7799854l0.000618,0.0016499
			c-0.1307068,0.0493259-0.2246094,0.1733608-0.2246094,0.3213348c0,0.1909714,0.1548195,0.3457565,0.3457909,0.3457565
			c0.0011368,0,0.0020981-0.0006523,0.0032349-0.0006523h5.5008392c0.001133,0,0.0020981,0.0006523,0.0032349,0.0006523
			c0.1909676,0,0.3457909-0.1547852,0.3457909-0.3457565C52.557579,22.513979,52.4636726,22.3900127,52.3329315,22.3406525z
			 M49.323761,4.7702489c1.8261948,0,3.5457611-0.1116176,4.8419342-0.3142495
			c2.005024-0.313458,2.2753487-0.7266667,2.2753487-1.0895875s-0.2703247-0.7761638-2.2753487-1.089622
			c-1.2961731-0.2026315-3.0157394-0.3142492-4.8419342-0.3142492c-1.8261604,0-3.5457268,0.1116177-4.8419342,0.3142492
			c-2.0049896,0.3134582-2.2753143,0.7267015-2.2753143,1.089622s0.2703247,0.7761295,2.2753143,1.0895875
			C45.7780342,4.6586313,47.4976006,4.7702489,49.323761,4.7702489z M49.323761,2.6528504
			c3.4299126,0,5.7745361,0.3966639,6.3409843,0.7135615c-0.5664482,0.3168635-2.9110718,0.7135274-6.3409843,0.7135274
			c-3.4298782,0-5.7745018-0.3966639-6.3409462-0.7135274C43.5492592,3.0495143,45.8938828,2.6528504,49.323761,2.6528504z"/>
        <path class="st0" d="M23.314785,13.223012c-0.0041428,0-0.0075283,0.0022106-0.0116367,0.0023479
			c-1.2883873,0.0064583-2.3348312,1.0554228-2.3348312,2.3452263v4.3945646c0,0.8584423-0.6983776,1.5568542-1.5567837,1.5568542
			c-0.8409328,0-1.5240116-0.671442-1.5516739-1.5057449l0.6704044-0.3179169l0.1267738-0.0513859l0.1109924-0.051939
			c0.6197433-0.2939529,1.000824-0.9476776,0.9525452-1.630722V8.2537699
			c0.0006218-0.0091858,0.0053196-0.0169907,0.0053196-0.0263491c0-0.2187033-0.1772976-0.3959651-0.3959656-0.3959651
			s-0.3959637,0.1772618-0.3959637,0.3959651h-0.003006v9.7517605l0.0012779,0.0319424
			c0.029562,0.3640556-0.1724606,0.71385-0.5026035,0.8704948l-0.2066174,0.0892353l-5.5228186,2.6184216
			c-0.0029354,0.0012093-0.0055256,0.0026951-0.008461,0.0040073L12.68155,21.5981159l0.0007248,0.0015545
			c-0.1335421,0.0636463-0.2275085,0.1973953-0.2275085,0.3551807c0,0.218668,0.1772966,0.3959637,0.3959646,0.3959637
			c0.0608492,0,0.1168623-0.0161953,0.1683874-0.0407486l0.0007248,0.0015182l4.086524-1.9379673
			c0.1945286,1.0990028,1.1511841,1.9379673,2.3051662,1.9379673c1.293808,0,2.3463993-1.0525894,2.3463993-2.3464336v-4.3945646
			c0-0.8570948,0.6963406-1.5542984,1.5529861-1.5564394c0.0013809,0,0.0024853,0.0007944,0.0038662,0.0007944
			c0.218668,0,0.3959656-0.1772966,0.3959656-0.3959646S23.533453,13.223012,23.314785,13.223012z"/>
        <path class="st0" d="M18.9028149,4.7545629L18.794241,4.6846662l-5.4750242-2.6344116l-0.0030041,0.006216
			c-0.0609522-0.0382979-0.1288805-0.0662012-0.2061672-0.0662012c-0.218668,0-0.3959303,0.1772966-0.3959303,0.3959646
			c0,0.1724274,0.1117516,0.3153281,0.2655649,0.3696499l-0.0028315,0.0058708l5.4309597,2.6132767l0.078598,0.0505919
			l0.023138,0.0137792c0.1630001,0.0898914,0.266325,0.1617217,0.3311443,0.2145238l-6.9611168,3.2917285l-0.6980667,0.3616381
			c-0.246295,0.1182089-0.4521856,0.2949877-0.6103849,0.5061617L3.0145011,6.1986976
			c0.0329454-0.0221362,0.0611939-0.0499015,0.09742-0.0676174l0.1561964-0.0637836l7.0741124-3.3526113
			c0.0011396-0.0004489,0.002141-0.0010362,0.0032463-0.0015194l0.0250368-0.0118797l-0.0017958-0.0037987
			c0.1271877-0.0658906,0.2167339-0.1948397,0.2167339-0.3479283c0-0.218668-0.1772614-0.3959645-0.3959646-0.3959645
			c-0.0582237,0-0.1125107,0.0140207-0.1622744,0.0366058L2.9595234,5.3404288L2.8023601,5.4045925L2.782434,5.4133987
			c-0.6196747,0.2939515-1.0007898,0.9476767-0.9525114,1.630652L1.8272635,18.2488899
			c-0.0483129,0.6830788,0.3328022,1.3368721,0.9519933,1.6305485l5.80054,2.762289
			c0.5458412,0.2789993,1.0012388,0.417963,1.3744802,0.417963c0.2414608-0.0000687,0.4486284-0.0581894,0.6236115-0.1742229
			c0.4490089-0.2977161,0.4527035-0.8269463,0.4474201-0.94664V10.9199524l-0.0012779-0.0319433
			c-0.0295954-0.3640556,0.1724625-0.7138834,0.5026054-0.8705282l0.6969957-0.3610859l6.9844275-3.3027444
			c0.2241249-0.0798078,0.482542-0.276443,0.5136566-0.5878344C19.7687511,5.2953277,19.2807198,4.9641829,18.9028149,4.7545629z
			 M10.2367287,21.9782658c0.0001736,0.0017605,0.0015888,0.1849613-0.0951748,0.2491264
			c-0.0464821,0.030838-0.3232708,0.1615486-1.2069216-0.2910862l-5.8164263-2.7700939
			c-0.3302124-0.1565075-0.532166-0.5063705-0.502605-0.8704605l0.0012777-0.0159187L2.6195035,7.0293736L2.6182604,6.9972916
			C2.6152558,6.9602022,2.6244419,6.9247708,2.6261339,6.888165l7.6337328,3.6516395
			c-0.0221357,0.1292601-0.0336361,0.2610407-0.0241737,0.3950319v11.0144548L10.2367287,21.9782658z M5.0989275,13.7512064
			c-1.2330298,0.508234-1.6867695,2.2547121-1.0113916,3.8932028c0.3195758,0.7754917,0.8426938,1.4170952,1.4730048,1.8066711
			c0.4146819,0.2563457,0.8452497,0.3863983,1.2601733,0.3863983c0.2505426,0,0.4954219-0.0474491,0.7276273-0.143177
			c1.2330642-0.5081291,1.686769-2.2546425,1.0114608-3.8931684C7.8845277,14.1626081,6.3319225,13.2427311,5.0989275,13.7512064z
			 M7.2904773,19.0686188c-0.4108486,0.1689739-0.898777,0.1005287-1.3740659-0.1932163
			c-0.5101333-0.3153286-0.9374199-0.8440762-1.2031922-1.4888916c-0.5330982-1.2934628-0.2443957-2.6435623,0.6436067-3.009552
			c0.1517415-0.0625744,0.3112879-0.0923433,0.4742875-0.0923433c0.7906513,0,1.6610069,0.7019691,2.1030049,1.7743826
			C8.4671478,17.3525295,8.1784449,18.7026291,7.2904773,19.0686188z M6.5841227,12.9481573
			c0.1397586,0,0.2788262-0.0262451,0.4126101-0.0814648c0.6793838-0.2799654,0.9299955-1.1824036,0.5706019-2.0544853
			c-0.1636901-0.3971739-0.4336753-0.7270746-0.7602272-0.9288902C6.4510641,9.6632328,6.0528545,9.616785,5.7147689,9.7563705
			c-0.6793838,0.2799997-0.9300647,1.1824026-0.5706024,2.0544853C5.4327655,12.5111666,6.0143838,12.9481573,6.5841227,12.9481573z
			 M5.9726672,10.382123c0.0499015-0.0206165,0.1004586-0.0289392,0.149704-0.0289392
			c0.1330934,0,0.25631,0.0609865,0.3288999,0.1058111c0.2033696,0.1257038,0.3820477,0.3484468,0.4902768,0.6111107h0.0000343
			c0.2076173,0.5038137,0.1147904,1.0399857-0.2027478,1.1708689c-0.317297,0.1308136-0.761229-0.1841345-0.9689841-0.6880169
			C5.5622673,11.0491781,5.655129,10.5129719,5.9726672,10.382123z M11.9134836,3.1441476l1.4923782,4.2032824l0.0125017-0.0044551
			c0.0236206,0.0644746,0.074213,0.1163445,0.1469412,0.1163445c0.0930681,0,0.1685247-0.0754566,0.1685247-0.1685252
			c0-0.0203748-0.0149527-0.0340848-0.0215836-0.052146l0.0125017-0.0044546l-1.4923439-4.2032824l-0.012536,0.0044549
			c-0.0236216-0.0645092-0.0742474-0.116379-0.1469412-0.116379c-0.0930691,0-0.1685257,0.0754564-0.1685257,0.1685596
			c0,0.020375,0.0149536,0.034085,0.0215845,0.0521462L11.9134836,3.1441476z M13.7812099,3.8626235l-0.0124664,0.0044203
			C13.745122,3.8025,13.6944962,3.7506649,13.621767,3.7506649c-0.0930681,0-0.1685247,0.0754561-0.1685247,0.1685593
			c0,0.020375,0.0149879,0.034085,0.0216188,0.0521808l-0.0125704,0.0044549l1.0131874,2.8535631l0.0125351-0.0044551
			c0.0236216,0.0645094,0.074213,0.1163793,0.1469412,0.1163793c0.0930691,0,0.1685257-0.0754566,0.1685257-0.1685252
			c0-0.0203748-0.0149879-0.0340848-0.0216188-0.0521803l0.012536-0.0044551L13.7812099,3.8626235z M15.1677771,4.4526682
			l-0.0125017,0.0044546c-0.0236206-0.0645437-0.0742474-0.1164131-0.1469412-0.1164131
			c-0.0931025,0-0.1685591,0.0754561-0.1685591,0.1685591c0,0.0203753,0.0149879,0.0340853,0.0216179,0.0521808l-0.012536,0.0044551
			l0.6413965,1.8064289l0.0125017-0.0044551c0.0236206,0.0645437,0.0742474,0.1163793,0.1469412,0.1163793
			c0.0931034,0,0.1685591-0.0754566,0.1685591-0.1685252c0-0.0203748-0.014987-0.0341196-0.0216179-0.0522151l0.0125017-0.0044203
			L15.1677771,4.4526682z M16.4694939,4.9909468l-0.0125008,0.0044546
			c-0.0236206-0.0645437-0.0742474-0.1163788-0.1469765-0.1163788c-0.0930672,0-0.1685238,0.0754561-0.1685238,0.1685247
			c0,0.0203753,0.0149879,0.0340848,0.0216179,0.0521808l-0.012537,0.0044546l0.2938499,0.827672l0.0125351-0.0044551
			c0.0236206,0.0645094,0.0742474,0.1163793,0.1469421,0.1163793c0.0930672,0,0.1685581-0.0754566,0.1685581-0.1685252
			c0-0.0203748-0.0149879-0.0340848-0.0216179-0.0521803l0.0125008-0.0044551L16.4694939,4.9909468z"/>
        <path class="st0" d="M47.2961044,11.974453c-0.0073624,0-0.0135193,0.0037498-0.0207748,0.0041971h-0.7788811v-0.1959248
			c0.0004463-0.0072575,0.0041962-0.0134144,0.0041962-0.0207758c0-0.1929655-0.1564369-0.3493681-0.349369-0.3493681
			s-0.3493347,0.1564026-0.3493347,0.3493681c0,0.0073614,0.0037498,0.0135183,0.0041962,0.0207758v1.0495501
			c-0.0004463,0.0072575-0.0041962,0.0134144-0.0041962,0.0207758c0,0.1929312,0.1564026,0.3493338,0.3493347,0.3493338
			s0.349369-0.1564026,0.349369-0.3493338c0-0.0073614-0.0037498-0.0135183-0.0041962-0.0207758v-0.1633167h0.7788811
			c0.0072556,0.0004473,0.0134125,0.0041971,0.0207748,0.0041971c0.1929665,0,0.349369-0.1564369,0.349369-0.349369
			C47.6454735,12.1308556,47.4890709,11.974453,47.2961044,11.974453z M47.2961044,13.9441519
			c-0.0073624,0-0.0135193,0.0037489-0.0207748,0.0041962h-0.7788811v-0.1959238
			c0.0004463-0.0072575,0.0041962-0.0134153,0.0041962-0.0207758c0-0.1929321-0.1564369-0.3493338-0.349369-0.3493338
			s-0.3493347,0.1564016-0.3493347,0.3493338c0,0.0073605,0.0037498,0.0135183,0.0041962,0.0207758v1.0495491
			c-0.0004463,0.0072584-0.0041962,0.0134153-0.0041962,0.0207758c0,0.1929665,0.1564026,0.349369,0.3493347,0.349369
			s0.349369-0.1564026,0.349369-0.349369c0-0.0073605-0.0037498-0.0135174-0.0041962-0.0207758v-0.1633501h0.7787094
			c0.0073242,0.0004473,0.0135155,0.0042305,0.0209465,0.0042305c0.1929665,0,0.349369-0.1564016,0.349369-0.3493681
			C47.6454735,14.1005545,47.4890709,13.9441519,47.2961044,13.9441519z M47.2961044,15.9146757
			c-0.0073624,0-0.0135193,0.0037498-0.0207748,0.0041971h-0.7788811v-0.1959248
			c0.0004463-0.0072575,0.0041962-0.0134144,0.0041962-0.0207758c0-0.1929312-0.1564369-0.3493338-0.349369-0.3493338
			s-0.3493347,0.1564026-0.3493347,0.3493338c0,0.0073614,0.0037498,0.0135183,0.0041962,0.0207758v1.0495491
			c-0.0004463,0.0072594-0.0041962,0.0134163-0.0041962,0.0207767c0,0.1929665,0.1564026,0.3493671,0.3493347,0.3493671
			s0.349369-0.1564007,0.349369-0.3493671c0-0.0073605-0.0037498-0.0135174-0.0041962-0.0207767v-0.1633148h0.7788811
			c0.0072556,0.0004463,0.0134125,0.0041962,0.0207748,0.0041962c0.1929665,0,0.349369-0.1564026,0.349369-0.349369
			C47.6454735,16.0710793,47.4890709,15.9146757,47.2961044,15.9146757z M55.459465,13.7421741l0.0043335-0.0031996
			c-0.6890373-0.933116-1.7921104-1.4902411-2.9507294-1.4902411c-0.3105011,0-0.6190414,0.0389719-0.9171562,0.1157799
			l0.001236,0.0048494c-0.1487999,0.038662-0.2608986,0.1677876-0.2608986,0.3286619
			c0,0.1909361,0.1548195,0.3457565,0.3457909,0.3457565c0.0299606,0,0.0567207-0.0099068,0.084446-0.0170612l0.0016136,0.0062265
			c0.2419128-0.0623274,0.4925652-0.0939035,0.7449684-0.0939035c0.9404755,0,1.8359985,0.4523182,2.395462,1.2099762
			l0.0043678-0.003233c0.0629807,0.0851316,0.159256,0.1439848,0.2732811,0.1439848
			c0.1909714,0,0.3457565-0.1548204,0.3457565-0.3457909C55.5319366,13.8670683,55.5019798,13.7996168,55.459465,13.7421741z
			 M52.9619446,17.8854752c-0.0036774,0-0.0067406,0.0019951-0.0104218,0.0020981
			c-1.3530655-0.0116253-2.4508057-1.1139736-2.4508057-2.4697247v-2.3411493c0-2.2967434,0.6629639-4.2292595,1.9704208-5.743854
			c0.9780388-1.1329966,1.9722099-1.5961494,1.9821167-1.6006899l-0.0034409-0.0075326
			c0.149559-0.0395565,0.262104-0.1697483,0.262104-0.3317575c0-0.1929317-0.1564369-0.3493338-0.349369-0.3493338
			c-0.0726433,0-0.1363144,0.0274143-0.1922073,0.0653882l-0.0024071-0.0053315
			c-0.0452347,0.0204663-1.1195831,0.5154705-2.1952744,1.7504535c-0.9864311,1.1324115-2.1622162,3.1312785-2.1622162,6.2226577
			v2.3411493c0,1.7294369,1.3960609,3.1371956,3.1201668,3.1599998c0.0108337,0.0009975,0.0202255,0.0063286,0.0313339,0.0063286
			c0.1929321,0,0.3493347-0.1564007,0.3493347-0.3493328S53.1548767,17.8854752,52.9619446,17.8854752z"/>
        <path class="st0" d="M97.722435,6.419879c-0.2269974,0-0.411026,0.1840272-0.411026,0.4110289
			c0,0.0020795,0.0011444,0.0037432,0.0011749,0.0058227v11.142807c0,0.9676857-0.7872238,1.7549133-1.7549133,1.7549133H83.1909637
			V2.6867564h12.3667068c0.9676895,0,1.7549133,0.7872283,1.7549133,1.7549145h0.00354
			c0.0127487,0.2155304,0.1875916,0.3877053,0.406311,0.3877053s0.3935318-0.1721749,0.4062805-0.3877053h0.0035019
			c0-0.0039511-0.0011444-0.0075898-0.0011749-0.0115409c0.0001373-0.0041585,0.002388-0.0075898,0.002388-0.0117831
			c0-0.0125804-0.0060272-0.0231509-0.0071411-0.0354195c-0.0320892-1.3919539-1.1691055-2.5158033-2.5686188-2.5158033H82.3712921
			v17.6207447l-1.5205307,1.5750103c-0.0020447-0.0371513-0.0031891-0.0740261-0.0032578-0.1092033V4.4241691
			c0.0000381-0.0020795,0.0011826-0.0037427,0.0011826-0.0058222c0-0.2270017-0.1840286-0.4109945-0.4110336-0.4109945
			c-0.2269974,0-0.4109955,0.1839929-0.4109955,0.4109945c0,0.0021138,0.0011826,0.0038815,0.0012131,0.0059958v16.5293331
			c0,0.6296101,0.1451111,1.0187359,0.4313049,1.1566353c0.0448837,0.0216255,0.1259079,0.0518112,0.2283554,0.0518112
			c0.106636,0,0.2364655-0.0326462,0.3730087-0.141468l1.4194412-1.4665699h13.0776901
			c1.4196472,0,2.5745468-1.1549034,2.5745468-2.5745468V6.8369036c0.0000381-0.0021143,0.0012131-0.0038815,0.0012131-0.0059958
			C98.1334305,6.6039062,97.94944,6.419879,97.722435,6.419879z M84.1764297,9.0834589
			c0.0483093,0,0.092041-0.0195808,0.1237183-0.0512571l0.0004883,0.0004845l5.274826-5.274828l-0.0004807-0.0004852
			c0.0316772-0.0316417,0.0512543-0.0753784,0.0512543-0.1237247c0-0.0966229-0.0783234-0.1749473-0.1749496-0.1749473
			c-0.0483398,0-0.0920486,0.0195811-0.1237183,0.0512919l-0.0004883-0.0004852l-5.2747955,5.2747936l0.0004883,0.0004854
			c-0.0316772,0.0316763-0.0512924,0.0754128-0.0512924,0.123724C84.0014801,9.0051346,84.0798035,9.0834589,84.1764297,9.0834589z
			 M84.1764297,7.3842726c0.0536423,0,0.0972748-0.0269284,0.1293716-0.0649123l0.0045013,0.0045056l3.5637589-3.5637548
			L87.872673,3.7587247c0.0329208-0.0318842,0.0539246-0.0756211,0.0539246-0.1250763
			c0-0.0968657-0.0785294-0.1754324-0.1754303-0.1754324c-0.0494232,0-0.0931931,0.0210021-0.1250763,0.0538912
			l-0.0003815-0.0003812l-3.5637512,3.5637894l0.0044327,0.004436c-0.0379868,0.0320921-0.0649109,0.0757251-0.0649109,0.129374
			C84.0014801,7.3059483,84.0798035,7.3842726,84.1764297,7.3842726z M86.0528488,3.4640384
			c-0.0466156,0-0.088028,0.0197196-0.1193924,0.0494552l-0.00177-0.0017676l-1.8619308,1.861969
			c-0.0350418,0.0319886-0.058609,0.0755868-0.058609,0.1267748c0,0.0966229,0.0783234,0.1749473,0.1749496,0.1749473
			c0.0497284,0,0.093399-0.0215912,0.1252518-0.0549312l0.004158,0.004159l1.864563-1.8645337l-0.0017624-0.0017676
			c0.0297318-0.0313644,0.0494537-0.0727446,0.0494537-0.1193924C86.2277603,3.5423625,86.1494675,3.4640384,86.0528488,3.4640384z
			 M84.1764297,4.2310963c0.0517426,0,0.0953369-0.0243292,0.1273575-0.0600252l0.3987274-0.3987956l-0.0069275-0.0069313
			c0.0400238-0.0314684,0.0692749-0.0745466,0.0692749-0.1294084c0-0.0949249-0.0769348-0.1718974-0.1718597-0.1718974
			c-0.054863,0-0.097908,0.029285-0.1294098,0.0693135l-0.0094299-0.0094268l-0.4018784,0.4019146l0.0047836,0.0047827
			c-0.0336151,0.0318842-0.0555878,0.0755169-0.0555878,0.1255267C84.0014801,4.1527719,84.0798035,4.2310963,84.1764297,4.2310963z
			 M89.4145508,15.2078285h0.3032837c0.9766235,0,1.7712402-0.794611,1.7712402-1.7712727V9.1414738
			c0-0.5247374,0.4268646-0.9516048,0.9515991-0.9516048h0.3031845V8.188344c0.2254715,0,0.4082565-0.1827803,0.4082565-0.4082565
			c0-0.2254772-0.182785-0.408257-0.4082565-0.408257V7.3702364h-0.3031845c-0.9766617,0-1.7712326,0.79461-1.7712326,1.7712374
			v4.2950821c0,0.5247383-0.4268723,0.9516048-0.9516068,0.9516048h-0.3032837
			c-0.6063156,0-1.0996246-0.4933043-1.0996246-1.0996237V13.043479c0-0.6063204,0.493309-1.0996246,1.0996246-1.0996246h0.3032837
			v-0.0099459c0.2098846-0.0169821,0.3766174-0.1876326,0.3766174-0.4018803s-0.1667328-0.3848982-0.3766174-0.4018803v-0.0059261
			h-0.0294266c-0.0007935,0-0.0014191-0.0004501-0.0022125-0.0004501c-0.0008011,0-0.0014267,0.0004501-0.0022202,0.0004501
			h-0.2694244c-1.0582733,0-1.9192581,0.8609781-1.9192581,1.9192572v0.2450581
			C87.4952927,14.3468161,88.3562775,15.2078285,89.4145508,15.2078285z"/>
        <path class="st0" d="M97.9963303,21.2965698l-0.0033951-0.0011425c0.0141754-0.0415878,0.0264053-0.0843887,0.0264053-0.1307602
			c0-0.2270012-0.1840286-0.4110298-0.411026-0.4110298c-0.1806335,0-0.329483,0.1183529-0.3846207,0.280304l-0.0034332-0.0011787
			c-0.2429428,0.7146225-0.9110947,1.1947575-1.66259,1.1947575H82.7871399
			c-0.0021133-0.0000343-0.0038834-0.0012131-0.0059967-0.0012131c-0.2269974,0-0.4109955,0.1840286-0.4109955,0.4110298
			s0.1839981,0.4110298,0.4109955,0.4110298c0.0021133,0,0.0038834-0.0011787,0.0059967-0.0012131h12.7705307
			c1.0881195,0,2.0541763-0.6867237,2.4216461-1.7110748c0.0036697-0.0079365,0.0069962-0.0154915,0.0101852-0.0236702
			C97.9914093,21.3068981,97.9944611,21.3020802,97.9963303,21.2965698z"/>
	</g>
</g>
    <g id="Warstwa_2">
</g>
</svg>
