<?xml version="1.0" encoding="utf-8"?>
<!-- Generator: Adobe Illustrator 26.0.3, SVG Export Plug-In . SVG Version: 6.00 Build 0)  -->
<svg version="1.1" xmlns="http://www.w3.org/2000/svg" xmlns:xlink="http://www.w3.org/1999/xlink" x="0px" y="0px"
	 viewBox="0 0 100 25" style="enable-background:new 0 0 100 25;" xml:space="preserve">
<style type="text/css">
	.st0{fill:#333333;}
	.st1{fill:#E6E6E6;}
	.st2{clip-path:url(#SVGID_00000178200985933476659120000002803037195439402430_);}
	.st3{clip-path:url(#SVGID_00000070812280117873339990000005026542834287546512_);}
	.st4{clip-path:url(#SVGID_00000022553219071741858820000001628814535383786672_);}
	.st5{fill:#FFFFFF;}
</style>
<g id="Warstwa_1">
</g>
<g id="Warstwa_2">
	<path d="M4.6294107,20.3543892h16.6280746c0.5289001,0,0.9593124-0.4438629,0.9593124-0.9892902V2.8769224
		c0-0.5454288-0.4304123-0.9892905-0.9593124-0.9892905H4.6294107c-0.5289006,0-0.959312,0.4438617-0.959312,0.9892905V19.365099
		C3.6700988,19.9105263,4.1005101,20.3543892,4.6294107,20.3543892z M4.3096404,2.8769224
		c0-0.1820295,0.1438966-0.3297634,0.3197703-0.3297634h16.6280746c0.1758728,0,0.3197708,0.1477339,0.3197708,0.3297634V19.365099
		c0,0.1820278-0.143898,0.3297634-0.3197708,0.3297634H4.6294107c-0.1758738,0-0.3197703-0.1477356-0.3197703-0.3297634V2.8769224z
		 M15.1818438,9.1424294c0.7054138,0,1.2790823-0.5915956,1.2790823-1.3190541s-0.5736685-1.3190541-1.2790823-1.3190541
		c-0.7054148,0-1.2790833,0.5915956-1.2790833,1.3190541S14.476429,9.1424294,15.1818438,9.1424294z M15.1818438,7.1638484
		c0.3530264,0,0.6395407,0.2961278,0.6395407,0.6595268s-0.2865143,0.6595273-0.6395407,0.6595273
		c-0.3530273,0-0.6395416-0.2961283-0.6395416-0.6595273S14.8288164,7.1638484,15.1818438,7.1638484z M5.9084935,17.0567532
		h14.06991c0.1765137,0,0.3197708-0.1477337,0.3197708-0.3297634V4.1959767c0-0.1820297-0.1432571-0.3297637-0.3197708-0.3297637
		h-14.06991c-0.1765132,0-0.3197703,0.1477339-0.3197703,0.3297637v12.5310135
		C5.5887232,16.9090195,5.7319803,17.0567532,5.9084935,17.0567532z M6.2282643,16.3972263v-3.0588865
		c0.01407-0.0105524,0.0300584-0.0164881,0.0428491-0.0296783l3.2718945-3.3741407
		c0.1662807-0.1714773,0.4553528-0.1708174,0.6216345,0l4.8099899,4.9603033
		c0.0626745,0.0646334,0.144536,0.0962906,0.2263975,0.0962906c0.0793037,0,0.1586065-0.0303373,0.2206421-0.0910149
		l2.4724665-2.4217834c0.0831394-0.0857391,0.1937809-0.1332245,0.3108158-0.1332245
		c0.1176758,0,0.2270374,0.0474854,0.2967491,0.1173954l1.156929,1.3579664v2.5767727H6.2282643L6.2282643,16.3972263z
		 M19.6586323,4.5257401v8.2975101l-0.6913433-0.8098993c-0.202734-0.2103891-0.4738998-0.3264656-0.761694-0.3264656
		c-0.000639,0-0.000639,0-0.000639,0c-0.2884331,0-0.5595989,0.1160765-0.7578564,0.3205299l-2.2409525,2.1949053
		l-4.5893488-4.7334251c-0.4086676-0.4207792-1.1185579-0.4201193-1.5259457,0l-2.862587,2.9520426V4.5257406h13.4303684
		L19.6586323,4.5257401z M6.5480351,21.0686569c-0.1765137,0-0.3197708,0.1477337-0.3197708,0.3297634v0.6047859
		c0,0.5454292,0.4304113,0.9892902,0.959312,0.9892902h16.6280766c0.5289001,0,0.9593105-0.443861,0.9593105-0.9892902V4.8555036
		c0-0.5454288-0.4304104-0.9892905-0.9593105-0.9892905h-0.5864601c-0.1765137,0-0.3197708,0.1477339-0.3197708,0.3297637
		c0,0.1820292,0.1432571,0.3297634,0.3197708,0.3297634h0.5864601c0.1758728,0,0.3197689,0.1477342,0.3197689,0.3297634v17.1477032
		c0,0.1820297-0.1438961,0.3297634-0.3197689,0.3297634H7.1875763c-0.1758738,0-0.3197708-0.1477337-0.3197708-0.3297634v-0.6047859
		C6.8678055,21.2163906,6.7245483,21.0686569,6.5480351,21.0686569z"/>
	<path d="M61.63274,11.1290359H37.3154297c-0.1012115,0-0.1971664,0.0466623-0.2596054,0.1261873
		c-0.0624352,0.079524-0.0841217,0.1833658-0.0598068,0.281949l2.632843,10.5267658
		c0.0630951,0.2214851,0.2569733,0.8951397,0.9726906,0.8951397h17.7450676c0.7183418,0,0.9102516-0.6743126,0.9759789-0.9063129
		l2.6288948-10.5155926c0.0243187-0.0979271,0.0026321-0.202425-0.0598068-0.281949
		C61.8299065,11.1756983,61.7339516,11.1290359,61.63274,11.1290359z M58.6883736,21.8832016
		c-0.1196136,0.4186516-0.2431717,0.4186516-0.3417549,0.4186516H40.6015511c-0.0979233,0-0.2208252,0-0.3384705-0.4081364
		l-2.526371-10.1074572h23.4754066L58.6883736,21.8832016L58.6883736,21.8832016z M47.8310242,20.3301792
		c0.1813927,0,0.3286133-0.1472187,0.3286133-0.3286114v-5.9150219c0-0.1813936-0.1472206-0.3286123-0.3286133-0.3286123
		s-0.3286133,0.1472187-0.3286133,0.3286123v5.9150219C47.5024109,20.1829605,47.6496315,20.3301792,47.8310242,20.3301792z
		 M43.2297935,20.3301792c0.0124893,0,0.0243187-0.0006561,0.0374603-0.0019722
		c0.1800804-0.0203724,0.3102112-0.1827068,0.2898369-0.3627872l-0.6572227-5.9150209
		c-0.0197182-0.1807365-0.1774521-0.308238-0.3634453-0.290493c-0.1800804,0.0203743-0.3102112,0.1827078-0.2898369,0.3627882
		l0.6572266,5.9150219C42.9222145,20.205965,43.0648308,20.3301792,43.2297935,20.3301792L43.2297935,20.3301792z
		 M51.7743721,20.3301792c0.1813927,0,0.3286095-0.1472187,0.3286095-0.3286114v-5.9150219
		c0-0.1813936-0.1472168-0.3286123-0.3286095-0.3286123c-0.1813965,0-0.3286133,0.1472187-0.3286133,0.3286123v5.9150219
		C51.4457588,20.1829605,51.5929756,20.3301792,51.7743721,20.3301792z M55.6809158,20.328207
		c0.0131416,0.0013161,0.024971,0.0019722,0.0374603,0.0019722c0.1649628,0,0.307579-0.1242142,0.3259811-0.2924633
		l0.6572266-5.9150219c0.0197182-0.1800804-0.1097565-0.3424139-0.2898369-0.3627882
		c-0.1886215-0.0184021-0.343071,0.1097565-0.3634453,0.290493l-0.6572227,5.9150209
		C55.3713608,20.1455002,55.5008354,20.3078346,55.6809158,20.328207z M58.3466187,9.8145866
		c0.0762367,0,0.1524734-0.026289,0.2149086-0.0801811c0.1373596-0.1189575,0.1518211-0.325984,0.0335197-0.4633436
		l-6.2436333-7.2294707c-0.1189575-0.1380171-0.325985-0.1518188-0.4633446-0.0341756
		c-0.1373596,0.1189578-0.1518173,0.3259835-0.0335197,0.4633434l6.2436333,7.2294707
		c0.0650673,0.0755806,0.1564217,0.114357,0.2484322,0.114357H58.3466187z M47.3814812,2.0021574
		c-0.1399879-0.1136998-0.3470154-0.0946403-0.4620285,0.046663l-5.91502,7.2294703
		c-0.1150169,0.1399889-0.0946426,0.3470144,0.0460052,0.4626865c0.0611229,0.0492916,0.1353874,0.0736094,0.2083397,0.0736094
		c0.0952988,0,0.1892815-0.0407476,0.2543449-0.1209288l5.9150238-7.2294707
		c0.1150131-0.1399889,0.0939827-0.3470147-0.0466652-0.462029V2.0021574z M62.9471893,8.5001373h-2.6288986
		c-0.1813965,0-0.3286133,0.1472178-0.3286133,0.3286123c0,0.1813936,0.1472168,0.3286123,0.3286133,0.3286123h2.6288986
		c0.1813927,0,0.3286133-0.1472187,0.3286133-0.3286123C63.2758026,8.6473551,63.128582,8.5001373,62.9471893,8.5001373z
		 M44.544899,9.157362h10.5155945c0.1813927,0,0.3286133-0.1472187,0.3286133-0.3286123
		c0-0.1813946-0.1472206-0.3286123-0.3286133-0.3286123H44.544899c-0.1813927,0-0.3286095,0.1472178-0.3286095,0.3286123
		C44.2162895,9.0101433,44.3635063,9.157362,44.544899,9.157362z M36.0009804,9.157362h3.2861214
		c0.1813965,0,0.3286133-0.1472187,0.3286133-0.3286123c0-0.1813946-0.1472168-0.3286123-0.3286133-0.3286123h-3.2861214
		c-0.1813927,0-0.3286133,0.1472178-0.3286133,0.3286123C35.6723671,9.0101433,35.8195877,9.157362,36.0009804,9.157362z"/>
	<path d="M93.7516098,6.8362994c0.1803131,0,0.3266449-0.146337,0.3266449-0.3266454v-1.087729
		c0-0.5899215-0.4801712-1.0700903-1.0700912-1.0700903h-1.755394l-0.4004669-1.1818032
		c-0.0561829-0.1665893-0.2351837-0.2593565-0.4043808-0.2077465l-9.5073471,2.8901587
		c-0.1724701,0.0529165-0.2698059,0.2351847-0.2175446,0.4076533c0.0431137,0.1411109,0.1724701,0.2312651,0.3129272,0.2312651
		c0.0313568,0,0.0633698-0.0045729,0.0953827-0.0137191l9.2042084-2.7986977l0.8773727,2.5902979
		c0.0581436,0.1711621,0.2449875,0.2639294,0.4141846,0.2044802c0.1711655-0.0574894,0.2626266-0.2436776,0.204483-0.4141865
		l-0.3573532-1.0550647h1.534584c0.2299576,0,0.4168015,0.1868415,0.4168015,0.4167995V6.509654
		C93.4249649,6.6899624,93.5713043,6.8362994,93.7516098,6.8362994z M96.3588943,11.735981
		c-0.1803055,0-0.3266449,0.1463366-0.3266449,0.3266449s0.1463394,0.3266459,0.3266449,0.3266459
		c0.2293091,0,0.3266449,0.0973406,0.3266449,0.3266449v3.9197454c0,0.2293053-0.0973358,0.3266449-0.3266449,0.3266449h-5.226326
		c-0.2293015,0-0.3266449-0.0973396-0.3266449-0.3266449v-3.2664547c0-0.2293043,0.0973434-0.3266449,0.3266449-0.3266449h3.9197464
		c0.1803055,0,0.3266449-0.1463375,0.3266449-0.3266459V8.7961721c0-0.5951481-0.3847885-0.9799361-0.9799347-0.9799361H74.4736557
		c-0.8055115,0-1.3065872-0.5010743-1.3065872-1.306582s0.5010757-1.3065815,1.3065872-1.3065815h3.3161011l-1.97686,0.6519842
		c-0.1711578,0.0561829-0.2645798,0.2410645-0.2083969,0.4122267c0.0450745,0.1371913,0.1731186,0.2240787,0.3103104,0.2240787
		c0.0339737,0,0.0679474-0.0052261,0.1025696-0.0163321l11.8369751-3.9021063
		c0.1711578-0.0568364,0.2645798-0.2410643,0.2077484-0.4128797c-0.0561829-0.1711624-0.241066-0.2645829-0.4128799-0.2077466
		L79.7444,4.5589275c-0.0150223-0.0026131-0.0287399-0.0091457-0.0444183-0.0091457h-5.2263336
		c-1.1719971,0-1.9598694,0.7878685-1.9598694,1.9598722v14.3723974c0,1.1720047,0.7878723,1.9598732,1.9598694,1.9598732H94.399025
		c0.5951462,0,0.9799347-0.3847885,0.9799347-0.9799366v-3.2664528c0-0.1803093-0.1463394-0.3266468-0.3266449-0.3266468
		c-0.1803131,0-0.3266449,0.1463375-0.3266449,0.3266468v3.2664528c0,0.2293053-0.0973434,0.3266468-0.3266449,0.3266468H74.4736557
		c-0.8055115,0-1.3065872-0.5010757-1.3065872-1.3065834V8.0200624c0.335144,0.2828751,0.7787247,0.4494638,1.3065872,0.4494638
		H94.399025c0.2293015,0,0.3266449,0.0973406,0.3266449,0.3266459v3.5930996h-3.5931015
		c-0.5951462,0-0.9799347,0.3847885-0.9799347,0.9799356v3.2664547c0,0.5951481,0.3847885,0.9799366,0.9799347,0.9799366h5.226326
		c0.5951462,0,0.9799347-0.3847885,0.9799347-0.9799366v-3.9197454C97.338829,12.1207685,96.9540405,11.735981,96.3588943,11.735981
		z M92.7657928,15.0024347c0,0.3607998,0.2924957,0.6532907,0.6532898,0.6532907
		c0.3608017,0,0.6532974-0.292491,0.6532974-0.6532907s-0.2924957-0.6532907-0.6532974-0.6532907
		C93.0582886,14.349144,92.7657928,14.6416349,92.7657928,15.0024347z"/>
</g>
</svg>
