<?xml version="1.0" encoding="utf-8"?>
<!-- Generator: Adobe Illustrator 26.0.1, SVG Export Plug-In . SVG Version: 6.00 Build 0)  -->
<svg version="1.1" xmlns="http://www.w3.org/2000/svg" xmlns:xlink="http://www.w3.org/1999/xlink" x="0px" y="0px"
     viewBox="0 0 100 25" style="enable-background:new 0 0 100 25;" xml:space="preserve">
<style type="text/css">
	.st0{fill:#333333;}
	.st1{fill:#E6E6E6;}
	.st2{clip-path:url(#SVGID_00000001638563432863258480000010247824994080625057_);}
	.st3{clip-path:url(#SVGID_00000125562054755177878160000011484946506710950275_);}
	.st4{clip-path:url(#SVGID_00000167377976542342429350000008161648731360055435_);}
	.st5{fill:#FFFFFF;}
</style>
    <g id="Warstwa_2">
	<path class="st0" d="M29.6408043,19.4406338c0.3640156,0,0.6618462,0.2978306,0.6618462,0.6618462v2.206152
		c0,0.3640137-0.2978306,0.6618443-0.6618462,0.6618443H2.7257531c-0.3640151,0-0.6618457-0.2978306-0.6618457-0.6618443V2.4532647
		c0-0.3640149,0.2978306-0.6618456,0.6618457-0.6618456h2.2061517c0.3640151,0,0.6618457,0.2978307,0.6618457,0.6618456v16.9873695
		H29.6408043z M22.6197281,7.0586066l-4.6715279,3.1161895l-4.7046185-6.2709866
		c-0.2812853-0.375046-0.8548841-0.3474691-1.0975599,0.0551536l-4.7873502,7.9807539v5.7359953h21.1790581L23.5794029,7.3178291
		C23.4029102,6.9593296,22.9506512,6.8379912,22.6197281,7.0586066z"/>
        <path class="st0" d="M93.3962936,9.3577452h-0.7566299l-5.1441574-6.4304314
		c-0.574501-0.7178662-1.4440765-1.1357799-2.3635254-1.1358947H75.0162735c-1.2375641,0-2.3502884,0.7533222-2.8099442,1.9024578
		l-2.2656403,5.7707415c-1.303299,0.3376474-2.2698975,1.5109015-2.2698975,2.9196568v5.2964268
		c0,0.4180393,0.3385925,0.7566338,0.7566299,0.7566338h2.2698975c0,2.5072899,2.0325089,4.5397949,4.5397949,4.5397949
		c2.5072937,0,4.5397949-2.032505,4.5397949-4.5397949h6.0530624c0,2.5072899,2.0325012,4.5397949,4.5397949,4.5397949
		s4.5397949-2.032505,4.5397949-4.5397949h2.2698975c0.418045,0,0.7566376-0.3385944,0.7566376-0.7566338v-3.7831621
		C97.9360962,11.3902493,95.9035873,9.3577452,93.3962936,9.3577452z M75.237114,20.7072334
		c-1.2517548,0-2.2698975-1.0181446-2.2698975-2.2698975c0-1.2517548,1.0181427-2.2698975,2.2698975-2.2698975
		s2.2698975,1.0181427,2.2698975,2.2698975C77.5070114,19.6890888,76.4888687,20.7072334,75.237114,20.7072334z
		 M78.6419601,9.3577452h-5.4416046l1.815918-4.5397959h3.6256866V9.3577452z M80.9118576,9.3577452V4.8179493h4.2201233
		l3.6318359,4.5397959H80.9118576z M90.3697662,20.7072334c-1.2517548,0-2.2698975-1.0181446-2.2698975-2.2698975
		c0-1.2517548,1.0181427-2.2698975,2.2698975-2.2698975s2.2698975,1.0181427,2.2698975,2.2698975
		C92.6396637,19.6890888,91.621521,20.7072334,90.3697662,20.7072334z"/>
        <path class="st0" d="M38.3971901,18.5567932v1.7663021c0,1.4601955,3.5574226,2.6473808,7.9421463,2.6473808
		s7.9421501-1.1871853,7.9421501-2.6473808v-1.7663021c-1.7083893,1.2037315-4.8314743,1.7663021-7.9421501,1.7663021
		C43.2286644,20.3230953,40.1055794,19.7605247,38.3971901,18.5567932z M51.6341019,7.0861835
		c4.3847275,0,7.9421463-1.1871853,7.9421463-2.6473823s-3.5574188-2.6473823-7.9421463-2.6473823
		s-7.9421463,1.1871854-7.9421463,2.6473823S47.2493744,7.0861835,51.6341019,7.0861835z M38.3971901,14.2175694v2.1344509
		c0,1.4601974,3.5574226,2.6473827,7.9421463,2.6473827s7.9421501-1.1871853,7.9421501-2.6473827v-2.1344509
		c-1.7083893,1.4064217-4.8356094,2.1344509-7.9421501,2.1344509C43.2327995,16.3520203,40.1055794,15.623991,38.3971901,14.2175694
		z M55.605175,14.6725874c2.3702354-0.4591551,3.9710732-1.3112812,3.9710732-2.2916393v-1.7663002
		c-0.9596748,0.6783915-2.3702316,1.1416836-3.9710732,1.427104V14.6725874z M46.3393364,8.4098749
		c-4.3847237,0-7.9421463,1.4808788-7.9421463,3.309227s3.5574226,3.3092279,7.9421463,3.3092279
		s7.9421501-1.4808788,7.9421501-3.3092279S50.7240639,8.4098749,46.3393364,8.4098749z M55.410759,10.7387438
		c2.4819183-0.4467459,4.1654892-1.3236914,4.1654892-2.3288689V6.6435742
		c-1.4684677,1.0382705-3.9917564,1.5967021-6.6474113,1.7290721C54.1491165,8.9641705,55.0467453,9.7583847,55.410759,10.7387438z"
        />
</g>
</svg>
