<?xml version="1.0" encoding="utf-8"?>
<!-- Generator: Adobe Illustrator 26.0.1, SVG Export Plug-In . SVG Version: 6.00 Build 0)  -->
<svg version="1.1" xmlns="http://www.w3.org/2000/svg" xmlns:xlink="http://www.w3.org/1999/xlink" x="0px" y="0px"
     viewBox="0 0 100 25" style="enable-background:new 0 0 100 25;" xml:space="preserve">
<style type="text/css">
	.st0{fill:#333333;}
	.st1{fill:#E6E6E6;}
	.st2{clip-path:url(#SVGID_00000065777849654029431720000011422201103831992475_);}
	.st3{clip-path:url(#SVGID_00000000912317741116069380000007586723402050820737_);}
	.st4{clip-path:url(#SVGID_00000170277303860925178350000001393091113098102968_);}
	.st5{fill:#FFFFFF;}
</style>
    <g id="Warstwa_1">
	<g>
		<g>
			<defs>
				<path id="SVGID_1_" d="M21.4582253,8.4121418l-1.8096981-3.0292296l-3.0976048-2.1830454l-3.6596813-0.582222
					L9.9920568,2.7420681L7.0967441,4.392036L6.4036226,4.8446331L4.8857403,6.739522L3.7113054,8.8785667L3.021189,10.8242044
					L2.6258388,12.482008l-0.186872,2.4732018l0.3980577,1.524868l1.0068402,2.0793648l2.0329854,1.8446178l1.9961901,1.0387688
					l2.9111109,0.7871723l2.0239153,0.4881706h1.9684658l2.4397879-0.9149208l2.6736889-1.9684658l1.3741417-2.6061363
					l0.942646-2.6168661v-2.5954094L21.4582253,8.4121418z M20.016531,14.611783l-0.9149208,2.4505167l-1.0258198,1.524868
					l-1.8948479,1.3690338l-1.6816597,0.710331l-2.0670052,0.1663494l-1.8976498-0.4288216l-2.2734394-0.8187981l-2.05164-1.3585186
					l-1.5721002-2.0125771l-0.4240899-2.4870205v-1.7384968l1.3009567-3.0198069l1.5269794-2.2201929l0.7762961-0.8594708
					l1.8852911-1.0445457l2.9665604-0.3416977l2.8556614,0.5822225l2.7054358,1.7926908l1.4255695,2.3660393l0.5544968,2.7447615
					L20.016531,14.611783z"/>
			</defs>
            <clipPath id="SVGID_00000091719548422255216970000015364444145730550701_">
				<use xlink:href="#SVGID_1_" style="overflow:visible;"/>
			</clipPath>
            <g style="clip-path:url(#SVGID_00000091719548422255216970000015364444145730550701_);">
				<path class="st0" d="M5.6895137,3.5476489C2.9493024,6.7742429,0.3533977,10.1222-2.0891883,13.5795736
					c-0.1437407,0.2034588,0.1852278,0.4600344,0.3473589,0.2680149c2.8409667-3.3646822,6.0090508-6.4502811,9.4527473-9.1953297
					c0.9873929-0.7870734,1.9980559-1.5443461,3.0285077-2.2740908c-0.0893383-0.1157863-0.1786766-0.2315726-0.2680149-0.3473589
					C7.151927,4.9018464,4.0516467,8.0242682,1.2097667,11.368968c-0.8087657,0.9518623-1.5960772,1.9217072-2.3629177,2.9076424
					c-0.1701822,0.2188044,0.1228529,0.5323381,0.3127766,0.3127766c2.8230829-3.2636347,5.730525-6.4842806,9.0618687-9.2421207
					c0.9484625-0.7851815,1.9310942-1.5276506,2.9487648-2.2208638c-0.0893383-0.1157863-0.1786766-0.2315726-0.2680149-0.3473589
					c-3.2384501,3.2854655-6.2823448,6.761447-9.1071825,10.4087839c-0.7915026,1.0219612-1.5662752,2.0566683-2.3240368,3.1038923
					c-0.1457509,0.2014275,0.1914887,0.4652672,0.3473591,0.2680149c2.9368725-3.7165556,6.165473-7.2007389,9.6530638-10.4064178
					c0.989295-0.9093275,1.9994211-1.7956953,3.0283146-2.6599431c-0.1042595-0.1042588-0.208518-0.2085176-0.3127766-0.3127766
					C10.5587664,4.9145093,8.9836569,6.6979842,7.466948,8.5302763c-1.4911108,1.8013697-2.9765391,3.6338377-4.296134,5.5661192
					c-0.7160459,1.0485048-1.3507847,2.1471367-1.8273474,3.3259087c-0.1008832,0.2495327,0.2689235,0.3563576,0.4042369,0.1704216
					c3.0980165-4.2570372,6.6701355-8.1663389,10.6296349-11.6366119c1.1140079-0.9763637,2.2584877-1.9180064,3.4315729-2.8225408
					C15.719573,3.0177863,15.6302347,2.902,15.5408964,2.7862136C11.9185486,6.5444098,8.2727995,10.3351984,5.356493,14.6850338
					c-0.8127632,1.2122822-1.5628932,2.465683-2.2354259,3.7611809c-0.1105597,0.2129707,0.1719615,0.4637413,0.3473589,0.2680149
					c3.7746413-4.2121315,7.5608044-8.4365349,11.7854471-12.2084351c1.186326-1.0591903,2.4064283-2.0801086,3.664464-3.0531518
					c-0.1042595-0.1042588-0.2085171-0.2085178-0.3127766-0.3127766
					c-4.1988945,4.0212307-8.0818291,8.3670197-11.6082048,12.9893064
					c-1.0011864,1.3123302-1.9725437,2.6471844-2.9150314,4.0022717c-0.1419964,0.2041588,0.1861835,0.4613972,0.3473592,0.2680149
					c3.848618-4.6176691,7.7679791-9.2395334,12.418541-13.0801344c1.3281403-1.0968261,2.7146111-2.1213059,4.1612358-3.0566359
					c-0.0893383-0.1157866-0.1786766-0.2315726-0.2680149-0.3473592
					c-4.0709572,4.2695298-8.1501713,8.5483875-11.8023596,13.1884289
					c-1.0292292,1.3076172-2.0236588,2.6423645-2.9732509,4.0089874c-0.1429305,0.2057018,0.180079,0.4542999,0.3473592,0.2680149
					c3.8625708-4.301405,7.7375231-8.6152782,12.0666256-12.458683c1.2323456-1.0940843,2.5003281-2.1482859,3.8101196-3.1485376
					c-0.0893383-0.1157866-0.1786766-0.2315726-0.2680149-0.3473592
					c-4.1001091,4.0615277-8.0522642,8.2931366-11.5048037,12.9260998c-0.9785233,1.3130798-1.9140902,2.657795-2.8001847,4.0349789
					c-0.1333494,0.2072544,0.188282,0.46595,0.3473587,0.2680168c3.8864474-4.8357697,8.6106853-8.9162598,13.4397049-12.7779541
					c1.3567829-1.0849991,2.7258892-2.1544518,4.0959682-3.2225718c-0.1042576-0.104259-0.2085171-0.2085176-0.3127766-0.3127766
					c-4.7300453,4.5816236-9.594965,9.0560684-13.8857851,14.063633c-1.0473843,1.2223415-2.4820595,2.5837593-2.3358088,4.3376026
					c0.014986,0.1797104,0.2370138,0.3060341,0.3775549,0.1563873c4.2882624-4.566103,8.5908232-9.1459627,13.3826437-13.1942291
					c1.3733711-1.160264,2.7859726-2.273325,4.2434082-3.3262243c-0.0893383-0.1157866-0.1786766-0.2315731-0.2680149-0.3473587
					c-4.1400871,4.1962032-8.0850315,8.5840006-11.8156509,13.1481619c-1.0595474,1.2962837-2.101367,2.6069736-3.126339,3.9307575
					c-0.1709661,0.2208099,0.1325293,0.5361824,0.3127766,0.3127766c2.2833271-2.8300323,4.7234974-5.5324345,7.3090897-8.0893555
					c2.5853825-2.5567112,5.3141651-4.9682989,8.1694412-7.2196054c1.6241341-1.2805872,3.2909145-2.5066347,4.9939308-3.6802044
					c-0.0893364-0.1157866-0.1786766-0.2315726-0.268013-0.3473592c-0.5020943,0.4591293-1.0013618,0.9213729-1.5001736,1.384058
					c-1.2470398,1.1567187-2.4878845,2.3201327-3.7224483,3.4901567c-1.6051445,1.5212326-3.1998901,3.0535555-4.7776146,4.6032324
					c-1.5787735,1.5507107-3.143116,3.1171551-4.6656723,4.7232838c-1.1789017,1.2436104-2.3549519,2.5049019-3.3988514,3.8659077
					c-0.0926752,0.1208267-0.1839161,0.2427177-0.2733479,0.3659668c-0.1674061,0.2307072,0.216176,0.4517002,0.3819418,0.2232533
					c0.9451466-1.3025436,2.0546808-2.491848,3.1529226-3.6646786c1.4845543-1.5853767,3.0151234-3.1275997,4.5602379-4.6537743
					c1.5846195-1.5651989,3.1878948-3.1114807,4.8020115-4.6462135c1.2954998-1.2317867,2.5982094-2.4560032,3.9075642-3.6730509
					c0.4113178-0.3823199,0.8232975-0.7639256,1.2361584-1.144577c0.1919479-0.1769729,0.4089012-0.3446031,0.5849152-0.537786
					c0.0075417-0.0082765,0.0168495-0.015429,0.0251312-0.0230017c0.1825981-0.1669707-0.0592003-0.4912548-0.268013-0.3473587
					c-3.0095539,2.0739179-5.903677,4.3150687-8.6624184,6.7126431c-2.7567406,2.3958349-5.3785248,4.9469519-7.8483601,7.6376028
					c-1.4003735,1.5255737-2.7508831,3.0964165-4.0512085,4.7080841c0.1042585,0.1042595,0.2085171,0.208519,0.3127766,0.3127766
					c3.608861-4.6609612,7.433548-9.1539688,11.4615135-13.4579887c1.1439972-1.2223997,2.3046284-2.4291449,3.4804764-3.6209307
					c0.1700516-0.1723576-0.0582676-0.498888-0.2680149-0.3473597c-5.1278324,3.7045135-9.6676483,8.1332493-14.0323582,12.6929855
					c-1.2359076,1.2911301-2.4596672,2.5938091-3.683217,3.8966331c0.1258516,0.0521297,0.2517033,0.1042595,0.3775549,0.1563892
					c-0.1330175-1.5951538,1.1887207-2.8343353,2.1408148-3.9483585c1.0361948-1.2124271,2.1091423-2.3931351,3.204978-3.5518131
					c2.2079334-2.3345509,4.5078907-4.5798521,6.8212738-6.8091888c1.3077793-1.2602663,2.6204205-2.5154824,3.9249706-3.779098
					c0.2104301-0.203826-0.0949364-0.4826055-0.3127766-0.3127766c-4.8847713,3.808187-9.7851887,7.6473937-14.0965061,12.1119976
					c-1.202549,1.245306-2.3545914,2.5390301-3.4391665,3.8885288c0.1157866,0.0893383,0.2315726,0.1786766,0.3473592,0.2680149
					c3.1145296-4.840662,6.8482943-9.2447557,10.8191633-13.4001884c1.1217346-1.1738729,2.2631683-2.3287306,3.4166603-3.4713683
					c0.1723633-0.1707416-0.0634117-0.5036101-0.2680168-0.3473592c-4.6300488,3.5358419-8.7148685,7.7062902-12.6395712,11.9952793
					c-1.1165056,1.2201366-2.2216921,2.4505615-3.3266954,3.6811066c0.1157866,0.0893383,0.2315726,0.1786766,0.3473592,0.2680149
					c3.3586097-4.8336029,7.2802062-9.2379799,11.3041897-13.5216894c1.1281757-1.2009935,2.2651711-2.3936548,3.402256-3.5862041
					c0.1680737-0.1762729-0.0503883-0.4880676-0.2680149-0.3473589c-5.108614,3.3030279-9.3781109,7.6942263-13.3401146,12.2695208
					c-1.124999,1.2991409-2.2289367,2.6163063-3.329186,3.9364147c0.1157866,0.0893383,0.2315726,0.1786766,0.3473592,0.2680149
					c3.3075304-4.7554903,6.9832544-9.2518883,10.9885073-13.4368324c1.1296453-1.1803255,2.2856169-2.3352008,3.4655638-3.4652226
					c0.2118244-0.2028613-0.0947227-0.4814332-0.3127766-0.3127766c-4.4797621,3.4649255-8.4388294,7.5351534-12.2482376,11.7104788
					c-1.0742054,1.1773891-2.1380301,2.3641853-3.2016733,3.5511074c0.1157863,0.0893402,0.2315726,0.1786785,0.3473589,0.2680168
					c2.3963223-4.6160269,5.7750583-8.6083612,9.3115673-12.3857431c1.0028944-1.0712028,2.0207787-2.1282282,3.0390968-3.1847365
					c0.1665354-0.1727805-0.0621929-0.5060627-0.2680149-0.3473589C11.3593216,6.0104437,7.4971948,9.7310772,4.0975437,13.8458214
					c-0.946784,1.1459332-1.8571358,2.3217831-2.731782,3.5236492c0.1347456,0.0568085,0.2694912,0.113615,0.4042369,0.1704216
					c0.8498147-2.1020041,2.2452552-3.9278345,3.6202033-5.7090712C6.8106141,9.9906864,8.28901,8.1950388,9.8205347,6.4463229
					c0.8757305-0.9999218,1.7693501-1.9840088,2.6792278-2.95295c0.1976986-0.2105322-0.0971041-0.4939373-0.3127766-0.3127766
					C8.5598955,6.227272,5.1737981,9.5585985,2.073822,13.1404724c-0.8793435,1.0160389-1.7351147,2.0522137-2.5682147,3.1064854
					c0.1157864,0.0893383,0.2315727,0.1786785,0.3473591,0.2680168c2.683265-3.7082663,5.5851779-7.2568045,8.68888-10.6211481
					c0.8753529-0.948864,1.7669334-1.8826084,2.6731749-2.8020065c0.1709414-0.1734231-0.0546007-0.4927316-0.2680149-0.3473592
					C7.3432245,5.1992702,4.2198,8.2680674,1.3028345,11.4912329c-0.8306363,0.9178305-1.6461598,1.8491755-2.4559855,2.7853775
					c0.1042588,0.1042585,0.2085177,0.2085171,0.3127766,0.3127766c2.6944854-3.4643297,5.6514163-6.7228284,8.8437653-9.7348394
					c0.9085045-0.8571825,1.8360834-1.6938756,2.7807961-2.5109622c0.1877365-0.1623743-0.0621119-0.4931757-0.2680149-0.3473591
					C6.8935461,4.5616937,3.5225489,7.4784737,0.472816,10.7044811c-0.8690996,0.9193335-1.7112632,1.863718-2.527422,2.8303308
					c0.1157863,0.0893393,0.2315726,0.1786776,0.3473591,0.2680159c2.4209826-3.426795,4.9935632-6.7443476,7.709537-9.9424019
					C6.1855464,3.6446416,5.8741245,3.3302698,5.6895137,3.5476489L5.6895137,3.5476489z"/>
			</g>
		</g>
        <path class="st0" d="M22.2177258,9.0143604c-0.2298412-0.641921-0.5353775-1.2576466-0.8218307-1.8781929
			c-0.6242371-1.3523231-1.5772457-2.433816-2.8115902-3.2505617c-1.9014626-1.2581789-4.0313387-1.7496095-7.2498207-1.7922602
			C9.3268099,2.0429161,7.0092444,3.37044,5.2025566,5.6042995c-1.6472542,2.0366955-2.5961077,4.4297552-3.01826,7.0045881
			c-0.4594175,2.8022804,0.404866,5.2034521,2.441761,7.1682768c0.8932047,0.861557,1.976027,1.4480629,3.0922923,1.978487
			c1.8228106,0.8662109,3.7160954,1.3950405,5.7537551,1.2910557c2.4928226-0.1272202,4.6220341-1.0434303,6.3338451-2.8912716
			c1.3751278-1.4843979,2.2023125-3.2459755,2.6734314-5.1904211C22.9656258,12.9582376,22.916626,10.9662209,22.2177258,9.0143604z
			 M21.8651848,12.6635723c-0.1725311,3.0471811-1.226265,5.7145615-3.5993805,7.7415504
			c-1.3791504,1.17803-3.0195894,1.7206554-4.8160048,1.8124714c-2.2340927,0.1142235-4.2640066-0.5723095-6.1982141-1.6120167
			c-1.080595-0.5808544-2.1055751-1.2408581-2.8618851-2.2356205c-1.2649608-1.6638756-1.790565-3.533659-1.452451-5.6045952
			c0.3451948-2.1145172,1.1188247-4.0790758,2.2606533-5.8891873c0.5746708-0.9109564,1.2559185-1.7361794,2.2090602-2.2963896
			C7.8274865,4.332624,8.2155647,4.0298138,8.6382151,3.7867746c1.1330862-0.6515951,2.3825884-0.808934,3.7259693-0.822331
			c1.669261,0.0310822,3.3348656,0.3491175,4.8832235,1.1614089c1.3699417,0.7186794,2.4371719,1.7359467,3.1712093,3.1157618
			C21.323225,8.9421244,21.9756851,10.7111807,21.8651848,12.6635723z M16.7395878,5.2712383
			c-1.183814-0.6627645-2.4607096-0.9872489-3.8014307-1.1057267C9.9197645,3.8988032,7.639863,5.144084,5.9469662,7.5820222
			c-0.6420212,0.9245191-1.1182594,1.937798-1.4624238,3.0052285c-0.3127165,0.9698629-0.6466086,1.9339085-0.6405916,2.9834547
			c0.0088758,1.5485563,0.4849148,2.9196625,1.4203715,4.1407413c0.6904893,0.9012833,1.6093907,1.5125217,2.602324,2.0251598
			c1.6542029,0.8540459,3.3701034,1.45438,5.2752566,1.3367653c1.4851294-0.0916824,2.8600235-0.4975796,4.0480595-1.4068069
			c2.3602161-1.8063221,3.3032532-4.3103476,3.4823666-7.1748257c0.0296192-1.7715826-0.5923901-3.3385563-1.4456367-4.8345218
			C18.6340694,6.6182094,17.7777309,5.8524914,16.7395878,5.2712383z M19.4565678,12.0324211
			c-0.3219585,0.0182505-0.645977-0.0006647-0.969099-0.0019274c-0.3486195-0.0013628-0.5649967,0.1533823-0.5871372,0.4182291
			c-0.0230694,0.2762823,0.1767864,0.487009,0.5361767,0.5085506c0.3860836,0.0232038,0.7751579,0.0216408,1.1616745,0.0034904
			c0.216013-0.0101395,0.3185997,0.0392265,0.2858562,0.2701321c-0.3751469,2.6429806-1.4088364,4.8957558-3.798008,6.3221111
			c-0.9215269,0.5501366-1.9419861,0.7982616-3.0124416,0.8499546c-0.2064724,0.0099735-0.3280754-0.0468712-0.3786039-0.2635498
			c-0.1170492-0.5017357-0.2563372-0.9982529-0.3750801-1.4995899c-0.0561476-0.2371216-0.1289167-0.4506073-0.3997803-0.5080185
			c-0.2962608-0.0627956-0.5626698,0.1671791-0.5248394,0.5120754c0.0500307,0.4563255,0.1598988,0.9062691,0.2480917,1.3581734
			c0.0185499,0.0950089,0.0545855,0.1865921,0.0898561,0.3039742c-0.1012583,0.0061493-0.1655836,0.0233364-0.2242241,0.011734
			c-2.0131264-0.3981838-3.8677831-1.1521339-5.362752-2.593647c-1.1074886-1.0678635-1.6091247-2.4319553-1.6608176-3.9658508
			c-0.007812-0.2323017,0.0778885-0.3105555,0.3046384-0.3057022c0.3229551,0.0068808,0.6507306,0.0150251,0.9680681-0.0328779
			c0.172132-0.0259953,0.3800664-0.1285172,0.4781995-0.2642145c0.1911802-0.264514-0.0259957-0.6162577-0.3885765-0.6435499
			c-0.3027768-0.0227718-0.6094432-0.0061836-0.9137158,0.0077457c-0.2281461,0.010438-0.322556-0.0497322-0.2649465-0.3018131
			c0.4280033-1.8726416,1.1167307-3.6415987,2.3948884-5.0911903C8.2476768,5.7842102,9.74228,4.9338226,11.5900888,4.8493519
			c0.3664703-0.0167542,0.3717899-0.008111,0.3687639,0.3570294c-0.0024261,0.2955632-0.0093079,0.5920901,0.0103054,0.8865561
			c0.0225058,0.3382139,0.2254543,0.5381036,0.4929934,0.5213823c0.2575665-0.0161228,0.4230499-0.2221627,0.4306288-0.5497055
			c0.007081-0.3047709,0.0064497-0.6097417,0.0069809-0.9146461c0.0003328-0.1932745,0.0701427-0.2864213,0.2859564-0.259727
			c1.7521687,0.2165442,3.338954,0.7988276,4.6061087,2.0817065c0.2064724,0.2090645,0.4022064,0.4385076,0.5570202,0.6870985
			c0.7432117,1.1935215,1.3358669,2.4492073,1.5131187,3.8659878
			C19.9179783,11.9728832,19.9029198,12.0071239,19.4565678,12.0324211z M13.9882021,9.083972
			c-0.1982937-0.0985327-0.3811302-0.0488014-0.5289288,0.1074076c-0.068779,0.072669-0.1229982,0.1614275-0.1731625,0.2489567
			c-0.4959841,0.8655796-0.9893427,1.7326555-1.4849958,2.5984344c-0.0304499,0.0532551-0.0737991,0.0991306-0.1374264,0.1830692
			c-0.3382463-0.455162-0.6601048-0.8695354-0.9618511-1.2980375c-0.7120304-1.011117-1.4144211-2.0289831-2.1208-3.0440564
			C8.5336332,7.8116312,8.4927778,7.7372665,8.4366636,7.6772299C8.2797565,7.5094528,8.0867147,7.4656053,7.8833675,7.5726476
			C7.6774278,7.6810527,7.6054235,7.8712025,7.6696486,8.0901403c0.0436149,0.14853,0.1076074,0.2987881,0.1954355,0.4254436
			c0.6890931,0.993598,1.3851666,1.9823427,2.0811744,2.9711208c0.2922726,0.415205,0.6026611,0.8184414,0.876318,1.245348
			c0.0776215,0.1210709,0.098731,0.3152428,0.0697098,0.460681c-0.0791178,0.3963223-0.1331711,0.7804441,0.211359,1.0782347
			c0.3674011,0.3174696,0.8011551,0.4228172,1.2683516,0.2750521c0.7249289-0.2292767,0.9949608-1.2130356,0.4522371-1.7027369
			c-0.2296095-0.2071705-0.213686-0.3579607-0.0794182-0.5860729c0.4405355-0.7482662,0.8718967-1.5019503,1.301528-2.2565651
			c0.072403-0.1271877,0.1384907-0.2643805,0.1726313-0.4054308C14.2720966,9.3760109,14.1986961,9.1885872,13.9882021,9.083972z"/>
        <g>
			<defs>
				<polygon id="SVGID_00000031914341593252789460000000535491830808860804_" points="49.4477921,2.5942457 48.4519958,2.8102269 
					46.8110313,4.6671081 46.1312408,6.5793357 46.4223824,7.7057328 47.5163574,8.0646124 48.6251488,8.1221027 
					49.6555367,7.6035719 50.2367668,6.2102447 49.7906761,3.8610203 				"/>
			</defs>
            <clipPath id="SVGID_00000092436666522413370150000015103724727655528890_">
				<use xlink:href="#SVGID_00000031914341593252789460000000535491830808860804_" style="overflow:visible;"/>
			</clipPath>
            <g style="clip-path:url(#SVGID_00000092436666522413370150000015103724727655528890_);">
				<g>
					<path class="st0" d="M49.0409164,1.3844582c-0.9861794,1.0514241-1.9307442,2.1412387-2.8279762,3.2695847
						c-0.8227234,1.0346451-1.6809654,2.0867286-2.1865921,3.3200955c-0.0633163,0.1544409,0.1667404,0.2206678,0.2505951,0.105649
						c1.8319206-2.5127454,4.0172882-4.7610254,6.4783478-6.6620464c-0.0553818-0.071779-0.1107635-0.1435581-0.1661491-0.2153372
						c-2.138031,2.218318-4.3021088,4.4805527-5.7386932,7.2360268c-0.0688095,0.1319838,0.1068115,0.2875004,0.2153397,0.1661501
						c2.2587395-2.5256319,4.2883339-5.3070126,6.9838142-7.4005466c-0.0646324-0.0646328-0.1292648-0.1292657-0.1939011-0.1938984
						c-2.6307411,2.5285983-4.6751556,5.6086273-6.746769,8.5907822c-0.087944,0.1266022,0.1154327,0.2860651,0.2153397,0.1661501
						c2.3527031-2.8239145,4.7147484-5.8045092,7.8316879-7.8281059c-0.0553818-0.071779-0.1107674-0.143558-0.1661491-0.215337
						c-2.4105415,2.5281534-4.8254852,5.0717592-6.8261642,7.9457259c-0.0887337,0.1274672,0.111618,0.2815666,0.2153358,0.1661491
						c2.3311234-2.5940132,4.7645988-5.1316266,7.5412979-7.2555537c-0.0553856-0.071779-0.1107674-0.143558-0.1661491-0.215337
						c-2.4710617,2.4475439-4.9341698,4.9580469-6.8283081,7.8930807c-0.0959702,0.1487112,0.141304,0.2863388,0.2367783,0.138401
						c1.8813629-2.9152379,4.331089-5.4066038,6.7854271-7.8375831c0.1068573-0.1058395-0.0393944-0.3122933-0.1661491-0.215337
						c-2.7965584,2.1391184-5.2487755,4.6856155-7.5967941,7.2984314c0.0717773,0.0553837,0.1435585,0.1107664,0.2153358,0.1661501
						c1.987133-2.8545027,4.389122-5.379251,6.783287-7.8902283c0.104126-0.1092045-0.0313492-0.3028526-0.1661491-0.215337
						c-3.1387367,2.0377483-5.51791,5.0271769-7.887188,7.8709836c0.0717812,0.0553827,0.1435585,0.1107664,0.2153397,0.1661491
						c2.0589066-2.9638672,4.089325-6.022234,6.7038918-8.535284c0.1309967-0.1259099-0.0587959-0.2988322-0.1939011-0.1938984
						c-2.6954765,2.093533-4.725071,4.8749156-6.9838142,7.4005456c0.0717812,0.0553837,0.1435585,0.1107674,0.2153397,0.1661501
						c1.4262924-2.7357354,3.5731163-4.9781222,5.695816-7.1805296c0.1032295-0.1071075-0.0386505-0.3138249-0.166153-0.215337
						c-2.5009918,1.931864-4.7149162,4.2066851-6.5767212,6.7604208c0.0835342,0.0352163,0.1670647,0.0704327,0.2505989,0.105649
						c0.5125999-1.2503786,1.4151497-2.3258905,2.252697-3.3701777c0.8562737-1.0676324,1.7551117-2.1003189,2.691349-3.0985007
						C49.3554688,1.4497206,49.161953,1.2554158,49.0409164,1.3844582L49.0409164,1.3844582z"/>
				</g>
			</g>
		</g>
        <path class="st0" d="M59.399807,3.2408257c-0.7088699-0.2466626-1.1225815-0.1570065-1.5089951,0.300483
			c-0.0776215,0.0919168-0.2187729,0.1921442-0.3261147,0.187324c-0.9050407-0.0405896-1.788105-0.1887536-2.617981-0.5833805
			c-0.502037-0.2387509-1.0062294-0.4799285-1.5283127-0.6674852c-0.5376358-0.1931746-1.0897026-0.3724539-1.6507759-0.4678943
			c-0.8024521-0.1365621-1.5998192-0.0015957-2.3968506,0.1598985c-0.4945564,0.1001942-0.9352913,0.2454991-1.3049507,0.5958467
			c-0.7922134,0.7508252-1.4730301,1.5775108-1.97789,2.5584102c-0.3387146,0.6580777-0.391468,1.3343053-0.3478203,2.0389895
			c0.0180511,0.2913742,0.1652832,0.5223131,0.4051971,0.6983008c0.4458542,0.3270111,0.9491539,0.4886055,1.4904823,0.565629
			c0.0991287,0.0140953,0.2686996,0.1205387,0.2650795,0.1749249c-0.0247345,0.3685312-0.0771599,0.7363644-0.1434784,1.100275
			c-0.0207787,0.1140566-0.1178131,0.2124882-0.1694069,0.3229885c-0.1571388,0.3367176-0.2491226,0.7246628-0.4761047,1.003438
			c-0.4270706,0.5245075-0.8859558,1.0424652-1.4111633,1.4640522c-1.5897446,1.2761641-2.7398834,2.8553038-3.4701309,4.7504835
			c-0.0152245,0.0394936-0.0445137,0.073534-0.0672493,0.1101341c-0.0188828-0.0027256-0.0377998-0.0054512-0.0567131-0.0081768
			c-0.0085793-0.1260586-0.0303841-0.2527809-0.0236015-0.3779736c0.0450745-0.8296432,0.2785072-1.6084595,0.7030869-2.3186951
			c0.3440628-0.5755682,0.7340355-1.1235447,1.0963516-1.6884422c0.1391563-0.2169771,0.2901764-0.4347181,0.3806992-0.6730366
			c0.341404-0.8988228-0.2246246-1.6208601-1.1817856-1.5236244c-0.5316887,0.0540199-1.0031395,0.2669411-1.4058456,0.6092768
			c-1.806057,1.5353584-2.6446419,3.5091925-2.3887062,5.8495951c0.1954346,1.7871418,1.0988121,3.3001595,2.3313293,4.5917816
			c0.5100136,0.534481,1.2095108,0.7945404,1.9327431,0.8709984c0.6533585,0.069046,1.3191147,0.0180187,1.979351,0.0262947
			c0.9396477,0.0117683,1.8792267,0.0372334,2.8189049,0.0410233c0.4496765,0.0018272,0.9048042,0.0047531,1.3481674-0.0583096
			c0.9670029-0.1375256,1.9276237-0.319397,2.8921356-0.4752064c0.0862656-0.0139294,0.1917801,0.0099392,0.2715607,0.0497971
			c1.186573,0.5927544,2.382225,0.3881111,3.5490494-0.0184498c0.6715088-0.2339306,0.8702011-0.968401,0.4456253-1.5409107
			c-0.2316704-0.3123512-0.5688553-0.566227-0.9017487-0.778616c-0.3940315-0.2513828-0.8338661-0.4313602-1.2554893-0.6390285
			c-0.3647079-0.1796131-0.5489731-0.4579887-0.5212479-0.8753548c0.0571785-0.8612232,0.0996628-1.7234802,0.1579056-2.5846386
			c0.1054802-1.5589609,0.2864876-3.1170912-0.0365677-4.6737251c-0.0777893-0.374814-0.1298828-0.7565098-0.1676445-1.13764
			c-0.0498657-0.5028658,0.1625557-0.8794422,0.6206436-1.0975828c0.2590294-0.1233311,0.5294952-0.2232265,0.7972679-0.3273764
			C56.7992783,8.308713,57.903244,7.6273985,58.63871,6.4618344c0.0658531-0.1043162,0.0901222-0.2379198,0.1196747-0.3612843
			c0.0408211-0.1705694,0.1012573-0.2987542,0.3090286-0.3160405c0.3885078-0.0323458,0.6805153-0.2503195,0.8208656-0.5949492
			c0.1124954-0.2761493,0.1651192-0.5898628,0.1792793-0.8899803C60.0931549,3.7573879,59.8421059,3.3947072,59.399807,3.2408257z
			 M47.2577553,7.5782657c-0.5360413-0.111763-0.5944519-0.2655115-0.6024971-0.8087678
			c-0.006115-0.4123788,0.1561089-0.7611303,0.3274765-1.1179934c0.414875-0.8638182,1.0391769-1.5601249,1.7309608-2.2039742
			c0.0884933-0.0823429,0.2003212-0.1395538,0.3758469-0.2591953c0.097168,0.4193599,0.1989594,0.7671809,0.2553062,1.1222153
			c0.0972023,0.6124349,0.2001877,1.2274294,0.2355576,1.8450837c0.0258293,0.4508405-0.0969353,0.8935037-0.3635445,1.2806177
			c-0.1245956,0.1809082-0.280735,0.2848921-0.5053253,0.2676058C48.2260208,7.6665258,47.7305374,7.6767979,47.2577553,7.5782657z
			 M57.7479668,6.1247845c-0.6069489,0.8344975-1.4384232,1.3373637-2.3589554,1.7284336
			c-0.2734871,0.1161509-0.5611076,0.1992912-0.8333664,0.317935c-1.0133438,0.4416666-1.4454346,1.1302938-1.344677,2.2286739
			c0.0611992,0.6674852,0.262886,1.3266926,0.2794075,1.9926157c0.0279579,1.1284647-0.0267944,2.2598886-0.0730362,3.3889856
			c-0.0384293,0.9390459-0.1176453,1.8763647-0.1731606,2.8147802c-0.0464401,0.7851982,0.305336,1.3478012,0.9909401,1.7071915
			c0.424778,0.2226944,0.8712959,0.407093,1.2817459,0.6526585c0.2164803,0.1295147,0.5374069,0.3641434,0.5261383,0.5321865
			c-0.0192146,0.2859554-0.4023094,0.2484913-0.6446152,0.284359c-0.3974533,0.0588417-0.8009224,0.1022224-1.2021637,0.1048489
			c-0.7501602,0.0048866-1.3027573-0.3648739-1.5295753-1.0791664c-0.1310768-0.4127426-0.1926765-0.8628521-0.1985931-1.2973385
			c-0.0252304-1.8526955-1.2226753-3.6013412-2.9464226-4.2614794c-0.7270889-0.2784433-1.421833-0.2581978-2.0971985,0.155344
			c-0.2778091,0.1700706-0.5752029,0.3078632-0.8576012,0.4708862c-0.2871208,0.1657495-0.3817291,0.4071589-0.269268,0.6444139
			c0.1157188,0.2441692,0.387249,0.3238201,0.6964073,0.1743603c0.3365517-0.1626911,0.6643257-0.3446293,0.9895096-0.5294266
			c0.3304329-0.1877575,0.6699791-0.2067385,1.0279388-0.1022224c1.3647232,0.3984833,2.4796219,1.8975391,2.526165,3.3232307
			c0.0188484,0.5781612,0.154644,1.1520996,0.2275467,1.7291985c0.0193825,0.1536484,0.0029259,0.3118191,0.0029259,0.4853802
			c-1.2337799,0.1820717-2.4256058,0.5391674-3.6855469,0.4180965c-0.6564484-0.0630951-1.3232002-0.0118008-1.9847374-0.0314484
			c-0.8806725-0.0261955-1.7624054-0.0497646-2.6406174-0.1152534c-0.6206131-0.0463066-1.1239128-0.352375-1.5121574-0.8482265
			c-0.7415504-0.9471588-1.3681145-1.9713078-1.6336555-3.1445179c-0.4093895-1.8085155,0.0449409-3.4500189,1.2459755-4.856328
			c0.3290062-0.3852196,0.760334-0.6935806,1.1813545-0.984025c0.1522865-0.1050806,0.4119148-0.0545511,0.6225739-0.074996
			c-0.0611992,0.1980286-0.0853348,0.4186621-0.1900826,0.5900955c-0.4295311,0.7032213-0.9038734,1.3794498-1.3229027,2.0885553
			c-0.410881,0.6953087-0.5992699,1.4721298-0.6895256,2.2705917c-0.103981,0.919899,0.189518,1.7428951,0.6453476,2.5196171
			c0.1143227,0.1948032,0.3003159,0.298954,0.5351448,0.2654114c0.2425079-0.0346069,0.3566284-0.2067719,0.4133415-0.4253769
			c0.0650558-0.2507191,0.1308784-0.5014706,0.1856956-0.754549c0.4127769-1.9057503,1.4833336-3.4020157,2.8957596-4.6929064
			c0.6288567-0.5747366,1.3016624-1.1202202,1.834877-1.7762365c0.7213058-0.8874207,1.2078819-1.9132652,1.1813202-3.108448
			c-0.0034561-0.1563091,0.0159569-0.2823324,0.212822-0.3097916c0.3988152-0.0556154,0.6828461-0.2961283,0.8989906-0.6160583
			c0.5768967-0.8538451,0.6590729-1.8068538,0.5018005-2.7889171c-0.1073723-0.6706429-0.2632484-1.3336735-0.4046974-1.9985657
			c-0.0392609-0.1846313,0.0498962-0.2433717,0.2061043-0.2652123c0.9313698-0.1303124,1.8355103-0.05761,2.7037811,0.335521
			c0.6290245,0.284759,1.2649612,0.5542264,1.8986397,0.82868c0.7029228,0.3044057,1.4341011,0.4749756,2.2028122,0.5091162
			c0.2096939,0.0093079,0.5304565,0.072968,0.5994682,0.2116241C57.8667755,5.2325101,58.0942917,5.6486454,57.7479668,6.1247845z
			 M53.2350044,4.1568685c-0.4696922,0.0011964-0.7171516,0.3067327-0.7121315,0.8792424
			c0.0038567,0.4401369,0.370594,0.7872596,0.8223305,0.7783504c0.34021-0.0067148,0.8364906-0.5580826,0.8389206-0.9319658
			C54.1866493,4.4898963,53.7493362,4.1555719,53.2350044,4.1568685z"/>
        <g>
			<defs>
				<polygon id="SVGID_00000032641727635617279160000006774323534610149014_" points="77.5959244,7.2253442 80.4728546,14.5336742 
					82.2505951,16.4198685 84.1850281,16.8305779 85.5074844,16.8305779 87.688385,15.6937265 87.9203949,13.7216377 
					87.0387573,10.9496393 85.0186768,9.3598404 82.4109116,8.0472326 78.1991577,7.2253442 				"/>
			</defs>
            <clipPath id="SVGID_00000024679859843275130040000011344519232151863692_">
				<use xlink:href="#SVGID_00000032641727635617279160000006774323534610149014_" style="overflow:visible;"/>
			</clipPath>
            <g style="clip-path:url(#SVGID_00000024679859843275130040000011344519232151863692_);">
				<path class="st0" d="M81.0835342,4.1427541c-2.8006134,3.2982879-5.4538651,6.7202525-7.9508438,10.2539768
					c-0.1885376,0.266819,0.2428818,0.6032686,0.4555435,0.3514891c2.889183-3.4205723,6.1079712-6.5587797,9.6070251-9.3528709
					c1.0172424-0.8122988,2.0591125-1.5929952,3.1213074-2.3454969c-0.1171646-0.1518483-0.2343292-0.3036966-0.3514938-0.4555452
					c-3.3925934,2.9350786-6.5611191,6.1262827-9.4654617,9.5454912c-0.8218765,0.9675732-1.6217957,1.9535084-2.401329,2.9554863
					c-0.2232361,0.2869406,0.1611176,0.6981134,0.4101944,0.4101915c2.8694153-3.3169355,5.8236389-6.5907564,9.2060776-9.3976707
					c0.9780273-0.8116159,1.9916229-1.578279,3.0418243-2.2941263c-0.1171646-0.1518483-0.2343292-0.3036969-0.3514938-0.4555452
					c-3.307991,3.3567114-6.4172058,6.907403-9.3029938,10.6334753c-0.8093338,1.045002-1.6015244,2.103035-2.3764725,3.1737843
					c-0.1911774,0.2641449,0.251091,0.6101456,0.4555435,0.35149c2.9983215-3.7932959,6.2931595-7.3496084,9.8529358-10.6220665
					c1.0102921-0.9287434,2.0420227-1.833797,3.0926971-2.7165709c-0.136734-0.1367302-0.273468-0.2734611-0.4101944-0.4101915
					c-1.6660995,1.7746286-3.2779388,3.599751-4.8298874,5.475071c-1.5248337,1.8425541-3.0444946,3.7170725-4.3930206,5.6941385
					c-0.730957,1.0716524-1.375206,2.1939459-1.8630981,3.3976259c-0.1326065,0.3271542,0.3526917,0.467247,0.5301361,0.2234993
					c3.1449432-4.3200674,6.7681885-8.2893372,10.7833328-11.8154154c1.1513596-1.0111151,2.3345032-1.9861054,3.547821-2.9219751
					c-0.117157-0.1518486-0.2343216-0.3036969-0.3514862-0.4555452c-3.6922379,3.8307388-7.4064789,7.6947365-10.3835068,12.125248
					c-0.8387375,1.2482414-1.6118011,2.5394764-2.3051758,3.8740826c-0.1751328,0.337101,0.2837906,0.5907612,0.5009003,0.2927876
					c3.4072037-4.6762648,7.5222092-8.7786312,11.9484406-12.4882164c1.2378235-1.0374112,2.5001602-2.0451584,3.7780609-3.0326867
					c-0.136734-0.1367307-0.2734604-0.2734613-0.4101944-0.4101918c-4.287323,4.1067724-8.2519226,8.5439596-11.8531876,13.2638702
					c-1.0244522,1.3426704-2.0182724,2.7084103-2.9827271,4.0947819c-0.1862564,0.2677307,0.2441635,0.6050949,0.4555435,0.35149
					c3.9314346-4.716917,7.9350891-9.4382753,12.6866302-13.360384c1.3488388-1.1133895,2.757019-2.1524849,4.2256241-3.1025906
					c-0.1171646-0.1518483-0.2343292-0.3036966-0.3514938-0.4555449
					c-4.1573944,4.3601918-8.3232574,8.7299137-12.0526428,13.4687748c-1.0525284,1.3374329-2.0694962,2.702467-3.0409088,4.100008
					c-0.213562,0.3072453,0.2890701,0.5975475,0.5009003,0.2927856c3.4277115-4.9313602,7.4286652-9.424736,11.534523-13.7955828
					c1.1500778-1.2243032,2.309166-2.4400945,3.4683228-3.6557937c0.2203979-0.2311511-0.0661163-0.6401658-0.3514862-0.4555449
					c-5.2118378,3.3717785-9.5700607,7.8471136-13.6138229,12.5153065
					c-1.1544113,1.3326759-2.2870178,2.6840191-3.4158401,4.0383739c0.1518478,0.1171646,0.3036957,0.2343273,0.4555435,0.35149
					c3.3739853-4.849966,7.1224899-9.4356165,11.2076416-13.7040215c1.1531296-1.2048578,2.3332214-2.3835936,3.5375748-3.5372272
					c0.2778244-0.266124-0.1241913-0.6312058-0.4101944-0.4101918c-4.5838547,3.5422823-8.968277,7.3739157-12.7539902,11.7726164
					c-1.0728455,1.2465696-2.0947037,2.5364485-3.0632172,3.8656912c0.1669693,0.0975952,0.333931,0.1951904,0.5009003,0.2927876
					c2.4486084-4.7130699,5.8967285-8.7880354,9.5088577-12.6450233c1.0195236-1.0886354,2.0540848-2.163044,3.089119-3.2369027
					c0.218399-0.2265918-0.081604-0.6637182-0.3514938-0.4555449c-4.3043213,3.3200417-8.2404709,7.1049414-11.7062378,11.293972
					c-0.9822311,1.1872072-1.926178,2.4058323-2.8330231,3.6515312c0.176712,0.0744991,0.3534241,0.1489983,0.5301361,0.2234993
					c0.8588715-2.1189404,2.2623215-3.9618444,3.6479187-5.7592058c1.4575577-1.890707,2.9758224-3.7349691,4.5484695-5.5310364
					c0.895668-1.022902,1.8098373-2.0294018,2.7404327-3.0206146c0.2592239-0.2761157-0.1273651-0.6478269-0.4101944-0.4101915
					c-3.7019577,3.1103902-7.1581726,6.5100842-10.3227386,10.1661091
					c-0.8981247,1.0376024-1.7719269,2.0959358-2.6228943,3.1725273c0.1518478,0.1171627,0.3036957,0.2343254,0.4555435,0.35149
					c2.7359695-3.7802773,5.6941986-7.3977804,8.8583527-10.8277845c0.8940964-0.9692163,1.8048477-1.9228749,2.7304153-2.8620708
					c0.2241287-0.2274311-0.07164-0.646297-0.3514862-0.4555449c-3.6700363,2.5015967-6.8539047,5.6221695-9.8266602,8.904294
					c-0.8588333,0.9482031-1.7016754,1.9107037-2.5386505,2.8782101c0.136734,0.1367302,0.2734604,0.2734613,0.4101944,0.4101915
					c2.7546387-3.5406761,5.7767029-6.8709049,9.0402145-9.9491673c0.9235077-0.8710918,1.8665009-1.7212105,2.8265762-2.5518095
					c0.24617-0.2129695-0.0814819-0.6468315-0.3514862-0.4555449c-3.70755,2.6265771-7.1582489,5.6108589-10.2789917,8.9138575
					c-0.882515,0.9340525-1.7375717,1.8935423-2.5667419,2.8752174c0.1518478,0.1171637,0.3036957,0.2343264,0.4555435,0.3514891
					c2.4686432-3.4936209,5.0913086-6.8757167,7.8601379-10.1365719C81.7340317,4.269938,81.3256149,3.8576519,81.0835342,4.1427541
					L81.0835342,4.1427541z"/>
			</g>
		</g>
        <path class="st0" d="M90.1901398,18.3586044c-0.3164139-0.2485218-0.6506195-0.4770412-0.9488983-0.7455635
			c-0.5381088-0.4844322-1.0655975-0.9799881-1.5555878-1.5103683c0.4984131-0.6095867,0.7698669-1.3201752,0.7779465-2.1384325
			c0.0133362-1.3509979-0.4904861-2.5182438-1.4371414-3.4348345c-0.7354279-0.7120743-1.5894241-1.3083267-2.4247818-1.9086561
			c-0.8077087-0.5804033-1.7123337-1.0033045-2.7036362-1.1328797c-1.7734833-0.2318339-3.4202042-0.812809-4.9888992-1.6483245
			c-0.0901871-0.0480433-0.1942749-0.0787129-0.2955017-0.0955529c-0.4234314-0.0703692-0.6899414,0.2311101-0.5287399,0.6263132
			c0.117157,0.2871919,0.2771683,0.5612774,0.4481201,0.8214569c0.7786331,1.1850762,1.4958954,2.3948026,1.9078598,3.7702603
			c0.2823868,0.9427643,0.6434937,1.8617935,0.9626541,2.7937765c0.3470078,1.0134773,0.9724808,1.8412971,1.7302322,2.5735636
			c0.8078613,0.7806911,1.8368073,0.9297352,2.9025497,0.9839134c0.4594421-0.0335274,0.9255447-0.0294895,1.3768311-0.1091938
			c0.5351028-0.0944862,1.0800781-0.1884384,1.5523911-0.4525414c0.4305954,0.4674397,0.9219666,0.8762436,1.3874969,1.3079071
			c0.5165863,0.4789829,1.1491852,0.771471,1.88797,0.9192963c0.0763092-0.035471,0.2319107-0.06073,0.2571716-0.1321278
			c0.0284195-0.0802746-0.0459518-0.2114124-0.1033249-0.3030796
			C90.3478699,18.4684811,90.2627563,18.4156761,90.1901398,18.3586044z M87.230751,14.9100533
			c-0.1048889,0.2428064-0.2095108,0.3150425-0.3313522,0.2403297c-0.0553589-0.075779-0.1168137-0.1459579-0.1699219-0.2237949
			c-0.4892731-0.716836-1.0669708-1.3439112-1.6839447-1.9310198c-0.3345108-0.3225861-0.6819763-0.6319904-1.0384369-0.9322119
			c-0.40522-0.3465881-0.8160858-0.6873856-1.2233658-1.031765c-0.0859146-0.0726929-0.2468033-0.0566912-0.3727951-0.0819511
			c0.000412,0.0014095,0.0005264,0.0030479,0.0009079,0.0044575c0.0230942,0.1002388,0.014328,0.2290144,0.0744476,0.2959166
			c0.0058289,0.0065155,0.0118103,0.0128775,0.0176392,0.019393c0.0067825,0.0114679,0.007431,0.0282307,0.0160065,0.0381365
			c0.4923172,0.5691643,0.9981613,1.1267462,1.50457,1.6836042c0.4311752,0.4741068,0.885582,0.9290495,1.2961349,1.4191961
			c0.0741043,0.0914383,0.1487427,0.1824188,0.2199097,0.2764101c0.258049,0.3427401,0.4829483,0.7124548,0.701561,1.0849504
			c-0.0080414,0.1002779-0.076767,0.1884394-0.2233353,0.2671137c-0.4727783,0.253664-0.9658585,0.3832397-1.5908356,0.3667049
			c-0.9669189,0.0998974-1.8285675-0.3313103-2.5873947-1.0158386c-0.1239319-0.111783-0.221199-0.2703142-0.2879868-0.4256449
			c-0.704689-1.638114-1.3915405-3.2839231-2.1033096-4.918951c-0.304985-0.7006063-0.660141-1.3792295-0.9836426-2.0719876
			c-0.0496445-0.1063728-0.0512085-0.2351866-0.0750198-0.3536367c0.1289673-0.0118871,0.2665787-0.0592065,0.3855286-0.0301747
			c1.2031708,0.2935162,2.4200974,0.5466089,3.5978241,0.9220009c0.6958389,0.2218132,1.3297729,0.6397238,1.9881287,0.97614
			c0.1541138,0.0787506,0.2865829,0.2011261,0.4424438,0.2750378c1.0077286,0.4778786,1.6605148,1.3108034,2.2218323,2.2278137
			C87.5969162,12.9225321,87.664772,13.9054918,87.230751,14.9100533z M97.8510971,6.4507327
			c-0.2171707-2.2636647-1.5857315-3.6715829-3.8122482-4.170187c-0.5296936-0.118603-1.0746613-0.2127461-1.6154861-0.2302337
			c-2.3740768-0.076808-4.4378662,0.6329422-5.9877853,2.515691c-0.3198395,0.3885736-0.5502243,0.8508315-0.8329239,1.2965541
			c-0.0322723-0.0122294-0.060463-0.0141726-0.0727692-0.0291839c-0.0363846-0.0443091-0.0729599-0.0905619-0.0981064-0.1416526
			c-0.6873474-1.3950791-1.8684616-2.1822469-3.2977142-2.642333c-1.3872299-0.4465227-2.8084488-0.4646199-4.2328949-0.2236805
			c-1.4193497,0.2401013-2.4913483,1.0200684-3.2781372,2.2080779c-0.4944153,0.7465162-0.796463,1.5687351-0.9290085,2.4531322
			c-0.3393478,2.2638173,0.220787,4.34693,1.2678223,6.3347564c0.9858551,1.8717375,2.3429184,3.4437494,3.8887177,4.868165
			c1.9779587,1.822628,4.2810135,3.1265354,6.7226028,4.202877c0.2142334,0.0944481,0.5314484,0.0682354,0.7623672-0.0123062
			c0.4463272-0.155674,0.8688889-0.3827076,1.2948761-0.5931664c2.9059753-1.4357319,5.4751205-3.3095646,7.509201-5.8579063
			c0.4957123-0.6210184,0.9858932-1.2679424,1.3478394-1.9703779C97.7843094,11.9421625,98.1171417,9.2240887,97.8510971,6.4507327z
			 M95.3339539,14.1328678c-0.4198914,0.960824-1.1053314,1.7329426-1.7862778,2.5120716
			c-2.0212784,2.3127365-4.4984512,3.9938641-7.2670441,5.2707596c-0.1760559,0.0811882-0.4518585,0.108963-0.6158371,0.0284214
			c-1.9172287-0.9415455-3.8176956-1.9168472-5.4121857-3.3758945c-2.0875702-1.9102192-3.9632339-3.9713478-4.945961-6.7053852
			c-0.4847031-1.3484459-0.6958084-2.7128544-0.5087433-4.1341839c0.1142654-0.8683195,0.4247742-1.6611257,0.9588089-2.3579984
			c0.5797577-0.7565742,1.3304596-1.2567787,2.2759323-1.4243774c1.3218155-0.2343102,2.6356277-0.214689,3.9156113,0.233891
			c1.334343,0.4676299,2.3064499,1.3085938,2.7203979,2.7104163c0.1016083,0.3440738,0.2327805,0.6802993,0.3660507,1.0138578
			c0.1040497,0.2603326,0.2744675,0.4682393,0.5847473,0.4723163c0.3223572,0.0042286,0.5126266-0.2032976,0.6272278-0.471478
			c0.0904465-0.2116027,0.1586838-0.4373026,0.2026138-0.6633835c0.3934479-2.0254302,1.7158737-3.1747313,3.5940475-3.7662594
			c1.3663177-0.4302926,2.7551117-0.3904788,4.1136169,0.0392802c1.4108887,0.4463704,2.3157425,1.3766007,2.512146,2.8931017
			c0.0593948,0.4589052,0.0835495,0.9223824,0.1238556,1.3837638C96.7282333,10.0066462,96.21698,12.1122761,95.3339539,14.1328678z
			"/>
	</g>
</g>
    <g id="Warstwa_2">
</g>
</svg>
