<?xml version="1.0" encoding="utf-8"?>
<!-- Generator: Adobe Illustrator 26.0.1, SVG Export Plug-In . SVG Version: 6.00 Build 0)  -->
<svg version="1.1" xmlns="http://www.w3.org/2000/svg" xmlns:xlink="http://www.w3.org/1999/xlink" x="0px" y="0px"
     viewBox="0 0 100 25" style="enable-background:new 0 0 100 25;" xml:space="preserve">
<style type="text/css">
	.st0{fill:#333333;}
	.st1{fill:#E6E6E6;}
	.st2{clip-path:url(#SVGID_00000142144017051735886270000011492809253176786860_);}
	.st3{clip-path:url(#SVGID_00000084490720634749292260000017534068240909404855_);}
	.st4{clip-path:url(#SVGID_00000162323984281680578600000016651344490888514227_);}
	.st5{fill:#FFFFFF;}
</style>
    <g id="Warstwa_1">
	<g>
		<path class="st0" d="M22.37117,6.738451l-3.1798515-1.3869538v11.5417576l3.771677-8.6473341
			C23.2158775,7.6662178,22.9508743,6.9912939,22.37117,6.738451z"/>
        <path class="st0" d="M15.6768379,2.0025542H4.4733939c-1.3307226,0-2.4094865,1.078764-2.4094865,2.4094865v16.1759186
			c0,1.3307228,1.078764,2.4094868,2.4094865,2.4094868h11.2034435c1.3307228,0,2.4094868-1.078764,2.4094868-2.4094868V4.4120407
			C18.0863247,3.0813181,17.0075607,2.0025542,15.6768379,2.0025542z M7.3126302,4.738318
			c1.0679679,0,1.9337401,0.8657722,1.9337401,1.9337401S8.3805981,8.6057978,7.3126302,8.6057978
			S5.3788905,7.740026,5.3788905,6.6720581S6.2446623,4.738318,7.3126302,4.738318z M15.6767035,21.8924522H4.4735289
			c-0.7205257,0-1.3046272-0.5841026-1.3046272-1.3046284V19.48283v-0.4306259v-4.1651764l1.3411477-1.3411474
			c0.6578374-0.6578379,1.724402-0.6578379,2.3822393,0l0.1111131,0.1111126l-1.1820822,1.1819477
			c-0.2158194,0.2158194-0.2158194,0.5654459,0,0.7812653c0.1079097,0.1079102,0.2492714,0.1618643,0.3906326,0.1618643
			c0.1394396,0,0.2783394-0.0535498,0.3856421-0.1585598l5.9451475-5.9451141
			c0.6578293-0.6578245,1.7243757-0.6578226,2.3822021,0.0000038l2.0563869,2.056386v8.8530378
			C16.9813309,21.3083496,16.3972282,21.8924522,15.6767035,21.8924522z"/>
        <path class="st0" d="M59.0320053,7.7167177c-0.3013344-0.5875297-1.1332207-0.6122985-1.4627533-0.0401073l-2.9589157,5.1378112
			c-0.0014839,0.0020237-0.0021591,0.004384-0.0036736,0.0063734l-1.0089226,1.7518444
			c-0.3181915,0.552495,0.0805855,1.2423439,0.7181549,1.2423439l4.7008629,0.0000029
			c0.3800087,0,0.7071877-0.2592516,0.8058243-0.626236c0.2318878-0.8627815,0.3594627-1.7678576,0.3594627-2.7039928
			C60.182045,10.7663698,59.7656517,9.1471567,59.0320053,7.7167177z M54.8867188,10.1354647l2.3374252-4.0587163
			c0.1823654-0.3166132,0.1434517-0.7226567-0.1143837-0.9815388c-1.8994789-1.9067962-4.5210075-3.0926554-7.4251595-3.0926554
			c-0.2927399,0-0.5804176,0.0202668-0.8670883,0.0437708l4.6318855,8.0874205
			C53.767292,10.6888046,54.5674782,10.6897488,54.8867188,10.1354647z M47.0360336,2.3276081
			c-2.5723419,0.669404-4.7560692,2.291935-6.1614189,4.4666996C40.5168915,7.3478789,40.911953,8.080018,41.5710449,8.080019
			l8.0078392,0.0000029c0.6366882,0.000001,1.0355759-0.6881304,0.7191505-1.2406225l-2.357048-4.1154704
			C47.7595215,2.4070897,47.389389,2.2356541,47.0360336,2.3276081z"/>
        <path class="st0" d="M45.1691246,9.1850166l-4.8255844-0.000001c-0.3808289,0-0.7088852,0.2602196-0.8064499,0.6283407
			c-0.2260742,0.8529902-0.3499336,1.7471895-0.3499336,2.671401c0,1.7697544,0.4428673,3.4333525,1.2185516,4.8943071
			c0.3079643,0.5800323,1.1310692,0.6023026,1.4588165,0.0332146l4.022747-6.9849367
			C46.2054596,9.874855,45.8066864,9.1850166,45.1691246,9.1850166z M57.7775497,16.9199772h-8.0942307
			c-0.6366959,0-1.0355835,0.688139-0.7191467,1.2406311l2.3530655,4.1084156
			c0.1798096,0.3139477,0.5451012,0.4855671,0.8962898,0.398613c2.6100388-0.6462555,4.8303871-2.2688046,6.2583733-4.4587269
			C58.8328476,17.6553745,58.4383698,16.9199772,57.7775497,16.9199772z M44.4865265,15.0890551l-2.2553101,3.9160395
			c-0.192852,0.3348904-0.123455,0.7532425,0.1537704,1.0225105c1.8887901,1.8343277,4.4586258,2.969841,7.299614,2.969841
			c0.2518997,0,0.4987106-0.0202332,0.7461624-0.0376682l-4.5069122-7.8690033
			C45.605957,14.5357141,44.8057709,14.53477,44.4865265,15.0890551z"/>
        <path class="st0" d="M96.9756088,2.0025542h-2.6090164c-0.1610565,0-0.2915955,0.130537-0.2915955,0.2915921v0.0000336
			c0,0.4492075-0.3641586,0.8133686-0.8133698,0.8133686h-5.2640991V4.212543h5.1976013
			c0.4859314,0,0.8798676,0.3939037,0.8798676,0.8798342V19.907589c0,0.4859314-0.3939362,0.8798676-0.8798676,0.8798676h-5.1976013
			v1.1049957h5.2640686c0.4492416,0,0.8134003,0.3641605,0.8134003,0.8134022c0,0.1610203,0.1305389,0.2915916,0.2915955,0.2915916
			h2.6090164c0.5339813,0,0.9668655-0.4328861,0.9668655-0.9668694V2.9694242
			C97.9424744,2.4354403,97.5095901,2.0025542,96.9756088,2.0025542z M96.8374863,20.2349606
			c0,0.3051147-0.2473526,0.552496-0.5524979,0.552496h-0.5524979c-0.3051529,0-0.5524979-0.2473812-0.5524979-0.552496V18.024971
			c0-0.3051472,0.247345-0.552496,0.5524979-0.552496h0.5524979c0.3051453,0,0.5524979,0.2473488,0.5524979,0.552496V20.2349606z
			 M96.8374863,13.6049938c0,0.3051147-0.2473526,0.5524979-0.5524979,0.5524979h-0.5524979
			c-0.3051529,0-0.5524979-0.2473831-0.5524979-0.5524979v-2.2099876c0-0.3051481,0.247345-0.5524979,0.5524979-0.5524979h0.5524979
			c0.3051453,0,0.5524979,0.2473497,0.5524979,0.5524979V13.6049938z M96.8374863,6.9750285
			c0,0.3051143-0.2473526,0.5524974-0.5524979,0.5524974h-0.5524979c-0.3051529,0-0.5524979-0.2473831-0.5524979-0.5524974
			V4.7650399c0-0.3051481,0.247345-0.5524969,0.5524979-0.5524969h0.5524979c0.3051453,0,0.5524979,0.2473488,0.5524979,0.5524969
			V6.9750285z"/>
        <path class="st0" d="M81.694931,4.212543h5.1976013V3.1075485h-5.2640991c-0.4492035,0-0.8133698-0.364161-0.8133698-0.8133686
			V2.2941463c0-0.1610551-0.1305313-0.2915921-0.2915878-0.2915921h-2.6090164c-0.533989,0-0.9668732,0.4328861-0.9668732,0.9668701
			v19.0611534c0,0.5339832,0.4328842,0.9668694,0.9668732,0.9668694h2.6090164c0.1610565,0,0.2915878-0.1305714,0.2915878-0.2915916
			c0-0.4492416,0.3641663-0.8134022,0.8134079-0.8134022h5.264061v-1.1049957H81.694931
			c-0.4859314,0-0.8798676-0.3939362-0.8798676-0.8798676V5.0923772C80.8150635,4.6064467,81.2089996,4.212543,81.694931,4.212543z
			 M79.7100677,20.2349606c0,0.3051147-0.247345,0.552496-0.5524902,0.552496h-0.5524979
			c-0.3051529,0-0.5524979-0.2473812-0.5524979-0.552496V18.024971c0-0.3051472,0.247345-0.552496,0.5524979-0.552496h0.5524979
			c0.3051453,0,0.5524902,0.2473488,0.5524902,0.552496V20.2349606z M79.7100677,13.6049938
			c0,0.3051147-0.247345,0.5524979-0.5524902,0.5524979h-0.5524979c-0.3051529,0-0.5524979-0.2473831-0.5524979-0.5524979
			v-2.2099876c0-0.3051481,0.247345-0.5524979,0.5524979-0.5524979h0.5524979c0.3051453,0,0.5524902,0.2473497,0.5524902,0.5524979
			V13.6049938z M79.7100677,6.9750285c0,0.3051143-0.247345,0.5524974-0.5524902,0.5524974h-0.5524979
			c-0.3051529,0-0.5524979-0.2473831-0.5524979-0.5524974V4.7650399c0-0.3051481,0.247345-0.5524969,0.5524979-0.5524969h0.5524979
			c0.3051453,0,0.5524902,0.2473488,0.5524902,0.5524969V6.9750285z"/>
	</g>
</g>
    <g id="Warstwa_2">
</g>
</svg>
