<?xml version="1.0" encoding="utf-8"?>
<!-- Generator: Adobe Illustrator 26.0.1, SVG Export Plug-In . SVG Version: 6.00 Build 0)  -->
<svg version="1.1" xmlns="http://www.w3.org/2000/svg" xmlns:xlink="http://www.w3.org/1999/xlink" x="0px" y="0px"
     viewBox="0 0 100 25" style="enable-background:new 0 0 100 25;" xml:space="preserve">
<style type="text/css">
	.st0{fill:#333333;}
	.st1{fill:#E6E6E6;}
	.st2{clip-path:url(#SVGID_00000034089374257464239420000003255157893876505784_);}
	.st3{clip-path:url(#SVGID_00000155840093436140069700000012638413199576474762_);}
	.st4{clip-path:url(#SVGID_00000163068755422120369630000007301825761547484567_);}
	.st5{fill:#FFFFFF;}
</style>
    <g id="Warstwa_1">
	<g>
		<g>
			<path class="st0" d="M6.2234354,16.38624H4.5579042c-1.3776419,0-2.4982972-1.1206551-2.4982972-2.4982967V10.55688
				c0-1.3776417,1.1206553-2.4982967,2.4982972-2.4982967h2.7758856c0.4592137,0,0.8327656-0.3735523,0.8327656-0.8327661V4.4499311
				c0-1.3776414,1.120656-2.498297,2.4982977-2.498297h3.3310623c1.3776417,0,2.4982977,1.1206555,2.4982977,2.498297v1.6655316
				c0,0.4600272-0.3727398,0.8327656-0.8327656,0.8327656c-0.4600277,0-0.8327665-0.3727384-0.8327665-0.8327656V4.4499311
				c0-0.4592137-0.3735514-0.8327656-0.8327656-0.8327656h-3.3310623c-0.4592142,0-0.8327665,0.3735518-0.8327665,0.8327656
				v2.7758861c0,1.3776412-1.1206551,2.4982972-2.4982967,2.4982972H4.5579042
				c-0.4592142,0-0.8327658,0.3735514-0.8327658,0.8327656v3.3310633c0,0.4592133,0.3735516,0.8327656,0.8327658,0.8327656
				h1.6655312c0.4600272,0,0.8327661,0.3727379,0.8327661,0.8327656S6.6834626,16.38624,6.2234354,16.38624z"/>
		</g>
        <g>
			<path class="st0" d="M13.9959154,23.0483665h-3.3310623c-1.3776417,0-2.4982977-1.120657-2.4982977-2.4982986v-1.6655312
				c0-0.4600258,0.3727388-0.8327656,0.8327656-0.8327656c0.4600277,0,0.8327656,0.3727398,0.8327656,0.8327656v1.6655312
				c0,0.4592152,0.3735523,0.8327656,0.8327665,0.8327656h3.3310623c0.4592142,0,0.8327656-0.3735504,0.8327656-0.8327656
				v-3.3310623c0-1.3776417,1.120656-2.4982967,2.4982977-2.4982967h3.3310623c0.4592152,0,0.8327656-0.3735523,0.8327656-0.8327656
				V10.55688c0-0.4592142-0.3735504-0.8327656-0.8327656-0.8327656h-1.6655312
				c-0.4600277,0-0.8327656-0.3727388-0.8327656-0.8327656c0-0.4600277,0.3727379-0.8327656,0.8327656-0.8327656h1.6655312
				c1.3776417,0,2.4982967,1.1206551,2.4982967,2.4982967v3.3310633c0,1.3776417-1.1206551,2.4982967-2.4982967,2.4982967
				h-3.3310623c-0.4592133,0-0.8327656,0.3735523-0.8327656,0.8327656v3.3310623
				C16.4942131,21.9277096,15.3735571,23.0483665,13.9959154,23.0483665z"/>
		</g>
        <g>
			<path class="st0" d="M45.9934692,23.0483665c-1.6419449,0-2.9938354-1.2927933-3.0778694-2.9434147
				c-0.2344894-4.6143684-1.1924934-7.1641712-1.8921585-9.0259666c-0.1469269-0.3906298-0.2794838-0.7443933-0.3887329-1.0721321
				l-0.1534309-0.4098768c-0.196537-0.6099358-0.2895164-1.2084856-0.2895164-1.8159819
				c0-3.2142262,2.6151352-5.82936,5.829361-5.82936c0.8872528,0,1.7395363,0.1943662,2.5327225,0.577677
				c0.4139442,0.2000589,0.5874367,0.6980376,0.3873787,1.1122518s-0.69804,0.5874362-1.1122513,0.3873773
				c-0.5652084-0.2732513-1.1735191-0.4117746-1.8078499-0.4117746c-2.2960701,0-4.1638298,1.8677592-4.1638298,4.1638288
				c0,0.4348164,0.0664139,0.8623133,0.1973495,1.2708349l0.150177,0.4003887
				c0.1130447,0.3374987,0.2388268,0.6717434,0.3776207,1.0409575c0.6964111,1.8533916,1.7490234,4.6542168,1.996521,9.5271969
				c0.0390358,0.7639122,0.6603584,1.3624611,1.4145088,1.3624611c0.7804489,0,1.415596-0.6351452,1.415596-1.4155922v-2.3632984
				c0-0.4600277,0.3727379-0.8327656,0.8327637-0.8327656c0.4600296,0,0.8327675,0.3727379,0.8327675,0.8327656v2.3632984
				C49.0745964,21.6661148,47.6923447,23.0483665,45.9934692,23.0483665z"/>
		</g>
        <g>
			<path class="st0" d="M55.4867821,23.0483665c-1.6988754,0-3.0811234-1.3822517-3.0811234-3.0811253v-2.4706478
				c0-0.4681587-0.1989746-0.917614-0.5456886-1.2328835c-0.351326-0.3196058-0.8086395-0.4703274-1.2860184-0.4247856
				c-0.4630089,0.0431023-0.8647537-0.2922268-0.9081268-0.749815c-0.043644-0.4578581,0.2919579-0.8644819,0.7498169-0.9081259
				c0.9406548-0.0878315,1.8723679,0.2206612,2.5647125,0.8503857c0.6931572,0.6302671,1.0908356,1.5289049,1.0908356,2.4652243
				v2.4706478c0,0.780447,0.6351471,1.4155922,1.4155922,1.4155922c0.7541542,0,1.375473-0.5985489,1.4145088-1.3624611
				c0.2474976-4.8729801,1.3001137-7.6738052,1.9965248-9.5271969c0.1387939-0.3692141,0.264576-0.7034588,0.3678589-1.0133066
				l0.2233734-0.6378574c0.0832214-0.3074074,0.1339111-0.682044,0.1339111-1.061017
				c0-2.2960696-1.8677559-4.1638288-4.163826-4.1638288s-4.1638298,1.8677592-4.1638298,4.1638288
				c0,0.4600267-0.3727379,0.8327656-0.8327637,0.8327656c-0.4600296,0-0.8327675-0.3727388-0.8327675-0.8327656
				c0-3.2142262,2.6151352-5.82936,5.829361-5.82936s5.829361,2.615134,5.829361,5.82936
				c0,0.5291529-0.0710258,1.0536976-0.211174,1.5589962l-0.2358437,0.6787901
				c-0.1051788,0.3158112-0.2377396,0.6695747-0.3846664,1.0602045c-0.6996613,1.8617954-1.6576691,4.4115982-1.8921547,9.0259666
				C58.4806175,21.7555733,57.1287308,23.0483665,55.4867821,23.0483665z"/>
		</g>
        <g>
			<path class="st0" d="M85.4275055,19.2126083c-4.7454453,0-8.6061707-3.8645248-8.6061707-8.61485
				s3.8607254-8.614851,8.6061707-8.614851c4.7454376,0,8.606163,3.8645244,8.606163,8.614851
				c0,0.5845633-0.0586166,1.168313-0.1747742,1.7352362c-0.0928116,0.4515848-0.5373383,0.7403383-0.9840393,0.6496964
				c-0.4510422-0.0925426-0.7419662-0.5330009-0.6496964-0.9840431c0.093895-0.4570122,0.1411209-0.9284086,0.1411209-1.4008894
				c0-3.830873-3.112793-6.9474602-6.9387741-6.9474602c-3.8259888,0-6.9387817,3.1165872-6.9387817,6.9474602
				s3.112793,6.9474592,6.9387817,6.9474592c1.6299362,0,3.2137375-0.5769653,4.4593964-1.6247826
				c0.3522568-0.2960815,0.8792877-0.2507601,1.1745529,0.1014977c0.2968979,0.3522587,0.2513046,0.8782024-0.1009521,1.1745548
				C89.4146957,18.4966946,87.4498672,19.2126083,85.4275055,19.2126083z"/>
		</g>
        <path class="st0" d="M85.0464783,4.924994c-0.3072052,0-0.5558014,0.2488604-0.5558014,0.5557966
			c0,0.3069367,0.2485962,0.5557971,0.5558014,0.5557971c2.6584854,0,4.8214264,2.1708097,4.8214264,4.8390684
			c0,0.3069372,0.2485886,0.5557966,0.5558014,0.5557966c0.3072052,0,0.5557938-0.2488594,0.5557938-0.5557966
			C90.9794998,7.5943384,88.3177567,4.924994,85.0464783,4.924994z M97.1502533,18.4193497l-4.348671-4.363059
			c-0.325119-0.3259344-0.8537827-0.3267479-1.1789017-0.0018997c-0.3262024,0.325119-0.3272858,0.8529634-0.0021667,1.1791677
			l4.348671,4.36306c0.4065399,0.4078922,0.4065399,1.0714283,0,1.4793205c-0.3918762,0.393507-1.0746841,0.393507-1.4665604,0
			l-1.4399719-1.4448547c-0.3245773-0.3259335-0.8532333-0.3267479-1.178894-0.0018997
			c-0.32621,0.325119-0.3272934,0.8529625-0.0021744,1.1791687l1.4399719,1.4448547
			c0.5112839,0.5126457,1.190834,0.7951584,1.9143448,0.7951584c0.7235184,0,1.4030609-0.2825127,1.9143524-0.7951584
			C98.2037735,21.1961613,98.2037735,19.4763947,97.1502533,18.4193497z"/>
	</g>
</g>
    <g id="Warstwa_2">
</g>
</svg>
