<?xml version="1.0" encoding="utf-8"?>
<!-- Generator: Adobe Illustrator 26.0.3, SVG Export Plug-In . SVG Version: 6.00 Build 0)  -->
<svg version="1.1" xmlns="http://www.w3.org/2000/svg" xmlns:xlink="http://www.w3.org/1999/xlink" x="0px" y="0px"
	 viewBox="0 0 100 25" style="enable-background:new 0 0 100 25;" xml:space="preserve">
<style type="text/css">
	.st0{fill:#333333;}
	.st1{fill:#E6E6E6;}
	.st2{clip-path:url(#SVGID_00000069370950202948677200000016544899254392147119_);}
	.st3{clip-path:url(#SVGID_00000011727567596474231320000018376893626728534182_);}
	.st4{clip-path:url(#SVGID_00000098901844532541666300000008234015027082575538_);}
	.st5{fill:#FFFFFF;}
</style>
<g id="Warstwa_1">
</g>
<g id="Warstwa_2">
	<g>
		<path d="M59.6200905,7.2402992h-7.7590904v3.9068937H60.92239V8.5425968
			C60.92239,7.8237286,60.3389587,7.2402992,59.6200905,7.2402992z M41.3879242,7.2402992
			c-0.7188683,0-1.3022995,0.5834293-1.3022995,1.3022976v2.6045961h9.1160851V7.2402992H41.3879242z M41.3879242,12.4494905
			v9.1160841c0,0.7188683,0.5834274,1.3022976,1.3022957,1.3022976h6.5114899V12.4494905H41.3879242z M58.3177948,22.8678722
			c0.7188683,0,1.3022957-0.5834293,1.3022957-1.3022976v-9.1160841h-7.7590904v10.4183817H58.3177948z M50.5027046,5.9275832
			h0.0039062c-0.0013008,0.0026045-0.0026054,0.0078135-0.0026054,0.0104184h1.3569946c1.1525345,0,2.7843132,0,3.8521996,0
			c1.7984734,0,2.6045952-0.8751445,2.6045952-1.9534469s-0.8061256-1.9534469-2.6045952-1.9534469
			c-1.6838722,0-3.009613,0.7579374-3.9068947,1.6369884c-0.3932953-0.2331114-0.8477974-0.3750618-1.340065-0.3750618
			c-0.4714317,0-0.9076996,0.1328344-1.2905769,0.3490157c-0.8959808-0.8686326-2.2139053-1.6109424-3.8808479-1.6109424
			c-1.7984734,0-2.6045952,0.8751442-2.6045952,1.9534469s0.8061218,1.9534469,2.6045952,1.9534469
			c1.084816,0,2.7517548,0,3.9068947,0h1.3022957C50.5040054,5.9353967,50.5027046,5.9301877,50.5027046,5.9275832z
			 M57.0154953,3.9845548c0,0.5378489-0.7084503,0.6511488-1.3022957,0.6511488h-2.9575195
			c-0.0104179-0.0182323-0.0195351-0.0377665-0.029953-0.0546966c0.6615677-0.6433351,1.6643372-1.2476013,2.9874725-1.2476013
			C56.307045,3.3334057,57.0154953,3.4467058,57.0154953,3.9845548z M43.9925194,3.9845548
			c0-0.5378489,0.7084503-0.651149,1.3022957-0.651149c1.2944832,0,2.2764168,0.5795226,2.9379845,1.2007186
			c-0.0208359,0.0325575-0.0364647,0.0677195-0.0559998,0.1015792h-2.8819847
			C44.7009697,4.6357036,43.9925194,4.5224037,43.9925194,3.9845548z"/>
	</g>
	<g>
		<path d="M92.6700058,7.9508238c0.0400696-0.5981698,0.0643997-1.0832877,0.0772781-1.3737864
			c0.0157394-0.3892398-0.1273651-0.7684617-0.3963928-1.0503745C92.0818558,5.2447505,91.7069244,5.085907,91.317688,5.085907
			H75.5763855c-0.3892365,0-0.7627411,0.158844-1.0332031,0.4407563s-0.4121323,0.6611347-0.3963928,1.050374
			c0.0787048,1.8903871,0.6110458,11.4453583,3.3371582,13.8852596c0.2618713,0.2346878,0.6024628,0.364912,0.9544907,0.364912
			h10.0171967c0.3520279,0,0.6926117-0.1302242,0.9544907-0.364912c0.8543243-0.7656002,1.4939957-2.2295399,1.9705276-3.9381886
			c0.7083588-0.002861,1.1977692-0.0042934,1.2550125-0.0042934c2.4341736,0,4.4075623-1.7744732,4.4075623-4.2859268
			C97.0417938,8.8237505,94.0938797,7.9637032,92.6700058,7.9508238z M92.6342316,14.3732748l-0.4536362,0.0014315
			c-0.0858612,0-0.1946182,0-0.3005142,0.0014315c0.2847748-1.4668026,0.479393-2.9708128,0.6110458-4.2816343h0.1431046
			c0.3777924,0,2.2610245,0.103034,2.2610245,2.1393862C94.895256,13.7035551,93.7232437,14.3732748,92.6342316,14.3732748z"/>
	</g>
	<g>
		<path d="M21.6719856,9.8095465H9.9633608V8.618948c0-2.1889977,1.7800922-3.9690909,3.9690905-3.9690909
			c1.4421329,0,2.6972275,0.7791133,3.3912048,1.9335938c0.0064507-0.0077395,0.0180588-0.0116096,0.0257988-0.0193491
			c0.2334766,0.3327999,0.6011047,0.5649858,1.0383892,0.5649858c0.7120361,0,1.2899208-0.5778847,1.2899208-1.2899222
			c0-0.1741395-0.0361176-0.340539-0.0993233-0.4927502c-0.0051594-0.0090294-0.0090294-0.0193491-0.0141888-0.0283785
			c-0.0567551-0.1289921-0.1380215-0.2425051-0.2321854-0.344409c-1.17383-1.7426848-3.1396732-2.903615-5.3996162-2.903615
			c-3.6169415,0-6.5489349,2.9319935-6.5489349,6.5489354v1.1905985H6.1929178
			c-0.7120371,0-1.2899222,0.5778847-1.2899222,1.2899218v10.3193779c0,0.712038,0.5778852,1.2899227,1.2899222,1.2899227
			h15.4790678c0.7120361,0,1.2899208-0.5778847,1.2899208-1.2899227V11.0994682
			C22.9619064,10.3874311,22.3840218,9.8095465,21.6719856,9.8095465z M13.9324512,18.8390026
			c-1.4253635,0-2.5798445-1.1544819-2.5798445-2.5798454s1.1544809-2.5798445,2.5798445-2.5798445
			s2.5798454,1.1544809,2.5798454,2.5798445S15.3578148,18.8390026,13.9324512,18.8390026z"/>
	</g>
</g>
</svg>
