<?xml version="1.0" encoding="utf-8"?>
<!-- Generator: Adobe Illustrator 26.0.1, SVG Export Plug-In . SVG Version: 6.00 Build 0)  -->
<svg version="1.1" xmlns="http://www.w3.org/2000/svg" xmlns:xlink="http://www.w3.org/1999/xlink" x="0px" y="0px"
     viewBox="0 0 100 25" style="enable-background:new 0 0 100 25;" xml:space="preserve">
<style type="text/css">
	.st0{fill:#333333;}
	.st1{fill:#E6E6E6;}
	.st2{clip-path:url(#SVGID_00000057124615240711606880000001954524838078054331_);}
	.st3{clip-path:url(#SVGID_00000181808726395205437200000000870607648448702895_);}
	.st4{clip-path:url(#SVGID_00000042002909955875181020000006923609315390608020_);}
	.st5{fill:#FFFFFF;}
</style>
    <g id="Warstwa_1">
</g>
    <g id="Warstwa_2">
	<path class="st0" d="M5.5998144,18.3111763v1.1606617h14.1436281v-1.1606617c0-2.3761292-4.6965685-3.6464043-7.0718136-3.6464043
		S5.5998144,15.9359303,5.5998144,18.3111763z M16.2075348,8.8632336c0-1.9341412-1.6026487-3.5359073-3.5359058-3.5359073
		S9.1357212,6.9299755,9.1357212,8.8632336s1.6026497,3.5359068,3.5359077,3.5359068S16.2075348,10.7964907,16.2075348,8.8632336z
		 M2.0639076,4.1675487c0-1.2711585,1.0501642-2.3761296,2.3761292-2.3761296h16.4640675
		c1.2711582,0,2.3761292,1.1049711,2.3761292,2.3761292v16.4640656c0,1.2711582-1.1049709,2.3761292-2.3761292,2.3761292H4.4400368
		c-1.3259649,0-2.3761294-1.1049709-2.3761294-2.3761292L2.0639076,4.1675487z"/>
        <path class="st0" d="M82.0782776,1.7914191l2.6639404,2.6639476h10.5923615c1.4251328,0,2.6015167,1.2388144,2.6015167,2.6639466
		v13.1938715c0,1.4251308-1.1773758,2.6639462-2.6015167,2.6639462H74.1508484
		c-1.4251328,0-2.6015091-1.2388153-2.6015091-2.6639462V4.456356c0-1.425132,1.1773682-2.6639469,2.6015091-2.6639469h7.9284134
		L82.0782776,1.7914191z"/>
        <path class="st0" d="M56.6443863,20.3130589c2.1685219,0,3.9643936-1.7968597,3.9643936-3.9643917
		s-1.7968597-3.9643917-3.9643936-3.9643917h-1.9821968v-0.6818752c0-4.0268312-3.2210655-7.2479005-7.2478981-7.2479005
		c-3.3449554,0-6.1329155,2.2299714-7.0001259,5.2657046h-0.9296494c-2.9118462,0-5.2657051,2.416296-5.2657051,5.3271513
		s2.3538589,5.2657032,5.2657051,5.2657032h17.1588783H56.6443863z M57.1399345,9.7826433
		c3.4073944,0.2477741,6.1329155,3.0971813,6.1329155,6.5660238c0,3.6551704-2.9732933,6.6284637-6.6284637,6.6284637H39.485508
		c-4.3984947,0-7.9287853-3.5312824-7.9287853-7.9287844c0-4.0882797,3.0971813-7.4332352,7.0615749-7.8673358
		c1.6729698-3.1596203,4.9554901-5.3895917,8.7959938-5.3895917C52.2458954,1.7914191,56.2102852,5.1988144,57.1399345,9.7826433z"
        />
</g>
</svg>
