<?xml version="1.0" encoding="utf-8"?>
<!-- Generator: Adobe Illustrator 26.0.1, SVG Export Plug-In . SVG Version: 6.00 Build 0)  -->
<svg version="1.1" xmlns="http://www.w3.org/2000/svg" xmlns:xlink="http://www.w3.org/1999/xlink" x="0px" y="0px"
     viewBox="0 0 100 25" style="enable-background:new 0 0 100 25;" xml:space="preserve">
<style type="text/css">
	.st0{fill:#333333;}
	.st1{fill:#E6E6E6;}
	.st2{clip-path:url(#SVGID_00000031204066987746295410000014596215317366280593_);}
	.st3{clip-path:url(#SVGID_00000103963918634207249290000017181487584882513310_);}
	.st4{clip-path:url(#SVGID_00000002381670568938861710000008298602014448385190_);}
	.st5{fill:#FFFFFF;}
</style>
    <g id="Warstwa_1">
	<g>
		<g>
			<g>
				<path class="st0" d="M11.6435928,23.0546436c-5.2800159,0-9.5753851-4.2953701-9.5753851-9.575386
					c0-2.6957884,1.1455214-5.2813635,3.1431105-7.0935564c0.3384557-0.3071966,0.862577-0.2813277,1.1692348,0.0568585
					c0.3071971,0.3384557,0.281867,0.8620381-0.0568581,1.1692352c-1.6521273,1.4990678-2.5998571,3.6375899-2.5998571,5.8674626
					c0,4.3670483,3.5527065,7.9197559,7.919755,7.9197559s7.9197559-3.5527077,7.9197559-7.9197559
					c0-2.2336454-0.950695-4.3751316-2.6082115-5.8750081c-0.338995-0.3069277-0.3651333-0.8302402-0.0584755-1.1692348
					c0.3069286-0.3387251,0.8299713-0.3654027,1.1692352-0.0584755c2.0037861,1.8132706,3.1530819,4.4020796,3.1530819,7.1027184
					C21.2189789,18.7592735,16.9236088,23.0546436,11.6435928,23.0546436z"/>
			</g>
            <g>
				<path class="st0" d="M11.6435928,8.990139c-0.2004862,0-0.4007034-0.0724878-0.5591526-0.2171936L7.0130019,5.0450826
					c-0.3190536-0.292376-0.3592048-0.7809272-0.0921588-1.1215384L8.2237358,2.262255
					c0.1568317-0.1999476,0.3969307-0.316898,0.6513109-0.316898h5.5370922c0.2543802,0,0.4944792,0.1169504,0.6513119,0.316898
					l1.3028917,1.6612892c0.267046,0.3406112,0.2268944,0.8291624-0.0921593,1.1215384l-4.0714378,3.7278628
					C12.0442963,8.9176512,11.844079,8.990139,11.6435928,8.990139z M8.6969271,4.3417635l2.9466658,2.6982136l2.9466667-2.6982136
					l-0.5809803-0.7407763H9.2779064L8.6969271,4.3417635z"/>
			</g>
            <path class="st0" d="M52.622345,14.5625315c-0.000843-0.0020885-0.0026932-0.003335-0.0035706-0.0053892
				c-0.0186615-0.0448332-0.0502892-0.0824585-0.0801697-0.1210938c-0.0140457-0.0179195-0.0222626-0.0410604-0.0381966-0.0568924
				c-0.0029297-0.0029297-0.0074768-0.0041428-0.0104408-0.0070057c-0.0494156-0.0469217-0.1056671-0.0853548-0.167881-0.1111231
				c-0.0017166-0.0007076-0.0027618-0.0022907-0.0045128-0.0029984c-0.8413887-0.3424301-1.8842087-0.098424-2.6259956,0.5984278
				v-1.1837187c0-0.3047714-0.2471046-0.551877-0.5518761-0.551877s-0.5518799,0.2471056-0.5518799,0.551877v3.1406183
				c-0.0897331-0.1107521-0.180275-0.2212029-0.2829437-0.3238373c-1.0609055-1.0606384-2.5941963-1.439784-3.8157082-0.9444962
				c-0.0022926,0.0009098-0.0036392,0.002964-0.0058975,0.0039072c-0.0523415,0.02176-0.0977135,0.0566902-0.1413689,0.0936413
				c-0.0108452,0.0093307-0.0259056,0.0141134-0.0359421,0.0241852c-0.0177498,0.0176506-0.0272179,0.0431156-0.0425758,0.0633259
				c-0.0276527,0.0368834-0.0580025,0.0720835-0.0756531,0.1143904c-0.0009422,0.0022564-0.002964,0.0036039-0.0038757,0.0058613
				c-0.4958267,1.2212429-0.1161423,2.7548027,0.9444962,3.8157101c0.7504768,0.7504768,1.7367439,1.1598034,2.6823158,1.1598034
				c0.265934,0,0.5244598-0.046854,0.777153-0.1147614v1.7916794c0,0.3047714,0.2471085,0.551878,0.5518799,0.551878
				s0.5518761-0.2471066,0.5518761-0.551878v-4.4739265c0.1277962,0.0241508,0.257885,0.0376244,0.3896561,0.0376244
				c0.6664009,0,1.3589401-0.2861786,1.8836021-0.8111076C52.7096519,16.511076,52.9737358,15.4288807,52.622345,14.5625315z
				 M48.2970657,19.658062c-0.7765503,0.1996441-1.7061577-0.0899696-2.3883247-0.7724056
				c-0.6820984-0.6823349-0.9718781-1.6117744-0.7722359-2.3882885c0.7766151-0.2002182,1.705719,0.0902729,2.3879852,0.7725391
				C48.2068253,17.9525108,48.4969101,18.8817825,48.2970657,19.658062z M51.1844482,16.474968
				c-0.3624077,0.3626404-0.8395729,0.5352039-1.2555008,0.4757843c-0.0593491-0.4156246,0.1133804-0.8928242,0.4759216-1.2553644
				c0.3628082-0.3623714,0.8399391-0.5348663,1.2555313-0.4757175
				C51.7196846,15.6353636,51.5469208,16.1124954,51.1844482,16.474968z"/>
            <path class="st0" d="M56.0381584,3.0491107h-4.018013c-0.5741768-0.6782589-1.6595726-1.1037537-2.8804436-1.1037537
				c-1.2208748,0-2.3062706,0.4254948-2.8804436,1.1037537h-4.0180168c-0.4572945,0-0.827816,0.3705225-0.827816,0.8278151
				s0.3705215,0.8278153,0.827816,0.8278153c0.4564819,0,0.827816,0.3713307,0.827816,0.8278151v3.5871987
				c0,1.8259363,1.4853249,3.3112602,3.3112602,3.3112602h2.4834442c0.0972786,0,0.1892357-0.0198393,0.2759399-0.0506601
				c0.0867004,0.0308208,0.1786575,0.0506601,0.2759361,0.0506601h2.483448c1.8259354,0,3.3112602-1.4853239,3.3112602-3.3112602
				V5.5325561c0-0.4564843,0.3713303-0.8278151,0.8278122-0.8278151c0.4572945,0,0.827816-0.370523,0.827816-0.8278153
				S56.4954529,3.0491107,56.0381584,3.0491107z M50.5622368,3.4714055c-0.5808449,0.2575469-1.074379,0.6761703-1.4225349,1.20046
				c-0.3481598-0.5242896-0.8416939-0.9429131-1.4225388-1.20046c0.3738251-0.1684532,0.8602524-0.2843258,1.4225388-0.2843258
				C49.7019844,3.1870797,50.1884155,3.3029523,50.5622368,3.4714055z M48.0359459,10.7753849h-1.6556282
				c-0.9143791,0-1.655632-0.741251-1.655632-1.6556301V5.5325561c0-0.2902203-0.0501213-0.5688534-0.1417427-0.8278151h1.7973747
				c0.9143791,0,1.6556282,0.7412505,1.6556282,1.6556301V10.7753849z M53.5547142,5.5325561v3.5871987
				c0,0.9143791-0.7412491,1.6556301-1.6556282,1.6556301h-1.655632V6.3603711c0-0.9143796,0.7412529-1.6556301,1.655632-1.6556301
				h1.7973709C53.6048355,4.9637027,53.5547142,5.2423358,53.5547142,5.5325561z"/>
            <path class="st0" d="M97.1058578,7.4641247H77.6334076c-0.460907,0-0.8345337,0.373632-0.8345337,0.8345337v4.4508467
				c0,0.4609022,0.3736267,0.8345337,0.8345337,0.8345337h0.2781754v6.9544477c0,1.3827076,1.1208954,2.503603,2.5036011,2.503603
				h13.9088974c1.3827057,0,2.5036011-1.1208954,2.5036011-2.503603v-6.9544477h0.2781754
				c0.460907,0,0.8345337-0.3736315,0.8345337-0.8345337V8.2986584C97.9403915,7.8377566,97.5667648,7.4641247,97.1058578,7.4641247
				z M96.2713242,11.9149714h-8.3453369V9.1331921h8.3453369V11.9149714z M78.4679413,9.1331921h8.3453369v2.7817793h-8.3453369
				V9.1331921z M79.5806503,20.5384865v-6.9544477h7.2326279v7.7889814H80.415184
				C79.9542847,21.3730202,79.5806503,20.9993896,79.5806503,20.5384865z M95.1586151,20.5384865
				c0,0.4609032-0.3736343,0.8345337-0.8345337,0.8345337h-6.3980942v-7.7889814h7.2326279V20.5384865z"/>
            <path class="st0" d="M90.9355392,1.9535946c-0.7758026,0-1.527626,0.302616-2.1172333,0.852337
				c-0.0247879,0.0231745-0.0485001,0.0479658-0.0703278,0.0741045l-1.4101791,1.6848342l-1.4103775-1.6848342
				c-0.0218277-0.0261388-0.0452728-0.0506606-0.0700607-0.0738351c-0.5893326-0.549721-1.3414307-0.8526064-2.1175079-0.8526064
				c-1.8022156,0-3.2686844,1.6092812-3.2686844,3.5871987c0,0.4572926,0.3705292,0.8278151,0.8278198,0.8278151
				s0.8278122-0.3705225,0.8278122-0.8278151c0-1.0649495,0.7235336-1.9315686,1.6130524-1.9315686
				c0.4306183,0,0.7518311,0.1977918,0.9539337,0.376451l1.9773788,2.362453
				c0.1638336,0.1956358,0.3988113,0.2964182,0.6354065,0.2964182c0.0105438,0,0.0207214-0.0049853,0.0312653-0.0053892
				c0.0105362,0.0004039,0.0207138,0.0053892,0.0312576,0.0053892c0.2365952,0,0.4715729-0.1007824,0.6354141-0.2964182
				l1.9771042-2.3621833c0.2023773-0.1786594,0.5235825-0.3767207,0.9539261-0.3767207
				c0.8895264,0,1.613327,0.8666191,1.613327,1.9315686c0,0.4572926,0.3705215,0.8278151,0.8278122,0.8278151
				c0.4572983,0,0.8278198-0.3705225,0.8278198-0.8278151C94.2044983,3.5628757,92.7380371,1.9535946,90.9355392,1.9535946z"/>
		</g>
	</g>
</g>
    <g id="Warstwa_2">
</g>
</svg>
