<?xml version="1.0" encoding="utf-8"?>
<!-- Generator: Adobe Illustrator 26.0.1, SVG Export Plug-In . SVG Version: 6.00 Build 0)  -->
<svg version="1.1" xmlns="http://www.w3.org/2000/svg" xmlns:xlink="http://www.w3.org/1999/xlink" x="0px" y="0px"
     viewBox="0 0 100 25" style="enable-background:new 0 0 100 25;" xml:space="preserve">
<style type="text/css">
	.st0{fill:#333333;}
	.st1{fill:#E6E6E6;}
	.st2{clip-path:url(#SVGID_00000083074895985747797340000014100265219526112426_);}
	.st3{clip-path:url(#SVGID_00000018931511258989123360000003644334628467648447_);}
	.st4{clip-path:url(#SVGID_00000044872345934761734740000003899177273228150193_);}
	.st5{fill:#FFFFFF;}
</style>
    <g id="Warstwa_1">
	<g>
		<path class="st0" d="M8.1009903,15.2803259c0.5271387-0.1236448,0.8543787-0.651536,0.7299805-1.1786747
			c-0.1237154-0.527174-0.6516075-0.8536959-1.17871-0.7292976c-0.5263481,0.1237154-0.852942,0.6516075-0.7292261,1.1779556
			C7.0474324,15.0774479,7.5753245,15.4040051,8.1009903,15.2803259z M13.1815567,15.2803259
			c0.5271025-0.1236448,0.8543777-0.651536,0.7299805-1.1786747c-0.1237164-0.527174-0.6516085-0.8536959-1.1787462-0.7292976
			c-0.5263481,0.1237154-0.8529062,0.6516075-0.7291899,1.1779556
			C12.1279984,15.0774479,12.6558905,15.4040051,13.1815567,15.2803259z M18.2975578,15.2803259
			c0.5271015-0.1236448,0.8543777-0.651536,0.7299805-1.1786747c-0.1237164-0.527174-0.6516094-0.8536959-1.1787472-0.7292976
			c-0.5263481,0.1237154-0.8529053,0.6516075-0.7291908,1.1779556
			C17.2439995,15.0774479,17.7718906,15.4040051,18.2975578,15.2803259z M8.1009903,18.8262215
			c0.5271387-0.1236439,0.8543787-0.6515369,0.7299805-1.1786385c-0.1237154-0.5272102-0.6516075-0.8536968-1.17871-0.7292995
			c-0.5263481,0.1237164-0.852942,0.6516094-0.7292261,1.1779575C7.0474324,18.6233425,7.5753245,18.9499359,8.1009903,18.8262215z
			 M13.1815567,18.8262215c0.5271025-0.1236439,0.8543777-0.6515369,0.7299805-1.1786385
			c-0.1237164-0.5272102-0.6516085-0.8536968-1.1787462-0.7292995c-0.5263481,0.1237164-0.8529062,0.6516094-0.7291899,1.1779575
			C12.1279984,18.6233425,12.6558905,18.9499359,13.1815567,18.8262215z M18.2975578,18.8262215
			c0.5271015-0.1236439,0.8543777-0.6515369,0.7299805-1.1786385c-0.1237164-0.5272102-0.6516094-0.8536968-1.1787472-0.7292995
			c-0.5263481,0.1237164-0.8529053,0.6516094-0.7291908,1.1779575
			C17.2439995,18.6233425,17.7718906,18.9499359,18.2975578,18.8262215z M19.461153,3.309375v-1.300128h-1.2518768v1.300128
			H7.876967v-1.300128H6.6251259v1.300128H2.0639074v19.7091427h22.0921249V3.309375H19.461153z M22.8431225,21.7055721H3.3768163
			V10.4928217h19.4663067V21.7055721z M22.8431225,9.1799126H3.3768163V4.6223197h19.4663067V9.1799126z"/>
        <path class="st0" d="M82.9579468,12.4855204h-1.3345261v5.1818075h1.3345261V12.4855204z M87.4061813,12.4855204h-1.3345566
			v5.1818075h1.3345566V12.4855204z M91.8520889,12.4855204h-1.3345261v5.1818075h1.3345261V12.4855204z M91.8045197,7.4528108
			l-4.9786072-4.9774933l-4.97789,4.9774933h-6.3599777v1.3345571h0.7719116v13.4822493h20.9578934V8.7873678h0.7182465V7.4528108
			H91.8045197z M86.8263092,4.3617487l3.0910568,3.0910621h-6.1821213L86.8263092,4.3617487z M95.8833313,20.9350605H77.5944748
			V8.7873678h18.2888565V20.9350605z"/>
        <g>
			<path class="st0" d="M60.7337112,9.7588482h-2.5452118V5.4386997H55.493309v-3.371253l-5.2961769,3.3591938l0.0076294,0.0120592
				h-9.213192v6.7583332h-2.0221519v1.3114204h2.0221519v7.3266144h3.0871086v2.32061h4.0036011v-2.32061h2.2987518v2.32061
				h4.0043526v-2.32061h3.8031158v-4.8884296h2.5452118V9.7588482z M54.1818886,4.4536276v0.9850721H52.628109L54.1818886,4.4536276
				z M46.7708588,21.8442593h-1.3807602v-1.0091915h1.3807602V21.8442593z M53.0739632,21.8442593h-1.3815117v-1.0091915h1.3815117
				V21.8442593z M56.8770828,19.5236492H42.3029861v-12.77353h14.5740967V19.5236492z M59.4222908,14.6352186h-1.2337914v-3.5649509
				h1.2337914V14.6352186z"/>
            <rect x="52.8348541" y="10.3390007" class="st0" width="1.5435561" height="1.5435561"/>
		</g>
	</g>
</g>
    <g id="Warstwa_2">
</g>
</svg>
