<?xml version="1.0" encoding="utf-8"?>
<!-- Generator: Adobe Illustrator 26.0.1, SVG Export Plug-In . SVG Version: 6.00 Build 0)  -->
<svg version="1.1" xmlns="http://www.w3.org/2000/svg" xmlns:xlink="http://www.w3.org/1999/xlink" x="0px" y="0px"
     viewBox="0 0 100 25" style="enable-background:new 0 0 100 25;" xml:space="preserve">
<style type="text/css">
	.st0{fill:#333333;}
	.st1{fill:#E6E6E6;}
	.st2{clip-path:url(#SVGID_00000167366569400189537190000004750356388262941067_);}
	.st3{clip-path:url(#SVGID_00000130617191930435959470000016636796677661644687_);}
	.st4{clip-path:url(#SVGID_00000121998972303917622140000007115120630341034146_);}
	.st5{fill:#FFFFFF;}
</style>
    <g id="Warstwa_1">
	<g>
		<path class="st5" d="M20.9160271,9.073741l-9.2038126,7.5291853l-0.0205288,0.0047474L2.4776738,9.0710325L2.0639074,9.3817806
			v5.6451578v0.2384186v7.2274466c0,0.3056412,0.2477601,0.5533543,0.5533547,0.5533543H20.765934
			c0.3056564,0,0.5533543-0.2477131,0.5533543-0.5533543V15.265357v-0.2384186V9.3784647L20.9160271,9.073741z"/>
        <path class="st0" d="M20.9210796,9.0696068l-9.1766586,7.5069485v6.4696026h9.021513
			c0.3056564,0,0.5533543-0.2477131,0.5533543-0.5533543V15.265357v-0.2384186V9.3539915L20.9210796,9.0696068z"/>
        <polygon class="st0" points="11.7130747,17.1167202 21.1773911,9.3744011 21.1773911,9.2853441 11.7091894,1.9671272
			11.6741734,1.9671272 2.3244259,9.193697 		"/>
        <polygon class="st5" points="11.6916857,16.6076736 11.7122145,16.6029263 19.451189,10.2720528 19.451189,6.649889
			3.9507174,6.649889 3.9507174,10.2759161 		"/>
        <polygon class="st5" points="20.9210796,9.0696068 11.7122145,16.6029263 11.6916857,16.6076736 2.4802136,9.0731125
			2.1569483,9.322649 11.6916857,17.1216965 11.7130785,17.1167183 21.2568569,9.3094044 		"/>
        <path class="st0" d="M14.3140631,10.9688702c0-1.4169979-1.1527472-2.5697575-2.5696449-2.5697575
			c-1.4169445,0-2.5696926,1.1527596-2.5696926,2.5697575c0,1.4168873,1.1527481,2.5696354,2.5696926,2.5696354
			c0.4105873,0,0.8030167-0.0940256,1.1663723-0.279377l-0.140831-0.2762461
			c-0.3193617,0.1629848-0.6644573,0.2455568-1.0255413,0.2455568c-1.2459688,0-2.2596703-1.0136576-2.2596703-2.2595692
			c0-1.2460222,1.0137014-2.2596798,2.2596703-2.2596798c1.2459211,0,2.2595682,1.0136576,2.2595682,2.2596798
			c0,0.1931324-0.0245256,0.3841057-0.0725126,0.569026h-0.0001097c-0.0029211,0.011775-0.006053,0.0230198-0.0089769,0.0344744
			c-0.0063744,0.0229082-0.0128593,0.0457172-0.019886,0.0684166l0.0004416,0.0000992
			c-0.0913239,0.2974281-0.2391825,0.4609556-0.448637,0.4609556c-0.1857843,0-0.3388186-0.1092653-0.3388186-0.4154472v-2.071517
			h-0.3553534v0.5520601c-0.2240438-0.3662767-0.6121559-0.5738955-1.0821753-0.5738955
			c-0.7761021,0-1.3555641,0.5848074-1.3555641,1.4046803c0,0.8253832,0.5794621,1.4157028,1.3555641,1.4157028
			c0.4809437,0,0.8745546-0.2187529,1.0930862-0.5958309c0.021946,0.3770781,0.2624111,0.5958309,0.6176662,0.5958309
			c0.3785934,0,0.6647778-0.2378769,0.8084183-0.6809921l0.0014057,0.000432
			C14.2751522,11.4864454,14.3140631,11.2293348,14.3140631,10.9688702z M11.7271299,12.0963306
			c-0.6067429,0-1.0439701-0.4426842-1.0439701-1.098608c0-0.6559248,0.4372272-1.0876856,1.0439701-1.0876856
			c0.5903196,0,1.0385141,0.4263601,1.0385141,1.0876856C12.7656441,11.6645594,12.3174496,12.0963306,11.7271299,12.0963306z"/>
        <polygon class="st5" points="20.9210796,9.0696068 11.7122145,16.6029263 11.6916857,16.6076736 2.4802136,9.0731125
			2.1569483,9.322649 11.6916857,17.1216965 11.7130785,17.1167183 21.2568569,9.3094044 		"/>
        <path class="st5" d="M50.5136871,12.6005764c-0.8120689,0-1.4704742-0.6583519-1.4704742-1.4705238
			s0.6584053-1.4705229,1.4704742-1.4705229V6.7544155h-0.1062355c-0.1196938,0.0060658-0.2377777,0.0529675-0.3291779,0.1444154
			l-6.758934,6.758985v8.8487873c0,0.2768898,0.2244644,0.5013046,0.5013046,0.5013046h6.6930428V12.6005764z"/>
        <path class="st5" d="M57.7080727,20.9590302h-1.5749931c-0.4256668,0-0.7708969,0.3450375-0.7708969,0.7709446v1.2764683
			L57.7080727,20.9590302z"/>
        <path class="st0" d="M50.9491425,6.8988285c-0.0832214-0.0832181-0.1887703-0.1278715-0.2973061-0.1400123V6.7544165h-0.1381493
			v2.9051123h0.0000458c0.8121223,0,1.4705238,0.6583529,1.4705238,1.4705229s-0.6584015,1.4705229-1.4705238,1.4705229h-0.0000458
			v10.4073334h4.8484955l2.3458939-2.0488815l-2.3458939,2.0474129v-1.2764683c0-0.4259071,0.3452339-0.7709446,0.7709007-0.7709446
			h1.5749931v-7.3012104L50.9491425,6.8988285z"/>
        <path class="st5" d="M52.2645302,8.2142611h-0.4004631c-0.7681046,0-1.3930206,0.6249657-1.3930206,1.3930826V9.662076
			c0.1525459-0.0059757,0.3231506,0.0117502,0.5013046,0.070694V9.6853762V9.6073437
			c0-0.4917088,0.4000092-0.8917789,0.891716-0.8917789h0.9017677L52.2645302,8.2142611z"/>
        <path class="st0" d="M52.6957703,5.5157447h-3.647274c-0.4917068,0-0.891716-0.4000602-0.891716-0.8917689V4.4775953
			c0-0.4917085,0.4000092-0.8917687,0.891716-0.8917687h0.4808922c0.7681084,0,1.3930206-0.6249652,1.3930206-1.3930724h-0.0010719
			c0-0.0013735,0.0003929-0.0026469,0.0003929-0.0040205c0-0.1382494-0.112114-0.250361-0.250412-0.250361
			c-0.1383018,0-0.2504005,0.1121116-0.2504005,0.250361c0,0.0013735,0.0003891,0.0026469,0.0003891,0.0040205h-0.0001984
			c0,0.4916985-0.400013,0.8917687-0.8917198,0.8917687h-0.4808922c-0.7681046,0-1.3930206,0.6249652-1.3930206,1.3930724v0.1463804
			c0,0.7681074,0.6249161,1.3930726,1.3930206,1.3930726h3.647274c0.4917107,0,0.8917274,0.4000602,0.8917274,0.8917685v0.1463809
			c0,0.4917083-0.4000168,0.8917685-0.8917274,0.8917685h-1.0990486c-0.7681046,0-1.3930206,0.6249647-1.3930206,1.3930826
			v0.0780325v0.4586124v0.482214h0.0026855c0.0074921,0.1315918,0.1155434,0.2362547,0.2489891,0.2362547
			c0.1334572,0,0.241497-0.1046629,0.2489891-0.2362547h0.0006409v-0.0064669
			c0.0000992-0.0025463,0.000782-0.0050936,0.000782-0.0077295c0-0.0026474-0.0006828-0.0050936-0.000782-0.007741V9.8766937
			V9.4180813V9.3400488c0-0.4917088,0.4000092-0.8917789,0.891716-0.8917789h1.0990486
			c0.768116,0,1.3930321-0.6249652,1.3930321-1.3930721V6.9088168C54.0888023,6.1407099,53.4638863,5.5157447,52.6957703,5.5157447z
			"/>
        <path class="st0" d="M50.527832,14.6381168c-0.0065346-0.0005875-0.0128479-0.001976-0.0195312-0.001976
			c-0.1361465,0-0.2388039,0.0939941-0.2388039,0.2187262v0.4373684c-0.8193169,0.0563965-1.3893051,0.5688677-1.3893051,1.2524748
			c0,0.8644543,0.7969437,1.0922012,1.3893051,1.2548313v1.5824356c-0.4641457-0.05797-0.806736-0.2837467-1.0139656-0.4649792
			c-0.0511589-0.0439625-0.1105919-0.0661926-0.1766319-0.0661926c-0.164341,0-0.2788963,0.161068-0.2788963,0.3055859
			c0,0.0867481,0.0338249,0.1644897,0.0951195,0.2189274c0.3611908,0.3259392,0.83601,0.5167732,1.3743744,0.5527077v0.4172955
			c0,0.1247387,0.1026573,0.2187328,0.2388039,0.2187328c0.0066833,0,0.0129967-0.0013885,0.0195312-0.001976V14.6381168z
			 M50.2694969,17.1390362c-0.4731064-0.1420689-0.764782-0.299511-0.764782-0.6277142
			c0-0.3646183,0.3061676-0.6330843,0.764782-0.6742134V17.1390362z"/>
        <path class="st5" d="M50.7270317,17.2604389v-1.4014902c0.3013725,0.0448437,0.5521698,0.1589098,0.786911,0.3574667
			c0.0490532,0.0421009,0.11343,0.0661945,0.1765823,0.0661945c0.1574402,0,0.2855568-0.1341381,0.2855568-0.2989283
			c0-0.0880165-0.0351982-0.1657629-0.0956116-0.2126627c-0.3198738-0.2743464-0.6763649-0.4201355-1.1534386-0.4712448V14.854867
			c0-0.118784-0.0952644-0.2152443-0.2133446-0.2181816v5.9268236c0.1180801-0.0029373,0.2133446-0.0994034,0.2133446-0.2181873
			V19.927536c1.3134766-0.1129951,1.4160385-1.0420704,1.4160385-1.3255177
			C52.1430702,17.7394238,51.4463348,17.4642887,50.7270317,17.2604389z M50.7270317,19.3820686v-1.4542637
			c0.4764366,0.1465721,0.7914658,0.3282948,0.7914658,0.7209167
			C51.5184975,18.9582195,51.3098984,19.3106003,50.7270317,19.3820686z"/>
        <path class="st5" d="M76.8679657,12.5000019c0,5.8177967,4.7162399,10.5340347,10.5340347,10.5340347V1.9659604
			C81.5842056,1.9659604,76.8679657,6.6821985,76.8679657,12.5000019z"/>
        <path class="st0" d="M87.4019928,1.9659626v21.0680771c5.8178558,0,10.5341034-4.7162418,10.5341034-10.5340395
			S93.2198486,1.9659626,87.4019928,1.9659626z"/>
        <path class="st0" d="M87.4020386,6.4240112h-0.000061c-0.211853,0.0024414-0.3877563,0.1539917-0.427124,0.3549194h-0.0001221
			l-1.1502686,3.4699707h-3.824646c-0.2433472,0-0.4406128,0.1971436-0.4406128,0.4406128
			c0,0.1591797,0.0846558,0.2981567,0.2111206,0.3756104l-0.0001221,0.0004883l3.0811157,2.2266846l-1.1529541,3.552124
			c-0.0026855,0.0076904-0.005249,0.0155029-0.0075073,0.0233154l-0.0022583,0.0068359l0.0004272,0.0002441
			c-0.0100098,0.0368042-0.0157471,0.0751953-0.0157471,0.1151123c0,0.2433472,0.1973267,0.4405518,0.4406128,0.4405518
			c0.1116943,0,0.2133789-0.0418091,0.2910156-0.1102295l2.9971313-2.1594849V6.4240112z"/>
        <path class="st5" d="M93.0432129,11.0592651c0.1212158-0.0784302,0.2016602-0.2146606,0.2016602-0.369751
			c0-0.239563-0.1913452-0.434021-0.4293213-0.4400635l-0.0001221-0.0005493h-3.824707l-1.1501465-3.4699707h-0.0013428
			C87.7995605,6.576416,87.6212158,6.423584,87.4070435,6.423584c-0.001709,0-0.0033569,0.0004272-0.0050659,0.0004272v8.7368164
			l0.0055542-0.0040283l3.0028076,2.1634521l0.0059814-0.0037842c0.078186,0.0706177,0.1814575,0.1140137,0.295105,0.1140137
			c0.2432861,0,0.4405518-0.1971436,0.4405518-0.4405518c0-0.0805054-0.0218506-0.1556396-0.0594482-0.220459l-1.1287231-3.4771729
			l3.0811768-2.2266846L93.0432129,11.0592651z"/>
        <path class="st0" d="M87.4019775,21.5125732c-4.9904175,0-9.0505371-4.0600586-9.0505371-9.0505371
			s4.0601196-9.0505371,9.0505371-9.0505371V2.7957764c-5.3299561,0-9.6662598,4.3362427-9.6662598,9.6662598
			s4.3363037,9.6662598,9.6662598,9.6662598V21.5125732z"/>
        <path class="st5" d="M87.4020386,2.7957764V3.411499c4.9905396,0,9.0506592,4.0600586,9.0506592,9.0505371
			s-4.0601196,9.0505371-9.0506592,9.0505371v0.6157227c5.3300171,0,9.6663208-4.3362427,9.6663208-9.6662598
			S92.7320557,2.7957764,87.4020386,2.7957764z"/>
	</g>
</g>
    <g id="Warstwa_2">
</g>
</svg>
