<svg version="1.1" xmlns="http://www.w3.org/2000/svg" xmlns:xlink="http://www.w3.org/1999/xlink" x="0px" y="0px" viewBox="0 0 640 640">
<circle fill="#5a6684" cx="320" cy="320" r="320"/>
<path fill="#efefef" d="M189.4,545.3c-25.1,5.9-49.9,13.1-73.4,21.3c55.4,45.9,126.5,73.5,204,73.5c76.5,0,146.7-26.8,201.7-71.6 c-29.8-11.3-61.6-20.9-93.4-27.9c-29.1-18.8-37.7-35.9-33.5-83c30.9-28.4,54.4-73.2,65-125.5c12.1-1.7,21.7-18.1,21.7-38 c0-15.8-6-29.4-14.5-35.2c3-96.3-15.2-170.5-148.9-170.5c-127,0-150.6,73.8-148.7,169.8c-9.1,5.3-15.6,19.4-15.6,35.9 c0,20.4,9.9,37,22.4,38.1c9,46.3,27.4,86.6,52.8,115C235.9,506.4,226.6,523.1,189.4,545.3z"/>
</svg>
