<?xml version="1.0" encoding="utf-8"?>
<svg version="1.1" xmlns="http://www.w3.org/2000/svg" xmlns:xlink="http://www.w3.org/1999/xlink" x="0px" y="0px" viewBox="0 0 1160 366" style="enable-background:new 0 0 1160 366;" xml:space="preserve">
<style type="text/css">.st0{fill:none;stroke:#000000;stroke-width:9;stroke-linecap:round;stroke-linejoin:round;stroke-miterlimit:10;}.st1{fill:#222;}
</style><path class="st0" d="M4.3,154c0.2,3.5,3.2,5.1,5.3,7.2c18.2,18.3,36.3,36.6,54.7,54.6c4,3.9,5.2,7.9,5.3,13.3 c0.1,18.2-1,36.4,0.6,54.6c2.2,26.4,24.3,50,51.3,54.1c5.9,0.9,11.8,1.2,17.8,1.2c317.3,0,634.6,0,952,0 c35.7,0,60.7-27.1,63.2-52.1c0.4-4.4,1.3-8.8,1.3-13.2c0.1-60.6,0.1-121.1,0-181.7c0-12.9-2.5-25.3-9.9-36.2 c-13.3-19.8-32.2-29.1-55.9-29c-23.9,0.1-47.8,0-71.8,0c-293,0-585.9,0-878.9,0C125,27,111,28.6,99.2,37 c-14,10-25.1,22.4-27.9,40.6c-2.1,13.4-0.6,26.8-1.1,40.2c-0.3,8.5,0.2,17.1-0.1,25.7c-0.3,8.2-0.9,9.2-9.1,9.3 c-18.7,0.2-37.3-0.8-56,0.5"/>
<g class="st1"><path d="M255.7,223.4l-8.7-76.3h23.5l1.7,37.7v0.7l0.1,3.5v2.8v2.6c0.3-1.9,0.7-3.6,1.2-5.3l1.4-4.3l12-37.7h25l-0.7,37.7v2 l-0.1,2.3l-0.1,2.5l-0.2,2.4l0.9-2.5l0.7-2.5l0.6-1.7l0.9-2.5l14-37.7h25.4l-34.6,76.3h-25.3l0.4-31.2l0.1-4 c0-3.8,0.2-7.6,0.5-11.5c-0.3,1.2-1.3,5.1-3.1,11.5l-1,3.7l-0.1,0.3l-10.7,31.2H255.7z"/><path d="M379.5,224.8c-2.2,0.3-4.4,0.4-6.6,0.4c-6.5,0-11.7-1.3-15.8-3.8c-4.1-2.5-7.1-6-9.1-10.4c-2-4.4-3.4-9.5-4-15.3 c0.8-6,2.7-11.3,5.8-15.7c3.1-4.4,7.3-7.8,12.6-10.1c5.3-2.3,11.5-3.5,18.8-3.5c5.7,0,10.6,0.9,14.7,2.8c4.1,1.9,7.3,4.6,9.5,8.1 c2.2,3.6,3.3,7.8,3.3,12.6c0,3.7-0.7,7.8-2.1,12.3c-1,3.1-2.3,6-4,8.6s-3.7,4.9-6.1,6.8c-2.4,2-5,3.5-7.8,4.7 C385.9,223.6,382.8,224.4,379.5,224.8z M366.6,199.7c0,2.9,0.7,5.1,2.2,6.7c1.5,1.6,3.6,2.3,6.4,2.3c1.7-0.2,3.3-1.2,4.6-2.9 c1.4-1.7,2.7-4.3,4.2-7.9c0.9-2,1.3-4.4,1.3-7.2c0-2.1-0.2-3.7-0.6-4.6c-0.9-2.6-2.9-3.9-6.1-3.9c-1.9,0-3.8,0.5-5.7,1.6 c-2.2,1.3-3.8,3.6-4.7,7.1C367.4,194.3,366.8,197.3,366.6,199.7z"/><path d="M432.6,223.4h-24.5l11.7-55.3H441l0.1,8.3c0.5-0.8,1-1.5,1.4-1.9c1.9-2.4,4.1-4.2,6.5-5.3c2.4-1.2,5.3-1.7,8.6-1.7 c1.2,0.2,1.9,0.3,2.1,0.4l-4.6,21.8c-0.8-0.3-1.3-0.4-1.6-0.5c-1.1-0.3-2.2-0.4-3.4-0.4c-2.1,0-4,0.5-5.7,1.6 c-1.7,1.1-3.2,2.7-4.5,4.9c-1.3,2.2-2.3,4.9-3,8.2L432.6,223.4z"/><path d="M462.1,178.4c5.3-7.4,12-11.1,20-11.1c3,0,6.1,0.5,9.2,1.6c3.1,1.1,6,2.6,8.8,4.7l5.6-26.5h24.5l-16,76.3h-20.7l-0.5-7.7 c-0.5,0.7-1.1,1.3-1.7,1.8c-3.7,4-7.8,6.4-12.5,7.2c-1.3,0.2-2.6,0.3-3.9,0.3c-3.8,0-7.1-0.9-10.1-2.8c-3-1.9-5.3-4.6-7-8.1 c-1.7-3.5-2.5-7.6-2.5-12.3c0-2,0.1-3.9,0.4-5.8C456.4,189.3,458.6,183.4,462.1,178.4z M480.1,195.7c-0.2,0.8-0.3,2.3-0.3,4.5 c0,1.9,0,3,0.1,3.3c0.5,1.5,1.3,2.7,2.5,3.6c1.2,0.9,2.5,1.4,4,1.4c1.6,0,3.1-0.5,4.5-1.4c3.9-2.3,6.2-7.6,7-15.9 c0-2.2-0.2-3.7-0.5-4.7c-0.4-1.3-1.2-2.4-2.4-3.2c-1.2-0.8-2.4-1.2-3.8-1.2c-1.8,0-3.6,0.7-5.2,2 C483.4,186.2,481.5,190.1,480.1,195.7z"/><path d="M595.8,223.4H553l16.1-76.3h35c5.8,0,10.8,0.8,15,2.3c4.2,1.5,7.3,3.6,9.4,6.4c2.1,2.7,3.1,5.9,3.1,9.6 c0,2.3-0.4,4.6-1.2,7.2c-0.8,2.4-2.1,4.5-3.9,6.5c-1.8,2-4,3.5-6.6,4.6c-0.5,0.2-1.2,0.4-2.2,0.7c1.3,0.4,2.5,1,3.8,1.9 c1.8,1.3,3.2,3,4.3,5.3c1,2.2,1.6,4.6,1.6,7.3c0,2.3-0.5,4.9-1.4,7.8c-0.5,1.7-1.2,3.1-2,4.4c-1.7,2.9-3.8,5.2-6.3,7 c-2.4,1.8-5.4,3.1-9,4.1C605,223,600.7,223.4,595.8,223.4z M582.5,203.5h11.6c2.7,0,4.8-0.4,6.3-1.2c1.5-0.8,2.6-2.1,3.2-3.8 c0.4-0.8,0.6-1.7,0.6-2.9c0-1.4-0.4-2.6-1.3-3.5c-0.9-0.9-2-1.4-3.4-1.4l-14.3-0.1L582.5,203.5z M588.1,176h10.1 c4.5,0,7.2-1.4,8.2-4.3c0.3-1,0.5-1.9,0.5-2.5c0-2.9-2.4-4.3-7.2-4.3h-9.3L588.1,176z"/><path d="M663.7,188.1c1.8-0.3,3.1-0.7,3.8-1c0.7-0.3,1.3-0.7,1.7-1.1s1.1-1,1.9-1.8l0.2-1c0-0.8-0.2-1.5-0.7-2 c-0.4-0.4-1.2-0.7-2.5-0.9l-1.5-0.1l-0.2-0.1c-1.6,0-2.9,0.4-4,1.3c-1.1,0.9-1.8,2-2,3.5c-0.1,0.1-0.1,0.4-0.1,0.7h-25.2 c0.1-0.6,0.2-1.3,0.5-2.1c1.6-5.9,4.8-10.2,9.4-12.8c4.6-2.6,11.7-3.9,21.1-3.9h2.3c6.3,0.1,11.4,0.8,15.5,2c4.1,1.2,7,2.8,8.8,4.8 c1.8,2,2.7,4.5,2.7,7.3c0,1.3-0.1,2.4-0.4,3.5l-2.8,13.8l-0.3,1.5c0,0.2-0.1,0.3-0.1,0.4c0,0.1-0.1,0.3-0.1,0.7 c0,0.7,0.4,1.4,1.1,1.9c0.7,0.5,1.7,0.8,3,0.8c0.1-0.1,0.2-0.1,0.3-0.2c0.1,0,0.2-0.1,0.4-0.2l-4.1,19.9c-3.1,0.6-6.7,1-10.6,1.1 c-0.8,0.1-2,0.1-3.6,0.1c-3.6,0-6.3-0.3-7.9-0.9c-1.7-0.6-2.9-1.6-3.8-3c-0.4-1-0.6-1.8-0.6-2.4c-1.8,2.2-4.2,3.8-7,5 c-2.9,1.2-6.1,1.8-9.7,1.8c-0.7,0-1.9-0.1-3.6-0.2c-3.8-0.4-7-1.3-9.6-2.7c-2.6-1.4-4.5-3.3-5.8-5.6c-1.3-2.3-1.9-4.9-1.9-7.8 c0-1.1,0.1-2.4,0.4-3.9c1.3-7.1,6.5-11.7,15.6-13.6c1.1-0.3,2.2-0.5,3.3-0.6l14-2.1c0.5-0.1,0.9-0.1,1.2-0.2 C663.1,188.1,663.4,188.1,663.7,188.1z M669.1,198.6l-1.6,0.7c-0.6,0.3-1.6,0.5-2.7,0.7l-7.3,1.6l-1.3,0.4 c-1.5,0.4-2.6,1.1-3.3,2.1c-0.7,0.9-1.1,1.9-1.1,2.8c0,1.7,0.7,2.8,2.1,3.4c0.6,0.3,1.6,0.5,3,0.6c1,0,1.7,0,2.2-0.1 c2.3-0.3,4.1-1.1,5.5-2.3c1.4-1.2,2.5-3,3.3-5.4l0.6-1.9L669.1,198.6z"/><path d="M719.8,223.4h-24.5l16.1-76.3H736L719.8,223.4z"/><path d="M752.9,223.4h-24.5l16.1-76.3h24.6L752.9,223.4z"/><path d="M800.3,224.8c-2.2,0.3-4.4,0.4-6.6,0.4c-6.5,0-11.7-1.3-15.8-3.8c-4.1-2.5-7.1-6-9.1-10.4c-2-4.4-3.4-9.5-4-15.3 c0.8-6,2.7-11.3,5.8-15.7c3.1-4.4,7.3-7.8,12.6-10.1c5.3-2.3,11.5-3.5,18.8-3.5c5.7,0,10.6,0.9,14.7,2.8c4.1,1.9,7.3,4.6,9.5,8.1 c2.2,3.6,3.3,7.8,3.3,12.6c0,3.7-0.7,7.8-2.1,12.3c-1,3.1-2.3,6-4,8.6c-1.7,2.6-3.7,4.9-6.1,6.8c-2.4,2-5,3.5-7.8,4.7 C806.7,223.6,803.6,224.4,800.3,224.8z M787.4,199.7c0,2.9,0.7,5.1,2.2,6.7c1.5,1.6,3.6,2.3,6.4,2.3c1.7-0.2,3.3-1.2,4.6-2.9 c1.4-1.7,2.7-4.3,4.2-7.9c0.9-2,1.3-4.4,1.3-7.2c0-2.1-0.2-3.7-0.6-4.6c-0.9-2.6-2.9-3.9-6.1-3.9c-1.9,0-3.8,0.5-5.7,1.6 c-2.2,1.3-3.8,3.6-4.7,7.1C788.2,194.3,787.6,197.3,787.4,199.7z"/><path d="M867.8,224.8c-2.2,0.3-4.4,0.4-6.6,0.4c-6.5,0-11.7-1.3-15.8-3.8c-4.1-2.5-7.1-6-9.1-10.4c-2-4.4-3.4-9.5-4-15.3 c0.8-6,2.7-11.3,5.8-15.7c3.1-4.4,7.3-7.8,12.6-10.1c5.3-2.3,11.5-3.5,18.8-3.5c5.7,0,10.6,0.9,14.7,2.8c4.1,1.9,7.3,4.6,9.5,8.1 c2.2,3.6,3.3,7.8,3.3,12.6c0,3.7-0.7,7.8-2.1,12.3c-1,3.1-2.3,6-4,8.6c-1.7,2.6-3.7,4.9-6.1,6.8c-2.4,2-5,3.5-7.8,4.7 C874.1,223.6,871,224.4,867.8,224.8z M854.8,199.7c0,2.9,0.7,5.1,2.2,6.7c1.5,1.6,3.6,2.3,6.4,2.3c1.7-0.2,3.3-1.2,4.6-2.9 c1.4-1.7,2.7-4.3,4.2-7.9c0.9-2,1.3-4.4,1.3-7.2c0-2.1-0.2-3.7-0.6-4.6c-0.9-2.6-2.9-3.9-6.1-3.9c-1.9,0-3.8,0.5-5.7,1.6 c-2.2,1.3-3.8,3.6-4.7,7.1C855.6,194.3,855,197.3,854.8,199.7z"/><path d="M920.7,223.4h-24.4l11.7-55.3h21.1v7.8c0.8-0.8,1.8-1.6,3-2.4c3.7-2.6,7-4.4,10-5.4c2.4-0.9,4.7-1.3,7-1.3 c2.8,0,5.4,0.6,7.7,1.9c2.3,1.3,4.2,3.2,5.5,5.6c1.3,2.4,2,5.1,2.1,8.1c0,0.8-0.1,2-0.4,3.6l-7.8,37.4h-24l5.8-28 c0.3-1.4,0.5-2.7,0.5-3.8c0-1.6-0.4-3-1.1-4.3c-0.8-1.2-1.9-1.7-3.6-1.7c-1.6,0-2.9,0.6-3.9,1.7c-1.3,1.3-2.3,3.5-3,6.8 L920.7,223.4z"/>
</g></svg>
