<?xml version="1.0" encoding="utf-8"?>
<svg version="1.1" xmlns="http://www.w3.org/2000/svg" xmlns:xlink="http://www.w3.org/1999/xlink" x="0px" y="0px" viewBox="0 0 1160 366">
<style type="text/css">.st0{fill:#222;}.st1{fill:#fff;stroke:#222;stroke-width:9;stroke-linecap:round;stroke-linejoin:round;stroke-miterlimit:10;}
</style>
<path class="st1" d="M41.7,153.8c0.2,3.3,3,4.8,5,6.8c17.1,17.2,34.1,34.4,51.4,51.3c3.7,3.7,4.9,7.4,5,12.5 c0.1,17.1-0.9,34.3,0.5,51.4c2.1,24.8,22.8,47,48.2,50.8c5.6,0.8,11.1,1.2,16.7,1.2c298.3,0,596.6,0,895,0 c33.5,0,57-25.5,59.4-48.9c0.4-4.1,1.2-8.3,1.2-12.4c0.1-56.9,0.1-113.9,0-170.8c0-12.2-2.4-23.8-9.3-34 c-12.5-18.6-30.3-27.3-52.6-27.3c-22.5,0.1-45,0-67.5,0c-275.4,0-550.8,0-826.3,0c-13.4,0-26.6,1.5-37.7,9.4 c-13.2,9.4-23.6,21.1-26.2,38.2c-2,12.6-0.6,25.2-1,37.8c-0.3,8,0.2,16.1-0.1,24.1c-0.3,7.7-0.8,8.6-8.6,8.7 c-17.5,0.2-35.1-0.8-52.6,0.5"/><g class="st0"><path d="M168.1,219l-8.2-71.8h22.1l1.6,35.4v0.6l0.1,3.3v2.6v2.5c0.3-1.8,0.7-3.4,1.2-5l1.3-4l11.3-35.4h23.5l-0.6,35.4v1.9 l-0.1,2.2l-0.1,2.4l-0.2,2.2l0.8-2.3l0.7-2.4l0.6-1.6l0.8-2.4l13.2-35.4h23.9L227.6,219h-23.8l0.3-29.3l0.1-3.8 c0-3.5,0.2-7.1,0.5-10.8c-0.3,1.2-1.3,4.8-2.9,10.8l-1,3.5l-0.1,0.3L190.6,219H168.1z"/><path d="M280.7,220.3c-2,0.3-4.1,0.4-6.2,0.4c-6.1,0-11-1.2-14.8-3.6c-3.8-2.4-6.7-5.6-8.6-9.7c-1.9-4.1-3.2-8.9-3.8-14.4 c0.7-5.7,2.6-10.6,5.5-14.7s6.9-7.3,11.8-9.5c5-2.2,10.8-3.3,17.6-3.3c5.3,0,10,0.9,13.8,2.6c3.9,1.8,6.9,4.3,8.9,7.6 c2.1,3.3,3.1,7.3,3.1,11.9c0,3.5-0.7,7.3-2,11.5c-0.9,2.9-2.1,5.6-3.7,8c-1.6,2.4-3.5,4.6-5.7,6.4s-4.7,3.3-7.4,4.4 C286.7,219.2,283.8,219.9,280.7,220.3z M268.5,196.7c0,2.7,0.7,4.8,2.1,6.3s3.4,2.2,6,2.2c1.6-0.2,3.1-1.1,4.4-2.7 c1.3-1.6,2.6-4.1,3.9-7.4c0.8-1.9,1.2-4.2,1.2-6.8c0-2-0.2-3.4-0.5-4.3c-0.9-2.4-2.8-3.7-5.7-3.7c-1.8,0-3.6,0.5-5.4,1.5 c-2.1,1.2-3.6,3.4-4.4,6.7C269.2,191.6,268.7,194.4,268.5,196.7z"/><path d="M330.5,219h-23l11-52h19.9l0.1,7.8c0.5-0.8,0.9-1.4,1.3-1.8c1.8-2.2,3.9-3.9,6.1-5c2.2-1.1,4.9-1.6,8.1-1.6 c1.2,0.2,1.8,0.3,2,0.3l-4.3,20.5c-0.7-0.3-1.2-0.4-1.5-0.5c-1-0.3-2.1-0.4-3.2-0.4c-2,0-3.8,0.5-5.4,1.5c-1.6,1-3.1,2.5-4.2,4.6 c-1.2,2-2.1,4.6-2.8,7.7L330.5,219z"/><path d="M357.2,176.6c5-7,11.3-10.5,18.8-10.5c2.9,0,5.7,0.5,8.6,1.5c2.9,1,5.6,2.5,8.3,4.4l5.3-24.9h23L406.1,219h-19.5l-0.5-7.2 c-0.5,0.7-1,1.2-1.6,1.7c-3.4,3.7-7.4,6-11.8,6.7c-1.3,0.2-2.5,0.3-3.7,0.3c-3.5,0-6.7-0.9-9.5-2.6c-2.8-1.8-5-4.3-6.6-7.6 c-1.6-3.3-2.4-7.2-2.4-11.6c0-1.9,0.1-3.7,0.4-5.4C351.8,186.9,353.9,181.4,357.2,176.6z M374.2,192.9c-0.2,0.7-0.3,2.2-0.3,4.2 c0,1.8,0,2.8,0.1,3.1c0.4,1.4,1.2,2.6,2.4,3.4c1.1,0.9,2.4,1.3,3.8,1.3c1.5,0,2.9-0.4,4.2-1.3c3.7-2.2,5.9-7.2,6.6-14.9 c0-2-0.2-3.5-0.5-4.4c-0.4-1.3-1.2-2.3-2.3-3c-1.1-0.8-2.3-1.1-3.6-1.1c-1.7,0-3.4,0.6-4.9,1.9C377.3,184,375.4,187.7,374.2,192.9z "/><path d="M482.9,219h-40.2l15.1-71.8h32.9c5.5,0,10.2,0.7,14.1,2.1c3.9,1.4,6.8,3.4,8.8,6c2,2.6,2.9,5.6,2.9,9.1 c0,2.1-0.4,4.4-1.2,6.7c-0.7,2.2-2,4.3-3.7,6.1s-3.8,3.3-6.2,4.4c-0.5,0.2-1.2,0.4-2.1,0.7c1.2,0.4,2.4,0.9,3.6,1.8 c1.7,1.2,3,2.9,4,4.9c1,2.1,1.5,4.3,1.5,6.8c0,2.2-0.4,4.6-1.3,7.4c-0.5,1.6-1.1,3-1.9,4.1c-1.6,2.7-3.6,4.9-5.9,6.6 c-2.3,1.7-5.1,3-8.5,3.8C491.5,218.6,487.5,219,482.9,219z M470.4,200.3h10.9c2.6,0,4.6-0.4,6-1.1c1.4-0.8,2.4-2,3-3.6 c0.4-0.7,0.5-1.6,0.5-2.7c0-1.3-0.4-2.4-1.2-3.3c-0.8-0.9-1.9-1.3-3.2-1.3l-13.4-0.1L470.4,200.3z M475.6,174.4h9.5 c4.2,0,6.8-1.3,7.7-4c0.3-1,0.5-1.8,0.5-2.4c0-2.7-2.3-4-6.8-4h-8.7L475.6,174.4z"/><path d="M546.7,185.8c1.7-0.3,2.9-0.6,3.6-0.9c0.7-0.3,1.2-0.6,1.6-1s1-1,1.8-1.7l0.2-1c0-0.7-0.2-1.4-0.7-1.9 c-0.4-0.4-1.1-0.7-2.4-0.8l-1.4-0.1l-0.2-0.1c-1.5,0-2.7,0.4-3.8,1.2c-1,0.8-1.7,1.9-1.9,3.3c-0.1,0.1-0.1,0.3-0.1,0.6h-23.6 c0.1-0.6,0.2-1.2,0.5-2c1.5-5.6,4.5-9.6,8.8-12c4.4-2.4,11-3.7,19.9-3.7h2.2c5.9,0.1,10.7,0.7,14.5,1.9s6.6,2.6,8.3,4.5 c1.7,1.9,2.6,4.2,2.6,6.9c0,1.2-0.1,2.3-0.4,3.3l-2.6,13l-0.3,1.4c0,0.2-0.1,0.3-0.1,0.4c0,0.1-0.1,0.3-0.1,0.6 c0,0.7,0.3,1.3,1,1.8c0.7,0.5,1.6,0.8,2.8,0.8c0.1-0.1,0.2-0.1,0.3-0.1s0.2-0.1,0.3-0.1l-3.9,18.8c-3,0.5-6.3,0.9-10,1.1 c-0.7,0.1-1.9,0.1-3.4,0.1c-3.4,0-5.9-0.3-7.5-0.8s-2.8-1.5-3.6-2.8c-0.4-1-0.6-1.7-0.6-2.3c-1.7,2-3.9,3.6-6.6,4.7 c-2.7,1.1-5.7,1.7-9.1,1.7c-0.6,0-1.8-0.1-3.4-0.2c-3.6-0.4-6.6-1.2-9-2.6c-2.4-1.3-4.2-3.1-5.5-5.3c-1.2-2.2-1.8-4.6-1.8-7.3 c0-1,0.1-2.2,0.3-3.7c1.2-6.7,6.1-11,14.7-12.8c1.1-0.3,2.1-0.5,3.1-0.6l13.1-2c0.4-0.1,0.8-0.1,1.1-0.2 C546.1,185.8,546.4,185.8,546.7,185.8z M551.8,195.6l-1.5,0.7c-0.6,0.3-1.5,0.5-2.6,0.7l-6.9,1.5l-1.2,0.4c-1.4,0.4-2.4,1-3.1,2 c-0.7,0.9-1,1.8-1,2.7c0,1.6,0.7,2.7,2,3.2c0.6,0.3,1.5,0.5,2.8,0.6c0.9,0,1.6,0,2.1-0.1c2.1-0.3,3.9-1,5.2-2.1 c1.3-1.1,2.4-2.8,3.1-5.1l0.6-1.8L551.8,195.6z"/><path d="M599.5,219h-23l15.1-71.8h23.1L599.5,219z"/><path d="M630.6,219h-23l15.1-71.8h23.1L630.6,219z"/><path d="M675.2,220.3c-2,0.3-4.1,0.4-6.2,0.4c-6.1,0-11-1.2-14.8-3.6c-3.8-2.4-6.7-5.6-8.6-9.7c-1.9-4.1-3.2-8.9-3.8-14.4 c0.7-5.7,2.6-10.6,5.5-14.7s6.9-7.3,11.8-9.5c5-2.2,10.8-3.3,17.6-3.3c5.3,0,10,0.9,13.8,2.6c3.9,1.8,6.9,4.3,8.9,7.6 c2.1,3.3,3.1,7.3,3.1,11.9c0,3.5-0.7,7.3-2,11.5c-0.9,2.9-2.1,5.6-3.7,8c-1.6,2.4-3.5,4.6-5.7,6.4s-4.7,3.3-7.4,4.4 C681.2,219.2,678.3,219.9,675.2,220.3z M663,196.7c0,2.7,0.7,4.8,2.1,6.3s3.4,2.2,6,2.2c1.6-0.2,3.1-1.1,4.4-2.7 c1.3-1.6,2.6-4.1,3.9-7.4c0.8-1.9,1.2-4.2,1.2-6.8c0-2-0.2-3.4-0.5-4.3c-0.9-2.4-2.8-3.7-5.7-3.7c-1.8,0-3.6,0.5-5.4,1.5 c-2.1,1.2-3.6,3.4-4.4,6.7C663.8,191.6,663.2,194.4,663,196.7z"/><path d="M738.6,220.3c-2,0.3-4.1,0.4-6.2,0.4c-6.1,0-11-1.2-14.8-3.6c-3.8-2.4-6.7-5.6-8.6-9.7c-1.9-4.1-3.2-8.9-3.8-14.4 c0.7-5.7,2.6-10.6,5.5-14.7s6.9-7.3,11.8-9.5c5-2.2,10.8-3.3,17.6-3.3c5.3,0,10,0.9,13.8,2.6c3.9,1.8,6.9,4.3,8.9,7.6 c2.1,3.3,3.1,7.3,3.1,11.9c0,3.5-0.7,7.3-2,11.5c-0.9,2.9-2.1,5.6-3.7,8c-1.6,2.4-3.5,4.6-5.7,6.4s-4.7,3.3-7.4,4.4 C744.6,219.2,741.7,219.9,738.6,220.3z M726.4,196.7c0,2.7,0.7,4.8,2.1,6.3s3.4,2.2,6,2.2c1.6-0.2,3.1-1.1,4.4-2.7 c1.3-1.6,2.6-4.1,3.9-7.4c0.8-1.9,1.2-4.2,1.2-6.8c0-2-0.2-3.4-0.5-4.3c-0.9-2.4-2.8-3.7-5.7-3.7c-1.8,0-3.6,0.5-5.4,1.5 c-2.1,1.2-3.6,3.4-4.4,6.7C727.2,191.6,726.6,194.4,726.4,196.7z"/><path d="M788.4,219h-22.9l11-52h19.8v7.4c0.8-0.7,1.7-1.5,2.8-2.3c3.4-2.4,6.6-4.1,9.4-5.1c2.2-0.8,4.4-1.2,6.6-1.2 c2.6,0,5.1,0.6,7.3,1.8c2.2,1.2,3.9,3,5.2,5.2c1.3,2.3,1.9,4.8,2,7.6c0,0.8-0.1,1.9-0.4,3.4l-7.4,35.1h-22.6l5.5-26.4 c0.3-1.3,0.4-2.5,0.4-3.6c0-1.5-0.3-2.9-1-4c-0.7-1.1-1.8-1.6-3.4-1.6c-1.5,0-2.7,0.5-3.7,1.6c-1.2,1.2-2.1,3.3-2.8,6.4L788.4,219z "/><path d="M882.2,219h-24.1l15.1-71.8h34.1c3.9,0,7.3,0.5,10.4,1.5c3.1,1,5.7,2.5,7.8,4.4c2.2,1.9,3.8,4.2,4.9,6.8 c1.1,2.6,1.7,5.5,1.7,8.7c0,3.1-0.5,6.2-1.5,9.3c-2.1,6.5-5.6,11.4-10.4,14.7c-4.8,3.3-11.1,4.9-18.8,4.9h-14.7L882.2,219z  M890.5,179.3h9.8c2.1,0,3.8-0.3,5.1-1s2.3-1.6,3.1-2.9c1-1.8,1.4-3.3,1.4-4.6c0-3-2.2-4.7-6.5-5.4c-0.3-0.1-0.6-0.1-1-0.1h-9 L890.5,179.3z"/><path d="M951.2,219h-24.1l15.1-71.8h37.4c3.5,0,6.7,0.4,9.6,1.3c2.9,0.9,5.3,2.1,7.4,3.8c2,1.6,3.5,3.6,4.6,5.8s1.6,4.7,1.6,7.4 c0,2.4-0.4,4.9-1.3,7.3c-0.8,2.5-2.1,4.7-4,6.6c-1.8,1.9-4.1,3.4-6.8,4.4c-0.7,0.4-1.6,0.7-2.8,1c1.2,0.5,2.4,1.2,3.6,2.2 c1.3,1.2,2.2,2.6,2.8,4.2c0.5,1.6,0.8,3.9,0.8,6.9c0,1.8,0,3.2-0.1,4.2l-0.6,10.6c0,0.7,0.3,1.7,1,3c0.7,1.3,1,2.2,1,2.6 c0,0.3-0.2,0.5-0.6,0.5h-25.1c-0.3-0.7-0.5-1.6-0.7-2.7c-0.1-1-0.2-2.3-0.2-3.9c0.1-0.5,0.2-1,0.2-1.4l0.8-7.8c0-3.2-0.7-5.5-2-6.9 s-3.3-2.1-5.9-2.1h-6.5L951.2,219z M959.8,177.5h7.9c2.6,0,4.6-0.3,6-0.8c1.4-0.5,2.5-1.4,3.3-2.7c1-1.5,1.4-2.9,1.4-4.1 c0-1.2-0.3-2.2-1-3c-0.7-0.8-1.6-1.4-2.7-1.6c-0.9-0.3-2.1-0.4-3.5-0.4h-8.8L959.8,177.5z"/><path d="M1027.2,219.8c-5.4-1-10.1-3.1-14-6.2s-6.9-6.9-8.8-11.4c-2-4.5-3-9.3-3-14.3c0-1.5,0.1-3.1,0.3-4.7 c0.6-5.1,1.9-9.7,3.8-13.9c1.9-4.2,4.3-7.9,7.3-11.1c3-3.2,6.4-5.9,10.2-7.9s7.9-3.3,12.3-3.9c3.1-0.4,5.6-0.5,7.3-0.5 c4.9,0,9.4,0.7,13.3,2.2s7.3,3.6,10.1,6.3c2.8,2.7,4.9,6.1,6.3,10c1.5,3.9,2.2,8.2,2.2,13c0,1.3-0.1,3.2-0.4,5.8 c-0.3,2.7-0.8,5.3-1.5,7.7c-1.3,4.7-3.1,8.9-5.4,12.7c-2.3,3.7-5.1,6.8-8.4,9.4c-3.3,2.6-7,4.5-11.2,5.8c-4.2,1.3-8.7,1.9-13.5,1.9 C1031.4,220.5,1029,220.2,1027.2,219.8z M1026.1,183.1c-0.1,0.6-0.2,1.9-0.2,3.7c0,3.5,0.2,6,0.5,7.4c0.7,2.2,1.9,4,3.7,5.4 c1.8,1.3,3.9,2,6.2,2c2.6,0,4.9-0.8,7.1-2.4c3.1-2.2,5.4-6.3,6.8-12.1c0.9-3.4,1.3-6.5,1.3-9.3c0-2.8-0.5-5.3-1.3-7.3 c-0.7-1.7-2-3.1-3.6-4.1c-1.7-1-3.5-1.5-5.6-1.5c-3.3,0-6.2,1.2-8.7,3.7c-1.6,1.6-2.9,3.5-3.9,5.9 C1027.5,176.8,1026.7,179.7,1026.1,183.1z"/></g></svg>
