<svg xmlns="http://www.w3.org/2000/svg" xmlns:xlink="http://www.w3.org/1999/xlink" width="250" height="256" viewBox="0 0 250 256">
  <defs>
    <clipPath id="clip-path">
      <path id="Path_181" data-name="Path 181" d="M21.791,24.894l-2.608-.939L16.83,22.4l-1.8-2.308-.486-2.853V15.242l1.492-3.464,1.751-2.547.89-.986,2.163-1.2,3.4-.392,3.275.668,3.1,2.056,1.635,2.714.636,3.148-.223,3.009-1.049,2.811L30.441,22.81l-2.173,1.57-1.929.815-2.371.191ZM21.168,4.636,17.848,6.528l-.8.519L15.311,9.221l-1.347,2.454-.792,2.232-.453,1.9-.214,2.837.456,1.749,1.155,2.385,2.332,2.116,2.289,1.192,3.339.9,2.322.56h2.258l2.8-1.049,3.067-2.258L34.1,21.252l1.081-3V15.274L34.32,11.14,32.244,7.665l-3.553-2.5-4.2-.668Z" transform="translate(-12.505 -4.493)" fill="#333"/>
    </clipPath>
    <clipPath id="clip-path-2">
      <path id="Path_184" data-name="Path 184" d="M138.886,4.676,137,6.807,136.225,9l.334,1.292,1.255.412,1.272.066,1.182-.595.666-1.6-.512-2.694-.393-1.453Z" transform="translate(-136.225 -4.429)" fill="#333"/>
    </clipPath>
    <clipPath id="clip-path-3">
      <path id="Path_187" data-name="Path 187" d="M225.074,17.118l3.3,8.383,2.039,2.163,2.219.471h1.517l2.5-1.3.266-2.262L235.9,21.39l-2.317-1.823L230.6,18.061l-4.831-.943Z" transform="translate(-225.074 -17.118)" fill="#333"/>
    </clipPath>
  </defs>
  <g id="Group_169" data-name="Group 169" transform="translate(-24 -23)">
    <g id="Group_87" data-name="Group 87" transform="translate(-131 -1)">
      <g id="Group_76" data-name="Group 76" transform="translate(161.495 30.46)">
        <path id="Path_22" data-name="Path 22" d="M45.6,21.535l-.013,0A2.568,2.568,0,0,0,43.032,24.1v4.806a1.7,1.7,0,0,1-3.4.056l.733-.347.138-.056.121-.057a1.841,1.841,0,0,0,1.042-1.783V16.1c0-.01.006-.018.006-.029a.433.433,0,0,0-.866,0h0V26.736l0,.035a.972.972,0,0,1-.55.952l-.226.1-6.039,2.864-.009,0-.011.005v0a.43.43,0,1,0,.368.777v0l4.469-2.119a2.563,2.563,0,0,0,5.087-.447V24.1a1.7,1.7,0,0,1,1.7-1.7h0a.433.433,0,1,0,0-.866" transform="translate(-22.096 -9.211)" fill="#333"/>
        <path id="Path_23" data-name="Path 23" d="M24.523,3.29,24.4,3.214,18.417.333l0,.007a.419.419,0,0,0-.226-.073.43.43,0,0,0-.142.837l0,.006,5.939,2.858.086.055.025.015a2.471,2.471,0,0,1,.362.234l-7.612,3.6-.763.4a1.819,1.819,0,0,0-.668.553L7.148,4.869A1,1,0,0,1,7.255,4.8l.171-.07,7.736-3.666,0,0,.028-.013,0,0a.428.428,0,0,0,.237-.38.433.433,0,0,0-.433-.433.428.428,0,0,0-.177.04L7.088,3.93,6.916,4l-.022.01A1.84,1.84,0,0,0,5.853,5.793l0,12.253A1.841,1.841,0,0,0,6.891,19.83l6.343,3.021a3.457,3.457,0,0,0,1.5.457,1.122,1.122,0,0,0,1.171-1.226V10a.972.972,0,0,1,.55-.952l.762-.395,7.638-3.612a.807.807,0,0,0,.562-.643c.051-.515-.483-.877-.9-1.106M15.046,22.125s0,.2-.1.272c-.051.034-.354.176-1.32-.318L7.262,19.05a.972.972,0,0,1-.55-.952l0-.018,0-12.3,0-.035a.945.945,0,0,1,.009-.119l8.348,3.993a1.8,1.8,0,0,0-.026.432V22.125Zm-5.618-9c-1.348.556-1.845,2.466-1.106,4.257a4.18,4.18,0,0,0,1.611,1.976,2.629,2.629,0,0,0,1.378.422,2.077,2.077,0,0,0,.8-.156c1.348-.556,1.845-2.466,1.106-4.257s-2.436-2.8-3.784-2.242m2.4,5.815a1.648,1.648,0,0,1-1.5-.211A3.441,3.441,0,0,1,9.006,17.1c-.583-1.415-.267-2.891.7-3.291a1.353,1.353,0,0,1,.519-.1,2.827,2.827,0,0,1,2.3,1.941c.583,1.415.267,2.891-.7,3.291m-.772-6.693a1.184,1.184,0,0,0,.451-.089,1.657,1.657,0,0,0,.624-2.247A2.151,2.151,0,0,0,11.3,8.9,1.312,1.312,0,0,0,10.1,8.76a1.656,1.656,0,0,0-.624,2.247,1.834,1.834,0,0,0,1.575,1.244m-.669-2.806a.425.425,0,0,1,.163-.032.717.717,0,0,1,.36.116,1.428,1.428,0,0,1,.536.668c.227.551.126,1.137-.221,1.28s-.832-.2-1.06-.752-.126-1.137.222-1.28m6.5-7.915,1.632,4.6.014-.005a.174.174,0,0,0,.161.127.184.184,0,0,0,.184-.184c0-.022-.016-.037-.024-.057L18.86,6l-1.632-4.6-.014,0a.174.174,0,0,0-.161-.127.184.184,0,0,0-.184.184c0,.023.016.038.024.057Zm2.042.785-.014.005a.174.174,0,0,0-.161-.127.184.184,0,0,0-.184.184c0,.022.017.037.024.057l-.014,0,1.108,3.121.013-.005a.175.175,0,0,0,.161.127A.184.184,0,0,0,20.04,5.5c0-.022-.017-.037-.024-.057l.014,0Zm1.516.646-.014,0a.175.175,0,0,0-.161-.127.184.184,0,0,0-.184.184c0,.022.016.037.023.057l-.013.005.7,1.975.014-.005a.175.175,0,0,0,.161.128A.184.184,0,0,0,21.15,5c0-.023-.016-.038-.023-.057l.014-.005Zm1.423.588-.014.005a.174.174,0,0,0-.161-.127.184.184,0,0,0-.184.184c0,.023.016.038.024.057l-.014.005.321.905.014-.005a.175.175,0,0,0,.161.128.184.184,0,0,0,.184-.184c0-.023-.016-.038-.023-.057l.013-.005Z" transform="translate(-5.845 -0.227)" fill="#333"/>
      </g>
      <rect id="Rectangle_110" data-name="Rectangle 110" width="36" height="36" transform="translate(155 24)" fill="none"/>
    </g>
    <g id="Group_88" data-name="Group 88" transform="translate(-133)">
      <g id="Group_77" data-name="Group 77" transform="translate(207.543 29.45)">
        <path id="Path_21" data-name="Path 21" d="M129.047,9.8a5.287,5.287,0,0,0-1.319.167l0,.008a.374.374,0,0,0-.3.364.38.38,0,0,0,.38.379.365.365,0,0,0,.109-.022v0a4.515,4.515,0,1,1-3.384,4.372V12.45a10.12,10.12,0,0,0-2.374-6.83A7.844,7.844,0,0,0,119.75,3.7l0,.008a.374.374,0,0,0-.215-.075.384.384,0,0,0-.383.383.379.379,0,0,0,.292.365l0,.007a7.252,7.252,0,0,1,2.176,1.757,9.347,9.347,0,0,1,2.163,6.3v2.618A5.272,5.272,0,1,0,129.047,9.8m-.526,12.822v0a2.607,2.607,0,0,1-1.589-1.722h0a.377.377,0,0,0-.736.118.37.37,0,0,0,.024.118h0c0,.008.006.015.009.023a.1.1,0,0,0,0,.01,3.582,3.582,0,0,0,.879,1.427h-3.48a4.2,4.2,0,0,0,1.129-3.035c0-.005,0-.009,0-.013s0-.011,0-.017v-.005h0a.377.377,0,0,0-.754.022c0,.008,0,.014,0,.021H124a3.131,3.131,0,0,1-1.788,3.051v0a.378.378,0,0,0,.133.733h6.045a.378.378,0,0,0,.133-.733m-3.3-19.286a36.258,36.258,0,0,0,5.315-.345c2.2-.344,2.5-.8,2.5-1.2s-.3-.852-2.5-1.2A41.117,41.117,0,0,0,119.9.6c-2.2.344-2.5.8-2.5,1.2s.3.852,2.5,1.2a36.257,36.257,0,0,0,5.315.345m0-2.324c3.765,0,6.338.435,6.96.783-.622.348-3.2.783-6.96.783s-6.338-.435-6.96-.783c.622-.348,3.2-.783,6.96-.783" transform="translate(-117.406 -0.251)" fill="#333"/>
        <path id="Path_24" data-name="Path 24" d="M128.473,15.937c-.008,0-.015,0-.023,0H127.6v-.215c0-.008,0-.015,0-.023a.383.383,0,1,0-.767,0c0,.008,0,.015,0,.023v1.152c0,.008,0,.015,0,.023a.383.383,0,1,0,.767,0c0-.008,0-.015,0-.023V16.7h.855c.008,0,.015,0,.023,0a.383.383,0,0,0,0-.767m0,2.162a.225.225,0,0,0-.023,0H127.6v-.215c0-.008,0-.015,0-.023a.383.383,0,1,0-.767,0c0,.008,0,.015,0,.023V19.04c0,.008,0,.015,0,.023a.383.383,0,1,0,.767,0c0-.008,0-.015,0-.023v-.179h.855c.008,0,.015,0,.023,0a.383.383,0,0,0,0-.767m0,2.163c-.008,0-.015,0-.023,0H127.6v-.215c0-.008,0-.015,0-.023a.383.383,0,1,0-.767,0c0,.008,0,.015,0,.023V21.2c0,.008,0,.015,0,.023a.383.383,0,0,0,.767,0c0-.008,0-.015,0-.023v-.18h.855a.225.225,0,0,0,.023,0,.383.383,0,0,0,0-.767m8.961-2.384,0,0a4.029,4.029,0,0,0-4.246-1.509v.005a.375.375,0,0,0-.286.361.38.38,0,0,0,.38.38.356.356,0,0,0,.093-.019l0,.007a3.273,3.273,0,0,1,3.447,1.225l0,0a.373.373,0,0,0,.3.158.38.38,0,0,0,.38-.38.373.373,0,0,0-.08-.221m-2.742,4.548-.011,0a2.714,2.714,0,0,1-2.69-2.711v-2.57a9.347,9.347,0,0,1,2.163-6.3,7.265,7.265,0,0,1,2.176-1.757l0-.008a.379.379,0,0,0,.288-.364.384.384,0,0,0-.384-.383.376.376,0,0,0-.211.072l0-.006a7.855,7.855,0,0,0-2.41,1.921,10.122,10.122,0,0,0-2.373,6.83v2.57a3.473,3.473,0,0,0,3.425,3.468.312.312,0,0,0,.034.007.383.383,0,1,0,0-.767" transform="translate(-122.887 -4.947)" fill="#333"/>
      </g>
      <rect id="Rectangle_111" data-name="Rectangle 111" width="36" height="36" transform="translate(198 23)" fill="none"/>
    </g>
    <g id="Sketch_Icon_Pack_3" data-name="Sketch Icon Pack_3" transform="translate(105.718 23.008)">
      <g id="Group_78" data-name="Group 78" transform="translate(7.606 6.18)">
        <path id="Path_25" data-name="Path 25" d="M236.083,5.035a.455.455,0,0,0-.455.455V17.818a1.943,1.943,0,0,1-1.94,1.941H220.013V.907h13.676a1.943,1.943,0,0,1,1.94,1.94h0a.45.45,0,0,0,.9,0h0s0-.008,0-.013,0-.008,0-.013a.4.4,0,0,0-.008-.039A2.847,2.847,0,0,0,233.689,0H219.106V19.486l-1.681,1.742c0-.041,0-.082,0-.121V2.821a.454.454,0,1,0-.909,0V21.107c0,.7.16,1.127.477,1.279a.586.586,0,0,0,.253.057.654.654,0,0,0,.412-.156l1.569-1.622h14.462a2.85,2.85,0,0,0,2.847-2.847V5.5a.036.036,0,0,0,0-.006.455.455,0,0,0-.455-.455" transform="translate(-216.514)" fill="#333"/>
        <path id="Path_26" data-name="Path 26" d="M227.111,9.79a.174.174,0,0,0,.124-.051h0L232.5,4.473h0a.175.175,0,0,0-.247-.247h0l-5.267,5.267h0a.175.175,0,0,0,.124.3" transform="translate(-222.541 -2.414)" fill="#333"/>
        <path id="Path_27" data-name="Path 27" d="M227.111,8.092a.168.168,0,0,0,.129-.065l0,0L230.8,4.474h0a.173.173,0,0,0,.054-.125.175.175,0,0,0-.175-.175.173.173,0,0,0-.125.054h0L227,7.784l0,0a.168.168,0,0,0-.065.129.174.174,0,0,0,.175.175" transform="translate(-222.541 -2.412)" fill="#333"/>
        <path id="Path_28" data-name="Path 28" d="M229,4.186a.175.175,0,0,0-.119.049l0,0-1.859,1.859a.171.171,0,0,0-.059.127.175.175,0,0,0,.175.175.172.172,0,0,0,.125-.055l0,0,1.862-1.862,0,0A.173.173,0,0,0,229,4.186" transform="translate(-222.554 -2.421)" fill="#333"/>
        <path id="Path_29" data-name="Path 29" d="M227.111,4.952a.171.171,0,0,0,.127-.06l.4-.4-.007-.007a.162.162,0,0,0,.069-.129.172.172,0,0,0-.172-.172.162.162,0,0,0-.129.069l-.009-.009-.4.4,0,.005a.172.172,0,0,0-.055.125.174.174,0,0,0,.175.175" transform="translate(-222.541 -2.421)" fill="#333"/>
        <path id="Path_30" data-name="Path 30" d="M238.22,23.1h.335a1.961,1.961,0,0,0,1.959-1.958v-4.75a1.054,1.054,0,0,1,1.053-1.052h.335v0a.451.451,0,0,0,0-.9v0h-.335a1.961,1.961,0,0,0-1.959,1.959v4.75a1.053,1.053,0,0,1-1.052,1.052h-.335A1.217,1.217,0,0,1,237,20.975V20.7a1.217,1.217,0,0,1,1.216-1.216h.335v-.011a.445.445,0,0,0,0-.889v-.006h-.335A2.124,2.124,0,0,0,236.1,20.7v.271A2.124,2.124,0,0,0,238.22,23.1" transform="translate(-227.839 -8.344)" fill="#333"/>
        <path id="Path_31" data-name="Path 31" d="M239.939,50.122h0a.447.447,0,0,0,.029-.144.451.451,0,0,0-.88-.145h0a1.943,1.943,0,0,1-1.838,1.321H223.113a.454.454,0,1,0,0,.909h14.129a2.847,2.847,0,0,0,2.678-1.892l.011-.026c0-.007.005-.012.008-.018" transform="translate(-220.067 -28.636)" fill="#333"/>
      </g>
      <rect id="Rectangle_112" data-name="Rectangle 112" width="36" height="36" transform="translate(0.282 -0.008)" fill="none"/>
    </g>
    <g id="Elegant_Icon_Pack_1" data-name="Elegant Icon Pack_1" transform="translate(-520 -2.667)">
      <g id="Group_82" data-name="Group 82" transform="translate(683.531 31.983)">
        <path id="Path_61" data-name="Path 61" d="M13.257,29.521A10.544,10.544,0,0,1,6.174,11.167.911.911,0,1,1,7.4,12.516a8.721,8.721,0,1,0,11.706-.008.912.912,0,0,1,1.224-1.352,10.544,10.544,0,0,1-7.072,18.365" transform="translate(-2.713 -6.277)" fill="#333"/>
        <path id="Path_62" data-name="Path 62" d="M20.219,7.757a.911.911,0,0,1-.616-.239L15.12,3.413a.912.912,0,0,1-.1-1.235L16.452.349A.912.912,0,0,1,17.17,0h6.1a.912.912,0,0,1,.717.349l1.434,1.829a.912.912,0,0,1-.1,1.235L20.834,7.518a.91.91,0,0,1-.615.239M16.974,2.639,20.219,5.61l3.244-2.971-.639-.816H17.613Z" transform="translate(-9.674)" fill="#333"/>
      </g>
      <rect id="Rectangle_116" data-name="Rectangle 116" width="36" height="36" transform="translate(676 25.667)" fill="none"/>
    </g>
    <g id="Group_89" data-name="Group 89" transform="translate(130 -46)">
      <g id="Group_83" data-name="Group 83" transform="translate(76.622 75.256)">
        <path id="Path_63" data-name="Path 63" d="M129.479,40.382a.59.59,0,0,1-.59-.59v-9.44a.59.59,0,0,1,1.18,0v9.44a.59.59,0,0,1-.59.59" transform="translate(-121.219 -17.964)" fill="#333"/>
        <path id="Path_64" data-name="Path 64" d="M130.184,36.423a.591.591,0,0,1-.547-.368,2.853,2.853,0,0,1,3.581-3.581.59.59,0,1,1-.443,1.093,1.686,1.686,0,0,0-2.044,2.044.59.59,0,0,1-.325.769.583.583,0,0,1-.222.044" transform="translate(-121.562 -19.459)" fill="#333"/>
        <path id="Path_65" data-name="Path 65" d="M131,36.719a2.292,2.292,0,0,1-.866-.165.59.59,0,1,1,.445-1.093,1.685,1.685,0,0,0,2.043-2.044.59.59,0,0,1,1.093-.444,2.719,2.719,0,0,1-.7,2.879,2.891,2.891,0,0,1-2.013.867" transform="translate(-121.736 -19.632)" fill="#333"/>
        <path id="Path_66" data-name="Path 66" d="M122.292,41.172a.59.59,0,0,1-.547-.812,2.9,2.9,0,0,0-3.552-3.552.59.59,0,1,1-.444-1.093,4.068,4.068,0,0,1,5.089,5.088.591.591,0,0,1-.547.369" transform="translate(-114.462 -21.324)" fill="#333"/>
        <path id="Path_67" data-name="Path 67" d="M121.034,41.627a4.121,4.121,0,0,1-2.867-1.24,3.859,3.859,0,0,1-1.01-4.079.59.59,0,0,1,1.093.444A2.9,2.9,0,0,0,121.8,40.3a.59.59,0,1,1,.444,1.093,3.21,3.21,0,0,1-1.212.23" transform="translate(-114.195 -21.591)" fill="#333"/>
        <path id="Path_68" data-name="Path 68" d="M132.428,14.067h-2.655a.885.885,0,0,1-.885-.885v-5.6a3.544,3.544,0,0,1,3.54-3.54h4.425a.885.885,0,1,1,0,1.77.886.886,0,0,0-.885.885v3.834a3.544,3.544,0,0,1-3.54,3.54m-1.77-1.77h1.77a1.772,1.772,0,0,0,1.77-1.77V6.692a2.65,2.65,0,0,1,.151-.885h-1.921a1.772,1.772,0,0,0-1.77,1.77Z" transform="translate(-121.219 -2.857)" fill="#333"/>
        <path id="Path_69" data-name="Path 69" d="M118.273,14.067h-2.655a3.544,3.544,0,0,1-3.54-3.54V6.692a.886.886,0,0,0-.885-.885.885.885,0,1,1,0-1.77h4.425a3.544,3.544,0,0,1,3.54,3.54v5.6a.885.885,0,0,1-.885.885M113.7,5.807a2.652,2.652,0,0,1,.151.885v3.835a1.772,1.772,0,0,0,1.77,1.77h1.77V7.577a1.772,1.772,0,0,0-1.77-1.77Z" transform="translate(-110.309 -2.857)" fill="#333"/>
        <path id="Path_70" data-name="Path 70" d="M128.3,3.538a.589.589,0,0,1-.509-.29,3.351,3.351,0,0,0-4.547,0,.59.59,0,0,1-1.016-.6,4.417,4.417,0,0,1,6.579,0,.59.59,0,0,1-.508.89" transform="translate(-117.262 -1.179)" fill="#333"/>
      </g>
      <rect id="Rectangle_117" data-name="Rectangle 117" width="36" height="36" transform="translate(67 69)" fill="none"/>
    </g>
    <g id="Group_90" data-name="Group 90" transform="translate(128 -45)">
      <g id="Group_84" data-name="Group 84" transform="translate(116.426 74.684)">
        <path id="Path_71" data-name="Path 71" d="M229.13,20.633H208.384a.89.89,0,0,1-.889-.889V15a.89.89,0,0,1,.889-.889H229.13a.889.889,0,0,1,.889.889v4.742a.889.889,0,0,1-.889.889m-19.857-1.778h18.968V15.891H209.273Z" transform="translate(-207.495 -8.482)" fill="#333"/>
        <path id="Path_72" data-name="Path 72" d="M227.84,37.4H213.022a2.67,2.67,0,0,1-2.668-2.667v-8.3a.889.889,0,1,1,1.778,0v8.3a.89.89,0,0,0,.889.889H227.84a.89.89,0,0,0,.889-.889v-8.3a.889.889,0,1,1,1.778,0v8.3A2.67,2.67,0,0,1,227.84,37.4" transform="translate(-209.168 -15.174)" fill="#333"/>
        <path id="Path_73" data-name="Path 73" d="M233.814,31.546a.593.593,0,0,1-.593-.593V16.135a.593.593,0,1,1,1.185,0V30.953a.592.592,0,0,1-.593.593" transform="translate(-222.552 -9.319)" fill="#333"/>
        <path id="Path_74" data-name="Path 74" d="M224.127,5.574a.888.888,0,0,1-.683-.319L221.32,2.719a1.542,1.542,0,0,0-1.025-.4,1.929,1.929,0,0,0-1.732,2.075.889.889,0,0,1-1.778,0A3.7,3.7,0,0,1,220.3.536a3.333,3.333,0,0,1,2.274.915.855.855,0,0,1,.075.08l2.163,2.583a.889.889,0,0,1-.681,1.46" transform="translate(-212.932 -0.536)" fill="#333"/>
        <path id="Path_75" data-name="Path 75" d="M233.4,5.574a.889.889,0,0,1-.681-1.46l2.163-2.583a.859.859,0,0,1,.075-.08,3.333,3.333,0,0,1,2.274-.915,3.7,3.7,0,0,1,3.511,3.853.889.889,0,0,1-1.778,0,1.929,1.929,0,0,0-1.732-2.075,1.542,1.542,0,0,0-1.025.4l-2.123,2.537a.888.888,0,0,1-.683.319" transform="translate(-222.134 -0.536)" fill="#333"/>
      </g>
      <rect id="Rectangle_118" data-name="Rectangle 118" width="36" height="36" transform="translate(110 68)" fill="none"/>
    </g>
    <g id="Outline_Icon_Pack_1" data-name="Outline Icon Pack_1" transform="translate(10 -260.25)">
      <g id="Group_88-2" data-name="Group 88" transform="translate(21.481 335.009)">
        <path id="Path_91" data-name="Path 91" d="M4.15,14.386H2.49A2.493,2.493,0,0,1,0,11.9V8.576a2.492,2.492,0,0,1,2.49-2.49H5.256a.831.831,0,0,0,.83-.83V2.49A2.493,2.493,0,0,1,8.576,0H11.9a2.493,2.493,0,0,1,2.49,2.49V4.15a.83.83,0,0,1-1.66,0V2.49a.831.831,0,0,0-.83-.83H8.576a.831.831,0,0,0-.83.83V5.257a2.492,2.492,0,0,1-2.49,2.49H2.49a.831.831,0,0,0-.83.83V11.9a.831.831,0,0,0,.83.83H4.15a.83.83,0,0,1,0,1.66" transform="translate(0 0)" fill="#333"/>
        <path id="Path_94" data-name="Path 94" d="M20.25,29.379H16.93a2.493,2.493,0,0,1-2.49-2.49v-1.66a.83.83,0,0,1,1.66,0v1.66a.831.831,0,0,0,.83.83h3.32a.831.831,0,0,0,.83-.83V23.57a2.492,2.492,0,0,1,2.49-2.49h3.32a.831.831,0,0,0,.83-.83V16.93a.831.831,0,0,0-.83-.83h-1.66a.83.83,0,0,1,0-1.66h1.66a2.492,2.492,0,0,1,2.49,2.49v3.32a2.492,2.492,0,0,1-2.49,2.49H23.57a.831.831,0,0,0-.83.83v3.32a2.493,2.493,0,0,1-2.49,2.49" transform="translate(-8.353 -8.353)" fill="#333"/>
      </g>
      <rect id="Rectangle_122" data-name="Rectangle 122" width="36" height="36" transform="translate(14 327.25)" fill="none"/>
    </g>
    <g id="Outline_Icon_Pack_2" data-name="Outline Icon Pack_2" transform="translate(-54 -260)">
      <g id="Group_89-2" data-name="Group 89" transform="translate(126.444 334.666)">
        <path id="Path_92" data-name="Path 92" d="M109.776,22.194a3.057,3.057,0,0,1-3.046-2.913,26.5,26.5,0,0,0-1.873-8.933c-.146-.386-.277-.737-.385-1.061l-.152-.406A5.771,5.771,0,0,1,109.8,1.313a5.715,5.715,0,0,1,2.507.572.824.824,0,1,1-.717,1.484,4.081,4.081,0,0,0-1.79-.408,4.124,4.124,0,0,0-3.926,5.379l.149.4c.112.334.237.665.374,1.03a28.314,28.314,0,0,1,1.976,9.429,1.4,1.4,0,0,0,2.8-.052V16.805a.824.824,0,1,1,1.648,0v2.339a3.053,3.053,0,0,1-3.05,3.05" transform="translate(-104.034 -1.313)" fill="#333"/>
        <path id="Path_95" data-name="Path 95" d="M132.146,22.194a3.053,3.053,0,0,1-3.05-3.05V16.7a1.654,1.654,0,0,0-.54-1.22,1.636,1.636,0,0,0-1.273-.42.824.824,0,0,1-.157-1.641,3.3,3.3,0,0,1,3.618,3.281v2.445a1.4,1.4,0,0,0,2.8.052,28.314,28.314,0,0,1,1.976-9.429c.137-.365.262-.7.364-1l.212-.6A4.122,4.122,0,1,0,128,7.083a.824.824,0,0,1-1.649,0A5.77,5.77,0,1,1,137.68,8.625a.486.486,0,0,1-.017.053l-.217.62c-.1.312-.235.663-.381,1.049a26.5,26.5,0,0,0-1.873,8.933,3.057,3.057,0,0,1-3.046,2.913" transform="translate(-117.008 -1.313)" fill="#333"/>
      </g>
      <rect id="Rectangle_123" data-name="Rectangle 123" width="36" height="36" transform="translate(119 327)" fill="none"/>
    </g>
    <g id="Outline_Icon_Pack_3" data-name="Outline Icon Pack_3" transform="translate(-117 -260.25)">
      <g id="Group_90-2" data-name="Group 90" transform="translate(230.744 334.851)">
        <path id="Path_93" data-name="Path 93" d="M224.193,19.779a8.567,8.567,0,1,1,8.394-6.849.83.83,0,1,1-1.626-.333,6.913,6.913,0,1,0-2.328,3.9.83.83,0,0,1,1.069,1.27,8.569,8.569,0,0,1-5.508,2.007" transform="translate(-215.625 -2.626)" fill="#333"/>
        <path id="Path_96" data-name="Path 96" d="M239.645,16.051a.553.553,0,0,1-.553-.553,4.814,4.814,0,0,0-4.8-4.817.553.553,0,1,1,0-1.106A5.922,5.922,0,0,1,240.2,15.5a.553.553,0,0,1-.553.553" transform="translate(-226.103 -6.645)" fill="#333"/>
        <path id="Path_97" data-name="Path 97" d="M253.844,39.758a2.672,2.672,0,0,1-1.906-.792L250.5,37.528a.83.83,0,0,1,1.176-1.172l1.434,1.439a1.037,1.037,0,0,0,1.46-1.473l-4.329-4.344a.83.83,0,0,1,1.176-1.172l4.329,4.344a2.708,2.708,0,0,1,0,3.817,2.672,2.672,0,0,1-1.906.792" transform="translate(-235.512 -18.787)" fill="#333"/>
      </g>
      <rect id="Rectangle_124" data-name="Rectangle 124" width="36" height="36" transform="translate(223 327.25)" fill="none"/>
    </g>
    <g id="Filled_Glyph_Icon_Pack_singlecolor_1" data-name="Filled Glyph Icon Pack_singlecolor_1" transform="translate(142 -260)">
      <g id="Group_142" data-name="Group 142" transform="translate(21.293 334.534)">
        <path id="Path_416" data-name="Path 416" d="M47.467,9.745l-3.279-1.43v11.9L48.077,11.3a1.181,1.181,0,0,0-.61-1.554" transform="translate(-26.528 -4.834)" fill="#333"/>
        <path id="Path_419" data-name="Path 419" d="M16.037,0H4.484A2.484,2.484,0,0,0,2,2.483V19.163a2.484,2.484,0,0,0,2.484,2.484H16.037a2.484,2.484,0,0,0,2.484-2.484V2.483A2.484,2.484,0,0,0,16.037,0M7.412,2.848A1.994,1.994,0,1,1,5.418,4.841,1.994,1.994,0,0,1,7.412,2.848m9.969,16.315a1.347,1.347,0,0,1-1.345,1.345H4.484a1.347,1.347,0,0,1-1.345-1.345V13.285L4.522,11.9a1.737,1.737,0,0,1,2.456,0l.115.115L5.874,13.235a.569.569,0,0,0,.8.809l6.13-6.13a1.736,1.736,0,0,1,2.456,0l2.12,2.12Z" transform="translate(-2 0.001)" fill="#333"/>
      </g>
      <rect id="Rectangle_176" data-name="Rectangle 176" width="36" height="36" transform="translate(14 327)" fill="none"/>
    </g>
    <g id="Filled_Glyph_Icon_Pack_singlecolor_2" data-name="Filled Glyph Icon Pack_singlecolor_2" transform="translate(78 -260.027)">
      <g id="Group_143" data-name="Group 143" transform="translate(126.023 334.683)">
        <path id="Path_417" data-name="Path 417" d="M126.043,7.255a.859.859,0,0,0-1.51-.041l-3.054,5.3,0,.007-1.041,1.808a.855.855,0,0,0,.741,1.282h4.851a.864.864,0,0,0,.832-.646,10.752,10.752,0,0,0-.816-7.712m-4.278,2.488,2.413-4.189a.843.843,0,0,0-.118-1.013A10.781,10.781,0,0,0,116.4,1.35c-.3,0-.6.021-.895.045l4.78,8.347a.855.855,0,0,0,1.484,0M114.6,2.1a.843.843,0,0,0-.934-.409A10.834,10.834,0,0,0,107.3,6.3a.859.859,0,0,0,.719,1.327h8.265a.855.855,0,0,0,.742-1.28Z" transform="translate(-105.561 -1.35)" fill="#333"/>
        <path id="Path_420" data-name="Path 420" d="M109.513,19.061h-4.98a.865.865,0,0,0-.833.649,10.748,10.748,0,0,0,.9,7.808.86.86,0,0,0,1.505.034l4.152-7.209a.855.855,0,0,0-.741-1.282m13.013,7.983h-8.354a.856.856,0,0,0-.742,1.28l2.429,4.24a.843.843,0,0,0,.925.411,10.829,10.829,0,0,0,6.459-4.6.859.859,0,0,0-.716-1.33m-13.717-1.9-2.327,4.042a.868.868,0,0,0,.158,1.055,10.778,10.778,0,0,0,7.534,3.065c.26,0,.515-.021.77-.039l-4.652-8.121a.855.855,0,0,0-1.483,0" transform="translate(-103.339 -11.64)" fill="#333"/>
      </g>
      <rect id="Rectangle_177" data-name="Rectangle 177" width="36" height="36" transform="translate(119 327.027)" fill="none"/>
    </g>
    <g id="Filled_Glyph_Icon_Pack_singlecolor_3" data-name="Filled Glyph Icon Pack_singlecolor_3" transform="translate(15 -260.25)">
      <g id="Group_144" data-name="Group 144" transform="translate(229.955 334.591)">
        <path id="Path_418" data-name="Path 418" d="M245.619,1.008H242.91a.3.3,0,0,0-.3.3.845.845,0,0,1-.844.845H236.3V3.3h5.4a.914.914,0,0,1,.913.914V19.6a.913.913,0,0,1-.913.913h-5.4v1.147h5.466a.845.845,0,0,1,.844.845.3.3,0,0,0,.3.3h2.709a1,1,0,0,0,1-1V2.012a1,1,0,0,0-1-1m-.143,18.93a.573.573,0,0,1-.574.574h-.574a.573.573,0,0,1-.574-.574V17.644a.573.573,0,0,1,.574-.574h.574a.573.573,0,0,1,.574.574Zm0-6.884a.573.573,0,0,1-.574.574h-.574a.573.573,0,0,1-.574-.574V10.76a.574.574,0,0,1,.574-.574h.574a.574.574,0,0,1,.574.574Zm0-6.884a.573.573,0,0,1-.574.574h-.574a.573.573,0,0,1-.574-.574V3.876a.574.574,0,0,1,.574-.574h.574a.574.574,0,0,1,.574.574Z" transform="translate(-224.824 -1.008)" fill="#333"/>
        <path id="Path_421" data-name="Path 421" d="M214.007,3.3h5.4V2.155h-5.466a.844.844,0,0,1-.844-.845.3.3,0,0,0-.3-.3h-2.709a1,1,0,0,0-1,1V21.8a1,1,0,0,0,1,1h2.709a.3.3,0,0,0,.3-.3.844.844,0,0,1,.844-.845H219.4V20.512h-5.4a.913.913,0,0,1-.913-.913V4.216a.914.914,0,0,1,.913-.914m-2.061,16.636a.573.573,0,0,1-.574.574H210.8a.574.574,0,0,1-.574-.574V17.644a.574.574,0,0,1,.574-.574h.574a.573.573,0,0,1,.574.574Zm0-6.884a.573.573,0,0,1-.574.574H210.8a.574.574,0,0,1-.574-.574V10.76a.574.574,0,0,1,.574-.574h.574a.574.574,0,0,1,.574.574Zm0-6.884a.573.573,0,0,1-.574.574H210.8a.574.574,0,0,1-.574-.574V3.876A.574.574,0,0,1,210.8,3.3h.574a.574.574,0,0,1,.574.574Z" transform="translate(-209.078 -1.008)" fill="#333"/>
      </g>
      <rect id="Rectangle_178" data-name="Rectangle 178" width="36" height="36" transform="translate(223 327.25)" fill="none"/>
    </g>
    <g id="Elegant_Themes_Icon_Pack_singlecolor_1" data-name="Elegant Themes Icon Pack_singlecolor_1" transform="translate(-321 -215.667)">
      <path id="Path_430" data-name="Path 430" d="M25.326,6.075H1.027V4.509a1.383,1.383,0,0,1,.451-1.044,1.5,1.5,0,0,1,1.068-.427H13.176a1.584,1.584,0,0,0,1.518-1.519A1.46,1.46,0,0,1,15.146.451,1.458,1.458,0,0,1,16.214,0h7.593a1.459,1.459,0,0,1,1.068.451,1.459,1.459,0,0,1,.451,1.068V6.075ZM1.478,20.81a1.459,1.459,0,0,1-.451-1.068V7.593h24.3V19.743a1.54,1.54,0,0,1-1.519,1.518H2.546a1.459,1.459,0,0,1-1.068-.451m1.068-1.068H23.807V9.112H2.546Z" transform="translate(349.474 334.677)" fill="#333"/>
      <rect id="Rectangle_183" data-name="Rectangle 183" width="36" height="36" transform="translate(345 326.667)" fill="none"/>
    </g>
    <g id="Elegant_Themes_Icon_Pack_singlecolor_2" data-name="Elegant Themes Icon Pack_singlecolor_2" transform="translate(-385 -216.341)">
      <path id="Path_431" data-name="Path 431" d="M105.384,4.362a2.094,2.094,0,0,1-.633-1.539,2.094,2.094,0,0,1,.633-1.539,2.185,2.185,0,0,1,3.077,0L110,2.823,106.923,5.9ZM121.221,20.2,108.959,7.936l2.308-2.308.769-.769L124.3,17.122l1.539,4.615Z" transform="translate(352.85 334.024)" fill="#333"/>
      <rect id="Rectangle_184" data-name="Rectangle 184" width="36" height="36" transform="translate(450 327.341)" fill="none"/>
    </g>
    <g id="Elegant_Themes_Icon_Pack_singlecolor_3" data-name="Elegant Themes Icon Pack_singlecolor_3" transform="translate(-448 -216.448)">
      <path id="Path_429" data-name="Path 429" d="M224.4,1.16a1.585,1.585,0,0,1,.49,1.16V20.463a1.672,1.672,0,0,1-1.649,1.649H201.8a1.672,1.672,0,0,1-1.649-1.649V5.567a1.5,1.5,0,0,1,.489-1.134,1.63,1.63,0,0,1,1.16-.464h11.546a1.72,1.72,0,0,0,1.649-1.649A2.424,2.424,0,0,1,217.416.67h5.824a1.585,1.585,0,0,1,1.16.49m-1.16,1.16h-5.824a.834.834,0,0,0-.49.232,1.853,1.853,0,0,0-.49.7A3.343,3.343,0,0,1,213.5,5.618H201.8V20.463H223.24V2.319Zm-6,10.129a.825.825,0,0,1-.593,1.418h-3.3v3.3a.825.825,0,1,1-1.649,0v-3.3h-3.3a.825.825,0,1,1,0-1.649h3.3v-3.3a.825.825,0,1,1,1.649,0v3.3h3.3a.8.8,0,0,1,.593.232" transform="translate(359.525 333.612)" fill="#333"/>
      <rect id="Rectangle_185" data-name="Rectangle 185" width="36" height="36" transform="translate(554 327.448)" fill="none"/>
    </g>
    <g id="Elegant_Themes_Line_Icon_Pack_singlecolor_1" data-name="Elegant Themes Line Icon Pack_singlecolor_1" transform="translate(-520 -216.136)">
      <g id="Group_148" data-name="Group 148" transform="translate(682.728 334.647)">
        <path id="Path_435" data-name="Path 435" d="M22.888,30.749V17.959a.337.337,0,1,0-.673,0v12.79a.337.337,0,0,1-.337.337H1.01a.336.336,0,0,1-.336-.337V17.959a.337.337,0,0,0-.674,0v12.79a1.011,1.011,0,0,0,1.01,1.01H21.878a1.011,1.011,0,0,0,1.01-1.01" transform="translate(0 -10.217)" fill="#333"/>
        <path id="Path_436" data-name="Path 436" d="M6.745,26.629a.337.337,0,0,0,0,.673h1.01v2.356a.337.337,0,1,0,.673,0V27.3h4.039v2.356a.337.337,0,1,0,.673,0V27.3h4.039v2.356a.337.337,0,1,0,.673,0V27.3h4.039v2.356a.337.337,0,1,0,.673,0V27.3h1.01a.337.337,0,1,0,0-.673h-1.01V23.263h1.01a.337.337,0,1,0,0-.673h-1.01V19.561a.337.337,0,0,0-.673,0V22.59H17.852V19.561a.337.337,0,0,0-.673,0V22.59H13.14V19.561a.337.337,0,0,0-.673,0V22.59H8.427V19.561a.337.337,0,0,0-.673,0V22.59H6.745a.337.337,0,1,0,0,.673h1.01v3.366Zm15.146,0H17.852V23.263h4.039Zm-4.712,0H13.14V23.263h4.039ZM8.427,23.263h4.039v3.366H8.427Z" transform="translate(-3.715 -11.146)" fill="#333"/>
        <path id="Path_437" data-name="Path 437" d="M19.185,3.877h2.861c.058,0,.168,0,.168.337V7.243H.673V4.214a.337.337,0,0,1,.337-.337H3.7a.337.337,0,1,0,0-.673H1.01A1.011,1.011,0,0,0,0,4.214V7.579a.337.337,0,0,0,.337.337H22.551a.337.337,0,0,0,.337-.337V4.214c0-.745-.435-1.01-.841-1.01H19.185a.337.337,0,1,0,0,.673" transform="translate(0 -1.858)" fill="#333"/>
        <path id="Path_438" data-name="Path 438" d="M25.364,3.877a.337.337,0,0,0,0-.673h-7.4a.337.337,0,1,0,0,.673Z" transform="translate(-10.217 -1.858)" fill="#333"/>
        <path id="Path_439" data-name="Path 439" d="M13.489,3.029V.337a.337.337,0,0,0-.673,0V3.029a.337.337,0,0,0,.673,0" transform="translate(-7.431 0)" fill="#333"/>
        <path id="Path_440" data-name="Path 440" d="M40.388,3.366a.337.337,0,0,0,.337-.337V.337a.337.337,0,0,0-.673,0V3.029a.337.337,0,0,0,.337.337" transform="translate(-23.222 0)" fill="#333"/>
      </g>
      <rect id="Rectangle_189" data-name="Rectangle 189" width="36" height="36" transform="translate(676 327.136)" fill="none"/>
    </g>
    <g id="Elegant_Themes_Line_Icon_Pack_singlecolor_2" data-name="Elegant Themes Line Icon Pack_singlecolor_2" transform="translate(-584 -216.25)">
      <g id="Group_149" data-name="Group 149" transform="translate(785.062 334.671)">
        <path id="Path_441" data-name="Path 441" d="M119.557,8.77C119.269,4.305,116.164,0,110.469,0a9.267,9.267,0,0,0-9.438,9.038,6.739,6.739,0,0,0-4.406,6.156,6.417,6.417,0,0,0,6.077,6.415h4.389a.338.338,0,1,0,0-.675H102.7a5.725,5.725,0,0,1-5.4-5.74c0-2.06,1.806-5.74,5.4-5.74h1.013a.338.338,0,1,0,0-.675H102.7a5.683,5.683,0,0,0-.985.094,8.6,8.6,0,0,1,8.751-8.2c5.8,0,8.441,4.551,8.441,8.778v1.013a.338.338,0,1,0,.675,0V9.448a5.813,5.813,0,0,1,4.727,5.746c0,2.583-2.493,5.74-5.4,5.74h-5.064c-2.187,0-3.039-.852-3.039-3.039V8.632l2.754,2.748a.338.338,0,1,0,.478-.477L111.026,7.9a.666.666,0,0,0-1.113,0L106.9,10.9a.337.337,0,1,0,.477.477l2.753-2.749v9.263c0,2.569,1.145,3.714,3.714,3.714h5.064c3.273,0,6.078-3.528,6.078-6.415a6.509,6.509,0,0,0-5.431-6.423" transform="translate(-96.626 0)" fill="#333"/>
      </g>
      <rect id="Rectangle_190" data-name="Rectangle 190" width="36" height="36" transform="translate(781 327.25)" fill="none"/>
    </g>
    <g id="Elegant_Themes_Line_Icon_Pack_singlecolor_3" data-name="Elegant Themes Line Icon Pack_singlecolor_3" transform="translate(-647 -215.6)">
      <g id="Group_150" data-name="Group 150" transform="translate(890.379 335.038)">
        <path id="Path_458" data-name="Path 458" d="M194.954,17.4h11.33v.971a.324.324,0,1,0,.647,0V17.4h11.329a.972.972,0,0,0,.971-.971V2.189a.973.973,0,0,0-.971-.971H194.954a.973.973,0,0,0-.971.971V16.432a.972.972,0,0,0,.971.971M194.63,2.189a.324.324,0,0,1,.324-.324h23.307a.324.324,0,0,1,.324.324V16.432a.324.324,0,0,1-.324.324H194.954a.324.324,0,0,1-.324-.324Z" transform="translate(-193.983 -1.218)" fill="#333"/>
        <path id="Path_459" data-name="Path 459" d="M199,18.211h20.717a.324.324,0,0,0,.324-.324V6.234a.324.324,0,0,0-.324-.324H199a.324.324,0,0,0-.324.324V17.887a.324.324,0,0,0,.324.324m.324-11.653h20.07V17.564h-20.07Z" transform="translate(-196.733 -3.968)" fill="#333"/>
        <path id="Path_460" data-name="Path 460" d="M214.046,45.009a1.267,1.267,0,0,0-1.295,1.295v.971a.324.324,0,0,0,.324.324h9.064a.324.324,0,0,0,.324-.324v-.923a1.306,1.306,0,0,0-1.295-1.343Zm7.769,1.343v.6H213.4V46.3a.619.619,0,0,1,.647-.647h7.122a.658.658,0,0,1,.647.7" transform="translate(-204.982 -26.882)" fill="#333"/>
      </g>
      <rect id="Rectangle_191" data-name="Rectangle 191" width="36" height="36" transform="translate(885 326.6)" fill="none"/>
    </g>
    <g id="Font_Awesome_Icon_Pack_singlecolor_1" data-name="Font Awesome Icon Pack_singlecolor_1" transform="translate(10 -473.667)">
      <path id="Path_569" data-name="Path 569" d="M23.317,14.923a.561.561,0,0,1,.56.559v1.865a.561.561,0,0,1-.56.559H.559A.561.561,0,0,1,0,17.348V.559A.561.561,0,0,1,.559,0H2.425a.561.561,0,0,1,.559.559V14.923ZM17.38,4.453l-3.95,2.635-3.978-5.3a.56.56,0,0,0-.928.047L4.477,8.58v4.85H22.384L18.192,4.672a.56.56,0,0,0-.812-.219" transform="translate(19.855 638.006)" fill="#333"/>
      <rect id="Rectangle_195" data-name="Rectangle 195" width="36" height="36" transform="translate(14 628.667)" fill="none"/>
    </g>
    <g id="Font_Awesome_Icon_Pack_singlecolor_2" data-name="Font Awesome Icon Pack_singlecolor_2" transform="translate(-54 -474)">
      <path id="Path_571" data-name="Path 571" d="M106.05,14.308v1.507c0,1.246,3.036,2.259,6.778,2.259s6.778-1.013,6.778-2.259V14.308c-1.458,1.027-4.123,1.507-6.778,1.507s-5.32-.48-6.778-1.507m11.3-9.789c3.742,0,6.778-1.013,6.778-2.259S121.089,0,117.346,0s-6.778,1.013-6.778,2.259,3.036,2.259,6.778,2.259M106.05,10.6v1.822c0,1.246,3.036,2.259,6.778,2.259s6.778-1.013,6.778-2.259V10.6c-1.458,1.2-4.127,1.822-6.778,1.822s-5.32-.621-6.778-1.822m14.685.388c2.023-.392,3.389-1.119,3.389-1.956V7.53a8.668,8.668,0,0,1-3.389,1.218Zm-7.907-5.345c-3.742,0-6.778,1.264-6.778,2.824s3.036,2.824,6.778,2.824,6.778-1.264,6.778-2.824-3.036-2.824-6.778-2.824m7.742,1.988c2.118-.381,3.555-1.13,3.555-1.988V4.141a11.491,11.491,0,0,1-5.673,1.476,3.953,3.953,0,0,1,2.118,2.019" transform="translate(21.811 638.09)" fill="#333"/>
      <rect id="Rectangle_196" data-name="Rectangle 196" width="36" height="36" transform="translate(119 629)" fill="none"/>
    </g>
    <g id="Font_Awesome_Icon_Pack_singlecolor_3" data-name="Font Awesome Icon Pack_singlecolor_3" transform="translate(-117 -474.404)">
      <path id="Path_570" data-name="Path 570" d="M220.17,6.529h-.653l-4.44-5.55a2.615,2.615,0,0,0-2.04-.98h-8.73a2.612,2.612,0,0,0-2.425,1.642l-1.955,4.98a2.606,2.606,0,0,0-1.959,2.52v4.571a.653.653,0,0,0,.653.653h1.959a3.918,3.918,0,1,0,7.836,0h5.224a3.918,3.918,0,1,0,7.835,0h1.959a.653.653,0,0,0,.653-.653V10.447a3.918,3.918,0,0,0-3.918-3.918M204.5,16.324a1.959,1.959,0,1,1,1.959-1.959,1.961,1.961,0,0,1-1.959,1.959m2.939-9.795h-4.7l1.567-3.918h3.129Zm1.959,0V2.611h3.642l3.135,3.918Zm8.162,9.795a1.959,1.959,0,1,1,1.959-1.959,1.961,1.961,0,0,1-1.959,1.959" transform="translate(30.147 638.193)" fill="#333"/>
      <rect id="Rectangle_197" data-name="Rectangle 197" width="36" height="36" transform="translate(223 629.404)" fill="none"/>
    </g>
    <g id="Free_Outline_Icon_Pack_singlecolor_1" data-name="Free Outline Icon Pack_singlecolor_1" transform="translate(-189 -474.273)">
      <g id="Group_154" data-name="Group 154" transform="translate(351.894 635.327)">
        <path id="Path_563" data-name="Path 563" d="M22.214,3.8H16.646l-4.92-2.5a.784.784,0,0,0,.089-.353.943.943,0,1,0-1.885,0,.813.813,0,0,0,.147.471L5.568,3.8H.472A.46.46,0,0,0,0,4.243V23.157a.465.465,0,0,0,.472.472H22.214a.465.465,0,0,0,.472-.472V4.243a.442.442,0,0,0-.472-.442m-11.2-1.827L14.613,3.8H7.542ZM21.743,22.715H.943v-18H21.772v18ZM3.123,20.859a.475.475,0,0,0,.383-.177l4.331-5.509,4.39,5.45a.462.462,0,0,0,.648.059.491.491,0,0,0,.059-.648l-3.476-4.3,3.918-4.979L20.653,20.8a.478.478,0,0,0,.648.089.465.465,0,0,0,.088-.648L13.759,9.723a.419.419,0,0,0-.353-.177.474.474,0,0,0-.383.177L8.868,15l-.678-.855a.4.4,0,0,0-.383-.177.421.421,0,0,0-.353.177L2.769,20.123a.434.434,0,0,0,.089.619.36.36,0,0,0,.265.118m3.005-8.573a2.828,2.828,0,1,0-2.8-2.828,2.829,2.829,0,0,0,2.8,2.828m0-4.743A1.911,1.911,0,0,1,8.043,9.457a1.9,1.9,0,0,1-3.8,0A1.924,1.924,0,0,1,6.128,7.542" fill="#333"/>
      </g>
      <rect id="Rectangle_201" data-name="Rectangle 201" width="36" height="36" transform="translate(345 629.273)" fill="none"/>
    </g>
    <g id="Free_Outline_Icon_Pack_singlecolor_2" data-name="Free Outline Icon Pack_singlecolor_2" transform="translate(-253 -474.25)">
      <path id="Path_565" data-name="Path 565" d="M121.243,11.024l4.5-3.6a.457.457,0,0,0,.17-.368.526.526,0,0,0-.2-.34L118.58,2.072a.427.427,0,0,0-.51.029l-4.7,3.909-4.7-3.909a.427.427,0,0,0-.51-.029l-7.11,4.646a.344.344,0,0,0-.2.34.369.369,0,0,0,.142.368l4.5,3.6-4.5,3.6a.455.455,0,0,0,.057.708l4.7,3.059v2.521a.427.427,0,0,0,.2.4l7.2,4.221a.377.377,0,0,0,.227.085.322.322,0,0,0,.226-.085l7.2-4.221a.451.451,0,0,0,.226-.4V18.389l4.7-3.059a.465.465,0,0,0,.2-.34.457.457,0,0,0-.17-.368Zm-7.875,3.91-6.346-3.91,6.346-3.909,6.345,3.909Zm5.014-11.954L124.7,7.115l-4.193,3.371-6.374-3.938Zm-10.028,0L112.6,6.548l-6.374,3.938-4.193-3.371Zm-2.124,8.583L112.6,15.5l-4.249,3.569-6.317-4.136Zm13.881,9.094-6.742,3.994-6.742-3.994V18.984l1.53.992a.322.322,0,0,0,.226.085.5.5,0,0,0,.283-.113l4.7-3.909,4.7,3.909a.5.5,0,0,0,.283.113.322.322,0,0,0,.226-.085l1.53-.992Zm-1.728-1.587L114.132,15.5l6.374-3.938,4.193,3.371Z" transform="translate(354.718 633.744)" fill="#333"/>
      <rect id="Rectangle_202" data-name="Rectangle 202" width="36" height="36" transform="translate(450 629.25)" fill="none"/>
    </g>
    <g id="Free_Outline_Icon_Pack_singlecolor_3" data-name="Free Outline Icon Pack_singlecolor_3" transform="translate(-316 -473.75)">
      <path id="Path_564" data-name="Path 564" d="M229.807,3.179H225.1V.708a.465.465,0,1,0-.93,0V3.179h-9.855V.708a.465.465,0,0,0-.93,0V3.179h-4.332a.454.454,0,0,0-.465.436V23.092a.459.459,0,0,0,.465.465h20.756a.459.459,0,0,0,.465-.465V3.644a.459.459,0,0,0-.465-.465m-.436,19.477H209.487V7.976h19.884Zm0-15.582H209.487V4.08h3.9V4.6a.465.465,0,0,0,.93,0V4.08h9.855V4.6a.465.465,0,1,0,.93,0V4.08h4.273Zm-11.686,12.3a.467.467,0,0,0,.32.145h.029a.4.4,0,0,0,.32-.175l7.937-9.361a.454.454,0,0,0-.7-.582l-7.616,8.983-3.517-3.517a.452.452,0,0,0-.64.639Z" transform="translate(352.452 634.678)" fill="#333"/>
      <rect id="Rectangle_203" data-name="Rectangle 203" width="36" height="36" transform="translate(554 628.75)" fill="none"/>
    </g>
    <g id="Material_Design_Icon_Pack_singlecolor_1" data-name="Material Design Icon Pack_singlecolor_1" transform="translate(-652 -430)">
      <path id="Path_575" data-name="Path 575" d="M5.209,14.157v.995H17.331v-.995c0-2.037-4.025-3.125-6.061-3.125s-6.061,1.09-6.061,3.125M14.3,6.06A3.03,3.03,0,1,0,11.27,9.09,3.052,3.052,0,0,0,14.3,6.06M2.179,2.036A2.052,2.052,0,0,1,4.216,0h14.11a2.083,2.083,0,0,1,2.037,2.037v14.11a2.083,2.083,0,0,1-2.037,2.037H4.216a2.052,2.052,0,0,1-2.037-2.037Z" transform="translate(682.987 637.959)" fill="#333"/>
      <rect id="Rectangle_209" data-name="Rectangle 209" width="36" height="36" transform="translate(676 629)" fill="none"/>
    </g>
    <g id="Material_Design_Icon_Pack_singlecolor_2" data-name="Material Design Icon Pack_singlecolor_2" transform="translate(-716 -429.609)">
      <path id="Path_577" data-name="Path 577" d="M115.522,15.7a3.361,3.361,0,1,0,0-6.721h-1.68V8.4a6.158,6.158,0,0,0-12.078-1.68h-.788a4.49,4.49,0,0,0,0,8.98h14.547Zm.42-8.927a5.6,5.6,0,0,1-.42,11.185H100.975a6.715,6.715,0,0,1-.735-13.391,8.389,8.389,0,0,1,15.7,2.206" transform="translate(691.289 637.447)" fill="#333"/>
      <rect id="Rectangle_208" data-name="Rectangle 208" width="36" height="36" transform="translate(781 628.609)" fill="none"/>
    </g>
    <g id="Material_Design_Icon_Pack_singlecolor_3" data-name="Material Design Icon Pack_singlecolor_3" transform="translate(-779 -430)">
      <path id="Path_576" data-name="Path 576" d="M216.85,0l2.283,2.283h9.078a2.289,2.289,0,0,1,2.229,2.283V15.873a2.29,2.29,0,0,1-2.229,2.283H210.055a2.289,2.289,0,0,1-2.229-2.283V2.283A2.29,2.29,0,0,1,210.055,0h6.794Z" transform="translate(684.099 637.959)" fill="#333"/>
      <rect id="Rectangle_207" data-name="Rectangle 207" width="36" height="36" transform="translate(885 629)" fill="none"/>
    </g>
    <g id="Universal_Icon_Pack_singlecolor_1" data-name="Universal Icon Pack_singlecolor_1" transform="translate(142 -731.974)">
      <g id="Group_159" data-name="Group 159" transform="translate(20.419 937.981)">
        <path id="Path_552" data-name="Path 552" d="M6.418,16.5a1.042,1.042,0,1,0-1.252-.776,1.041,1.041,0,0,0,1.252.776m5.4,0a1.042,1.042,0,1,0-1.252-.776,1.041,1.041,0,0,0,1.252.776m5.438,0A1.042,1.042,0,1,0,16,15.724a1.041,1.041,0,0,0,1.252.776M6.418,20.269a1.042,1.042,0,1,0-1.252-.776,1.041,1.041,0,0,0,1.252.776m5.4,0a1.042,1.042,0,1,0-1.252-.776,1.041,1.041,0,0,0,1.252.776m5.438,0A1.042,1.042,0,1,0,16,19.493a1.041,1.041,0,0,0,1.252.776M18.493,3.775V2.393H17.163V3.775H6.179V2.393H4.849V3.775H0V24.726H23.484V3.775ZM22.088,23.33H1.4V11.411H22.088Zm0-13.315H1.4V5.171H22.088Z" transform="translate(0 -2.393)" fill="#333"/>
      </g>
      <rect id="Rectangle_213" data-name="Rectangle 213" width="36" height="36" transform="translate(14 930.974)" fill="none"/>
    </g>
    <g id="Universal_Icon_Pack_singlecolor_2" data-name="Universal Icon Pack_singlecolor_2" transform="translate(78 -732)">
      <g id="Group_158" data-name="Group 158" transform="translate(125.274 937.822)">
        <path id="Path_554" data-name="Path 554" d="M126.794,8.182h-2.708v-4.6H121.22V0l-5.634,3.573.008.013h-9.8v7.189h-2.151v1.4h2.151v7.794h3.284v2.469h4.259V19.964h2.445v2.469h4.26V19.964h4.046v-5.2h2.708Zm-6.97-5.644V3.586h-1.653Zm-7.884,18.5h-1.469V19.964h1.469Zm6.705,0h-1.47V19.964h1.47Zm4.045-2.469h-15.5V4.981h15.5Zm2.708-5.2h-1.312V9.577H125.4Z" transform="translate(-103.642)" fill="#333"/>
        <rect id="Rectangle_97" data-name="Rectangle 97" width="1.642" height="1.642" transform="translate(14.749 8.799)" fill="#333"/>
      </g>
      <rect id="Rectangle_214" data-name="Rectangle 214" width="36" height="36" transform="translate(119 931)" fill="none"/>
    </g>
    <g id="Universal_Icon_Pack_singlecolor_3" data-name="Universal Icon Pack_singlecolor_3" transform="translate(15 -732.429)">
      <path id="Path_553" data-name="Path 553" d="M215.306,11.811H213.87v5.578h1.436Zm4.788,0h-1.436v5.578h1.436Zm4.786,0h-1.436v5.578h1.436Zm-.051-5.417L219.47,1.036l-5.358,5.358h-6.846V7.83h.831V22.344h22.56V7.83h.773V6.394ZM219.47,3.067,222.8,6.394h-6.655Zm9.749,17.84H209.533V7.83H229.22Z" transform="translate(21.924 937.306)" fill="#333"/>
      <rect id="Rectangle_215" data-name="Rectangle 215" width="36" height="36" transform="translate(223 931.429)" fill="none"/>
    </g>
    <g id="Hand_Drawn_Icon_Pack_singlecolor_1" data-name="Hand Drawn Icon Pack_singlecolor_1" transform="translate(-321 -688)">
      <g id="Group_160" data-name="Group 160" transform="translate(350.954 937.301)">
        <g id="Group_13" data-name="Group 13" transform="translate(0.431 0.603)">
          <g id="Group_12" data-name="Group 12" transform="translate(0)" clip-path="url(#clip-path)">
            <path id="Path_180" data-name="Path 180" d="M8.963,4.512Q4.248,10.063.04,16.019c-.165.234.212.528.4.308A77.068,77.068,0,0,1,11.281,5.779q1.7-1.354,3.474-2.608l-.307-.4A98.487,98.487,0,0,0,3.824,13.483q-1.391,1.638-2.71,3.335c-.2.251.141.611.359.359a89.469,89.469,0,0,1,10.394-10.6Q13.5,5.226,15.249,4.029l-.308-.4A133.184,133.184,0,0,0,4.5,15.569Q3.134,17.328,1.83,19.13c-.167.231.22.534.4.307A102.663,102.663,0,0,1,13.3,7.5Q15,5.936,16.774,4.45l-.359-.359Q13.614,7.074,11,10.227c-1.71,2.066-3.414,4.168-4.927,6.384a20.238,20.238,0,0,0-2.1,3.815c-.116.286.308.409.463.2A81.643,81.643,0,0,1,16.634,7.275q1.917-1.68,3.936-3.238l-.307-.4C16.107,7.95,11.925,12.3,8.581,17.287A44.8,44.8,0,0,0,6.016,21.6c-.127.244.2.532.4.308a174.968,174.968,0,0,1,13.518-14q2.041-1.823,4.2-3.5l-.359-.359a128.817,128.817,0,0,0-13.315,14.9Q8.74,21.2,7.119,23.534c-.163.234.213.529.4.307,4.414-5.3,8.91-10.6,14.244-15a50.8,50.8,0,0,1,4.773-3.506l-.308-.4c-4.669,4.9-9.348,9.805-13.537,15.128q-1.771,2.25-3.41,4.6c-.164.236.207.521.4.307a176.085,176.085,0,0,1,13.84-14.29c1.414-1.255,2.868-2.464,4.37-3.611l-.307-.4a132.719,132.719,0,0,0-13.2,14.827q-1.683,2.259-3.212,4.628c-.153.238.216.535.4.307A97.3,97.3,0,0,1,26.987,11.772c1.556-1.245,3.127-2.471,4.7-3.7l-.359-.358C25.9,12.973,20.321,18.1,15.4,23.848c-1.2,1.4-2.847,2.964-2.679,4.975a.257.257,0,0,0,.433.18A186.952,186.952,0,0,1,28.5,13.869c1.575-1.331,3.2-2.608,4.867-3.815l-.307-.4q-7.124,7.22-13.553,15.081-1.823,2.23-3.586,4.508c-.2.253.152.615.359.359A111.455,111.455,0,0,1,34.037,12.044q2.794-2.2,5.728-4.221l-.307-.4q-.864.79-1.72,1.587-2.146,1.991-4.27,4-2.762,2.617-5.48,5.28c-1.811,1.779-3.605,3.575-5.352,5.418a56.8,56.8,0,0,0-3.9,4.434q-.159.208-.314.42c-.192.265.248.518.438.256a44.572,44.572,0,0,1,3.616-4.2c1.7-1.818,3.459-3.587,5.231-5.338q2.726-2.693,5.508-5.329,2.229-2.119,4.482-4.213.708-.658,1.418-1.313c.22-.2.469-.4.671-.617.009-.01.019-.017.029-.026.209-.192-.068-.563-.307-.4a111.749,111.749,0,0,0-18.938,16.46q-2.409,2.625-4.647,5.4l.359.359q6.209-8.019,13.147-15.436,1.968-2.1,3.992-4.153c.2-.2-.067-.573-.308-.4A119.683,119.683,0,0,0,17.019,24.175q-2.127,2.222-4.225,4.469l.433.179c-.153-1.829,1.363-3.251,2.456-4.528,1.188-1.391,2.419-2.745,3.676-4.074,2.533-2.677,5.171-5.253,7.824-7.81,1.5-1.446,3.006-2.885,4.5-4.335.242-.234-.109-.554-.359-.358A151.6,151.6,0,0,0,15.158,21.609c-1.379,1.429-2.7,2.913-3.945,4.46l.4.308a103.644,103.644,0,0,1,12.41-15.37q1.93-2.019,3.919-3.981c.2-.2-.073-.578-.307-.4a112.719,112.719,0,0,0-14.5,13.759q-1.921,2.1-3.816,4.222l.4.307A137.8,137.8,0,0,1,22.684,9.406q1.941-2.066,3.9-4.113c.193-.2-.058-.56-.307-.4-5.86,3.789-10.757,8.825-15.3,14.073-1.29,1.49-2.556,3-3.819,4.515l.4.308a127.975,127.975,0,0,1,12.6-15.412Q22.1,6.346,24.136,4.4c.243-.233-.109-.552-.359-.359A112.685,112.685,0,0,0,9.729,17.476Q7.88,19.5,6.056,21.55l.4.307C9.2,16.562,13.079,11.983,17.135,7.65,18.285,6.422,19.453,5.209,20.621,4c.191-.2-.072-.581-.308-.4A82.2,82.2,0,0,0,7.137,16.324Q5.508,18.3,4,20.366l.463.2a28.52,28.52,0,0,1,4.153-6.548q2.444-3.167,5.081-6.176,1.507-1.72,3.073-3.387a.254.254,0,0,0-.359-.359,102.667,102.667,0,0,0-11.6,11.424Q3.3,17.263,1.87,19.078l.4.307A132.683,132.683,0,0,1,12.234,7.2Q13.74,5.571,15.3,3.989c.2-.2-.062-.565-.307-.4A63.118,63.118,0,0,0,3.931,13.623c-.953,1.053-1.888,2.121-2.817,3.195l.359.359A98.485,98.485,0,0,1,11.617,6.011q1.563-1.475,3.19-2.88c.215-.186-.071-.566-.308-.4a77.5,77.5,0,0,0-11.52,9.988Q1.483,14.3.08,15.968l.4.307q4.166-5.9,8.843-11.4c.21-.247-.147-.608-.359-.359" transform="translate(-5.234 -3.445)" fill="#333"/>
          </g>
        </g>
        <path id="Path_182" data-name="Path 182" d="M34.593,10.993c-.263-.736-.614-1.443-.942-2.154a8.875,8.875,0,0,0-3.225-3.729C28.245,3.668,25.8,3.1,22.11,3.055c-2.3-.058-4.961,1.465-7.033,4.027a16.911,16.911,0,0,0-3.462,8.035,8.894,8.894,0,0,0,2.8,8.222,12.983,12.983,0,0,0,3.547,2.269,13.591,13.591,0,0,0,6.6,1.481,10.216,10.216,0,0,0,7.265-3.316,13.065,13.065,0,0,0,3.066-5.954,11.683,11.683,0,0,0-.3-6.825m-.4,4.186a12.012,12.012,0,0,1-4.129,8.88,8.949,8.949,0,0,1-5.524,2.079,13.409,13.409,0,0,1-7.11-1.849,9.706,9.706,0,0,1-3.283-2.564A8.1,8.1,0,0,1,12.478,15.3a18.016,18.016,0,0,1,2.593-6.755,7.635,7.635,0,0,1,2.534-2.634c.482-.283.928-.631,1.412-.91a8.47,8.47,0,0,1,4.274-.943,12.394,12.394,0,0,1,5.6,1.332A8.439,8.439,0,0,1,32.53,8.96a11.743,11.743,0,0,1,1.659,6.219M28.31,6.7a10.7,10.7,0,0,0-4.36-1.268A8.334,8.334,0,0,0,15.93,9.351,13,13,0,0,0,14.253,12.8a10.918,10.918,0,0,0-.735,3.422,7.667,7.667,0,0,0,1.629,4.749,8.554,8.554,0,0,0,2.985,2.323,11.5,11.5,0,0,0,6.051,1.533,8.261,8.261,0,0,0,4.643-1.614c2.707-2.072,3.789-4.944,3.994-8.229a10.725,10.725,0,0,0-1.658-5.545A7.248,7.248,0,0,0,28.31,6.7m3.117,7.755c-.369.021-.741,0-1.112,0-.4,0-.648.176-.673.48s.2.558.615.583a12.519,12.519,0,0,0,1.332,0c.248-.012.365.045.328.31-.43,3.032-1.616,5.616-4.356,7.251a7.317,7.317,0,0,1-3.455.975c-.237.011-.376-.054-.435-.3-.134-.576-.294-1.145-.43-1.72-.064-.272-.148-.517-.459-.583a.5.5,0,0,0-.6.587c.057.523.183,1.039.285,1.558.021.109.063.214.1.349a1.207,1.207,0,0,1-.257.013,11.9,11.9,0,0,1-6.151-2.975,6.373,6.373,0,0,1-1.9-4.549c-.009-.267.089-.356.349-.351a6.548,6.548,0,0,0,1.111-.038.893.893,0,0,0,.548-.3c.219-.3-.03-.707-.445-.738a8.674,8.674,0,0,0-1.048.009c-.262.012-.37-.057-.3-.346a12.955,12.955,0,0,1,2.747-5.84A7.206,7.206,0,0,1,22.4,6.216c.42-.019.427-.009.423.409,0,.339-.01.679.012,1.017.026.388.258.617.565.6s.486-.255.494-.63c.008-.35.008-.7.008-1.049,0-.222.08-.329.328-.3a8.59,8.59,0,0,1,5.283,2.388,4.6,4.6,0,0,1,.639.788,10.961,10.961,0,0,1,1.736,4.434c.064.514.047.553-.465.582m-6.272-3.382a.485.485,0,0,0-.607.123,1.5,1.5,0,0,0-.2.285q-.853,1.489-1.7,2.98a2.392,2.392,0,0,1-.157.21c-.388-.522-.757-1-1.1-1.489-.817-1.16-1.623-2.327-2.433-3.492a2.046,2.046,0,0,0-.166-.232.5.5,0,0,0-.635-.12.473.473,0,0,0-.245.594,1.712,1.712,0,0,0,.224.488q1.185,1.709,2.387,3.408c.335.476.691.939,1.005,1.428a.785.785,0,0,1,.08.528,1.155,1.155,0,0,0,.242,1.237,1.455,1.455,0,0,0,1.455.315,1.2,1.2,0,0,0,.519-1.953.446.446,0,0,1-.091-.672c.505-.858,1-1.723,1.493-2.588a1.825,1.825,0,0,0,.2-.465.48.48,0,0,0-.265-.586" transform="translate(-11.476 -3.053)" fill="#333"/>
      </g>
      <rect id="Rectangle_219" data-name="Rectangle 219" width="36" height="36" transform="translate(345 931)" fill="none"/>
    </g>
    <g id="Hand_Drawn_Icon_Pack_singlecolor_2" data-name="Hand Drawn Icon Pack_singlecolor_2" transform="translate(-385 -688)">
      <g id="Group_161" data-name="Group 161" transform="translate(455.9 937.561)">
        <g id="Group_17" data-name="Group 17" transform="translate(7.902 0.735)">
          <g id="Group_16" data-name="Group 16" transform="translate(0 0)" clip-path="url(#clip-path-2)">
            <path id="Path_183" data-name="Path 183" d="M136.191.466q-1.7,1.809-3.244,3.75a16.232,16.232,0,0,0-2.508,3.808c-.073.177.191.253.287.121A37.816,37.816,0,0,1,138.158.5l-.191-.247a37.113,37.113,0,0,0-6.582,8.3c-.079.152.122.33.247.191,2.591-2.9,4.919-6.087,8.01-8.488L139.42.037a63.5,63.5,0,0,0-7.739,9.854c-.1.145.132.328.247.19,2.7-3.239,5.408-6.658,8.983-8.979l-.191-.247a78.374,78.374,0,0,0-7.83,9.114c-.1.146.128.323.247.19a64.785,64.785,0,0,1,8.65-8.322l-.19-.247a55.317,55.317,0,0,0-7.833,9.053c-.11.171.162.329.272.159a54.937,54.937,0,0,1,7.783-8.99c.123-.121-.045-.358-.19-.247a65.184,65.184,0,0,0-8.714,8.371l.247.19a77.816,77.816,0,0,1,7.781-9.05c.119-.126-.036-.347-.191-.247-3.6,2.337-6.329,5.766-9.046,9.028l.247.19a63.1,63.1,0,0,1,7.689-9.79c.15-.144-.067-.343-.222-.223-3.092,2.4-5.42,5.592-8.01,8.488l.247.191A36.8,36.8,0,0,1,138.19.479c.118-.123-.044-.36-.191-.247a38.333,38.333,0,0,0-7.543,7.754l.287.121a16.428,16.428,0,0,1,2.584-3.866Q134.8,2.406,136.413.688c.139-.147-.083-.37-.222-.222" transform="translate(-132.854 -1.854)" fill="#333"/>
          </g>
        </g>
        <path id="Path_185" data-name="Path 185" d="M140.469,4.15a1.357,1.357,0,0,0-1.731.345.568.568,0,0,1-.374.215,7.687,7.687,0,0,1-3-.669c-.576-.274-1.154-.55-1.753-.766a11.267,11.267,0,0,0-1.894-.537,7.479,7.479,0,0,0-2.749.183,2.878,2.878,0,0,0-1.5.684A10.932,10.932,0,0,0,125.2,6.54a4.333,4.333,0,0,0-.4,2.339,1.051,1.051,0,0,0,.465.8,3.682,3.682,0,0,0,1.71.649c.113.016.308.139.3.2a11.258,11.258,0,0,1-.165,1.262,1.771,1.771,0,0,1-.194.371,5.394,5.394,0,0,1-.546,1.151,11.174,11.174,0,0,1-1.618,1.679,12.715,12.715,0,0,0-3.981,5.449.823.823,0,0,1-.077.126l-.065-.009a3.606,3.606,0,0,1-.027-.434,5.726,5.726,0,0,1,.806-2.659c.395-.661.842-1.289,1.257-1.937a4.337,4.337,0,0,0,.437-.772,1.221,1.221,0,0,0-1.356-1.748,2.911,2.911,0,0,0-1.612.7,7.372,7.372,0,0,0-2.74,6.709,9.07,9.07,0,0,0,2.674,5.267,3.509,3.509,0,0,0,2.217,1c.749.08,1.513.021,2.27.03,1.078.014,2.156.043,3.233.047a10.691,10.691,0,0,0,1.546-.067c1.109-.158,2.211-.366,3.317-.545a.551.551,0,0,1,.311.057,5.033,5.033,0,0,0,4.071-.021,1.1,1.1,0,0,0,.511-1.767,3.86,3.86,0,0,0-1.034-.893,14.758,14.758,0,0,0-1.44-.733.963.963,0,0,1-.6-1c.065-.988.114-1.977.181-2.965a19.585,19.585,0,0,0-.042-5.361,12.448,12.448,0,0,1-.192-1.3,1.169,1.169,0,0,1,.712-1.259c.3-.141.607-.256.915-.375A6.91,6.91,0,0,0,139.6,7.845a1.384,1.384,0,0,0,.137-.414c.047-.2.116-.343.355-.363a1.071,1.071,0,0,0,.941-.682,3.135,3.135,0,0,0,.206-1.021,1.122,1.122,0,0,0-.766-1.214M126.542,9.126c-.615-.128-.682-.3-.691-.928a2.833,2.833,0,0,1,.375-1.283,8.576,8.576,0,0,1,1.985-2.528,4.247,4.247,0,0,1,.431-.3c.111.481.228.88.293,1.287.111.7.229,1.408.27,2.116a2.331,2.331,0,0,1-.417,1.469.612.612,0,0,1-.58.307,13.1,13.1,0,0,1-1.667-.144m12.032-1.667a6.136,6.136,0,0,1-2.706,1.983c-.314.134-.643.229-.956.365a2.282,2.282,0,0,0-1.543,2.556c.07.766.3,1.522.321,2.286.032,1.294-.031,2.592-.084,3.887-.044,1.077-.135,2.152-.2,3.229a1.942,1.942,0,0,0,1.137,1.958c.487.255,1,.467,1.47.748.249.149.617.418.6.61-.022.328-.461.285-.739.326a9.836,9.836,0,0,1-1.379.121,1.7,1.7,0,0,1-1.754-1.238,5.213,5.213,0,0,1-.228-1.488,5.392,5.392,0,0,0-3.38-4.888,2.586,2.586,0,0,0-2.405.178c-.319.2-.66.353-.984.54a.536.536,0,1,0,.49.939c.386-.187.762-.4,1.135-.607a1.451,1.451,0,0,1,1.179-.117,4.346,4.346,0,0,1,2.9,3.812c.022.663.177,1.322.261,1.983a4.544,4.544,0,0,1,0,.557,17.349,17.349,0,0,1-4.227.479c-.753-.072-1.518-.013-2.277-.036-1.01-.03-2.021-.057-3.029-.132a2.378,2.378,0,0,1-1.734-.973,9.23,9.23,0,0,1-1.874-3.607A6.147,6.147,0,0,1,120,15.359a6.913,6.913,0,0,1,1.355-1.129c.175-.121.473-.062.714-.086a2.975,2.975,0,0,1-.218.676c-.493.807-1.036,1.582-1.517,2.4a6.469,6.469,0,0,0-.791,2.6,4.6,4.6,0,0,0,.74,2.89.584.584,0,0,0,.614.3.571.571,0,0,0,.474-.488c.075-.288.15-.575.213-.865a10.159,10.159,0,0,1,3.322-5.383,19.974,19.974,0,0,0,2.1-2.037,5.4,5.4,0,0,0,1.355-3.565c0-.18.018-.324.244-.355a1.484,1.484,0,0,0,1.031-.707,4.279,4.279,0,0,0,.576-3.2c-.123-.769-.3-1.53-.464-2.292-.045-.212.057-.279.237-.3a5.5,5.5,0,0,1,3.1.385c.722.327,1.451.636,2.178.951a7.09,7.09,0,0,0,2.526.584c.241.01.609.084.688.243.226.453.487.931.09,1.477M133.4,5.2c-.539,0-.823.352-.817,1.008a.909.909,0,0,0,.943.893,1.316,1.316,0,0,0,.962-1.069c0-.45-.5-.834-1.089-.832" transform="translate(-117.348 -2.674)" fill="#333"/>
      </g>
      <rect id="Rectangle_220" data-name="Rectangle 220" width="36" height="36" transform="translate(450 931)" fill="none"/>
    </g>
    <g id="Hand_Drawn_Icon_Pack_singlecolor_3" data-name="Hand Drawn Icon Pack_singlecolor_3" transform="translate(-448 -688)">
      <g id="Group_162" data-name="Group 162" transform="translate(558.127 937.247)">
        <g id="Group_21" data-name="Group 21" transform="translate(4.589 5.942)">
          <g id="Group_20" data-name="Group 20" transform="translate(0 0)" clip-path="url(#clip-path-3)">
            <path id="Path_186" data-name="Path 186" d="M221.89,6.057q-4.819,5.675-9.12,11.762c-.216.306.279.692.522.4A78.818,78.818,0,0,1,224.312,7.494q1.751-1.4,3.58-2.69l-.4-.522A100.646,100.646,0,0,0,216.632,15.23q-1.414,1.665-2.754,3.39c-.256.329.185.8.471.471A91.635,91.635,0,0,1,224.907,8.311q1.683-1.4,3.489-2.631l-.4-.522a136.173,136.173,0,0,0-10.671,12.2q-1.393,1.8-2.726,3.64c-.219.3.288.7.523.4a104.939,104.939,0,0,1,11.3-12.183q1.739-1.6,3.548-3.116l-.471-.471q-2.867,3.054-5.54,6.28c-1.749,2.114-3.492,4.263-5.039,6.531a20.809,20.809,0,0,0-2.137,3.9c-.152.375.4.536.608.257A83.3,83.3,0,0,1,229.758,9.04q1.981-1.74,4.069-3.352l-.4-.522c-4.235,4.394-8.5,8.826-11.91,13.908a46.047,46.047,0,0,0-2.644,4.443.333.333,0,0,0,.575.336,81.615,81.615,0,0,1,13.7-14.324q2.13-1.785,4.333-3.479l-.471-.471a131.712,131.712,0,0,0-13.6,15.214q-1.763,2.31-3.421,4.7c-.214.307.28.694.522.4,4.51-5.41,9.1-10.826,14.552-15.324a51.9,51.9,0,0,1,4.847-3.559l-.4-.523c-4.769,5-9.547,10.013-13.824,15.449q-1.811,2.3-3.488,4.7c-.245.352.332.686.575.336a140.713,140.713,0,0,1,13.23-15.823q1.979-2.107,3.978-4.194c.253-.265-.076-.734-.4-.522-5.978,3.867-10.977,9-15.615,14.355-1.324,1.529-2.623,3.078-3.918,4.632l.522.4a130.611,130.611,0,0,1,12.855-15.719q1.984-2.073,4.058-4.058c.319-.305-.142-.724-.471-.471a98.631,98.631,0,0,0-14.629,13.5q-1.846,2.145-3.514,4.434l.575.336c2.808-5.406,6.763-10.08,10.907-14.5,1.169-1.248,2.356-2.481,3.543-3.713.25-.26-.094-.761-.4-.522a84.026,84.026,0,0,0-13.427,12.954q-1.69,2.043-3.25,4.189l.608.256a28.936,28.936,0,0,1,4.184-6.606q2.508-3.253,5.217-6.344,1.541-1.76,3.143-3.465a.333.333,0,0,0-.471-.471,104.984,104.984,0,0,0-11.841,11.661q-1.545,1.785-3.008,3.639l.522.4a135.442,135.442,0,0,1,10.16-12.42q1.538-1.667,3.132-3.283c.257-.261-.082-.741-.4-.522a64.469,64.469,0,0,0-11.271,10.213c-.985,1.088-1.952,2.192-2.912,3.3l.471.471A100.613,100.613,0,0,1,224.717,7.679q1.589-1.5,3.242-2.927c.282-.244-.094-.742-.4-.522a79.259,79.259,0,0,0-11.79,10.224q-1.518,1.607-2.944,3.3l.523.4q4.247-6.011,9.016-11.627c.275-.325-.193-.8-.471-.471" transform="translate(-217.889 -9.593)" fill="#333"/>
          </g>
        </g>
        <path id="Path_188" data-name="Path 188" d="M233.146,21.636c-.363-.285-.746-.547-1.088-.855-.617-.555-1.222-1.124-1.785-1.733a3.833,3.833,0,0,0,.892-2.453,5.26,5.26,0,0,0-1.648-3.94,24.37,24.37,0,0,0-2.781-2.189,6.855,6.855,0,0,0-3.1-1.3,16.693,16.693,0,0,1-5.722-1.89,1.118,1.118,0,0,0-.339-.11c-.486-.081-.792.265-.607.718a5.59,5.59,0,0,0,.514.942,16.608,16.608,0,0,1,2.188,4.325c.324,1.081.738,2.135,1.1,3.2a7.5,7.5,0,0,0,1.985,2.952,4.827,4.827,0,0,0,3.33,1.129,15.567,15.567,0,0,0,1.579-.126,5.578,5.578,0,0,0,1.781-.519c.494.536,1.057,1.005,1.592,1.5a4.349,4.349,0,0,0,2.165,1.054c.088-.041.266-.069.3-.152s-.053-.242-.119-.347a.946.946,0,0,0-.234-.212m-3.394-3.955c-.121.278-.24.361-.38.275-.064-.087-.134-.167-.2-.257a13.853,13.853,0,0,0-1.931-2.215c-.384-.37-.782-.725-1.191-1.07-.465-.4-.936-.788-1.4-1.183-.1-.083-.283-.065-.427-.094v.005c.027.115.017.262.085.339l.021.022c.008.013.008.032.018.044.565.653,1.145,1.293,1.725,1.931.495.544,1.016,1.065,1.487,1.628.085.105.17.209.252.317a12.947,12.947,0,0,1,.8,1.245c-.009.115-.088.216-.256.306a3.483,3.483,0,0,1-1.825.421,3.836,3.836,0,0,1-2.968-1.165,1.423,1.423,0,0,1-.33-.489c-.808-1.879-1.6-3.767-2.412-5.642-.35-.8-.757-1.582-1.129-2.376a1.806,1.806,0,0,1-.086-.406,1.437,1.437,0,0,1,.442-.035c1.38.337,2.776.627,4.127,1.057a15.748,15.748,0,0,1,2.28,1.12c.177.09.329.231.508.316a6.18,6.18,0,0,1,2.548,2.555,3.47,3.47,0,0,1,.234,3.349m12.181-9.7a5.139,5.139,0,0,0-4.373-4.783,10.032,10.032,0,0,0-1.853-.264,8.043,8.043,0,0,0-6.868,2.885,14.592,14.592,0,0,0-.956,1.487c-.037-.014-.069-.016-.083-.033a.874.874,0,0,1-.113-.162A5.976,5.976,0,0,0,223.9,4.076a10.124,10.124,0,0,0-4.855-.256,5.484,5.484,0,0,0-3.76,2.533,6.872,6.872,0,0,0-1.066,2.814,11.591,11.591,0,0,0,1.454,7.266,20.864,20.864,0,0,0,4.46,5.584,27.547,27.547,0,0,0,7.711,4.821,1.311,1.311,0,0,0,.874-.014,13.43,13.43,0,0,0,1.485-.68,24.836,24.836,0,0,0,8.613-6.719,13.956,13.956,0,0,0,1.546-2.26,16.274,16.274,0,0,0,1.564-9.186m-2.887,8.812A11.492,11.492,0,0,1,237,19.67a24.4,24.4,0,0,1-8.335,6.046.936.936,0,0,1-.706.032,25.62,25.62,0,0,1-6.208-3.872,19.554,19.554,0,0,1-5.673-7.691,9.962,9.962,0,0,1-.584-4.742,5.561,5.561,0,0,1,1.1-2.7A4.123,4.123,0,0,1,219.2,5.1a8.746,8.746,0,0,1,4.491.268,4.581,4.581,0,0,1,3.12,3.109c.117.394.267.78.42,1.163a.727.727,0,0,0,.671.542.761.761,0,0,0,.719-.541,3.771,3.771,0,0,0,.232-.761,5.464,5.464,0,0,1,4.122-4.32,7.707,7.707,0,0,1,4.719.045,3.815,3.815,0,0,1,2.881,3.318c.068.527.1,1.058.142,1.587a19.43,19.43,0,0,1-1.674,7.273" transform="translate(-214.111 -2.924)" fill="#333"/>
      </g>
      <rect id="Rectangle_221" data-name="Rectangle 221" width="36" height="36" transform="translate(554 931)" fill="none"/>
    </g>
    <g id="Lineal_Icon_Pack_singlecolor_1" data-name="Lineal Icon Pack_singlecolor_1" transform="translate(-520 -688)">
      <g id="Group_166" data-name="Group 166" transform="translate(680.943 937.693)">
        <path id="Path_461" data-name="Path 461" d="M29.654,26.092a.972.972,0,0,0-.97-.97H13.664a.972.972,0,0,0-.97.97v.826a.972.972,0,0,0,.97.97h.642v7.9a2.9,2.9,0,0,0,2.9,2.9h1.924a.46.46,0,0,0,.191-.878.449.449,0,0,0-.191-.039H17.207a1.984,1.984,0,0,1-1.982-1.983v-7.9h11.9v7.9a1.985,1.985,0,0,1-1.983,1.983H23.259a.458.458,0,1,0,0,.917h1.882a2.9,2.9,0,0,0,2.9-2.9v-7.9h.642a.972.972,0,0,0,.97-.97Zm-.919.826a.052.052,0,0,1-.051.051H13.664a.052.052,0,0,1-.051-.051v-.826a.052.052,0,0,1,.051-.051h15.02a.052.052,0,0,1,.051.051Z" transform="translate(-8.137 -15.857)" fill="#333"/>
        <path id="Path_462" data-name="Path 462" d="M14.978,13.128a.441.441,0,0,0,.64-.359h.007a6.742,6.742,0,0,1,13.36,0h.008a.453.453,0,0,0,.257.359.46.46,0,0,0,.609-.229.45.45,0,0,0,.029-.251H29.9a7.661,7.661,0,0,0-15.182,0h.007a.454.454,0,0,0,.257.48" transform="translate(-9.312 -4.752)" fill="#333"/>
        <path id="Path_463" data-name="Path 463" d="M22.869,39.824v-4.46h0a.306.306,0,1,0-.612,0h0v4.46h0a.306.306,0,1,0,.612,0Z" transform="translate(-13.697 -21.633)" fill="#333"/>
        <path id="Path_464" data-name="Path 464" d="M22.563,49.558a.307.307,0,1,0,.306.307.307.307,0,0,0-.306-.307" transform="translate(-13.697 -30.064)" fill="#333"/>
        <path id="Path_465" data-name="Path 465" d="M39.926,38.626a.4.4,0,1,0-.4.4.4.4,0,0,0,.4-.4" transform="translate(-23.5 -23.473)" fill="#333"/>
        <path id="Path_466" data-name="Path 466" d="M11.344,48.58a.325.325,0,1,0,.325.325.325.325,0,0,0-.325-.325" transform="translate(-7.164 -29.495)" fill="#333"/>
        <path id="Path_467" data-name="Path 467" d="M30.231,15.179a.325.325,0,1,0,.325-.325.325.325,0,0,0-.325.325" transform="translate(-18.333 -9.887)" fill="#333"/>
        <path id="Path_468" data-name="Path 468" d="M53.761,44.621a1.07,1.07,0,1,0,1.07,1.07,1.071,1.071,0,0,0-1.07-1.07m0,1.527a.457.457,0,1,1,.457-.457.458.458,0,0,1-.457.457" transform="translate(-31.392 -27.194)" fill="#333"/>
        <path id="Path_469" data-name="Path 469" d="M47.965,6.266a1.638,1.638,0,1,0-1.638-1.638,1.64,1.64,0,0,0,1.638,1.638m0-2.664A1.026,1.026,0,1,1,46.94,4.627,1.027,1.027,0,0,1,47.965,3.6" transform="translate(-27.692 -2.989)" fill="#333"/>
        <path id="Path_470" data-name="Path 470" d="M59.661,13.68H59.09v-.571h0a.306.306,0,1,0-.613,0v.571h-.571a.306.306,0,1,0,0,.613h.571v.571a.306.306,0,1,0,.613,0h0v-.571h.571a.306.306,0,1,0,0-.613" transform="translate(-34.246 -8.695)" fill="#333"/>
        <path id="Path_471" data-name="Path 471" d="M3.642,19.981a.4.4,0,1,0,.4.4.4.4,0,0,0-.4-.4m5.1-13.828a.4.4,0,1,0,.4.4.4.4,0,0,0-.4-.4M27.531,18.319a.547.547,0,1,0,.547.547.547.547,0,0,0-.547-.547M3.949,14.029a1.07,1.07,0,1,0-1.07,1.07,1.071,1.071,0,0,0,1.07-1.07m-1.07.457a.457.457,0,1,1,.457-.457.458.458,0,0,1-.457.457M15.02,26.781a.461.461,0,1,0,.227.61.46.46,0,0,0-.227-.61" transform="translate(-1.809 -4.829)" fill="#333"/>
      </g>
      <rect id="Rectangle_225" data-name="Rectangle 225" width="36" height="36" transform="translate(676 931)" fill="none"/>
    </g>
    <g id="Lineal_Icon_Pack_singlecolor_2" data-name="Lineal Icon Pack_singlecolor_2" transform="translate(-584 -688.25)">
      <g id="Group_167" data-name="Group 167" transform="translate(787.101 936.48)">
        <path id="Path_472" data-name="Path 472" d="M134.652,11.078a.4.4,0,1,0,.4.4.4.4,0,0,0-.4-.4m-22.781,8.856a.4.4,0,1,0,.4.4.4.4,0,0,0-.4-.4m5.045-9.065h0a.3.3,0,0,0,.6,0h0V9.594h1.275a.3.3,0,1,0,0-.6H117.52V7.717h0a.3.3,0,0,0-.6,0h0V8.991h-1.274a.3.3,0,1,0,0,.6h1.274Zm10.2,3.2h.947v.947a.3.3,0,0,0,.6,0v-.947h.949a.3.3,0,0,0,0-.6h-.949v-.947a.3.3,0,1,0-.6,0v.947h-.947a.3.3,0,1,0,0,.6m1.551-6.657a1.054,1.054,0,1,0-1.054-1.054,1.055,1.055,0,0,0,1.054,1.054m0-1.5a.45.45,0,1,1-.45.45.451.451,0,0,1,.45-.45m.535,16.961a5.973,5.973,0,0,0-4.533-5.511V5.908a.452.452,0,1,0-.9,0v12.33a1.756,1.756,0,0,1-1.106,0V7.4h-.008a.363.363,0,0,0,.008-.037.452.452,0,1,0-.9,0,.361.361,0,0,0,.008.037h-.008v9.952a5.967,5.967,0,0,0-4.559,5.517,1.425,1.425,0,0,0-.934,1.382v1.113c0,1.427,1.92,2.6,4.89,3V28.36a.419.419,0,0,0,.06.012.453.453,0,0,0,.453-.454.448.448,0,0,0-.395-.442v-.007c-2.666-.354-4.1-1.348-4.1-2.1V24.254a.575.575,0,0,1,.528-.587l.4-.047v-.456a5.065,5.065,0,0,1,3.66-4.875v.086c0,.512.586.856,1.458.856s1.458-.344,1.458-.856V18.3a5.07,5.07,0,0,1,3.635,4.867l0,.455.4.047a.577.577,0,0,1,.533.588v1.113c0,.759-1.378,1.721-4.013,2.09v.006a.448.448,0,0,0-.4.442.453.453,0,0,0,.453.454.444.444,0,0,0,.067-.013v.008c2.911-.408,4.792-1.58,4.792-2.986V24.254a1.426,1.426,0,0,0-.934-1.382m-6.023,2.213a12.865,12.865,0,0,0,4.438-.719.3.3,0,0,0-.08-.589.3.3,0,0,0-.124.021,13.487,13.487,0,0,1-8.429.015h0a.3.3,0,0,0-.429.26.3.3,0,0,0,.218.3l0,0a12.924,12.924,0,0,0,4.408.706" transform="translate(-111.474 -3.071)" fill="#333"/>
        <path id="Path_473" data-name="Path 473" d="M119.939,13.433h-.677v-.677h0a.3.3,0,0,0-.6,0h0v.677h-.677a.3.3,0,1,0,0,.6h.677v.677h0a.3.3,0,0,0,.6,0h0v-.677h.677a.3.3,0,1,0,0-.6m17.032,4.186a.538.538,0,1,0,.538.538.538.538,0,0,0-.538-.538M125.341,0a.4.4,0,1,0,.4.4.4.4,0,0,0-.4-.4m1.42,24.594a.454.454,0,1,0,.452.454.453.453,0,0,0-.452-.454" transform="translate(-115.065 0)" fill="#333"/>
      </g>
      <rect id="Rectangle_226" data-name="Rectangle 226" width="36" height="36" transform="translate(781 931.25)" fill="none"/>
    </g>
    <g id="Lineal_Icon_Pack_singlecolor_3" data-name="Lineal Icon Pack_singlecolor_3" transform="translate(-647 -688.25)">
      <g id="Group_168" data-name="Group 168" transform="translate(890.051 936.854)">
        <path id="Path_474" data-name="Path 474" d="M240.424,18a10.144,10.144,0,0,1,0-5.388l.016-.049a5.047,5.047,0,0,0,.2-1.392v-.047a6.523,6.523,0,0,0-6.516-6.516h-3.257a6.523,6.523,0,0,0-6.516,6.516v.038a5.078,5.078,0,0,0,.2,1.4l.016.047a10.141,10.141,0,0,1,0,5.39l-.018.051a4.873,4.873,0,0,0-.194,1.372v.007a6.5,6.5,0,0,0,.391,2.229h0a.489.489,0,0,0,.946-.175.48.48,0,0,0-.032-.158l.005,0a5.514,5.514,0,0,1-.332-1.893V19.4a3.92,3.92,0,0,1,.147-1.053l.023-.065a10.954,10.954,0,0,0-.008-5.993l-.008-.024a4.146,4.146,0,0,1-.153-1.1v-.047a5.541,5.541,0,0,1,5.534-5.534h.06a5.54,5.54,0,0,1,5.534,5.534v.056a4.117,4.117,0,0,1-.153,1.091l-.008.025a10.956,10.956,0,0,0-.008,5.993l.023.065a3.907,3.907,0,0,1,.146,1.052v.024a5.54,5.54,0,0,1-5.534,5.534h-.06a5.508,5.508,0,0,1-3.052-.917l0,.005a.484.484,0,0,0-.308-.117.493.493,0,0,0-.493.494.488.488,0,0,0,.266.431l0,.006a6.489,6.489,0,0,0,3.594,1.08h3.257a6.523,6.523,0,0,0,6.516-6.516v-.007a4.855,4.855,0,0,0-.194-1.372Zm-.77,1.405v.024a5.537,5.537,0,0,1-5.288,5.522,6.512,6.512,0,0,0,3.073-5.522v-.007a4.89,4.89,0,0,0-.194-1.372L237.227,18a10.147,10.147,0,0,1,0-5.389l.016-.048a5.075,5.075,0,0,0,.2-1.392v-.047A6.51,6.51,0,0,0,234.366,5.6a5.536,5.536,0,0,1,5.288,5.521v.056a4.134,4.134,0,0,1-.153,1.09l0,.014a.58.58,0,1,0-.263,1.115,11.292,11.292,0,0,0,.252,4.889l.023.065a3.917,3.917,0,0,1,.147,1.052m-6.265-5.325a1.911,1.911,0,0,0,1.909,1.909.327.327,0,0,0,0-.654h0a1.255,1.255,0,1,1,0-2.509h0a.327.327,0,0,0,0-.655,1.912,1.912,0,0,0-1.909,1.909m.448-4.882a.535.535,0,1,0,.535.535.535.535,0,0,0-.535-.535m-.121,9.732a.431.431,0,1,0-.431-.431.431.431,0,0,0,.431.431m-5.1-5.673a.431.431,0,1,0-.431.431.431.431,0,0,0,.431-.431m8.39,9.72a.431.431,0,1,0,.431.431.432.432,0,0,0-.431-.431m1.086-14.1a.431.431,0,1,0-.431.432.431.431,0,0,0,.431-.432M227.752,20.181a.584.584,0,1,0,.584.584.584.584,0,0,0-.584-.584m2.063-1.935a1.375,1.375,0,1,0-1.375-1.375,1.376,1.376,0,0,0,1.375,1.375m0-2.095a.72.72,0,1,1-.72.72.721.721,0,0,1,.72-.72M244.352,21.6a1.143,1.143,0,1,0,1.143,1.143,1.144,1.144,0,0,0-1.143-1.143m0,1.631a.488.488,0,1,1,.489-.489.489.489,0,0,1-.489.489M241.569,1.887a1.75,1.75,0,1,0,1.751,1.75,1.752,1.752,0,0,0-1.751-1.75m0,2.846a1.1,1.1,0,1,1,1.1-1.1,1.1,1.1,0,0,1-1.1,1.1m-3.062,12.938a1.038,1.038,0,0,0-.754-.2h-.018v.005a.215.215,0,0,0-.2.212.218.218,0,0,0,.219.218c.016,0,.025-.013.04-.016l0,.013a.607.607,0,0,1,.163,1.2v0a.216.216,0,0,0-.207.214.219.219,0,0,0,.219.219c.017,0,.028-.014.044-.018l0,.013a1.043,1.043,0,0,0,.491-1.864m-9.617-6.01a2.355,2.355,0,1,0-.245-4.7v0a.326.326,0,0,0,.019.651.294.294,0,0,0,.048-.01v.006a1.7,1.7,0,1,1-1.513,1.87h-.006a.324.324,0,0,0-.319-.28.328.328,0,0,0-.328.328c0,.007,0,.013,0,.02h0a2.358,2.358,0,0,0,2.34,2.108m2.762,12.721,0,0a.322.322,0,0,0,.243.113.328.328,0,0,0,.328-.328.322.322,0,0,0-.086-.217l0,0a1.69,1.69,0,0,1,2.525-2.247l0,0a.323.323,0,0,0,.247.118.326.326,0,0,0,.238-.55h0l-.006-.006-.005,0a2.344,2.344,0,0,0-3.492,3.127" transform="translate(-220.399 -1.887)" fill="#333"/>
        <path id="Path_475" data-name="Path 475" d="M241,9.081a.431.431,0,1,0,.431.431A.431.431,0,0,0,241,9.081m-24.009,9.737a.431.431,0,1,0,.432.432.432.432,0,0,0-.432-.432m5.347-15.93a.431.431,0,1,0,.431.432.432.432,0,0,0-.431-.432m-1.65,20.354a.491.491,0,1,0,.491.491.491.491,0,0,0-.491-.491M236.991,17.6a.584.584,0,1,0,.584.584.584.584,0,0,0-.584-.584m-19.722-1.905a1.143,1.143,0,1,0-1.143,1.143,1.144,1.144,0,0,0,1.143-1.143m-1.143.489a.488.488,0,1,1,.489-.489.489.489,0,0,1-.489.489" transform="translate(-214.983 -2.466)" fill="#333"/>
      </g>
      <rect id="Rectangle_227" data-name="Rectangle 227" width="36" height="36" transform="translate(885 931.25)" fill="none"/>
    </g>
  </g>
</svg>
