<svg xmlns="http://www.w3.org/2000/svg" width="251" height="80" viewBox="0 0 251 80">
  <g id="Group_169" data-name="Group 169" transform="translate(-24 -23)">
    <g id="Free_Outline_Icon_Pack_singlecolor_1" data-name="Free Outline Icon Pack_singlecolor_1" transform="translate(-321 -606.273)">
      <g id="Group_154" data-name="Group 154" transform="translate(351.894 635.327)">
        <path id="Path_563" data-name="Path 563" d="M22.214,3.8H16.646l-4.92-2.5a.784.784,0,0,0,.089-.353.943.943,0,1,0-1.885,0,.813.813,0,0,0,.147.471L5.568,3.8H.472A.46.46,0,0,0,0,4.243V23.157a.465.465,0,0,0,.472.472H22.214a.465.465,0,0,0,.472-.472V4.243a.442.442,0,0,0-.472-.442m-11.2-1.827L14.613,3.8H7.542ZM21.743,22.715H.943v-18H21.772v18ZM3.123,20.859a.475.475,0,0,0,.383-.177l4.331-5.509,4.39,5.45a.462.462,0,0,0,.648.059.491.491,0,0,0,.059-.648l-3.476-4.3,3.918-4.979L20.653,20.8a.478.478,0,0,0,.648.089.465.465,0,0,0,.088-.648L13.759,9.723a.419.419,0,0,0-.353-.177.474.474,0,0,0-.383.177L8.868,15l-.678-.855a.4.4,0,0,0-.383-.177.421.421,0,0,0-.353.177L2.769,20.123a.434.434,0,0,0,.089.619.36.36,0,0,0,.265.118m3.005-8.573a2.828,2.828,0,1,0-2.8-2.828,2.829,2.829,0,0,0,2.8,2.828m0-4.743A1.911,1.911,0,0,1,8.043,9.457a1.9,1.9,0,0,1-3.8,0A1.924,1.924,0,0,1,6.128,7.542" fill="#333"/>
      </g>
      <rect id="Rectangle_201" data-name="Rectangle 201" width="36" height="36" transform="translate(345 629.273)" fill="none"/>
    </g>
    <g id="Free_Outline_Icon_Pack_singlecolor_2" data-name="Free Outline Icon Pack_singlecolor_2" transform="translate(-383 -606.25)">
      <path id="Path_565" data-name="Path 565" d="M121.243,11.024l4.5-3.6a.457.457,0,0,0,.17-.368.526.526,0,0,0-.2-.34L118.58,2.072a.427.427,0,0,0-.51.029l-4.7,3.909-4.7-3.909a.427.427,0,0,0-.51-.029l-7.11,4.646a.344.344,0,0,0-.2.34.369.369,0,0,0,.142.368l4.5,3.6-4.5,3.6a.455.455,0,0,0,.057.708l4.7,3.059v2.521a.427.427,0,0,0,.2.4l7.2,4.221a.377.377,0,0,0,.227.085.322.322,0,0,0,.226-.085l7.2-4.221a.451.451,0,0,0,.226-.4V18.389l4.7-3.059a.465.465,0,0,0,.2-.34.457.457,0,0,0-.17-.368Zm-7.875,3.91-6.346-3.91,6.346-3.909,6.345,3.909Zm5.014-11.954L124.7,7.115l-4.193,3.371-6.374-3.938Zm-10.028,0L112.6,6.548l-6.374,3.938-4.193-3.371Zm-2.124,8.583L112.6,15.5l-4.249,3.569-6.317-4.136Zm13.881,9.094-6.742,3.994-6.742-3.994V18.984l1.53.992a.322.322,0,0,0,.226.085.5.5,0,0,0,.283-.113l4.7-3.909,4.7,3.909a.5.5,0,0,0,.283.113.322.322,0,0,0,.226-.085l1.53-.992Zm-1.728-1.587L114.132,15.5l6.374-3.938,4.193,3.371Z" transform="translate(354.718 633.744)" fill="#333"/>
      <rect id="Rectangle_202" data-name="Rectangle 202" width="36" height="36" transform="translate(450 629.25)" fill="none"/>
    </g>
    <g id="Free_Outline_Icon_Pack_singlecolor_3" data-name="Free Outline Icon Pack_singlecolor_3" transform="translate(-444 -605.75)">
      <path id="Path_564" data-name="Path 564" d="M229.807,3.179H225.1V.708a.465.465,0,1,0-.93,0V3.179h-9.855V.708a.465.465,0,0,0-.93,0V3.179h-4.332a.454.454,0,0,0-.465.436V23.092a.459.459,0,0,0,.465.465h20.756a.459.459,0,0,0,.465-.465V3.644a.459.459,0,0,0-.465-.465m-.436,19.477H209.487V7.976h19.884Zm0-15.582H209.487V4.08h3.9V4.6a.465.465,0,0,0,.93,0V4.08h9.855V4.6a.465.465,0,1,0,.93,0V4.08h4.273Zm-11.686,12.3a.467.467,0,0,0,.32.145h.029a.4.4,0,0,0,.32-.175l7.937-9.361a.454.454,0,0,0-.7-.582l-7.616,8.983-3.517-3.517a.452.452,0,0,0-.64.639Z" transform="translate(352.452 634.678)" fill="#333"/>
      <rect id="Rectangle_203" data-name="Rectangle 203" width="36" height="36" transform="translate(554 628.75)" fill="none"/>
    </g>
    <g id="Free_Outline_Icon_Pack_singlecolor_4" data-name="Free Outline Icon Pack_singlecolor_4" transform="translate(-192 -709.667)">
      <path id="Path_567" data-name="Path 567" d="M14.524,103.149a4.247,4.247,0,1,0,.6,5.976,4.216,4.216,0,0,0-.6-5.976m-.074,5.423a3.373,3.373,0,1,1-2.951-5.489,3.445,3.445,0,0,1,.345-.017,3.374,3.374,0,0,1,2.606,5.507m8.427-2.679c-.058-.841-.906-1.229-1.726-1.6a3.181,3.181,0,0,1-1.5-1.016c-.024-.044-.081-.139-.124-.207a3.89,3.89,0,0,1,.329-1.46c.311-.9.665-1.912.006-2.631a9.412,9.412,0,0,0-.9-.836c-.645-.54-1.478-.178-2.215.143a2.735,2.735,0,0,1-1.62.377l-.233-.154a3.222,3.222,0,0,1-.82-1.335c-.378-.868-.807-1.851-1.789-1.882a9.212,9.212,0,0,0-1.23.063c-.837.084-1.16.934-1.445,1.685a2.658,2.658,0,0,1-.884,1.435l-.367.132a3.716,3.716,0,0,1-1.588-.373c-.944-.351-2.014-.748-2.722-.07a9.422,9.422,0,0,0-.815.922c-.527.658-.167,1.518.182,2.349a3.182,3.182,0,0,1,.412,1.758c-.013.049-.035.159-.05.238a3.9,3.9,0,0,1-1.231.851c-.837.448-1.785.955-1.788,1.93a9.5,9.5,0,0,0,.1,1.226c.108.835.968,1.133,1.726,1.4a3.426,3.426,0,0,1,1.33.668,1.2,1.2,0,0,1,.1.32l.087.491a2.8,2.8,0,0,1-.389,1.441c-.362.817-.773,1.742-.1,2.463a9.407,9.407,0,0,0,.913.825c.653.534,1.516.182,2.351-.158a3.189,3.189,0,0,1,1.764-.392c.049.013.157.036.235.052a3.882,3.882,0,0,1,.839,1.24c.439.841.936,1.795,1.911,1.808H11.7a9.935,9.935,0,0,0,1.156-.085c.836-.1,1.143-.956,1.415-1.711a2.739,2.739,0,0,1,.835-1.438l.272-.064a3.218,3.218,0,0,1,1.535.319c.892.319,1.9.681,2.6-.013a9.545,9.545,0,0,0,.8-.938c.513-.667.114-1.486-.236-2.208a2.7,2.7,0,0,1-.442-1.615l.192-.374a2.928,2.928,0,0,1,1.267-.7c.823-.308,1.755-.657,1.816-1.641a9.439,9.439,0,0,0-.025-1.231m-.848,1.177c-.024.389-.489.591-1.25.876a3.353,3.353,0,0,0-1.7,1.043.408.408,0,0,0-.029.048l-.226.44a.459.459,0,0,0-.029.073,3.2,3.2,0,0,0,.483,2.286c.263.542.513,1.054.33,1.292a8.61,8.61,0,0,1-.722.852c-.283.282-.85.107-1.683-.191a3.726,3.726,0,0,0-2.036-.345l-.324.076a.437.437,0,0,0-.1.038,3.2,3.2,0,0,0-1.3,1.942c-.2.567-.4,1.1-.694,1.138a8.749,8.749,0,0,1-1.114.079c-.452-.006-.79-.653-1.148-1.338a3.976,3.976,0,0,0-1.212-1.62.441.441,0,0,0-.147-.057s-.2-.037-.259-.054a1.893,1.893,0,0,0-.5-.066,5.056,5.056,0,0,0-1.82.491c-.6.243-1.218.495-1.467.291a8.65,8.65,0,0,1-.83-.747c-.261-.278-.077-.756.258-1.51a3.322,3.322,0,0,0,.447-1.965l-.084-.472a1.609,1.609,0,0,0-.306-.75,4.039,4.039,0,0,0-1.7-.914c-.569-.2-1.107-.384-1.145-.683a8.6,8.6,0,0,1-.091-1.112c0-.453.644-.8,1.326-1.162a3.973,3.973,0,0,0,1.607-1.229.425.425,0,0,0,.056-.148s.034-.195.051-.259a3.776,3.776,0,0,0-.45-2.32c-.25-.6-.509-1.212-.307-1.464a8.588,8.588,0,0,1,.738-.838c.311-.3,1.075-.016,1.812.258a3.993,3.993,0,0,0,2.11.4l.051-.015.421-.151a.45.45,0,0,0,.046-.02,3.2,3.2,0,0,0,1.333-1.919c.214-.563.416-1.1.715-1.125a8.859,8.859,0,0,1,1.115-.059c.4.012.66.546,1.014,1.357a3.716,3.716,0,0,0,1.144,1.718l.278.184a.43.43,0,0,0,.1.048,3.2,3.2,0,0,0,2.3-.386c.552-.24,1.075-.468,1.3-.275a8.548,8.548,0,0,1,.821.756c.306.334.066,1.023-.188,1.753a3.98,3.98,0,0,0-.348,1.993.434.434,0,0,0,.059.146s.108.169.138.226a3.778,3.778,0,0,0,1.9,1.4c.588.268,1.2.546,1.217.868a8.484,8.484,0,0,1,.025,1.116" transform="translate(350.918 644.468)" fill="#333"/>
      <rect id="Rectangle_206" data-name="Rectangle 206" width="36" height="36" transform="translate(345 732.667)" fill="none"/>
    </g>
    <g id="Free_Outline_Icon_Pack_singlecolor_5" data-name="Free Outline Icon Pack_singlecolor_5" transform="translate(-254 -710)">
      <path id="Path_566" data-name="Path 566" d="M118.985,117.214h-13.2a.571.571,0,0,1-.571-.571V104.564l-.948,1.088a.575.575,0,0,1-.741.1l-3.986-2.586a.575.575,0,0,1-.252-.372.568.568,0,0,1,.094-.434c.613-.865,3.877-5.255,7.922-6.76a.574.574,0,0,1,.66.2c1.343,1.85,2.867,2.826,4.41,2.826h.017c1.543,0,3.068-.976,4.409-2.824a.576.576,0,0,1,.66-.2c4.046,1.506,7.31,5.9,7.923,6.761a.567.567,0,0,1,.094.434.577.577,0,0,1-.253.373l-3.984,2.584a.573.573,0,0,1-.74-.1l-.948-1.088v12.079a.571.571,0,0,1-.571.571m-12.873-.895h12.548V103.7a.571.571,0,0,1,1-.374l1.331,1.527,3.463-2.247c-.9-1.21-3.7-4.71-7.076-6.074-1.482,1.959-3.2,2.994-4.985,2.994h-.017c-1.782,0-3.5-1.034-4.984-2.994-3.378,1.363-6.18,4.864-7.076,6.074l3.463,2.247,1.332-1.529a.57.57,0,0,1,1,.375ZM120.757,105h0Zm-1.771-1.093h0Zm5.755-1.492h0Zm-24.711,0h0" transform="translate(355.585 644.786)" fill="#333"/>
      <rect id="Rectangle_205" data-name="Rectangle 205" width="36" height="36" transform="translate(450 733)" fill="none"/>
    </g>
    <g id="Free_Outline_Icon_Pack_singlecolor_6" data-name="Free Outline Icon Pack_singlecolor_6" transform="translate(-315 -710.409)">
      <path id="Path_568" data-name="Path 568" d="M219.985,95.38a11.365,11.365,0,1,0,11.365,11.365A11.378,11.378,0,0,0,219.985,95.38m-8.757,16.65a.526.526,0,0,1-.21.163,10.463,10.463,0,0,1-1.134-8.287,2.749,2.749,0,0,1,2.14,1.02,3.059,3.059,0,0,1,.486,2.161.983.983,0,0,1-.109.228c-.092.172-.251.472-.545,1.062-.152.3-.261.491-.337.621a1.054,1.054,0,0,0-.2.787c.006.05.017.12.03.205.067.425.246,1.555-.119,2.04m8.757,5.21a10.485,10.485,0,0,1-8.477-4.318,1.407,1.407,0,0,0,.416-.369,3.806,3.806,0,0,0,.282-2.7c-.011-.072-.02-.13-.025-.171s-.005-.071-.006-.071a1.757,1.757,0,0,1,.1-.176c.082-.141.2-.343.364-.671.289-.579.445-.873.535-1.042a1.733,1.733,0,0,0,.179-.4,3.878,3.878,0,0,0-.623-2.908,3.491,3.491,0,0,0-2.564-1.356,10.494,10.494,0,1,1,9.823,14.185m9.262-11.2a2.468,2.468,0,0,0-1.011-.679,1.854,1.854,0,0,1-1.091-.878l-.022-.053a7.784,7.784,0,0,0-.629-1.225,2.173,2.173,0,0,0-.647-.739,2.549,2.549,0,0,0-1.262-.323c-.515-.053-.736-.059-.868-.063a.525.525,0,0,1-.156-.017,1.186,1.186,0,0,1-.638-.447,1.871,1.871,0,0,0-.741-.569c-.94-.36-1.917.326-2.633.829-2.194,1.545-2.629,3.127-2.608,4.182a2.872,2.872,0,0,0,.743,2.036,2.811,2.811,0,0,0,1.619.755,2.464,2.464,0,0,0,.6.013c.174-.011.41-.026.831-.026h.04a3.7,3.7,0,0,1,.843.047,1.488,1.488,0,0,1,.586.975,6.821,6.821,0,0,1,.091,2.3c-.008.168-.018.322-.027.465a5.987,5.987,0,0,0,.085,1.9c.138.609.215.945.531,1.116a.72.72,0,0,0,.347.084c.657,0,1.629-.746,2.9-2.227,1.61-1.88,4.333-5.858,3.117-7.459m-1.258,3.188c-1.416,2.8-3.936,5.419-4.658,5.619-.037-.116-.083-.318-.128-.515a5.184,5.184,0,0,1-.065-1.652c.009-.146.019-.3.028-.474a7.437,7.437,0,0,0-.127-2.6A2.265,2.265,0,0,0,222,108.1a2.784,2.784,0,0,0-1.218-.133h-.04c-.45,0-.713.017-.888.028a1.669,1.669,0,0,1-.42-.005,1.952,1.952,0,0,1-1.131-.51,2.041,2.041,0,0,1-.487-1.438c-.025-1.21.749-2.4,2.24-3.453.554-.389,1.311-.924,1.818-.727a1.07,1.07,0,0,1,.405.337,2,2,0,0,0,1.074.71,1.348,1.348,0,0,0,.346.042c.119,0,.32.008.8.059.637.067.76.109.874.184.056.036.149.1.39.478a6.974,6.974,0,0,1,.561,1.093l.026.062a2.631,2.631,0,0,0,1.531,1.327,1.873,1.873,0,0,1,.677.413h0c.293.386.082,1.381-.565,2.662" transform="translate(352.139 644.131)" fill="#333"/>
      <rect id="Rectangle_204" data-name="Rectangle 204" width="36" height="36" transform="translate(554 733.409)" fill="none"/>
    </g>
    <g id="Elegant_Themes_Icon_Pack_singlecolor_1" data-name="Elegant Themes Icon Pack_singlecolor_1" transform="translate(-321 -259.667)">
      <path id="Path_430" data-name="Path 430" d="M25.326,6.075H1.027V4.509a1.383,1.383,0,0,1,.451-1.044,1.5,1.5,0,0,1,1.068-.427H13.176a1.584,1.584,0,0,0,1.518-1.519A1.46,1.46,0,0,1,15.146.451,1.458,1.458,0,0,1,16.214,0h7.593a1.459,1.459,0,0,1,1.068.451,1.459,1.459,0,0,1,.451,1.068V6.075ZM1.478,20.81a1.459,1.459,0,0,1-.451-1.068V7.593h24.3V19.743a1.54,1.54,0,0,1-1.519,1.518H2.546a1.459,1.459,0,0,1-1.068-.451m1.068-1.068H23.807V9.112H2.546Z" transform="translate(349.474 334.677)" fill="#333"/>
      <rect id="Rectangle_183" data-name="Rectangle 183" width="36" height="36" transform="translate(345 326.667)" fill="none"/>
    </g>
    <g id="Elegant_Themes_Icon_Pack_singlecolor_2" data-name="Elegant Themes Icon Pack_singlecolor_2" transform="translate(-383 -260.341)">
      <path id="Path_431" data-name="Path 431" d="M105.384,4.362a2.094,2.094,0,0,1-.633-1.539,2.094,2.094,0,0,1,.633-1.539,2.185,2.185,0,0,1,3.077,0L110,2.823,106.923,5.9ZM121.221,20.2,108.959,7.936l2.308-2.308.769-.769L124.3,17.122l1.539,4.615Z" transform="translate(352.85 334.024)" fill="#333"/>
      <rect id="Rectangle_184" data-name="Rectangle 184" width="36" height="36" transform="translate(450 327.341)" fill="none"/>
    </g>
    <g id="Elegant_Themes_Icon_Pack_singlecolor_3" data-name="Elegant Themes Icon Pack_singlecolor_3" transform="translate(-444 -260.448)">
      <path id="Path_429" data-name="Path 429" d="M224.4,1.16a1.585,1.585,0,0,1,.49,1.16V20.463a1.672,1.672,0,0,1-1.649,1.649H201.8a1.672,1.672,0,0,1-1.649-1.649V5.567a1.5,1.5,0,0,1,.489-1.134,1.63,1.63,0,0,1,1.16-.464h11.546a1.72,1.72,0,0,0,1.649-1.649A2.424,2.424,0,0,1,217.416.67h5.824a1.585,1.585,0,0,1,1.16.49m-1.16,1.16h-5.824a.834.834,0,0,0-.49.232,1.853,1.853,0,0,0-.49.7A3.343,3.343,0,0,1,213.5,5.618H201.8V20.463H223.24V2.319Zm-6,10.129a.825.825,0,0,1-.593,1.418h-3.3v3.3a.825.825,0,1,1-1.649,0v-3.3h-3.3a.825.825,0,1,1,0-1.649h3.3v-3.3a.825.825,0,1,1,1.649,0v3.3h3.3a.8.8,0,0,1,.593.232" transform="translate(359.525 333.612)" fill="#333"/>
      <rect id="Rectangle_185" data-name="Rectangle 185" width="36" height="36" transform="translate(554 327.448)" fill="none"/>
    </g>
    <g id="Elegant_Themes_Icon_Pack_singlecolor_4" data-name="Elegant Themes Icon Pack_singlecolor_4" transform="translate(-192 -364)">
      <path id="Path_433" data-name="Path 433" d="M1.192,115.443a13.113,13.113,0,0,0,1.54-2.732,8.224,8.224,0,0,1,.174-12.394,10.155,10.155,0,0,1,7.03-2.608,10.245,10.245,0,0,1,7.054,2.608,8.248,8.248,0,0,1,.05,12.569,10.314,10.314,0,0,1-7.1,2.558A27.96,27.96,0,0,1,6.16,115a9.132,9.132,0,0,1-4.322,1.689.712.712,0,0,1-.7-.4.722.722,0,0,1,.05-.845m3.03-3.577a.749.749,0,0,1,.2.894,11.466,11.466,0,0,1-.745,1.739,10.707,10.707,0,0,0,1.887-1.044.887.887,0,0,1,.6-.1,19.762,19.762,0,0,0,3.825.5,8.727,8.727,0,0,0,5.961-2.087,6.722,6.722,0,0,0-.075-10.333A8.711,8.711,0,0,0,9.96,99.3a8.71,8.71,0,0,0-5.912,2.136,6.619,6.619,0,0,0,.174,10.432m21.163-.795A6.542,6.542,0,0,1,23,116.089a11.615,11.615,0,0,0,1.49,2.335,13.217,13.217,0,0,1-4.372-.646,10.716,10.716,0,0,1-3.825.7,11.119,11.119,0,0,1-4.024-.745,12.7,12.7,0,0,0,7.2-3.6,9.28,9.28,0,0,0,2.881-6.732,9.85,9.85,0,0,0-.2-1.937,6.552,6.552,0,0,1,3.229,5.613" transform="translate(350.541 340.082)" fill="#333"/>
      <rect id="Rectangle_186" data-name="Rectangle 186" width="36" height="36" transform="translate(345 431)" fill="none"/>
    </g>
    <g id="Elegant_Themes_Icon_Pack_singlecolor_5" data-name="Elegant Themes Icon Pack_singlecolor_5" transform="translate(-254 -364)">
      <path id="Path_432" data-name="Path 432" d="M127.41,116.489a1.364,1.364,0,0,1-1.234.7H106.2a1.365,1.365,0,0,1-1.234-.7,1.307,1.307,0,0,1-.022-1.414L114.955,96.4a1.417,1.417,0,0,1,2.513,0l9.964,18.671a1.308,1.308,0,0,1-.023,1.414m-1.234-.741-9.963-18.671L106.2,115.749ZM115.2,103.272a1.464,1.464,0,0,1,2.019,0,1.36,1.36,0,0,1,.427,1.032v4.308a1.436,1.436,0,0,1-2.873,0V104.3a1.359,1.359,0,0,1,.427-1.032m1.01,8.168a1.457,1.457,0,1,1-1.01.427,1.38,1.38,0,0,1,1.01-.427" transform="translate(351.942 342.539)" fill="#333"/>
      <rect id="Rectangle_187" data-name="Rectangle 187" width="36" height="36" transform="translate(450 431)" fill="none"/>
    </g>
    <g id="Elegant_Themes_Icon_Pack_singlecolor_6" data-name="Elegant Themes Icon Pack_singlecolor_6" transform="translate(-315 -364)">
      <path id="Path_434" data-name="Path 434" d="M225.806,106.414a10.773,10.773,0,1,1-3.155-7.616,10.379,10.379,0,0,1,3.155,7.616m-1.346,0a9.41,9.41,0,1,0-2.756,6.669,9.085,9.085,0,0,0,2.756-6.669m-5.744-6.8a4.473,4.473,0,0,1,1.578,3.682,5.029,5.029,0,0,1-2.945,4.629,3.083,3.083,0,0,0-.736.589,1.055,1.055,0,0,0-.358.589,1.329,1.329,0,0,1-.378.946,1.25,1.25,0,0,1-.947.4,1.318,1.318,0,0,1-.968-.4,1.294,1.294,0,0,1-.4-.946,3.157,3.157,0,0,1,.8-2.083,6.1,6.1,0,0,1,1.725-1.452A2.539,2.539,0,0,0,217.6,103.3q0-2.272-2.693-2.272a2.769,2.769,0,0,0-1.872.715,2.536,2.536,0,0,0-.82,2.02,1.331,1.331,0,0,1-.379.947,1.251,1.251,0,0,1-.946.4,1.319,1.319,0,0,1-.968-.4,1.294,1.294,0,0,1-.4-.947,5.035,5.035,0,0,1,1.641-3.976,5.492,5.492,0,0,1,3.745-1.451,5.841,5.841,0,0,1,3.808,1.283m-3.787,12.139a1.286,1.286,0,0,1,.968.421,1.366,1.366,0,0,1,.4.968,1.344,1.344,0,0,1-.4.989,1.318,1.318,0,0,1-.968.4,1.388,1.388,0,0,1-.989-.4,1.285,1.285,0,0,1-.421-.968,1.437,1.437,0,0,1,1.409-1.409" transform="translate(357.062 342.539)" fill="#333"/>
      <path id="Path_582" data-name="Path 582" d="M0,0H36V36H0Z" transform="translate(554 431)" fill="none"/>
    </g>
  </g>
</svg>
